<svg width="49" height="67" viewBox="0 0 49 67" fill="none" xmlns="http://www.w3.org/2000/svg">
<g clip-path="url(#clip0_691_165)">
<path d="M46.9927 0H2.00734C0.898719 0 0 0.904738 0 2.02079V64.9792C0 66.0953 0.898719 67 2.00734 67H46.9927C48.1013 67 49 66.0953 49 64.9792V2.02079C49 0.904738 48.1013 0 46.9927 0Z" fill="#01A784"/>
<path d="M14.6037 6.27148H6.23047V13.9843H14.6037V6.27148Z" fill="white"/>
<path d="M29.1194 6.27148H20.7461V13.9843H29.1194V6.27148Z" fill="white"/>
<path d="M43.6428 6.27148H35.2695V13.9843H43.6428V6.27148Z" fill="white"/>
<path d="M14.6037 16.4639H6.23047V24.1767H14.6037V16.4639Z" fill="white"/>
<path d="M29.1194 16.4639H20.7461V24.1767H29.1194V16.4639Z" fill="white"/>
<path d="M43.6428 16.4639H35.2695V24.1767H43.6428V16.4639Z" fill="white"/>
<path d="M14.6037 26.9629H6.23047V34.6757H14.6037V26.9629Z" fill="white"/>
<path d="M29.1194 26.9629H20.7461V34.6757H29.1194V26.9629Z" fill="white"/>
<path d="M43.6428 26.9629H35.2695V34.6757H43.6428V26.9629Z" fill="white"/>
<path d="M14.6037 37.5654H6.23047V45.2782H14.6037V37.5654Z" fill="white"/>
<path d="M29.1194 37.5654H20.7461V45.2782H29.1194V37.5654Z" fill="white"/>
<path d="M43.6428 37.5654H35.2695V45.2782H43.6428V37.5654Z" fill="white"/>
<path d="M31.9199 49.2959H18.1484V65.422H31.9199V49.2959Z" fill="white"/>
</g>
<defs>
<clipPath id="clip0_691_165">
<rect width="49" height="67" fill="white"/>
</clipPath>
</defs>
</svg>
