<svg width="129" height="128" viewBox="0 0 129 128" fill="none" xmlns="http://www.w3.org/2000/svg">
<mask id="mask0_3651_11147" style="mask-type:alpha" maskUnits="userSpaceOnUse" x="0" y="0" width="129" height="128">
<rect width="129" height="128" fill="#FF0000"/>
</mask>
<g mask="url(#mask0_3651_11147)">
<path d="M15.9886 39.3272C18.9276 39.3272 21.3131 36.9418 21.3131 34.0085C21.3131 31.0752 18.9276 28.6841 15.9886 28.6841C13.0495 28.6841 10.6641 31.0695 10.6641 34.0028C10.6641 36.9361 13.0438 39.3215 15.9886 39.3215V39.3272Z" fill="#DBF8F2"/>
<path d="M16.4301 41.2617H9.14242C8.50896 41.2617 7.95539 41.6897 7.8013 42.3061L0 72.7517L4.78237 73.8417L9.11959 56.1564L7.61868 104.002H13.6794L15.8822 71.559H16.9837" fill="#DBF8F2"/>
<path d="M15.5515 41.2617H22.8391C23.4726 41.2617 24.0262 41.6897 24.1803 42.3061L31.9759 72.7517L27.1935 73.8417L22.8563 56.1564L24.3572 104.002H18.2965L16.0936 71.559H14.9922" fill="#DBF8F2"/>
<path d="M36.8412 30.7283C40.5118 30.7283 43.491 27.7491 43.491 24.0857C43.491 20.4223 40.5118 17.436 36.8412 17.436C33.1706 17.436 30.1914 20.4152 30.1914 24.0786C30.1914 27.742 33.1635 30.7212 36.8412 30.7212V30.7283Z" fill="#77C8B7"/>
<path d="M37.3907 33.1445H28.2891C27.498 33.1445 26.8066 33.6791 26.6142 34.4488L16.8711 72.4725L22.8438 73.8338L28.2606 51.7466L26.3861 111.501H33.9554L36.7065 70.9829H38.0821" fill="#77C8B7"/>
<path d="M36.3 33.1445H45.4017C46.1928 33.1445 46.8842 33.6791 47.0766 34.4488L56.8126 72.4725L50.8398 73.8338L45.4231 51.7466L47.2975 111.501H39.7283L36.9771 70.9829H35.6016" fill="#77C8B7"/>
<path d="M112.996 39.3272C110.057 39.3272 107.671 36.9418 107.671 34.0085C107.671 31.0752 110.057 28.6841 112.996 28.6841C115.935 28.6841 118.32 31.0695 118.32 34.0028C118.32 36.9361 115.941 39.3215 112.996 39.3215V39.3272Z" fill="#DBF8F2"/>
<path d="M112.55 41.2617H119.838C120.472 41.2617 121.025 41.6897 121.179 42.3061L128.98 72.7517L124.198 73.8417L119.861 56.1564L121.362 104.002H115.301L113.098 71.559H111.997" fill="#DBF8F2"/>
<path d="M113.429 41.2617H106.141C105.508 41.2617 104.954 41.6897 104.8 42.3061L97.0046 72.7517L101.787 73.8417L106.124 56.1564L104.623 104.002H110.684L112.887 71.559H113.988" fill="#DBF8F2"/>
<path d="M92.1392 30.7283C88.4687 30.7283 85.4894 27.7491 85.4894 24.0857C85.4894 20.4223 88.4687 17.436 92.1392 17.436C95.8098 17.436 98.7891 20.4152 98.7891 24.0786C98.7891 27.742 95.817 30.7212 92.1392 30.7212V30.7283Z" fill="#77C8B7"/>
<path d="M91.5897 33.1445H100.691C101.482 33.1445 102.174 33.6791 102.366 34.4488L112.109 72.4725L106.137 73.8338L100.72 51.7466L102.594 111.501H95.0251L92.274 70.9829H90.8984" fill="#77C8B7"/>
<path d="M92.6882 33.1445H83.5866C82.7955 33.1445 82.1041 33.6791 81.9117 34.4488L72.1757 72.4725L78.1484 73.8338L83.5652 51.7466L81.6907 111.501H89.26L92.0111 70.9829H93.3867" fill="#77C8B7"/>
<path d="M64.5966 24.544C68.889 24.544 72.373 21.0602 72.373 16.7762C72.373 12.4922 68.889 9 64.5966 9C60.3042 9 56.8203 12.4839 56.8203 16.7678C56.8203 21.0518 60.2959 24.5357 64.5966 24.5357V24.544Z" fill="#01A784"/>
<path d="M65.2379 27.3696H54.5945C53.6693 27.3696 52.8608 27.9947 52.6358 28.8949L41.2422 73.3599L48.2267 74.9518L54.5611 49.1229L52.3691 119H61.2206L64.4378 71.618H66.0464" fill="#01A784"/>
<path d="M63.9613 27.3696H74.6048C75.53 27.3696 76.3384 27.9947 76.5635 28.8949L87.9488 73.3599L80.9642 74.9518L74.6298 49.1229L76.8219 119H67.9704L64.7531 71.618H63.1445" fill="#01A784"/>
</g>
</svg>
