<svg width="164" height="148" viewBox="0 0 164 148" fill="none" xmlns="http://www.w3.org/2000/svg">
<mask id="mask0_3651_11165" style="mask-type:alpha" maskUnits="userSpaceOnUse" x="0" y="0" width="164" height="148">
<rect width="164" height="148" fill="#FF0000"/>
</mask>
<g mask="url(#mask0_3651_11165)">
<path d="M17.0432 29.7236C15.1142 33.8387 8.01907 42.535 3.37272 47.9327C2.44603 49.0093 2.88844 50.6946 4.17694 51.2925C14.8754 56.2569 20.3785 66.2745 33.8647 74.4844C48.4618 83.3706 53.1309 80.5436 69.4748 84.1183C85.8187 87.693 89.2172 79.2545 88.2748 77.6981C87.3325 76.1418 87.6921 62.099 88.1014 60.4332C88.5108 58.7674 91.0195 35.9791 91.8382 32.6475C92.6569 29.3159 94.6084 23.1714 95.8293 16.4058C97.0502 9.64023 80.5087 8.66661 66.4517 4.77072C55.5954 1.76188 33.2419 8.24712 22.3638 12.2308C21.6685 12.4855 21.1826 13.1081 21.0761 13.8408C20.4754 17.9725 19.0577 25.4263 17.0432 29.7236Z" fill="#01A784"/>
<path d="M28.3673 26.7658C27.6191 26.9352 22.2935 25.126 19.7242 24.2002C19.4835 24.1411 19.2352 24.2636 19.1357 24.4906L15.4506 32.8965C15.3434 33.141 15.1888 33.3601 14.9973 33.5461C13.213 35.2786 10.2352 38.5294 10.6333 39.6303C11.0051 40.6582 18.2283 42.0593 23.0396 42.8372C24.0397 42.9989 24.9935 42.3743 25.2546 41.3953C26.8014 35.5951 29.0442 26.6125 28.3673 26.7658Z" fill="#63BCA9"/>
<path d="M32.3531 25.537C33.4257 25.8006 34.0816 26.8838 33.818 27.9565L29.8605 44.0614C29.5969 45.134 28.5137 45.7899 27.441 45.5263L25.495 45.0481C24.4226 44.7843 23.7665 43.7011 24.03 42.6286L27.9876 26.5238C28.2511 25.4512 29.3345 24.7955 30.4071 25.0588L32.3531 25.537ZM29.8727 26.6934C29.7891 26.6728 29.7043 26.7243 29.6836 26.8078L25.46 43.9957C25.4394 44.0793 25.4908 44.1641 25.5744 44.1847C26.4107 44.3901 27.2556 43.8787 27.4611 43.0424L31.015 28.58C31.2203 27.7438 30.7088 26.8989 29.8727 26.6934Z" fill="#009072"/>
<path d="M53.535 51.9394L66.6625 5.70621L66.8672 4.87331L64.785 4.36163L59.5829 3.96649L54.7659 21.7716L49.3634 49.1479L42.9304 78.9206L49.9078 81.0768L53.535 51.9394Z" fill="#77C8B7"/>
<path d="M47.4963 24.4007L54.9072 5.02508L55.1118 4.19218L48.251 5.15584L41.5707 25.1526L36.2634 50.3444L31.5702 73.0374L37.4076 76.2383L47.4963 24.4007Z" fill="#77C8B7"/>
<path d="M84.3274 27.269L89.2537 10.8156L90.189 10.6039L94.0465 12.8766C92.0585 18.5705 88.0621 30.0415 87.9802 30.3746C87.8983 30.7078 85.7373 50.2843 84.667 60.0308L86.2134 82.4908L84.2406 83.3308L79.0456 84.7038L80.8835 50.2691L81.3738 42.8824L84.3274 27.269Z" fill="#77C8B7"/>
<path d="M75.7728 16.0484C76.5238 15.8681 77.3117 16.1367 77.7966 16.7378L90.7074 32.7441C91.0348 33.1501 91.1909 33.6682 91.1421 34.1874L90.1215 45.0316L87.732 63.2635C87.648 63.9035 87.26 64.4634 86.6906 64.7674L68.8687 74.2835C68.1986 74.6412 67.3835 74.589 66.7652 74.1477L30.1804 48.041C29.5137 47.5653 29.2042 46.7308 29.3995 45.9354L34.0045 27.1961C34.1831 26.4697 34.7528 25.9042 35.4801 25.7295L75.7728 16.0484ZM71.6759 34.4923C71.155 33.9835 70.3985 33.7979 69.7012 34.0081L53.331 38.9423C51.821 39.3975 51.4068 41.3399 52.6001 42.3709L67.3811 55.1371C68.0096 55.68 68.9088 55.7781 69.6395 55.3833L82.3284 48.5288C83.5147 47.8879 83.7399 46.2805 82.7755 45.3382L71.6759 34.4923Z" fill="#77C8B7"/>
<path d="M132.667 120.802C133.226 123.989 132.779 134.009 132.486 138.621C132.57 141.085 129.774 145.856 117.923 145.232C106.072 144.607 94.3965 137.813 90.0402 134.495L92.2921 98.9626L104.836 77.2268C112.738 70.9249 129.001 58.5518 130.835 59.4745C133.127 60.6279 140.784 62.0314 153.777 75.1598C164.172 85.6624 162.334 98.5589 160.116 103.694C154.54 106.267 142.803 111.473 140.453 111.709C137.516 112.006 131.969 116.817 132.667 120.802Z" fill="#01A784"/>
<mask id="mask1_3651_11165" style="mask-type:alpha" maskUnits="userSpaceOnUse" x="89" y="59" width="73" height="87">
<path d="M132.163 120.7C132.722 123.887 132.275 133.908 131.982 138.519C132.066 140.983 129.27 145.755 117.419 145.13C108.251 144.647 99.1874 140.471 93.5369 137.069C90.9582 135.516 89.6507 132.589 89.841 129.585L91.6548 100.965C91.7425 99.5809 92.1487 98.2362 92.8417 97.0354L103.48 78.601C104.043 77.6258 104.778 76.7674 105.662 76.0696C113.925 69.543 128.595 58.4994 130.331 59.373C132.623 60.5264 140.28 61.9299 153.273 75.0582C161.887 83.7619 162.101 94.1096 160.659 100.322C160.157 102.481 158.502 104.109 156.481 105.019C150.477 107.723 141.918 111.409 139.949 111.608C137.012 111.904 131.465 116.716 132.163 120.7Z" fill="#97B1D5"/>
</mask>
<g mask="url(#mask1_3651_11165)">
<path d="M118.091 93.934C118.857 85.3171 112.936 80.6161 107.726 78.4905C105.069 77.4066 102.125 78.3956 100.224 80.5448C96.9454 84.2505 92.7373 89.6708 90.4817 94.7401C86.6118 103.437 97.5023 107.482 102.291 108.878C107.08 110.274 116.839 108.004 118.091 93.934Z" fill="white"/>
</g>
<path d="M108.498 76C96.9964 85.5 93 88.5 93 108" stroke="#01A784" stroke-width="2.5"/>
</g>
</svg>
