<svg width="110" height="128" viewBox="0 0 110 128" fill="none" xmlns="http://www.w3.org/2000/svg">
<mask id="mask0_3652_11197" style="mask-type:alpha" maskUnits="userSpaceOnUse" x="0" y="0" width="110" height="128">
<rect width="110" height="128" fill="#FF0000"/>
</mask>
<g mask="url(#mask0_3652_11197)">
<path d="M23.426 24.5937C27.7321 24.5937 31.2271 21.0987 31.2271 16.801C31.2271 12.5034 27.7321 9 23.426 9C19.12 9 15.625 12.495 15.625 16.7927C15.625 21.0904 19.1116 24.5854 23.426 24.5854V24.5937Z" fill="#01A784"/>
<path d="M24.072 27.4282H13.3947C12.4666 27.4282 11.6556 28.0553 11.4298 28.9583L0 73.5656L7.00673 75.1626L13.3613 49.2511L11.1623 119.352H20.0419L23.2694 71.8181H24.8831" fill="#01A784"/>
<path d="M22.7842 27.4282H33.4616C34.3897 27.4282 35.2007 28.0553 35.4265 28.9583L46.8479 73.5656L39.8412 75.1626L33.4866 49.2511L35.6857 119.352H26.806L23.5786 71.8181H21.9648" fill="#01A784"/>
<path d="M85.6136 24.5937C89.9196 24.5937 93.4146 21.0987 93.4146 16.801C93.4146 12.5034 89.9196 9 85.6136 9C81.3075 9 77.8125 12.495 77.8125 16.7927C77.8125 21.0904 81.2991 24.5854 85.6136 24.5854V24.5937Z" fill="#01A784"/>
<path d="M85.9582 27.4282H75.2809C74.3528 27.4282 73.5418 28.0553 73.316 28.9583L61.8945 73.5656L68.9013 75.1626L75.2558 49.2511L73.0568 119.352H81.9365L85.1639 71.8181H86.7776" fill="#01A784"/>
<path d="M75.9157 49.2427L69.3438 88.0724H86.894V49.1006L75.9157 49.2427Z" fill="#01A784"/>
<path d="M85.2803 27.4282H95.9577C96.8858 27.4282 97.6968 28.0553 97.9226 28.9583L109.344 73.5656L102.337 75.1626L95.9827 49.2511L98.1818 119.352H89.3021L86.0747 71.8181H84.4609" fill="#01A784"/>
<path d="M95.3226 49.2427L101.886 88.0724H84.3359V49.1006L95.3226 49.2427Z" fill="#01A784"/>
</g>
</svg>
