<svg width="113" height="128" viewBox="0 0 113 128" fill="none" xmlns="http://www.w3.org/2000/svg">
<mask id="mask0_3652_11201" style="mask-type:alpha" maskUnits="userSpaceOnUse" x="0" y="0" width="113" height="128">
<rect width="113" height="128" fill="#FF0000"/>
</mask>
<g mask="url(#mask0_3652_11201)">
<path d="M101.785 5.00001C100.341 7.12246 99.4961 9.68636 99.4961 12.4473C99.4963 19.754 105.41 25.6785 112.712 25.6983C110.327 29.2028 106.308 31.5057 101.749 31.5059C94.4299 31.5059 88.4961 25.5721 88.4961 18.2529C88.4961 10.9338 94.4299 5.00001 101.749 5.00001C101.761 5.00001 101.773 4.99998 101.785 5.00001Z" fill="#01A784"/>
<path fill-rule="evenodd" clip-rule="evenodd" d="M61.8039 47.694C66.1062 47.694 69.5839 44.1799 69.5839 39.8429C69.5839 35.5058 66.1062 32 61.8039 32C57.5016 32 54.0156 35.5141 54.0156 39.8511C54.0156 44.1882 57.5016 47.7022 61.8039 47.7022V47.694Z" fill="#01A784"/>
<path fill-rule="evenodd" clip-rule="evenodd" d="M47.4805 74.9337C46.6315 78.7029 45.8723 81.9207 45.8723 81.9207L30.0672 83.9946C29.5856 83.937 29.0957 84.3156 28.5978 84.3485C25.218 84.5213 22.4096 86.6775 21.2259 89.6484L9.98438 116.699L18.3849 121.185L27.8793 102.956L30.2387 97.8534L52.3298 98.52C57.7261 98.52 62.208 94.5368 63.0162 89.3192L66.2572 53.1168C66.3388 52.6066 66.0123 52.1128 65.498 52.0058C64.306 51.7424 63.0652 51.6025 61.7916 51.6025C59.3996 51.6025 59.5629 52.0881 57.4893 52.9769C57.4893 52.9769 52.3706 55.7503 51.0644 59.9557C50.6317 61.3547 49.9052 64.2763 49.1378 67.5352" fill="#01A784"/>
<path fill-rule="evenodd" clip-rule="evenodd" d="M67.1478 62.5322L63.2537 99.3519H37.2031V104.446H67.2131L71.646 63.7585L67.1478 62.5322Z" fill="#01A784"/>
<path d="M61.9102 60.1044L43.5091 75.7655L37.8516 69.0089L56.4731 53.5947L61.9102 60.1044Z" fill="#01A784"/>
<path d="M29.3945 63.8654L43.4689 75.8396L47.2242 70.4903L32.4886 58.7959L29.3945 63.8654Z" fill="#01A784"/>
<path d="M37.6186 76.2266H0V78.8601H37.6186V76.2266Z" fill="#01A784"/>
<path d="M6.64453 50.377L13.9838 71.1569H26.458" stroke="#01A784" stroke-width="4" stroke-miterlimit="10"/>
</g>
</svg>
