<svg width="136" height="128" viewBox="0 0 136 128" fill="none" xmlns="http://www.w3.org/2000/svg">
<mask id="mask0_3652_11284" style="mask-type:alpha" maskUnits="userSpaceOnUse" x="0" y="0" width="136" height="128">
<rect width="136" height="128" fill="#FF0000"/>
</mask>
<g mask="url(#mask0_3652_11284)">
<path d="M33.8857 11.5381C35.2122 11.1015 36.6265 11.7361 37.1787 12.959L37.2773 13.2119L68.8711 107.317V107.318C69.3359 108.731 68.5861 110.242 67.2051 110.707C66.9054 110.801 66.6179 110.853 66.3398 110.853H66.3193C65.2664 110.852 64.2917 110.226 63.8652 109.236L63.7871 109.033L32.2129 14.9258C31.7491 13.5123 32.5013 11.9997 33.8848 11.5371L33.8857 11.5381Z" fill="#01A784" stroke="white" stroke-width="0.8"/>
<path d="M32.937 24.3007C1.30097 37.197 3.08472 70.0222 3.08472 70.0222C10.5068 60.2218 29.39 58.4175 36.361 63.1537C38.1447 51.7131 57.7865 47.3664 64.4089 50.2984C74.7219 37.0945 91.1037 39.1653 91.1037 39.1653C91.1037 39.1653 70.5393 8.98498 32.9575 24.3007H32.937Z" fill="white"/>
<path d="M31.9785 21.9141C51.5411 13.9426 66.7892 17.824 77.1807 23.7207C86.2912 28.8907 91.68 35.618 92.9463 37.3086L93.2354 37.7061C93.8016 38.5504 93.8338 39.6297 93.3018 40.5049C92.7667 41.3643 91.7873 41.8438 90.7744 41.7236L90.7666 41.7227L90.4961 41.6963C88.3745 41.5108 75.0972 40.7851 66.415 51.8975L66.4141 51.8984C65.6931 52.825 64.4226 53.1505 63.3428 52.6709C61.811 51.9889 59.0333 51.798 55.8857 52.1934C52.7128 52.5919 49.0723 53.5965 45.7793 55.3945C43.0521 56.8821 39.5154 59.527 38.8818 63.5684C38.7445 64.4433 38.1809 65.1801 37.376 65.543C36.5589 65.8907 35.6137 65.8157 34.9033 65.3252L34.8994 65.3232L34.6035 65.1318C33.0798 64.1997 30.9704 63.6136 28.5928 63.3584C26.0471 63.0852 23.1485 63.1869 20.2354 63.6807C14.4293 64.6647 8.45609 67.2277 5.12793 71.625C4.74337 72.1289 4.20972 72.4669 3.61914 72.5977H3.08594C2.82739 72.5976 2.59399 72.5636 2.3418 72.4795L2.33496 72.4775L2.32715 72.4746C1.29921 72.166 0.563756 71.2424 0.509766 70.1689C0.487071 69.2236 -0.70083 35.2356 31.9785 21.9141ZM84.8779 35.8398C77.4799 28.4004 60.133 16.0027 33.918 26.6875C12.936 35.2298 7.46229 52.8466 6.07617 62.7354L5.92578 63.8086L6.83984 63.2266C10.9103 60.6372 15.8879 58.9973 20.8057 58.3389C25.7264 57.6801 30.5491 58.0095 34.3115 59.3203L34.7354 59.4678L34.9277 59.0625C36.4507 55.8584 39.2741 53.0576 43.3057 50.8604H43.3066C49.496 47.4826 57.8202 46.0806 63.2373 47.2598L63.5234 47.3223L63.7178 47.1045C70.3525 39.6632 78.7462 37.3376 84.5791 36.6895L85.6094 36.5742L84.8779 35.8398Z" fill="#01A784" stroke="white"/>
<path d="M36.4852 22.9678C24.1629 36.3767 36.3622 63.133 36.3622 63.133C36.3622 63.133 38.515 53.5581 48.1103 51.4873C57.7262 49.4165 64.4102 50.2777 64.4102 50.2777C64.4102 50.2777 59.3049 25.0386 36.4852 22.9473V22.9678Z" fill="#01A784"/>
<path d="M101.569 101.392H47.1335C44.3041 101.392 42.0078 99.0954 42.0078 96.2659C42.0078 93.4365 44.3041 91.1402 47.1335 91.1402H99.4775L124.163 66.9468C126.193 64.958 129.432 64.999 131.421 67.0288C133.41 69.0586 133.369 72.298 131.339 74.2868L105.157 99.936C104.193 100.879 102.901 101.392 101.569 101.392Z" fill="#01A784"/>
<path d="M39.874 97.4268C40.4692 95.9487 42.1371 95.222 43.6113 95.8154C45.0896 96.4106 45.8162 98.0794 45.2227 99.5537V99.5547L39.3379 114.398V114.399C38.8975 115.529 37.8045 116.22 36.6738 116.22H36.6533C36.3061 116.22 35.9455 116.162 35.6074 116.012L35.6006 116.009C34.1224 115.414 33.3957 113.745 33.9893 112.271V112.27L39.874 97.4268Z" fill="#01A784" stroke="white" stroke-width="0.4"/>
<path d="M104.327 97.1533C105.84 96.6937 107.452 97.5559 107.912 99.0908L111.931 112.52V112.521C112.362 113.939 111.631 115.444 110.273 116.006L109.996 116.104C109.728 116.181 109.439 116.22 109.17 116.22C107.924 116.22 106.792 115.415 106.408 114.167L102.391 100.739L102.39 100.738L102.319 100.454C102.041 99.0286 102.888 97.586 104.327 97.1543V97.1533Z" fill="#01A784" stroke="white" stroke-width="0.4"/>
<path d="M127.829 62.915C129.889 62.9343 131.814 63.7613 133.26 65.2266C134.704 66.6903 135.492 68.6323 135.453 70.6895V70.6943C135.434 72.7532 134.608 74.6771 133.144 76.123L106.961 101.772L106.96 101.773C105.518 103.196 103.595 103.967 101.57 103.967H47.1348C42.8798 103.967 39.4336 100.521 39.4336 96.2656C39.4336 92.0107 42.8798 88.5645 47.1348 88.5645H98.4326L98.5781 88.4219L122.361 65.1094L122.362 65.1084C123.824 63.666 125.746 62.8959 127.829 62.915Z" fill="#01A784" stroke="white"/>
</g>
</svg>
