<svg width="130" height="90" viewBox="0 0 130 90" fill="none" xmlns="http://www.w3.org/2000/svg">
<path d="M35.2773 0.351562C36.7052 0.399973 38.0369 1.07796 38.9209 2.2041L38.9219 2.20605L46.7227 12.0049C47.8004 13.3613 48.0431 15.0915 47.5098 16.6309L47.4229 16.8789L47.6387 17.0312C48.8339 17.8738 50.5769 18.9793 52.4229 20.1348L54.2871 21.2988C57.7053 23.4303 61.1962 25.6031 63.584 27.3584L63.8662 27.5654L64.0732 27.2842C65.7493 25.0105 66.9758 23.3827 67.5137 22.7295C68.6551 21.3492 70.769 20.2463 73.4053 19.3799C76.0288 18.5177 79.1149 17.9083 82.1416 17.4814L82.5986 17.416L82.4131 16.9932C81.6979 15.3689 81.892 13.4567 83.0547 11.9912L83.0537 11.9902L90.8525 2.19336L90.8535 2.19434C91.7519 1.07737 93.0724 0.400049 94.499 0.351562C95.9702 0.315824 97.299 0.873573 98.2666 1.92578L128.132 34.4512V34.4521C129.767 36.2334 129.864 38.8957 128.362 40.7852L120.562 50.583C119.664 51.7001 118.344 52.3774 116.917 52.4258H116.747L116.494 52.4189C115.232 52.3529 114.038 51.7943 113.162 50.8506H113.161L112.788 50.4375L112.546 50.1709L112.286 50.4209C107.444 55.0816 96.1121 64.495 91.709 67.7715L91.7041 67.7744C91.5772 67.872 91.41 67.9481 91.2168 68.0254L90.8887 68.1572L91.0234 68.4834C91.0679 68.5913 91.1082 68.6947 91.1436 68.79L91.2324 69.0508C91.6051 70.3994 91.2862 71.8643 90.5469 73.2119C89.8065 74.5614 88.6622 75.7585 87.4561 76.5459L87.4551 76.5469C86.1449 77.4078 84.7575 77.8261 83.3906 77.8262C82.6688 77.8262 81.9539 77.6912 81.2578 77.4551L80.957 77.3535L80.8262 77.6416C80.0402 79.3757 78.6927 80.8622 76.8672 81.8379C75.5894 82.5143 74.256 82.8486 73.0068 82.8486C72.2073 82.8486 71.4584 82.7011 70.7578 82.4307L70.458 82.3154L70.3174 82.6035C69.5418 84.19 68.3169 85.5732 66.7939 86.457L66.4863 86.626C65.4297 87.173 64.3293 87.4433 63.2598 87.4434C62.3433 87.4434 61.4452 87.2238 60.5898 86.8271L60.2822 86.6836L60.1299 86.9883C59.779 87.69 59.2601 88.3044 58.5742 88.7617L58.5713 88.7637C58.0108 89.1452 56.9622 89.6503 55.4072 89.6504C53.6264 89.6504 51.1275 88.9788 47.8955 86.5918L47.2393 86.0908C46.219 85.2867 44.2576 83.3844 41.7471 80.8057C39.243 78.2336 36.2081 75.0049 33.0469 71.5615C26.723 64.6732 19.9019 56.9342 15.8203 51.8809L15.6348 51.6514L15.377 51.7949C14.6552 52.1986 13.8563 52.4385 13.0293 52.4385H12.8604C11.4322 52.3901 10.1 51.7119 9.21582 50.5977H9.21484L1.41504 40.7979H1.41406C-0.0403218 38.9675 0.00496388 36.412 1.49609 34.6348L1.64551 34.4648L31.5107 1.92578C32.4181 0.939262 33.6543 0.386756 35.0078 0.351562H35.2773ZM44.4023 20.623L19.0283 48.2422L18.8252 48.4639L19.0127 48.6982C23.1086 53.8083 29.9418 61.5541 36.2041 68.3779C39.336 71.7906 42.3275 74.9749 44.7646 77.4863C47.1944 79.9902 49.0915 81.8436 50.0254 82.5781C53.0916 84.9891 55.0222 85.2819 55.7773 85.1533L56.1289 85.0938L56.0625 84.7432C55.974 84.2787 56.0502 83.8093 56.2539 83.3906L56.3574 83.1768L56.1973 83.002C52.6351 79.103 47.9003 73.1233 46.1895 70.4092L46.1885 70.4082C45.527 69.3651 45.8413 67.9722 46.8857 67.3096C47.9288 66.6479 49.3217 66.9615 49.9844 68.0059V68.0049C51.2046 69.9402 53.7094 73.1772 56.1621 76.1201C57.3904 77.5939 58.6097 78.9997 59.6543 80.1367C60.6906 81.2647 61.5739 82.1492 62.125 82.5674V82.5684C62.2418 82.6577 62.5025 82.8587 62.8984 82.9424C63.3023 83.0277 63.8075 82.9835 64.4102 82.6641L64.4092 82.6631C65.6291 82.0239 66.5658 80.6259 66.7217 79.2939L66.7412 79.1328L66.6299 79.0137C64.7573 77.0119 62.7915 74.6199 60.9863 72.4121V72.4111L59.5752 70.6992C58.1959 69.0334 56.9322 67.5499 55.9736 66.6309C55.0872 65.7645 55.0551 64.3524 55.917 63.4551C56.7837 62.5658 58.1987 62.5341 59.0967 63.3984V63.3975C60.5448 64.7944 62.4381 67.0989 64.4551 69.5713L64.4561 69.5723C66.9758 72.6347 69.8513 76.1653 72.0977 78.124V78.125C72.2236 78.2383 72.3924 78.3055 72.5615 78.3438C72.7369 78.3833 72.9417 78.3976 73.165 78.3838C73.6125 78.356 74.1571 78.2129 74.7422 77.8994C75.8135 77.3415 76.8805 76.2315 77.0664 74.6875L77.0859 74.5234L76.9717 74.4043C75.0822 72.4249 73.2274 69.9128 71.2773 67.2607C69.8487 65.3219 68.3704 63.3099 66.876 61.541L66.2344 60.7979C65.4132 59.8631 65.4946 58.4501 66.4238 57.6328L66.4258 57.6318C67.3578 56.8009 68.7704 56.8905 69.5898 57.8223L69.5908 57.8232C71.4338 59.8982 73.1761 62.2839 74.8926 64.5986V64.5996C76.7702 67.1506 78.5893 69.612 80.3096 71.3848L80.3467 71.4229L80.3926 71.4482C80.7453 71.6417 81.0354 71.9116 81.2344 72.2432L81.2617 72.2891L81.3018 72.3242C81.3596 72.3756 81.4208 72.4302 81.4824 72.4854L81.665 72.6484L81.6748 72.6572C82.1167 73.022 82.5698 73.2562 83.0537 73.3301C83.4795 73.395 83.902 73.3314 84.3291 73.1602L84.5127 73.0801C85.2113 72.7521 85.7741 72.2238 86.1709 71.7148C86.5586 71.2176 86.8261 70.6893 86.8779 70.335L86.8916 70.2422L86.8564 70.1543C86.6764 69.706 86.201 68.9015 85.5645 67.9062C84.9209 66.9 84.0927 65.6691 83.1875 64.3516C82.2821 63.0336 81.2975 61.6264 80.3398 60.2686L77.6533 56.4795C75.8094 53.8824 74.1507 51.5495 72.959 49.8008L72.7441 49.4863L72.4482 49.7266C68.0027 53.3455 61.0947 57.6436 55.6152 59.3672L55.0889 59.5264C54.1861 59.7897 53.2842 59.914 52.4092 59.9141C49.9308 59.9141 47.7376 58.9016 46.4912 57.1299H46.4902C45.2544 55.3599 45.2894 53.1741 46.5781 51.4111L49.915 46.7891C53.7568 41.4677 57.7674 35.9258 61.0117 31.4746L61.2168 31.1934L60.9355 30.9863C58.6766 29.3281 54.9892 27.0359 51.9053 25.1182H51.9062C49.0598 23.3375 46.553 21.7738 44.8633 20.5742L44.6113 20.3955L44.4023 20.623ZM86.041 21.5107C81.8728 21.9471 78.4193 22.6061 75.8652 23.3232C74.5887 23.6817 73.5301 24.0557 72.7168 24.4277C71.9159 24.7941 71.3108 25.1761 70.9854 25.5674L70.9844 25.5693C69.2621 27.67 58.6605 42.3518 53.5791 49.3906L53.5781 49.3916C51.9174 51.701 50.6716 53.4137 50.2178 54.0361L50.1338 54.1514L50.1543 54.293C50.173 54.4191 50.2364 54.5267 50.2979 54.6064C50.3628 54.6906 50.4464 54.77 50.541 54.8428C50.7311 54.989 50.9892 55.125 51.3027 55.2256C51.9334 55.4279 52.8064 55.4925 53.8564 55.1885L53.8555 55.1875C57.3711 54.1736 61.5175 51.92 65.0381 49.5908C68.5507 47.2669 71.4993 44.8293 72.5947 43.4248H72.5957C73.1439 42.72 74.0632 42.4141 74.9297 42.6387V42.6396C79.706 43.889 83.9185 44.7275 88.9453 44.7275H88.9971C90.2315 44.7275 91.2431 45.7393 91.2432 46.9736V46.9766C91.2542 48.2161 90.2107 49.1957 88.9395 49.2188C84.9485 49.2183 81.4708 48.743 77.9092 47.9688L77.0381 47.7793L77.5479 48.5107C78.6261 50.0567 79.9512 51.9273 81.3271 53.8613V53.8604C84.508 58.3395 86.8661 61.6828 88.4844 64.1426L88.7207 64.502L89.0244 64.1982V64.1973L89.0264 64.1963V64.1953H89.0273V64.1943C89.0287 64.1929 89.0269 64.1948 89.0283 64.1934L89.0293 64.1924H89.0303V64.1914C89.0315 64.1902 89.0301 64.1926 89.0312 64.1914V64.1904C89.0319 64.1898 89.0314 64.1912 89.0322 64.1904V64.1895H89.0332L89.0342 64.1885V64.1875H89.0352L89.0371 64.1855V64.1846C89.0377 64.184 89.0372 64.1854 89.0381 64.1846V64.1836H89.0391L89.04 64.1826V64.1816H89.041L89.042 64.1807V64.1797H89.043L89.0439 64.1777L89.0449 64.1768H89.0459C89.0468 64.1758 89.0452 64.1765 89.0459 64.1758H89.0469L89.0488 64.1738V64.1729C89.0497 64.172 89.0489 64.1738 89.0498 64.1729L89.0508 64.1719V64.1709H89.0518L89.0527 64.1689H89.0537V64.168H89.0547V64.167H89.0557V64.166H89.0566L89.0586 64.1641L89.0596 64.1631L89.0635 64.1592V64.1582H89.0645V64.1572H89.0654V64.1562H89.0664V64.1553H89.0674V64.1543H89.0684L89.0693 64.1533L89.0703 64.1523V64.1514H89.0713L89.0723 64.1504V64.1494H89.0732V64.1484H89.0742L89.0752 64.1475V64.1465H89.0762L89.1143 64.1074C93.6548 60.7134 105.022 51.2249 109.268 47.1084L109.513 46.8711L109.282 46.6201L86.335 21.6221L86.2158 21.4922L86.041 21.5107Z" fill="#01A784" stroke="white" stroke-width="0.7"/>
</svg>
