<svg width="133" height="128" viewBox="0 0 133 128" fill="none" xmlns="http://www.w3.org/2000/svg">
<mask id="mask0_3652_11199" style="mask-type:alpha" maskUnits="userSpaceOnUse" x="0" y="0" width="133" height="128">
<rect width="133" height="128" fill="#FF0000"/>
</mask>
<g mask="url(#mask0_3652_11199)">
<g clip-path="url(#clip0_3652_11199)">
<path d="M63.2962 5H2.70377C1.21052 5 0 6.21532 0 7.71449V92.2855C0 93.7847 1.21052 95 2.70377 95H63.2962C64.7895 95 66 93.7847 66 92.2855V7.71449C66 6.21532 64.7895 5 63.2962 5Z" fill="#01A784"/>
<path d="M19.6689 13.4248H8.39062V23.7853H19.6689V13.4248Z" fill="white"/>
<path d="M39.2197 13.4248H27.9414V23.7853H39.2197V13.4248Z" fill="white"/>
<path d="M58.7822 13.4248H47.5039V23.7853H58.7822V13.4248Z" fill="white"/>
<path d="M19.6689 27.1162H8.39062V37.4767H19.6689V27.1162Z" fill="white"/>
<path d="M39.2197 27.1162H27.9414V37.4767H39.2197V27.1162Z" fill="white"/>
<path d="M58.7822 27.1162H47.5039V37.4767H58.7822V27.1162Z" fill="white"/>
<path d="M19.6689 41.2183H8.39062V51.5787H19.6689V41.2183Z" fill="white"/>
<path d="M39.2197 41.2183H27.9414V51.5787H39.2197V41.2183Z" fill="white"/>
<path d="M58.7822 41.2188H47.5039V51.5792H58.7822V41.2188Z" fill="white"/>
<path d="M19.6689 55.4614H8.39062V65.8219H19.6689V55.4614Z" fill="white"/>
<path d="M39.2197 55.4614H27.9414V65.8219H39.2197V55.4614Z" fill="white"/>
<path d="M58.7822 55.4614H47.5039V65.8219H58.7822V55.4614Z" fill="white"/>
<path d="M42.9908 71.2188H24.4414V92.8806H42.9908V71.2188Z" fill="white"/>
</g>
<path d="M94.4485 59.0698C91.1198 59.0698 88.4102 56.367 88.4102 53.0383C88.4102 49.7097 91.1198 47 94.4485 47C97.7771 47 100.48 49.7028 100.48 53.0315C100.48 56.3601 97.7771 59.0629 94.4485 59.0629V59.0698Z" fill="#01A784"/>
<g clip-path="url(#clip1_3652_11199)">
<path d="M123.151 83.7047L122.274 84.1704L120.877 81.5397C119.909 81.5346 118.706 81.8358 117.79 82.3219C116.875 82.808 115.952 83.6367 115.414 84.4405L116.81 87.0712L115.933 87.537L114.3 84.4612C114.22 84.3093 114.223 84.1272 114.309 83.9788C114.908 82.9435 116.051 81.8729 117.223 81.251C118.394 80.6292 119.921 80.2816 121.114 80.3655C121.285 80.3771 121.438 80.477 121.519 80.6283L123.152 83.7041L123.151 83.7047Z" fill="#01A784"/>
<path d="M123.336 84.0563L122.459 84.522C122.265 84.6248 122.024 84.5509 121.921 84.3569L120.639 81.9425C119.774 81.9823 118.754 82.26 117.976 82.6734C117.197 83.0869 116.396 83.7768 115.878 84.4706L117.16 86.885C117.263 87.079 117.189 87.3199 116.996 87.4228L116.119 87.8885C115.925 87.9914 115.684 87.9174 115.581 87.7234L113.948 84.6476C113.802 84.373 113.808 84.048 113.964 83.7794C114.596 82.6845 115.802 81.554 117.034 80.9C118.266 80.2459 119.878 79.8803 121.14 79.9691C121.449 79.9906 121.721 80.168 121.867 80.4426L123.5 83.5184C123.603 83.7125 123.53 83.9534 123.336 84.0563ZM122.436 83.6327L122.612 83.5397L121.165 80.8153C121.149 80.785 121.119 80.7653 121.084 80.763C119.96 80.6844 118.517 81.0136 117.406 81.6032C116.296 82.1929 115.215 83.2039 114.65 84.1791C114.633 84.209 114.632 84.2452 114.648 84.2755L116.095 86.9999L116.27 86.9069L115.06 84.6276C114.991 84.498 114.999 84.3412 115.08 84.2194C115.662 83.3486 116.628 82.4869 117.601 81.9705C118.573 81.4542 119.828 81.1367 120.875 81.1424C121.022 81.1433 121.156 81.2245 121.225 81.3541L122.435 83.6333L122.436 83.6327Z" fill="#01A784"/>
<path d="M128.626 83.8957L126.863 80.575C126.736 80.3364 126.437 80.2447 126.199 80.3712L111.468 88.1928C111.23 88.3193 111.139 88.6181 111.266 88.8568L113.029 92.1774L121.785 89.8404L128.626 83.8957Z" fill="#01A784"/>
<path d="M121.97 90.1919C121.944 90.2061 121.915 90.2171 121.886 90.2247L113.13 92.5617C112.951 92.6096 112.763 92.5275 112.676 92.3638L110.913 89.0432C110.683 88.6099 110.848 88.0711 111.28 87.8414L126.011 80.0198C126.444 79.7901 126.982 79.9555 127.212 80.3888L128.975 83.7094C129.062 83.8731 129.025 84.0748 128.885 84.1959L122.045 90.1406C122.022 90.1606 121.997 90.1778 121.97 90.1919ZM113.23 91.7116L121.592 89.4797L128.125 83.8026L126.51 80.7615C126.487 80.7168 126.429 80.6991 126.384 80.7227L111.654 88.5443C111.609 88.568 111.591 88.6259 111.615 88.6705L113.23 91.7116Z" fill="#01A784"/>
<path d="M121.784 89.8407L113.027 92.1777L116.239 98.2264C116.366 98.4651 116.664 98.5568 116.903 98.4303L131.633 90.6087C131.872 90.4822 131.963 90.1834 131.836 89.9447L128.625 83.896L121.784 89.8407Z" fill="#01A784"/>
<path d="M131.823 90.9601L117.092 98.7817C116.659 99.0115 116.121 98.8461 115.891 98.4128L112.679 92.3641C112.622 92.2568 112.617 92.1298 112.665 92.0185C112.713 91.9072 112.81 91.8242 112.927 91.7928L121.595 89.479L128.367 83.5946C128.458 83.5152 128.581 83.4818 128.701 83.5041C128.82 83.5267 128.922 83.6017 128.979 83.709L132.191 89.7577C132.421 90.191 132.257 90.7297 131.824 90.9595L131.823 90.9601ZM113.616 92.4333L116.593 98.0401C116.616 98.0847 116.674 98.1024 116.719 98.0788L131.449 90.2572C131.494 90.2335 131.512 90.1757 131.488 90.131L128.511 84.5243L122.047 90.1411C122.001 90.1805 121.947 90.2091 121.889 90.2249L113.616 92.4333Z" fill="#01A784"/>
<path d="M122.717 88.3268C122.772 88.2976 123.622 89.8805 123.559 89.9137L120.848 91.3536C120.783 91.3877 119.952 89.7946 120.005 89.7667L122.717 88.3268Z" fill="#01A784"/>
<path d="M123.748 90.2647L121.037 91.7046C120.682 91.893 120.462 91.526 120.356 91.3493C120.277 91.2181 120.174 91.0329 120.065 90.8289C119.95 90.612 119.839 90.3915 119.76 90.2236C119.643 89.9765 119.467 89.6028 119.821 89.4145L122.533 87.9746C122.888 87.7863 123.096 88.136 123.233 88.3669C123.323 88.5197 123.44 88.7301 123.554 88.9445C123.668 89.159 123.763 89.3469 123.831 89.4916C123.926 89.6952 124.103 90.0755 123.749 90.2638L123.748 90.2647ZM120.976 90.8357L123.062 89.7278C122.936 89.4706 122.736 89.0953 122.592 88.8445L120.509 89.9505C120.636 90.2114 120.834 90.5874 120.976 90.8357Z" fill="#01A784"/>
</g>
<path d="M100.921 59.0562L93.5209 62.2541C93.5209 62.2541 91.0382 66.5456 89.2019 69.4685C88.6173 70.3969 80 85.5134 80 85.5134L84.1608 88.3125L94.9445 74.1932L96.5676 84.7775L92.2142 100.774L85.0686 122.397H90.9144L99.4905 103.319L104.999 93.9244L108.974 104.082L120.535 120.87L125.212 116.675L116.505 100.905L111.175 86.9164L106.127 69.7298L109.229 74.2001L114.813 84.1173L119.359 80.6855L112.612 69.2759C110.48 65.6722 107.406 62.6874 103.713 60.6242L100.914 59.063L100.921 59.0562Z" fill="#01A784"/>
</g>
<defs>
<clipPath id="clip0_3652_11199">
<rect width="66" height="90" fill="white" transform="translate(0 5)"/>
</clipPath>
<clipPath id="clip1_3652_11199">
<rect width="18.4543" height="15.8179" fill="white" transform="translate(108.887 85.2271) rotate(-27.9672)"/>
</clipPath>
</defs>
</svg>
