<svg width="223" height="165" viewBox="0 0 223 165" fill="none" xmlns="http://www.w3.org/2000/svg">
<rect x="126" width="65" height="31" rx="5" fill="#F1F7F6"/>
<path d="M147.02 9.828C147.141 9.996 147.267 10.1967 147.398 10.43C147.538 10.6633 147.673 10.8967 147.804 11.13C147.935 11.3633 148.042 11.5687 148.126 11.746L147.006 12.236C146.857 11.9467 146.684 11.62 146.488 11.256C146.292 10.8827 146.101 10.5607 145.914 10.29L147.02 9.828ZM148.672 9.198C148.793 9.37533 148.924 9.58533 149.064 9.828C149.213 10.0613 149.353 10.2947 149.484 10.528C149.615 10.752 149.722 10.9433 149.806 11.102L148.686 11.578C148.546 11.2887 148.369 10.962 148.154 10.598C147.949 10.234 147.753 9.92133 147.566 9.66L148.672 9.198ZM138.788 16.646C138.947 16.254 139.096 15.8433 139.236 15.414C139.385 14.9753 139.516 14.5273 139.628 14.07C139.74 13.6033 139.838 13.1413 139.922 12.684C140.015 12.2267 140.081 11.774 140.118 11.326L142.162 11.746C142.125 11.8767 142.083 12.0307 142.036 12.208C141.989 12.3853 141.947 12.558 141.91 12.726C141.873 12.894 141.845 13.034 141.826 13.146C141.779 13.3887 141.714 13.6827 141.63 14.028C141.546 14.3733 141.448 14.742 141.336 15.134C141.224 15.5167 141.107 15.904 140.986 16.296C140.874 16.6787 140.757 17.0333 140.636 17.36C140.468 17.808 140.267 18.2747 140.034 18.76C139.81 19.2453 139.567 19.712 139.306 20.16C139.054 20.608 138.807 21.0093 138.564 21.364L136.604 20.538C137.052 19.9593 137.467 19.32 137.85 18.62C138.242 17.92 138.555 17.262 138.788 16.646ZM145.704 16.352C145.564 15.9787 145.41 15.582 145.242 15.162C145.074 14.742 144.897 14.322 144.71 13.902C144.523 13.482 144.341 13.0853 144.164 12.712C143.987 12.3387 143.823 12.0167 143.674 11.746L145.536 11.144C145.676 11.4147 145.839 11.7413 146.026 12.124C146.213 12.5067 146.399 12.9127 146.586 13.342C146.773 13.762 146.955 14.182 147.132 14.602C147.309 15.022 147.468 15.4 147.608 15.736C147.729 16.044 147.86 16.408 148 16.828C148.149 17.248 148.299 17.6867 148.448 18.144C148.607 18.592 148.751 19.0307 148.882 19.46C149.022 19.8893 149.139 20.2767 149.232 20.622L147.16 21.294C147.039 20.7433 146.899 20.1833 146.74 19.614C146.581 19.0447 146.413 18.4847 146.236 17.934C146.068 17.3833 145.891 16.856 145.704 16.352ZM163.176 11.508C163.12 11.592 163.036 11.7227 162.924 11.9C162.821 12.0773 162.742 12.2407 162.686 12.39C162.49 12.8287 162.247 13.3187 161.958 13.86C161.678 14.4013 161.356 14.9473 160.992 15.498C160.637 16.0393 160.259 16.548 159.858 17.024C159.335 17.612 158.757 18.1953 158.122 18.774C157.497 19.3433 156.834 19.8707 156.134 20.356C155.443 20.832 154.734 21.2427 154.006 21.588L152.564 20.076C153.32 19.7867 154.053 19.4227 154.762 18.984C155.471 18.5453 156.129 18.0693 156.736 17.556C157.343 17.0427 157.865 16.5433 158.304 16.058C158.612 15.7033 158.901 15.3253 159.172 14.924C159.452 14.5227 159.699 14.126 159.914 13.734C160.129 13.3327 160.287 12.964 160.39 12.628C160.297 12.628 160.129 12.628 159.886 12.628C159.643 12.628 159.359 12.628 159.032 12.628C158.715 12.628 158.379 12.628 158.024 12.628C157.669 12.628 157.329 12.628 157.002 12.628C156.685 12.628 156.405 12.628 156.162 12.628C155.919 12.628 155.747 12.628 155.644 12.628C155.448 12.628 155.243 12.6373 155.028 12.656C154.813 12.6653 154.608 12.6793 154.412 12.698C154.225 12.7073 154.081 12.7167 153.978 12.726V10.738C154.118 10.7473 154.291 10.7613 154.496 10.78C154.701 10.7987 154.907 10.8127 155.112 10.822C155.327 10.8313 155.504 10.836 155.644 10.836C155.765 10.836 155.957 10.836 156.218 10.836C156.479 10.836 156.778 10.836 157.114 10.836C157.45 10.836 157.795 10.836 158.15 10.836C158.514 10.836 158.859 10.836 159.186 10.836C159.522 10.836 159.811 10.836 160.054 10.836C160.297 10.836 160.474 10.836 160.586 10.836C160.894 10.836 161.174 10.8173 161.426 10.78C161.687 10.7427 161.888 10.7007 162.028 10.654L163.176 11.508ZM160.04 15.862C160.404 16.1513 160.791 16.4873 161.202 16.87C161.613 17.2527 162.019 17.6493 162.42 18.06C162.821 18.4707 163.19 18.8673 163.526 19.25C163.871 19.6233 164.161 19.95 164.394 20.23L162.798 21.616C162.453 21.14 162.056 20.6453 161.608 20.132C161.169 19.6187 160.703 19.11 160.208 18.606C159.723 18.0927 159.228 17.6073 158.724 17.15L160.04 15.862ZM173.186 10.038C173.102 10.2153 173.018 10.4113 172.934 10.626C172.85 10.8407 172.78 11.0227 172.724 11.172C172.64 11.4053 172.537 11.6667 172.416 11.956C172.304 12.2453 172.183 12.5393 172.052 12.838C171.931 13.1273 171.805 13.3933 171.674 13.636C171.497 13.9907 171.273 14.3733 171.002 14.784C170.741 15.1853 170.461 15.5727 170.162 15.946C169.863 16.31 169.555 16.6273 169.238 16.898L167.488 15.834C167.74 15.6567 167.978 15.4467 168.202 15.204C168.435 14.9613 168.655 14.7093 168.86 14.448C169.075 14.1867 169.271 13.93 169.448 13.678C169.625 13.4167 169.779 13.174 169.91 12.95C170.097 12.6327 170.255 12.3013 170.386 11.956C170.526 11.6107 170.638 11.3073 170.722 11.046C170.806 10.8127 170.871 10.57 170.918 10.318C170.974 10.0567 171.007 9.81867 171.016 9.604L173.186 10.038ZM170.974 12.194C171.133 12.194 171.366 12.194 171.674 12.194C171.982 12.194 172.341 12.194 172.752 12.194C173.163 12.194 173.592 12.194 174.04 12.194C174.497 12.194 174.95 12.194 175.398 12.194C175.855 12.194 176.28 12.194 176.672 12.194C177.073 12.194 177.419 12.194 177.708 12.194C178.007 12.194 178.226 12.194 178.366 12.194C178.553 12.194 178.786 12.1893 179.066 12.18C179.346 12.1613 179.598 12.1333 179.822 12.096V14.014C179.561 13.986 179.29 13.972 179.01 13.972C178.739 13.9627 178.525 13.958 178.366 13.958C178.207 13.958 177.941 13.958 177.568 13.958C177.195 13.958 176.761 13.958 176.266 13.958C175.771 13.958 175.249 13.958 174.698 13.958C174.157 13.958 173.629 13.958 173.116 13.958C172.603 13.958 172.145 13.958 171.744 13.958C171.343 13.958 171.035 13.958 170.82 13.958L170.974 12.194ZM176.434 13.202C176.415 14.238 176.308 15.19 176.112 16.058C175.916 16.9167 175.636 17.696 175.272 18.396C174.917 19.096 174.479 19.7307 173.956 20.3C173.433 20.86 172.836 21.35 172.164 21.77L170.274 20.496C170.526 20.3933 170.769 20.2767 171.002 20.146C171.235 20.006 171.436 19.866 171.604 19.726C172.005 19.418 172.374 19.068 172.71 18.676C173.055 18.2747 173.359 17.8127 173.62 17.29C173.891 16.758 174.101 16.156 174.25 15.484C174.409 14.812 174.493 14.0513 174.502 13.202H176.434Z" fill="#2C837B"/>
<path d="M137.907 38.5L142.814 30H133L137.907 38.5Z" fill="#F1F7F6"/>
<rect x="34" width="50" height="31" rx="5" fill="#F1F7F6"/>
<path d="M52.798 9.142H54.464V13.412H52.798V9.142ZM49.634 12.67H57.726V14.098H49.634V12.67ZM50.362 10.22H56.998V11.606H50.362V10.22ZM52.798 16.618H54.464V21.336H52.798V16.618ZM49.046 20.482H57.866V21.952H49.046V20.482ZM50.18 17.724H57.138V19.152H50.18V17.724ZM51.426 13.524H52.91C52.882 14.1213 52.798 14.6533 52.658 15.12C52.518 15.5773 52.2707 15.974 51.916 16.31C51.5613 16.646 51.0433 16.9213 50.362 17.136C50.2873 16.9587 50.166 16.7487 49.998 16.506C49.8393 16.254 49.6807 16.0627 49.522 15.932C50.054 15.792 50.446 15.6193 50.698 15.414C50.9593 15.1993 51.1413 14.938 51.244 14.63C51.3467 14.3127 51.4073 13.944 51.426 13.524ZM54.086 13.566H55.542V15.05C55.542 15.2087 55.556 15.3067 55.584 15.344C55.612 15.372 55.6727 15.386 55.766 15.386C55.794 15.386 55.8453 15.386 55.92 15.386C55.9947 15.386 56.0647 15.386 56.13 15.386C56.2047 15.386 56.2607 15.386 56.298 15.386C56.3633 15.386 56.4147 15.3673 56.452 15.33C56.4893 15.2833 56.5173 15.19 56.536 15.05C56.5547 14.91 56.5687 14.6953 56.578 14.406C56.718 14.5087 56.914 14.6113 57.166 14.714C57.4273 14.8167 57.656 14.8913 57.852 14.938C57.7773 15.6287 57.6373 16.0953 57.432 16.338C57.2267 16.5713 56.9093 16.688 56.48 16.688C56.424 16.688 56.354 16.688 56.27 16.688C56.186 16.688 56.0973 16.688 56.004 16.688C55.9107 16.688 55.8173 16.688 55.724 16.688C55.64 16.688 55.57 16.688 55.514 16.688C55.122 16.688 54.8187 16.6367 54.604 16.534C54.3987 16.4313 54.2587 16.2633 54.184 16.03C54.1187 15.7873 54.086 15.4607 54.086 15.05V13.566ZM45.322 9.702H48.738V11.2H46.89V22.26H45.322V9.702ZM48.29 9.702H48.57L48.822 9.646L49.956 10.29C49.8347 10.6913 49.6993 11.116 49.55 11.564C49.41 12.012 49.2653 12.4553 49.116 12.894C48.976 13.3327 48.8407 13.734 48.71 14.098C49.1393 14.63 49.4193 15.134 49.55 15.61C49.6807 16.086 49.746 16.5247 49.746 16.926C49.746 17.374 49.6947 17.7473 49.592 18.046C49.4893 18.3447 49.326 18.5733 49.102 18.732C48.99 18.816 48.864 18.8813 48.724 18.928C48.584 18.9747 48.4393 19.012 48.29 19.04C48.1593 19.0493 48.0147 19.0587 47.856 19.068C47.6973 19.0773 47.534 19.0773 47.366 19.068C47.3567 18.8627 47.3193 18.6153 47.254 18.326C47.1887 18.0367 47.1 17.7893 46.988 17.584C47.1093 17.5933 47.2167 17.6027 47.31 17.612C47.4127 17.612 47.506 17.612 47.59 17.612C47.7487 17.6027 47.884 17.5607 47.996 17.486C48.08 17.4207 48.136 17.3227 48.164 17.192C48.2013 17.0613 48.22 16.898 48.22 16.702C48.22 16.3753 48.1547 16.0067 48.024 15.596C47.9027 15.1853 47.6413 14.7467 47.24 14.28C47.3427 13.9627 47.4453 13.6173 47.548 13.244C47.6507 12.8707 47.7487 12.4927 47.842 12.11C47.9353 11.7273 48.0193 11.368 48.094 11.032C48.1687 10.696 48.234 10.4207 48.29 10.206V9.702ZM66.294 13.314H72.118V15.008H66.294V13.314ZM60.302 19.866H73.112V21.56H60.302V19.866ZM65.342 9.282H67.148V20.804H65.342V9.282Z" fill="#2C837B"/>
<path d="M77.9075 37.5L82.8137 29H73L77.9075 37.5Z" fill="#F1F7F6"/>
<rect x="148" y="134" width="65" height="31" rx="5" fill="#F1F7F6"/>
<path d="M169.02 143.828C169.141 143.996 169.267 144.197 169.398 144.43C169.538 144.663 169.673 144.897 169.804 145.13C169.935 145.363 170.042 145.569 170.126 145.746L169.006 146.236C168.857 145.947 168.684 145.62 168.488 145.256C168.292 144.883 168.101 144.561 167.914 144.29L169.02 143.828ZM170.672 143.198C170.793 143.375 170.924 143.585 171.064 143.828C171.213 144.061 171.353 144.295 171.484 144.528C171.615 144.752 171.722 144.943 171.806 145.102L170.686 145.578C170.546 145.289 170.369 144.962 170.154 144.598C169.949 144.234 169.753 143.921 169.566 143.66L170.672 143.198ZM160.788 150.646C160.947 150.254 161.096 149.843 161.236 149.414C161.385 148.975 161.516 148.527 161.628 148.07C161.74 147.603 161.838 147.141 161.922 146.684C162.015 146.227 162.081 145.774 162.118 145.326L164.162 145.746C164.125 145.877 164.083 146.031 164.036 146.208C163.989 146.385 163.947 146.558 163.91 146.726C163.873 146.894 163.845 147.034 163.826 147.146C163.779 147.389 163.714 147.683 163.63 148.028C163.546 148.373 163.448 148.742 163.336 149.134C163.224 149.517 163.107 149.904 162.986 150.296C162.874 150.679 162.757 151.033 162.636 151.36C162.468 151.808 162.267 152.275 162.034 152.76C161.81 153.245 161.567 153.712 161.306 154.16C161.054 154.608 160.807 155.009 160.564 155.364L158.604 154.538C159.052 153.959 159.467 153.32 159.85 152.62C160.242 151.92 160.555 151.262 160.788 150.646ZM167.704 150.352C167.564 149.979 167.41 149.582 167.242 149.162C167.074 148.742 166.897 148.322 166.71 147.902C166.523 147.482 166.341 147.085 166.164 146.712C165.987 146.339 165.823 146.017 165.674 145.746L167.536 145.144C167.676 145.415 167.839 145.741 168.026 146.124C168.213 146.507 168.399 146.913 168.586 147.342C168.773 147.762 168.955 148.182 169.132 148.602C169.309 149.022 169.468 149.4 169.608 149.736C169.729 150.044 169.86 150.408 170 150.828C170.149 151.248 170.299 151.687 170.448 152.144C170.607 152.592 170.751 153.031 170.882 153.46C171.022 153.889 171.139 154.277 171.232 154.622L169.16 155.294C169.039 154.743 168.899 154.183 168.74 153.614C168.581 153.045 168.413 152.485 168.236 151.934C168.068 151.383 167.891 150.856 167.704 150.352ZM176.23 154.44C176.314 154.263 176.365 154.109 176.384 153.978C176.403 153.847 176.412 153.698 176.412 153.53C176.412 153.353 176.412 153.082 176.412 152.718C176.412 152.354 176.412 151.934 176.412 151.458C176.412 150.973 176.412 150.464 176.412 149.932C176.412 149.4 176.412 148.877 176.412 148.364C176.412 147.851 176.412 147.384 176.412 146.964C176.412 146.544 176.412 146.203 176.412 145.942C176.412 145.765 176.403 145.578 176.384 145.382C176.375 145.186 176.356 144.999 176.328 144.822C176.309 144.635 176.286 144.477 176.258 144.346H178.456C178.419 144.617 178.386 144.883 178.358 145.144C178.33 145.405 178.316 145.671 178.316 145.942C178.316 146.166 178.316 146.446 178.316 146.782C178.316 147.109 178.316 147.473 178.316 147.874C178.316 148.275 178.316 148.691 178.316 149.12C178.316 149.549 178.316 149.974 178.316 150.394C178.316 150.814 178.316 151.211 178.316 151.584C178.316 151.957 178.316 152.284 178.316 152.564C178.316 152.844 178.316 153.063 178.316 153.222C178.885 153.054 179.492 152.825 180.136 152.536C180.789 152.237 181.443 151.887 182.096 151.486C182.759 151.075 183.379 150.627 183.958 150.142C184.546 149.657 185.064 149.139 185.512 148.588L186.506 150.17C185.554 151.318 184.373 152.312 182.964 153.152C181.564 153.983 180.038 154.669 178.386 155.21C178.293 155.247 178.171 155.294 178.022 155.35C177.873 155.406 177.719 155.485 177.56 155.588L176.23 154.44ZM190.188 148.518C190.356 148.527 190.571 148.541 190.832 148.56C191.093 148.569 191.364 148.579 191.644 148.588C191.933 148.597 192.199 148.602 192.442 148.602C192.675 148.602 192.965 148.602 193.31 148.602C193.655 148.602 194.029 148.602 194.43 148.602C194.841 148.602 195.261 148.602 195.69 148.602C196.129 148.602 196.563 148.602 196.992 148.602C197.421 148.602 197.827 148.602 198.21 148.602C198.593 148.602 198.933 148.602 199.232 148.602C199.54 148.602 199.783 148.602 199.96 148.602C200.287 148.602 200.595 148.593 200.884 148.574C201.173 148.546 201.411 148.527 201.598 148.518V150.716C201.439 150.707 201.201 150.693 200.884 150.674C200.567 150.655 200.259 150.646 199.96 150.646C199.783 150.646 199.54 150.646 199.232 150.646C198.924 150.646 198.579 150.646 198.196 150.646C197.813 150.646 197.407 150.646 196.978 150.646C196.558 150.646 196.129 150.646 195.69 150.646C195.251 150.646 194.827 150.646 194.416 150.646C194.015 150.646 193.641 150.646 193.296 150.646C192.96 150.646 192.675 150.646 192.442 150.646C192.041 150.646 191.63 150.655 191.21 150.674C190.79 150.683 190.449 150.697 190.188 150.716V148.518Z" fill="#2C837B"/>
<path d="M154.907 127L159.814 135.5H150L154.907 127Z" fill="#F1F7F6"/>
<rect x="158" y="57" width="65" height="31" rx="5" fill="#F1F7F6"/>
<path d="M170.914 67.262C171.147 67.2993 171.399 67.3273 171.67 67.346C171.941 67.3553 172.188 67.36 172.412 67.36C172.589 67.36 172.869 67.36 173.252 67.36C173.635 67.36 174.064 67.36 174.54 67.36C175.016 67.36 175.492 67.36 175.968 67.36C176.444 67.36 176.864 67.36 177.228 67.36C177.601 67.36 177.872 67.36 178.04 67.36C178.283 67.36 178.535 67.3553 178.796 67.346C179.057 67.3273 179.309 67.2993 179.552 67.262V69.068C179.309 69.0493 179.057 69.0353 178.796 69.026C178.535 69.0167 178.283 69.012 178.04 69.012C177.872 69.012 177.601 69.012 177.228 69.012C176.864 69.012 176.444 69.012 175.968 69.012C175.492 69.012 175.016 69.012 174.54 69.012C174.064 69.012 173.635 69.012 173.252 69.012C172.879 69.012 172.603 69.012 172.426 69.012C172.183 69.012 171.922 69.0167 171.642 69.026C171.371 69.0353 171.129 69.0493 170.914 69.068V67.262ZM169.29 70.846C169.495 70.8647 169.715 70.8833 169.948 70.902C170.191 70.9207 170.419 70.93 170.634 70.93C170.755 70.93 170.998 70.93 171.362 70.93C171.726 70.93 172.165 70.93 172.678 70.93C173.191 70.93 173.742 70.93 174.33 70.93C174.927 70.93 175.52 70.93 176.108 70.93C176.705 70.93 177.261 70.93 177.774 70.93C178.287 70.93 178.721 70.93 179.076 70.93C179.44 70.93 179.683 70.93 179.804 70.93C179.953 70.93 180.154 70.9253 180.406 70.916C180.667 70.8973 180.891 70.874 181.078 70.846V72.666C180.91 72.6473 180.705 72.638 180.462 72.638C180.219 72.6287 180 72.624 179.804 72.624C179.683 72.624 179.44 72.624 179.076 72.624C178.721 72.624 178.287 72.624 177.774 72.624C177.261 72.624 176.705 72.624 176.108 72.624C175.52 72.624 174.927 72.624 174.33 72.624C173.742 72.624 173.191 72.624 172.678 72.624C172.165 72.624 171.726 72.624 171.362 72.624C170.998 72.624 170.755 72.624 170.634 72.624C170.429 72.624 170.2 72.6287 169.948 72.638C169.705 72.6473 169.486 72.6613 169.29 72.68V70.846ZM176.458 71.812C176.458 72.7267 176.379 73.548 176.22 74.276C176.061 74.9947 175.833 75.6433 175.534 76.222C175.366 76.5393 175.142 76.866 174.862 77.202C174.582 77.538 174.26 77.8553 173.896 78.154C173.532 78.4527 173.14 78.7047 172.72 78.91L171.082 77.72C171.577 77.524 172.053 77.244 172.51 76.88C172.967 76.516 173.336 76.1287 173.616 75.718C173.971 75.1767 174.209 74.5793 174.33 73.926C174.451 73.2727 174.512 72.5727 174.512 71.826L176.458 71.812ZM185.88 68.494C186.132 68.522 186.407 68.5453 186.706 68.564C187.014 68.5733 187.285 68.578 187.518 68.578C187.714 68.578 187.975 68.578 188.302 68.578C188.629 68.578 188.988 68.578 189.38 68.578C189.772 68.578 190.169 68.578 190.57 68.578C190.981 68.578 191.368 68.578 191.732 68.578C192.105 68.578 192.432 68.578 192.712 68.578C192.992 68.578 193.193 68.578 193.314 68.578C193.594 68.578 193.874 68.5687 194.154 68.55C194.434 68.5313 194.672 68.5127 194.868 68.494V70.524C194.672 70.5147 194.425 70.5053 194.126 70.496C193.827 70.4773 193.557 70.468 193.314 70.468C193.193 70.468 192.983 70.468 192.684 70.468C192.395 70.468 192.054 70.468 191.662 70.468C191.27 70.468 190.859 70.468 190.43 70.468C190.01 70.468 189.604 70.468 189.212 70.468C188.82 70.468 188.475 70.468 188.176 70.468C187.877 70.468 187.663 70.468 187.532 70.468C187.261 70.468 186.977 70.4727 186.678 70.482C186.379 70.4913 186.113 70.5053 185.88 70.524V68.494ZM184.704 75.34C184.984 75.3587 185.273 75.3773 185.572 75.396C185.88 75.4147 186.174 75.424 186.454 75.424C186.575 75.424 186.799 75.424 187.126 75.424C187.453 75.424 187.835 75.424 188.274 75.424C188.722 75.424 189.203 75.424 189.716 75.424C190.229 75.424 190.738 75.424 191.242 75.424C191.755 75.424 192.231 75.424 192.67 75.424C193.118 75.424 193.501 75.424 193.818 75.424C194.145 75.424 194.369 75.424 194.49 75.424C194.733 75.424 194.989 75.4193 195.26 75.41C195.54 75.3913 195.797 75.368 196.03 75.34V77.482C195.787 77.454 195.521 77.4353 195.232 77.426C194.943 77.4073 194.695 77.398 194.49 77.398C194.369 77.398 194.145 77.398 193.818 77.398C193.501 77.398 193.118 77.398 192.67 77.398C192.231 77.398 191.755 77.398 191.242 77.398C190.738 77.398 190.229 77.398 189.716 77.398C189.203 77.398 188.722 77.398 188.274 77.398C187.835 77.398 187.453 77.398 187.126 77.398C186.799 77.398 186.575 77.398 186.454 77.398C186.174 77.398 185.875 77.4073 185.558 77.426C185.25 77.4353 184.965 77.454 184.704 77.482V75.34ZM210.576 68.508C210.52 68.592 210.436 68.7227 210.324 68.9C210.221 69.0773 210.142 69.2407 210.086 69.39C209.89 69.8287 209.647 70.3187 209.358 70.86C209.078 71.4013 208.756 71.9473 208.392 72.498C208.037 73.0393 207.659 73.548 207.258 74.024C206.735 74.612 206.157 75.1953 205.522 75.774C204.897 76.3433 204.234 76.8707 203.534 77.356C202.843 77.832 202.134 78.2427 201.406 78.588L199.964 77.076C200.72 76.7867 201.453 76.4227 202.162 75.984C202.871 75.5453 203.529 75.0693 204.136 74.556C204.743 74.0427 205.265 73.5433 205.704 73.058C206.012 72.7033 206.301 72.3253 206.572 71.924C206.852 71.5227 207.099 71.126 207.314 70.734C207.529 70.3327 207.687 69.964 207.79 69.628C207.697 69.628 207.529 69.628 207.286 69.628C207.043 69.628 206.759 69.628 206.432 69.628C206.115 69.628 205.779 69.628 205.424 69.628C205.069 69.628 204.729 69.628 204.402 69.628C204.085 69.628 203.805 69.628 203.562 69.628C203.319 69.628 203.147 69.628 203.044 69.628C202.848 69.628 202.643 69.6373 202.428 69.656C202.213 69.6653 202.008 69.6793 201.812 69.698C201.625 69.7073 201.481 69.7167 201.378 69.726V67.738C201.518 67.7473 201.691 67.7613 201.896 67.78C202.101 67.7987 202.307 67.8127 202.512 67.822C202.727 67.8313 202.904 67.836 203.044 67.836C203.165 67.836 203.357 67.836 203.618 67.836C203.879 67.836 204.178 67.836 204.514 67.836C204.85 67.836 205.195 67.836 205.55 67.836C205.914 67.836 206.259 67.836 206.586 67.836C206.922 67.836 207.211 67.836 207.454 67.836C207.697 67.836 207.874 67.836 207.986 67.836C208.294 67.836 208.574 67.8173 208.826 67.78C209.087 67.7427 209.288 67.7007 209.428 67.654L210.576 68.508ZM207.44 72.862C207.804 73.1513 208.191 73.4873 208.602 73.87C209.013 74.2527 209.419 74.6493 209.82 75.06C210.221 75.4707 210.59 75.8673 210.926 76.25C211.271 76.6233 211.561 76.95 211.794 77.23L210.198 78.616C209.853 78.14 209.456 77.6453 209.008 77.132C208.569 76.6187 208.103 76.11 207.608 75.606C207.123 75.0927 206.628 74.6073 206.124 74.15L207.44 72.862Z" fill="#2C837B"/>
<path d="M150 73.9075L158.5 78.8137L158.5 69L150 73.9075Z" fill="#F1F7F6"/>
<rect y="57" width="50" height="31" rx="5" fill="#F1F7F6"/>
<path d="M11.028 69.544H14.92V71.238H11.028V69.544ZM16.46 66.114H18.252V77.076C18.252 77.58 18.1913 77.972 18.07 78.252C17.9487 78.532 17.7387 78.7467 17.44 78.896C17.1413 79.0453 16.7587 79.1433 16.292 79.19C15.8347 79.246 15.284 79.274 14.64 79.274C14.6213 79.0967 14.5747 78.8913 14.5 78.658C14.4347 78.434 14.3553 78.21 14.262 77.986C14.1687 77.7527 14.0753 77.5567 13.982 77.398C14.4393 77.4167 14.8687 77.426 15.27 77.426C15.6713 77.426 15.942 77.426 16.082 77.426C16.222 77.426 16.32 77.398 16.376 77.342C16.432 77.286 16.46 77.1973 16.46 77.076V66.114ZM14.346 69.544H14.696L15.004 69.474L16.152 69.894C15.9467 71.1727 15.6387 72.3347 15.228 73.38C14.8267 74.4253 14.3507 75.3447 13.8 76.138C13.2587 76.922 12.652 77.5613 11.98 78.056C11.8867 77.916 11.756 77.762 11.588 77.594C11.42 77.4167 11.2427 77.2487 11.056 77.09C10.8787 76.9313 10.72 76.81 10.58 76.726C11.224 76.2873 11.798 75.7367 12.302 75.074C12.806 74.402 13.2307 73.632 13.576 72.764C13.9307 71.8867 14.1873 70.9347 14.346 69.908V69.544ZM18.14 68.158C18.364 69.0913 18.6487 69.9873 18.994 70.846C19.3487 71.7047 19.764 72.5073 20.24 73.254C20.716 74.0007 21.2667 74.668 21.892 75.256C22.5267 75.8347 23.236 76.3107 24.02 76.684C23.88 76.796 23.726 76.9407 23.558 77.118C23.39 77.2953 23.2313 77.4867 23.082 77.692C22.942 77.888 22.8207 78.07 22.718 78.238C21.6353 77.622 20.716 76.8287 19.96 75.858C19.204 74.878 18.574 73.758 18.07 72.498C17.566 71.238 17.146 69.8847 16.81 68.438L18.14 68.158ZM22.074 68.298L23.656 69.404C23.2547 69.8147 22.83 70.2393 22.382 70.678C21.934 71.1167 21.486 71.532 21.038 71.924C20.5993 72.316 20.184 72.6567 19.792 72.946L18.574 72.008C18.9567 71.6907 19.358 71.322 19.778 70.902C20.2073 70.482 20.6227 70.048 21.024 69.6C21.4253 69.1427 21.7753 68.7087 22.074 68.298ZM31.986 67.472L32.714 66.198C33.1713 66.2913 33.6707 66.4173 34.212 66.576C34.7627 66.7253 35.2947 66.8887 35.808 67.066C36.3213 67.234 36.746 67.402 37.082 67.57L36.312 69.012C35.9853 68.844 35.5747 68.6667 35.08 68.48C34.5853 68.284 34.0627 68.0973 33.512 67.92C32.9707 67.7427 32.462 67.5933 31.986 67.472ZM29.9 71.658H32.378V73.198H29.9V71.658ZM31.118 68.97H34.492V70.566H31.118V68.97ZM31.916 71.658H32.21L32.49 71.602L33.526 71.938C33.386 72.8807 33.176 73.7533 32.896 74.556C32.616 75.3493 32.2707 76.054 31.86 76.67C31.4587 77.286 30.9873 77.804 30.446 78.224C30.3713 78.1027 30.2733 77.9673 30.152 77.818C30.0307 77.6593 29.9 77.51 29.76 77.37C29.6293 77.2207 29.508 77.0993 29.396 77.006C29.8253 76.6793 30.208 76.2547 30.544 75.732C30.8893 75.2 31.1787 74.6073 31.412 73.954C31.6453 73.2913 31.8133 72.6147 31.916 71.924V71.658ZM35.402 70.44C35.6353 71.308 35.9387 72.148 36.312 72.96C36.6853 73.7627 37.1333 74.486 37.656 75.13C38.1787 75.7647 38.7713 76.2827 39.434 76.684C39.3127 76.7867 39.1727 76.922 39.014 77.09C38.8647 77.258 38.72 77.4353 38.58 77.622C38.44 77.7993 38.3233 77.9673 38.23 78.126C37.558 77.6313 36.9653 77.006 36.452 76.25C35.948 75.4847 35.514 74.6307 35.15 73.688C34.7953 72.736 34.492 71.742 34.24 70.706L35.402 70.44ZM37.768 70.398L39.28 71.49C38.9533 71.7887 38.622 72.0967 38.286 72.414C37.9593 72.7313 37.6373 73.0347 37.32 73.324C37.012 73.604 36.7227 73.856 36.452 74.08L35.416 73.212C35.6773 72.9693 35.9527 72.6847 36.242 72.358C36.5313 72.0313 36.8113 71.7 37.082 71.364C37.3527 71.0187 37.5813 70.6967 37.768 70.398ZM33.862 68.97H35.472V77.37C35.472 77.79 35.4207 78.1213 35.318 78.364C35.2247 78.6067 35.0427 78.798 34.772 78.938C34.5107 79.0687 34.184 79.148 33.792 79.176C33.4 79.2133 32.9287 79.232 32.378 79.232C32.3593 79.0733 32.322 78.896 32.266 78.7C32.2193 78.504 32.1587 78.3033 32.084 78.098C32.0187 77.902 31.944 77.734 31.86 77.594C32.2147 77.6127 32.5553 77.622 32.882 77.622C33.218 77.622 33.4467 77.6173 33.568 77.608C33.68 77.608 33.7547 77.5893 33.792 77.552C33.8387 77.5053 33.862 77.4353 33.862 77.342V68.97ZM26.876 67.402L27.758 66.156C28.0567 66.2773 28.374 66.4267 28.71 66.604C29.0553 66.772 29.382 66.9447 29.69 67.122C30.0073 67.2993 30.264 67.4673 30.46 67.626L29.522 69.026C29.3447 68.8673 29.102 68.69 28.794 68.494C28.4953 68.298 28.178 68.102 27.842 67.906C27.506 67.71 27.184 67.542 26.876 67.402ZM26.036 71.224L26.89 69.922C27.1793 70.034 27.4967 70.174 27.842 70.342C28.1873 70.5007 28.514 70.664 28.822 70.832C29.1393 71 29.396 71.1587 29.592 71.308L28.71 72.75C28.5233 72.5913 28.276 72.4187 27.968 72.232C27.66 72.0453 27.3333 71.8633 26.988 71.686C26.652 71.5087 26.3347 71.3547 26.036 71.224ZM26.498 78.014C26.722 77.6407 26.9693 77.2113 27.24 76.726C27.5107 76.2407 27.7813 75.7227 28.052 75.172C28.332 74.6213 28.5933 74.0707 28.836 73.52L30.152 74.528C29.9373 75.032 29.7087 75.5453 29.466 76.068C29.2327 76.5813 28.99 77.0853 28.738 77.58C28.486 78.0747 28.2387 78.5553 27.996 79.022L26.498 78.014Z" fill="#2C837B"/>
<path d="M58.5 73.9075L50 78.8137L50 69L58.5 73.9075Z" fill="#F1F7F6"/>
<rect x="44" y="130" width="50" height="31" rx="5" fill="#F1F7F6"/>
<path d="M56.526 143.37V144.42H59.97V143.37H56.526ZM56.526 141.102V142.124H59.97V141.102H56.526ZM55.154 139.758H61.398V145.75H55.154V139.758ZM55.182 146.898H61.412V148.41H55.182V146.898ZM54.72 150.202C55.2987 150.146 55.966 150.085 56.722 150.02C57.478 149.945 58.276 149.861 59.116 149.768C59.956 149.675 60.796 149.581 61.636 149.488L61.678 150.972C60.8847 151.075 60.082 151.177 59.27 151.28C58.4673 151.383 57.6927 151.481 56.946 151.574C56.1993 151.677 55.5227 151.765 54.916 151.84L54.72 150.202ZM61.86 139.758H66.69V141.256H61.86V139.758ZM61.706 144.35H66.9V145.946H61.706V144.35ZM65.934 139.758H66.34L66.704 139.674L67.768 140.43C67.5253 140.813 67.2453 141.205 66.928 141.606C66.62 142.007 66.2887 142.39 65.934 142.754C65.5793 143.109 65.2153 143.417 64.842 143.678C64.7393 143.529 64.59 143.361 64.394 143.174C64.2073 142.987 64.0533 142.838 63.932 142.726C64.1933 142.493 64.4547 142.222 64.716 141.914C64.9773 141.597 65.2107 141.279 65.416 140.962C65.6307 140.635 65.8033 140.341 65.934 140.08V139.758ZM62.07 142.824L63.106 141.788C63.5353 141.975 63.9693 142.194 64.408 142.446C64.856 142.698 65.276 142.955 65.668 143.216C66.0693 143.477 66.4053 143.72 66.676 143.944L65.626 145.12C65.3647 144.877 65.0333 144.616 64.632 144.336C64.24 144.056 63.82 143.785 63.372 143.524C62.924 143.253 62.49 143.02 62.07 142.824ZM66.396 144.35H66.634L66.872 144.308L68.02 144.546C67.8893 145.171 67.7353 145.811 67.558 146.464C67.39 147.117 67.222 147.673 67.054 148.13L65.696 147.836C65.78 147.565 65.864 147.248 65.948 146.884C66.032 146.511 66.1113 146.123 66.186 145.722C66.27 145.321 66.34 144.943 66.396 144.588V144.35ZM63.554 145.148H65.22V150.44C65.22 150.841 65.1733 151.163 65.08 151.406C64.9867 151.649 64.8047 151.835 64.534 151.966C64.2633 152.097 63.9367 152.176 63.554 152.204C63.1713 152.232 62.7233 152.246 62.21 152.246C62.1913 152.013 62.1307 151.737 62.028 151.42C61.9347 151.103 61.832 150.827 61.72 150.594C62.0373 150.613 62.35 150.627 62.658 150.636C62.9753 150.636 63.1853 150.631 63.288 150.622C63.3907 150.622 63.4607 150.608 63.498 150.58C63.5353 150.543 63.554 150.482 63.554 150.398V145.148ZM57.562 140.234H58.962V144.938H59.074V150.16H57.45V144.938H57.562V140.234ZM70.246 140.164H74.964V141.718H70.246V140.164ZM74.81 141.466H83.308V142.992H74.81V141.466ZM70.344 144.084H74.796V145.624H70.344V144.084ZM69.966 148.97C70.386 148.867 70.8667 148.741 71.408 148.592C71.9493 148.443 72.5233 148.284 73.13 148.116C73.7367 147.939 74.3433 147.761 74.95 147.584L75.174 149.012C74.3527 149.283 73.522 149.553 72.682 149.824C71.8513 150.095 71.0907 150.337 70.4 150.552L69.966 148.97ZM78.128 139.086H79.738V150.356C79.738 150.767 79.6867 151.093 79.584 151.336C79.4907 151.579 79.3227 151.765 79.08 151.896C78.8373 152.036 78.534 152.129 78.17 152.176C77.806 152.223 77.3627 152.246 76.84 152.246C76.8213 152.087 76.7793 151.91 76.714 151.714C76.6487 151.527 76.574 151.336 76.49 151.14C76.4153 150.944 76.3407 150.771 76.266 150.622C76.602 150.631 76.9193 150.641 77.218 150.65C77.5167 150.65 77.7173 150.65 77.82 150.65C77.9227 150.641 77.9973 150.617 78.044 150.58C78.1 150.533 78.128 150.459 78.128 150.356V139.086ZM73.872 149.292C74.32 149.059 74.866 148.755 75.51 148.382C76.154 148.009 76.798 147.626 77.442 147.234L77.96 148.606C77.428 148.989 76.8773 149.371 76.308 149.754C75.748 150.137 75.2207 150.482 74.726 150.79L73.872 149.292ZM74.922 144.21L76.224 143.636C76.4107 143.879 76.5927 144.149 76.77 144.448C76.9473 144.737 77.1107 145.027 77.26 145.316C77.4187 145.596 77.5353 145.848 77.61 146.072L76.224 146.716C76.1587 146.492 76.056 146.235 75.916 145.946C75.776 145.657 75.6173 145.358 75.44 145.05C75.272 144.742 75.0993 144.462 74.922 144.21ZM81.796 143.482L83.266 144.238C83.0607 144.527 82.846 144.821 82.622 145.12C82.4073 145.409 82.1927 145.689 81.978 145.96C81.7727 146.231 81.5767 146.469 81.39 146.674L80.2 146.002C80.3773 145.778 80.564 145.521 80.76 145.232C80.9653 144.943 81.1567 144.644 81.334 144.336C81.5207 144.028 81.6747 143.743 81.796 143.482ZM80.256 140.024L81.18 139.156C81.3947 139.296 81.6187 139.45 81.852 139.618C82.0947 139.786 82.3233 139.959 82.538 140.136C82.7527 140.313 82.9253 140.477 83.056 140.626L82.076 141.592C81.8893 141.368 81.6187 141.107 81.264 140.808C80.9187 140.509 80.5827 140.248 80.256 140.024ZM71.814 140.822H73.438V148.956L71.814 149.208V140.822ZM79.696 143.174C79.836 143.977 80.004 144.705 80.2 145.358C80.396 146.011 80.6387 146.609 80.928 147.15C81.2267 147.682 81.5907 148.177 82.02 148.634C82.4493 149.082 82.958 149.507 83.546 149.908C83.35 150.057 83.154 150.253 82.958 150.496C82.762 150.739 82.6127 150.972 82.51 151.196C81.8567 150.701 81.2967 150.183 80.83 149.642C80.3633 149.101 79.9713 148.522 79.654 147.906C79.3367 147.281 79.0707 146.599 78.856 145.862C78.6413 145.125 78.4547 144.313 78.296 143.426L79.696 143.174Z" fill="#2C837B"/>
<path d="M84.9065 123L80.0002 131.5H89.814L84.9065 123Z" fill="#F1F7F6"/>
<path d="M100.374 54.1819C103.182 53.5405 104.936 50.7473 104.295 47.9385C103.653 45.135 100.86 43.3763 98.0564 44.0177C95.2477 44.6591 93.4941 47.4523 94.1304 50.2559C94.7718 53.0646 97.565 54.8181 100.374 54.1767V54.1819Z" fill="#01A784"/>
<path d="M123.324 112.492H129.299L123.205 77.055C123.205 77.055 123.185 77.055 123.174 77.055C122.631 72.8549 120.645 65.515 117.572 58.6147C113.6 47.623 99.7477 30 99.7477 30L95.832 32.0587C95.832 32.0587 104.869 43.9349 108.117 51.4869C107.739 51.7352 107.507 51.9162 107.507 51.9162C107.507 51.9162 101.599 55.3353 100.229 58.6458C100.001 59.0441 99.7787 59.4475 99.5615 59.8148C98.889 60.9269 96.0182 69.9168 96.0182 69.9168C95.8424 70.9255 95.532 72.41 96.5821 73.4911C97.3735 74.3032 99.5253 75.1256 101.041 75.4929L106.384 77.0188C106.032 80.7637 105.236 84.1104 105.236 84.1104C105.246 84.1104 105.256 84.1104 105.267 84.1052L98.2942 112.498H104.269L113.279 83.138C113.895 83.0811 114.505 83.019 115.105 82.9518L123.329 112.498L123.324 112.492ZM103.26 64.646C104.315 66.0529 105.375 67.6202 105.97 69.3582C106.307 70.3358 106.472 71.5307 106.524 72.8083L101.165 69.9375L103.26 64.6408V64.646Z" fill="#01A784"/>
</svg>
