<svg width="136" height="128" viewBox="0 0 136 128" fill="none" xmlns="http://www.w3.org/2000/svg">
<mask id="mask0_3651_11144" style="mask-type:alpha" maskUnits="userSpaceOnUse" x="0" y="0" width="136" height="128">
<rect width="136" height="128" fill="#FF0000"/>
</mask>
<g mask="url(#mask0_3651_11144)">
<g clip-path="url(#clip0_3651_11144)">
<path d="M104.723 10H31.2773C29.4673 10 28 11.4719 28 13.2876V115.712C28 117.528 29.4673 119 31.2773 119H104.723C106.533 119 108 117.528 108 115.712V13.2876C108 11.4719 106.533 10 104.723 10Z" fill="#01A784"/>
<path d="M51.8425 20.2031H38.1719V32.7508H51.8425V20.2031Z" fill="white"/>
<path d="M75.5378 20.2031H61.8672V32.7508H75.5378V20.2031Z" fill="white"/>
<path d="M99.2527 20.2031H85.582V32.7508H99.2527V20.2031Z" fill="white"/>
<path d="M51.8425 36.7852H38.1719V49.3329H51.8425V36.7852Z" fill="white"/>
<path d="M75.5378 36.7852H61.8672V49.3329H75.5378V36.7852Z" fill="white"/>
<path d="M99.2527 36.7852H85.582V49.3329H99.2527V36.7852Z" fill="white"/>
<path d="M51.8425 53.8647H38.1719V66.4124H51.8425V53.8647Z" fill="white"/>
<path d="M75.5378 53.8647H61.8672V66.4124H75.5378V53.8647Z" fill="white"/>
<path d="M99.2527 53.8647H85.582V66.4124H99.2527V53.8647Z" fill="white"/>
<path d="M51.8425 71.1143H38.1719V83.662H51.8425V71.1143Z" fill="white"/>
<path d="M75.5378 71.1143H61.8672V83.662H75.5378V71.1143Z" fill="white"/>
<path d="M99.2527 71.1143H85.582V83.662H99.2527V71.1143Z" fill="white"/>
<path d="M80.113 90.1978H57.6289V116.433H80.113V90.1978Z" fill="white"/>
</g>
<path d="M10.7927 11.2793C11.0146 11.3258 11.0146 11.6743 10.7927 11.7207C7.59745 12.3893 6.81503 13.4315 6.21611 17.4032C6.18098 17.6362 5.81918 17.6362 5.78404 17.4032C5.185 13.4315 4.40258 12.3892 1.20752 11.7207C0.985589 11.6742 0.985582 11.3257 1.20751 11.2793C4.40257 10.6107 5.18498 9.56845 5.78389 5.59676C5.81902 5.36381 6.18082 5.36381 6.21596 5.59676C6.81501 9.56851 7.59745 10.6107 10.7927 11.2793Z" fill="#01A784"/>
<path d="M19.6577 4.25271C19.8815 4.30754 19.8815 4.69247 19.6577 4.74731C18.1009 5.12879 17.5856 5.7662 17.2297 7.56975C17.1847 7.79773 16.8154 7.79772 16.7704 7.56974C16.4145 5.76616 15.8993 5.12876 14.3423 4.74729C14.1185 4.69246 14.1185 4.30753 14.3423 4.25269C15.8991 3.87121 16.4144 3.2338 16.7703 1.43025C16.8153 1.20227 17.1846 1.20228 17.2296 1.43026C17.5855 3.23384 18.1007 3.87124 19.6577 4.25271Z" fill="#01A784"/>
<path d="M125.207 116.721C124.985 116.674 124.985 116.326 125.207 116.279C128.403 115.611 129.185 114.569 129.784 110.597C129.819 110.364 130.181 110.364 130.216 110.597C130.815 114.568 131.597 115.611 134.792 116.279C135.014 116.326 135.014 116.674 134.792 116.721C131.597 117.389 130.815 118.432 130.216 122.403C130.181 122.636 129.819 122.636 129.784 122.403C129.185 118.431 128.403 117.389 125.207 116.721Z" fill="#01A784"/>
<path d="M116.342 123.747C116.118 123.692 116.118 123.308 116.342 123.253C117.899 122.871 118.414 122.234 118.77 120.43C118.815 120.202 119.185 120.202 119.23 120.43C119.585 122.234 120.101 122.871 121.658 123.253C121.882 123.308 121.882 123.692 121.658 123.747C120.101 124.129 119.586 124.766 119.23 126.57C119.185 126.798 118.815 126.798 118.77 126.57C118.415 124.766 117.899 124.129 116.342 123.747Z" fill="#01A784"/>
</g>
<defs>
<clipPath id="clip0_3651_11144">
<rect width="80" height="109" fill="white" transform="translate(28 10)"/>
</clipPath>
</defs>
</svg>
