<svg width="137" height="128" viewBox="0 0 137 128" fill="none" xmlns="http://www.w3.org/2000/svg">
<mask id="mask0_3651_11149" style="mask-type:alpha" maskUnits="userSpaceOnUse" x="0" y="0" width="137" height="128">
<rect width="137" height="128" fill="#FF0000"/>
</mask>
<g mask="url(#mask0_3651_11149)">
<g clip-path="url(#clip0_3651_11149)">
<path d="M49.8698 41H2.13024C0.953742 41 0 41.9588 0 43.1414V109.859C0 111.041 0.953742 112 2.13024 112H49.8698C51.0463 112 52 111.041 52 109.859V43.1414C52 41.9588 51.0463 41 49.8698 41Z" fill="#01A784"/>
<path d="M15.4992 47.646H6.61328V55.8193H15.4992V47.646Z" fill="white"/>
<path d="M30.9015 47.646H22.0156V55.8193H30.9015V47.646Z" fill="white"/>
<path d="M46.3156 47.646H37.4297V55.8193H46.3156V47.646Z" fill="white"/>
<path d="M15.4992 58.4473H6.61328V66.6205H15.4992V58.4473Z" fill="white"/>
<path d="M30.9015 58.4473H22.0156V66.6205H30.9015V58.4473Z" fill="white"/>
<path d="M46.3156 58.4473H37.4297V66.6205H46.3156V58.4473Z" fill="white"/>
<path d="M15.4992 69.5723H6.61328V77.7455H15.4992V69.5723Z" fill="white"/>
<path d="M30.9015 69.5723H22.0156V77.7455H30.9015V69.5723Z" fill="white"/>
<path d="M46.3156 69.5723H37.4297V77.7455H46.3156V69.5723Z" fill="white"/>
<path d="M15.4992 80.8086H6.61328V88.9819H15.4992V80.8086Z" fill="white"/>
<path d="M30.9015 80.8086H22.0156V88.9819H30.9015V80.8086Z" fill="white"/>
<path d="M46.3156 80.8086H37.4297V88.9819H46.3156V80.8086Z" fill="white"/>
<path d="M33.8686 93.2393H19.2539V110.328H33.8686V93.2393Z" fill="white"/>
</g>
<path d="M99.459 34.1023L120.898 47.2376C121.787 47.7656 122.894 47.7945 123.813 47.3099L129.78 44.178C131.161 43.2666 132.934 43.2232 134.359 44.0622C136.413 45.2774 137.093 47.9247 135.877 49.9789L132.406 55.5917C128.601 60.6476 122.88 60.5898 115.936 58.8538L95.1915 50.0946L88.7107 71.6564C88.3056 73.2476 86.4395 74.1518 84.53 73.6744C83.0255 73.2983 81.9044 72.1482 81.7525 70.8318L78.4252 42.1454L62.9971 33.0318C58.7875 30.5436 52.8926 27.5636 54.1801 23.3829C55.3084 19.3975 64.8271 12.2802 79.0184 21.5529L89.8029 27.7589C90.4032 28.1061 91.1049 28.2363 91.7992 28.135L112.305 25.0827C113.332 24.9308 114.439 25.5456 115.039 26.6161C115.799 27.9687 115.495 29.5744 114.359 30.2037L103.242 36.4241" fill="#01A784"/>
<path d="M105.816 48.0331C105.121 47.6425 104.868 46.7601 105.259 46.0657C105.649 45.3641 106.532 45.1182 107.226 45.5087C107.928 45.8921 108.174 46.7746 107.783 47.4762C107.523 47.9463 107.031 48.2139 106.517 48.2139C106.279 48.2139 106.04 48.156 105.816 48.0331ZM100.131 44.8578C99.4361 44.4672 99.1831 43.592 99.5736 42.8904C99.9642 42.196 100.847 41.9428 101.541 42.3334C102.243 42.724 102.489 43.5992 102.098 44.3008C101.838 44.771 101.346 45.0386 100.832 45.0386C100.601 45.0386 100.355 44.9807 100.131 44.8578ZM94.4453 41.6825C93.751 41.2991 93.4978 40.4167 93.8884 39.7151C94.279 39.0207 95.1615 38.7676 95.8558 39.1581C96.5574 39.5487 96.8033 40.4311 96.4199 41.1255C96.1523 41.6029 95.6605 41.8705 95.1542 41.8705C94.9155 41.8705 94.6696 41.8127 94.4453 41.6825ZM88.7674 38.5144C88.0658 38.1238 87.8198 37.2413 88.2032 36.5397C88.5938 35.8454 89.4762 35.5995 90.1778 35.9828C90.8722 36.3734 91.1254 37.2558 90.7348 37.9502C90.4671 38.4276 89.9753 38.6952 89.469 38.6952C89.2303 38.6952 88.9844 38.6373 88.7674 38.5144ZM83.0822 35.3391C82.3806 34.9485 82.1347 34.0661 82.5253 33.3717C82.9086 32.6701 83.791 32.4241 84.4926 32.8147C85.187 33.2053 85.4402 34.0805 85.0496 34.7821C84.782 35.2522 84.2901 35.5199 83.7838 35.5199C83.5451 35.5199 83.3064 35.462 83.0822 35.3391ZM77.397 32.1637C76.7027 31.7732 76.4495 30.898 76.8401 30.1964C77.2307 29.502 78.1059 29.2488 78.8075 29.6394C79.5018 30.03 79.755 30.9124 79.3644 31.6068C79.0968 32.0842 78.6049 32.3518 78.0986 32.3518C77.8599 32.3518 77.6213 32.2867 77.397 32.1637Z" fill="white"/>
<path d="M65.9382 25.8171L55.8047 20.1608L57.5695 17L67.703 22.6563C68.2311 22.9528 68.4264 23.6255 68.1299 24.1535L67.4427 25.3903C67.1461 25.9183 66.4735 26.1137 65.9455 25.8171H65.9382Z" fill="white"/>
</g>
<defs>
<clipPath id="clip0_3651_11149">
<rect width="52" height="71" fill="white" transform="translate(0 41)"/>
</clipPath>
</defs>
</svg>
