<svg width="170" height="128" viewBox="0 0 170 128" fill="none" xmlns="http://www.w3.org/2000/svg">
<mask id="mask0_3652_11286" style="mask-type:alpha" maskUnits="userSpaceOnUse" x="0" y="0" width="170" height="128">
<rect width="170" height="128" fill="#FF0000"/>
</mask>
<g mask="url(#mask0_3652_11286)">
<path d="M41.7318 29.1274C45.9091 29.1274 49.2996 25.7369 49.2996 21.5678C49.2996 17.3986 45.9091 14 41.7318 14C37.5546 14 34.1641 17.3905 34.1641 21.5597C34.1641 25.7288 37.5464 29.1193 41.7318 29.1193V29.1274Z" fill="#01A784"/>
<path d="M42.3522 31.877H31.9942C31.0938 31.877 30.307 32.4853 30.088 33.3613L19 76.6347L25.7972 78.1839L31.9617 53.0473L29.8285 121.052H38.4426L41.5735 74.9395H43.139" fill="#01A784"/>
<path d="M41.1035 31.877H51.4615C52.3619 31.877 53.1487 32.4853 53.3677 33.3613L64.4476 76.6347L57.6504 78.1839L51.4859 53.0473L53.6191 121.052H45.005L41.8741 74.9395H40.3086" fill="#01A784"/>
<path d="M117.283 29.1274C121.46 29.1274 124.85 25.7369 124.85 21.5678C124.85 17.3986 121.46 14 117.283 14C113.105 14 109.715 17.3905 109.715 21.5597C109.715 25.7288 113.097 29.1193 117.283 29.1193V29.1274Z" fill="#01A784"/>
<path d="M117.907 31.877H107.549C106.649 31.877 105.862 32.4853 105.643 33.3613L94.5547 76.6347L101.352 78.1839L107.516 53.0473L105.383 121.052H113.997L117.128 74.9395H118.694" fill="#01A784"/>
<path d="M116.654 31.877H127.012C127.913 31.877 128.699 32.4853 128.918 33.3613L139.998 76.6347L133.201 78.1839L127.037 53.0473L129.17 121.052H120.556L117.425 74.9395H115.859" fill="#01A784"/>
<path d="M161.243 9.93773H158.027L157.013 6.49613C156.925 6.19924 156.68 6 156.399 6H156.357C156.076 6 155.831 6.19924 155.743 6.49613L154.729 9.93773H151.513C151.155 9.93773 150.867 10.262 150.867 10.6565V10.7034C150.867 10.9339 150.965 11.1526 151.134 11.2855L153.73 13.3793L152.709 16.8444C152.597 17.2194 152.811 17.6374 153.147 17.7624C153.214 17.7858 153.284 17.8015 153.354 17.8015C153.488 17.8015 153.621 17.7546 153.733 17.6647L156.375 15.5318L159.016 17.6647C159.184 17.8015 159.433 17.8249 159.633 17.7507C159.97 17.6257 160.153 17.2194 160.04 16.8444L159.019 13.3793L161.615 11.2855C161.784 11.1487 161.882 10.9339 161.882 10.7034V10.6565C161.882 10.2581 161.591 9.93773 161.236 9.93773H161.243Z" fill="#01A784"/>
<path d="M154.117 23.3127H150.671L149.585 19.8711C149.491 19.5742 149.228 19.375 148.927 19.375H148.882C148.581 19.375 148.318 19.5742 148.224 19.8711L147.138 23.3127H143.692C143.308 23.3127 143 23.637 143 24.0315V24.0784C143 24.3089 143.105 24.5276 143.286 24.6605L146.067 26.7543L144.973 30.2194C144.853 30.5944 145.082 31.0124 145.443 31.1374C145.514 31.1608 145.59 31.1765 145.665 31.1765C145.808 31.1765 145.95 31.1296 146.071 31.0397L148.901 28.9068L151.731 31.0397C151.911 31.1765 152.178 31.1999 152.392 31.1257C152.753 31.0007 152.949 30.5944 152.828 30.2194L151.735 26.7543L154.516 24.6605C154.696 24.5237 154.801 24.3089 154.801 24.0784V24.0315C154.801 23.6331 154.49 23.3127 154.11 23.3127H154.117Z" fill="#01A784"/>
<path d="M169.067 23.3127H165.62L164.534 19.8711C164.44 19.5742 164.177 19.375 163.876 19.375H163.831C163.53 19.375 163.267 19.5742 163.173 19.8711L162.087 23.3127H158.641C158.257 23.3127 157.949 23.637 157.949 24.0315V24.0784C157.949 24.3089 158.054 24.5276 158.235 24.6605L161.016 26.7543L159.922 30.2194C159.802 30.5944 160.031 31.0124 160.392 31.1374C160.464 31.1608 160.539 31.1765 160.614 31.1765C160.757 31.1765 160.9 31.1296 161.02 31.0397L163.85 28.9068L166.68 31.0397C166.86 31.1765 167.127 31.1999 167.342 31.1257C167.702 31.0007 167.898 30.5944 167.778 30.2194L166.684 26.7543L169.465 24.6605C169.645 24.5237 169.751 24.3089 169.751 24.0784V24.0315C169.751 23.6331 169.439 23.3127 169.059 23.3127H169.067Z" fill="#01A784"/>
<mask id="path-11-outside-1_3652_11286" maskUnits="userSpaceOnUse" x="-1" y="7" width="15" height="23" fill="black">
<rect fill="white" x="-1" y="7" width="15" height="23"/>
<path d="M11.365 8.81343C11.8192 8.81343 12.1866 9.18151 12.1866 9.635V18.4431C12.1866 20.0239 12.0903 20.9302 10.5943 22.8478C9.09756 24.7655 6.5 28.0748 6.5 28.0748C6.5 28.0748 3.90176 24.7662 2.40573 22.8478C0.909688 20.9302 0.813432 20.0239 0.813432 18.4431V9.635C0.813432 9.18083 1.18151 8.81343 1.635 8.81343C1.84242 8.81343 2.03087 8.89071 2.17593 9.01747L2.17796 9.0195C2.24236 9.07644 2.29795 9.14355 2.34201 9.21811L6.49932 14.2472L10.6566 9.21811C10.7007 9.14355 10.7563 9.07644 10.8207 9.0195L10.8227 9.01747C10.9671 8.89071 11.1562 8.81343 11.3636 8.81343M11.365 8C10.982 8 10.6112 8.13489 10.317 8.38096C10.2974 8.39723 10.2777 8.41417 10.2594 8.4318C10.1598 8.52331 10.0716 8.62702 9.99776 8.7409L6.50068 12.9707L3.0036 8.7409C2.92564 8.6216 2.83278 8.51314 2.72635 8.41824C2.72093 8.41349 2.71619 8.40875 2.71076 8.404C2.41183 8.14371 2.03019 8 1.635 8C0.733445 8 0 8.73344 0 9.635V18.4431C0 20.2401 0.17421 21.3098 1.76447 23.3481C3.24424 25.2448 5.83434 28.5439 5.8601 28.5771C6.01397 28.7737 6.24987 28.8883 6.5 28.8883C6.75013 28.8883 6.98535 28.7737 7.1399 28.5771C7.16566 28.5439 9.75576 25.2454 11.2355 23.3481C12.8258 21.3098 13 20.2401 13 18.4431V9.635C13 8.73344 12.2666 8 11.365 8Z"/>
</mask>
<path d="M11.365 8.81343C11.8192 8.81343 12.1866 9.18151 12.1866 9.635V18.4431C12.1866 20.0239 12.0903 20.9302 10.5943 22.8478C9.09756 24.7655 6.5 28.0748 6.5 28.0748C6.5 28.0748 3.90176 24.7662 2.40573 22.8478C0.909688 20.9302 0.813432 20.0239 0.813432 18.4431V9.635C0.813432 9.18083 1.18151 8.81343 1.635 8.81343C1.84242 8.81343 2.03087 8.89071 2.17593 9.01747L2.17796 9.0195C2.24236 9.07644 2.29795 9.14355 2.34201 9.21811L6.49932 14.2472L10.6566 9.21811C10.7007 9.14355 10.7563 9.07644 10.8207 9.0195L10.8227 9.01747C10.9671 8.89071 11.1562 8.81343 11.3636 8.81343M11.365 8C10.982 8 10.6112 8.13489 10.317 8.38096C10.2974 8.39723 10.2777 8.41417 10.2594 8.4318C10.1598 8.52331 10.0716 8.62702 9.99776 8.7409L6.50068 12.9707L3.0036 8.7409C2.92564 8.6216 2.83278 8.51314 2.72635 8.41824C2.72093 8.41349 2.71619 8.40875 2.71076 8.404C2.41183 8.14371 2.03019 8 1.635 8C0.733445 8 0 8.73344 0 9.635V18.4431C0 20.2401 0.17421 21.3098 1.76447 23.3481C3.24424 25.2448 5.83434 28.5439 5.8601 28.5771C6.01397 28.7737 6.24987 28.8883 6.5 28.8883C6.75013 28.8883 6.98535 28.7737 7.1399 28.5771C7.16566 28.5439 9.75576 25.2454 11.2355 23.3481C12.8258 21.3098 13 20.2401 13 18.4431V9.635C13 8.73344 12.2666 8 11.365 8Z" fill="#01A784"/>
<path d="M10.5943 22.8478L10.8308 23.0324L10.8308 23.0324L10.5943 22.8478ZM6.5 28.0748L6.26406 28.2601L6.50006 28.5606L6.73599 28.2601L6.5 28.0748ZM2.40573 22.8478L2.64229 22.6634L2.64226 22.6633L2.40573 22.8478ZM2.17593 9.01747L2.38805 8.80533L2.38092 8.7982L2.37333 8.79156L2.17593 9.01747ZM2.17796 9.0195L1.96584 9.23164L1.97235 9.23815L1.97924 9.24425L2.17796 9.0195ZM2.34201 9.21811L2.08373 9.37073L2.09574 9.39106L2.11078 9.40926L2.34201 9.21811ZM6.49932 14.2472L6.2681 14.4383L6.49932 14.718L6.73055 14.4383L6.49932 14.2472ZM10.6566 9.21811L10.8879 9.40926L10.9029 9.39106L10.9149 9.37073L10.6566 9.21811ZM10.8207 9.0195L11.0194 9.24425L11.0263 9.23814L11.0328 9.23163L10.8207 9.0195ZM10.8227 9.01747L10.6248 8.79202L10.6175 8.79845L10.6106 8.80534L10.8227 9.01747ZM10.317 8.38096L10.5083 8.61208L10.5095 8.61108L10.317 8.38096ZM10.2594 8.4318L10.4624 8.65282L10.4675 8.64789L10.2594 8.4318ZM9.99776 8.7409L10.229 8.93206L10.24 8.91871L10.2494 8.90419L9.99776 8.7409ZM6.50068 12.9707L6.26947 13.1619L6.50068 13.4416L6.73189 13.1619L6.50068 12.9707ZM3.0036 8.7409L2.75246 8.905L2.76166 8.91909L2.77239 8.93206L3.0036 8.7409ZM2.72635 8.41824L2.92603 8.19432L2.9239 8.19247L2.72635 8.41824ZM2.71076 8.404L2.90831 8.17823L2.90777 8.17776L2.71076 8.404ZM1.76447 23.3481L1.52794 23.5326L1.52794 23.5326L1.76447 23.3481ZM5.8601 28.5771L5.62303 28.761L5.62387 28.762L5.8601 28.5771ZM7.1399 28.5771L7.37574 28.7625L7.37697 28.761L7.1399 28.5771ZM11.2355 23.3481L10.999 23.1636L10.999 23.1636L11.2355 23.3481ZM11.365 8.81343V9.11343C11.6533 9.11343 11.8866 9.34703 11.8866 9.635H12.1866H12.4866C12.4866 9.01599 11.985 8.51343 11.365 8.51343V8.81343ZM12.1866 9.635H11.8866V18.4431H12.1866H12.4866V9.635H12.1866ZM12.1866 18.4431H11.8866C11.8866 19.2306 11.8615 19.812 11.6655 20.4282C11.4695 21.0447 11.0948 21.7186 10.3577 22.6633L10.5943 22.8478L10.8308 23.0324C11.5898 22.0594 12.0112 21.3213 12.2373 20.61C12.4635 19.8986 12.4866 19.2364 12.4866 18.4431H12.1866ZM10.5943 22.8478L10.3578 22.6633C9.60963 23.6218 8.58624 24.9284 7.74977 25.9954C7.33156 26.5289 6.96011 27.0024 6.69322 27.3426C6.55978 27.5127 6.45247 27.6495 6.37853 27.7437C6.34156 27.7908 6.31293 27.8273 6.29354 27.852C6.28385 27.8643 6.27647 27.8737 6.27151 27.88C6.26903 27.8832 6.26715 27.8856 6.2659 27.8872C6.26527 27.888 6.2648 27.8886 6.26449 27.889C6.26433 27.8892 6.26421 27.8893 6.26413 27.8894C6.26409 27.8895 6.26406 27.8895 6.26404 27.8896C6.26402 27.8896 6.26401 27.8896 6.5 28.0748C6.73599 28.2601 6.736 28.26 6.73602 28.26C6.73604 28.26 6.73607 28.26 6.73611 28.2599C6.73618 28.2598 6.7363 28.2597 6.73646 28.2595C6.73678 28.259 6.73725 28.2584 6.73788 28.2576C6.73913 28.256 6.74101 28.2537 6.74349 28.2505C6.74845 28.2442 6.75584 28.2348 6.76553 28.2224C6.78493 28.1977 6.81356 28.1612 6.85054 28.1141C6.9245 28.0198 7.03182 27.8831 7.16529 27.713C7.43221 27.3727 7.8037 26.8991 8.22197 26.3655C9.05846 25.2985 10.0822 23.9915 10.8308 23.0324L10.5943 22.8478ZM6.5 28.0748C6.73594 27.8895 6.73593 27.8895 6.73592 27.8895C6.7359 27.8895 6.73587 27.8894 6.73583 27.8894C6.73575 27.8893 6.73563 27.8891 6.73547 27.8889C6.73516 27.8885 6.73469 27.8879 6.73406 27.8871C6.7328 27.8855 6.73093 27.8832 6.72845 27.88C6.72349 27.8737 6.71611 27.8643 6.70641 27.8519C6.68702 27.8272 6.65838 27.7908 6.6214 27.7437C6.54745 27.6495 6.44012 27.5127 6.30665 27.3427C6.03971 27.0025 5.66821 26.529 5.24996 25.9956C4.41341 24.9287 3.39005 23.6222 2.64229 22.6634L2.40573 22.8478L2.16916 23.0323C2.91744 23.9918 3.94121 25.2989 4.77779 26.3658C5.19611 26.8993 5.56767 27.3729 5.83465 27.7131C5.96814 27.8832 6.07549 28.0199 6.14947 28.1142C6.18645 28.1613 6.2151 28.1978 6.2345 28.2225C6.2442 28.2348 6.25159 28.2442 6.25655 28.2506C6.25903 28.2537 6.26091 28.2561 6.26216 28.2577C6.26279 28.2585 6.26326 28.2591 6.26358 28.2595C6.26374 28.2597 6.26386 28.2599 6.26394 28.26C6.26398 28.26 6.26401 28.26 6.26403 28.2601C6.26405 28.2601 6.26406 28.2601 6.5 28.0748ZM2.40573 22.8478L2.64226 22.6633C1.90525 21.7186 1.53046 21.0447 1.33446 20.4282C1.13853 19.812 1.11343 19.2306 1.11343 18.4431H0.813432H0.513432C0.513432 19.2364 0.536463 19.8986 0.762667 20.61C0.988808 21.3213 1.41017 22.0594 2.16919 23.0324L2.40573 22.8478ZM0.813432 18.4431H1.11343V9.635H0.813432H0.513432V18.4431H0.813432ZM0.813432 9.635H1.11343C1.11343 9.34668 1.34703 9.11343 1.635 9.11343V8.81343V8.51343C1.01599 8.51343 0.513432 9.01499 0.513432 9.635H0.813432ZM1.635 8.81343V9.11343C1.76602 9.11343 1.8852 9.16181 1.97853 9.24337L2.17593 9.01747L2.37333 8.79156C2.17654 8.6196 1.91883 8.51343 1.635 8.51343V8.81343ZM2.17593 9.01747L1.96381 9.22961L1.96584 9.23164L2.17796 9.0195L2.39009 8.80736L2.38805 8.80533L2.17593 9.01747ZM2.17796 9.0195L1.97924 9.24425C2.02028 9.28053 2.05572 9.32334 2.08373 9.37073L2.34201 9.21811L2.60028 9.0655C2.54017 8.96376 2.46444 8.87235 2.37669 8.79476L2.17796 9.0195ZM2.34201 9.21811L2.11078 9.40926L6.2681 14.4383L6.49932 14.2472L6.73055 14.056L2.57323 9.02697L2.34201 9.21811ZM6.49932 14.2472L6.73055 14.4383L10.8879 9.40926L10.6566 9.21811L10.4254 9.02697L6.2681 14.056L6.49932 14.2472ZM10.6566 9.21811L10.9149 9.37073C10.9429 9.32334 10.9784 9.28053 11.0194 9.24425L10.8207 9.0195L10.622 8.79476C10.5342 8.87235 10.4585 8.96376 10.3984 9.0655L10.6566 9.21811ZM10.8207 9.0195L11.0328 9.23163L11.0348 9.2296L10.8227 9.01747L10.6106 8.80534L10.6085 8.80737L10.8207 9.0195ZM10.8227 9.01747L11.0206 9.24291C11.1127 9.16206 11.2323 9.11343 11.3636 9.11343V8.81343V8.51343C11.0802 8.51343 10.8215 8.61936 10.6248 8.79202L10.8227 9.01747ZM11.365 8V7.7C10.9114 7.7 10.4726 7.85975 10.1246 8.15084L10.317 8.38096L10.5095 8.61108C10.7499 8.41003 11.0526 8.3 11.365 8.3V8ZM10.317 8.38096L10.1258 8.14984C10.1034 8.16838 10.0773 8.19069 10.0513 8.2157L10.2594 8.4318L10.4675 8.64789C10.4781 8.63765 10.4914 8.62608 10.5083 8.61208L10.317 8.38096ZM10.2594 8.4318L10.0565 8.21084C9.93859 8.31912 9.83399 8.44213 9.74609 8.57762L9.99776 8.7409L10.2494 8.90419C10.3093 8.81191 10.3809 8.7275 10.4623 8.65276L10.2594 8.4318ZM9.99776 8.7409L9.76655 8.54974L6.26947 12.7796L6.50068 12.9707L6.73189 13.1619L10.229 8.93206L9.99776 8.7409ZM6.50068 12.9707L6.73189 12.7796L3.23481 8.54974L3.0036 8.7409L2.77239 8.93206L6.26947 13.1619L6.50068 12.9707ZM3.0036 8.7409L3.25474 8.5768C3.16262 8.43581 3.05254 8.30715 2.92602 8.19433L2.72635 8.41824L2.52669 8.64215C2.61302 8.71913 2.68867 8.80738 2.75246 8.905L3.0036 8.7409ZM2.72635 8.41824L2.9239 8.19247C2.92539 8.19376 2.92629 8.19464 2.92325 8.19181C2.9212 8.18989 2.91522 8.18427 2.90831 8.17823L2.71076 8.404L2.51321 8.62978C2.51173 8.62848 2.51083 8.62761 2.51386 8.63044C2.51591 8.63235 2.5219 8.63797 2.5288 8.64401L2.72635 8.41824ZM2.71076 8.404L2.90777 8.17776C2.55463 7.87026 2.10315 7.7 1.635 7.7V8V8.3C1.95723 8.3 2.26902 8.41715 2.51376 8.63025L2.71076 8.404ZM1.635 8V7.7C0.567759 7.7 -0.3 8.56776 -0.3 9.635H0H0.3C0.3 8.89913 0.89913 8.3 1.635 8.3V8ZM0 9.635H-0.3V18.4431H0H0.3V9.635H0ZM0 18.4431H-0.3C-0.3 19.3495 -0.256788 20.1047 0.000534036 20.8977C0.257722 21.6903 0.721244 22.4987 1.52794 23.5326L1.76447 23.3481L2.001 23.1636C1.21744 22.1592 0.798723 21.4136 0.571241 20.7125C0.343893 20.0119 0.3 19.3338 0.3 18.4431H0ZM1.76447 23.3481L1.52794 23.5326C2.26806 24.4813 3.28572 25.7805 4.12144 26.8465C4.53933 27.3795 4.91177 27.8543 5.18135 28.198C5.31614 28.3698 5.42522 28.5088 5.50139 28.6059C5.53948 28.6544 5.56933 28.6925 5.59006 28.7189C5.60043 28.7321 5.6085 28.7424 5.61417 28.7496C5.617 28.7533 5.61921 28.7561 5.6208 28.7581C5.6226 28.7604 5.62314 28.7611 5.62303 28.761L5.8601 28.5771L6.09717 28.3933C6.07151 28.3602 3.4788 25.0577 2.001 23.1636L1.76447 23.3481ZM5.8601 28.5771L5.62387 28.762C5.83485 29.0316 6.15801 29.1883 6.5 29.1883V28.8883V28.5883C6.34172 28.5883 6.1931 28.5158 6.09633 28.3922L5.8601 28.5771ZM6.5 28.8883V29.1883C6.84237 29.1883 7.16444 29.0313 7.37574 28.7625L7.1399 28.5771L6.90406 28.3917C6.80625 28.5161 6.65789 28.5883 6.5 28.5883V28.8883ZM7.1399 28.5771L7.37697 28.761C7.37685 28.7611 7.37738 28.7604 7.37919 28.7581C7.38077 28.7561 7.38298 28.7533 7.38582 28.7497C7.39149 28.7424 7.39955 28.7322 7.40992 28.7189C7.43065 28.6925 7.4605 28.6545 7.4986 28.6059C7.57477 28.5089 7.68385 28.3699 7.81863 28.1981C8.08821 27.8545 8.46066 27.3798 8.87855 26.8468C9.71428 25.7808 10.732 24.4816 11.4721 23.5326L11.2355 23.3481L10.999 23.1636C9.52137 25.0582 6.92835 28.3604 6.90283 28.3933L7.1399 28.5771ZM11.2355 23.3481L11.4721 23.5326C12.2788 22.4987 12.7423 21.6903 12.9995 20.8977C13.2568 20.1047 13.3 19.3495 13.3 18.4431H13H12.7C12.7 19.3338 12.6561 20.0119 12.4288 20.7125C12.2013 21.4136 11.7826 22.1592 10.999 23.1636L11.2355 23.3481ZM13 18.4431H13.3V9.635H13H12.7V18.4431H13ZM13 9.635H13.3C13.3 8.56776 12.4322 7.7 11.365 7.7V8V8.3C12.1009 8.3 12.7 8.89913 12.7 9.635H13Z" fill="#01A784" mask="url(#path-11-outside-1_3652_11286)"/>
<path d="M2.34107 9.21816C2.29701 9.14359 2.24143 9.07649 2.17703 9.01955L2.175 9.01751C2.03061 8.89075 1.84149 8.81348 1.63407 8.81348C1.1799 8.81348 0.8125 9.18155 0.8125 9.63504V18.4432C0.8125 20.0239 0.908756 20.9302 2.40479 22.8479C3.90083 24.7656 6.49907 28.0749 6.49907 28.0749V14.2472L2.34107 9.21816Z" fill="white"/>
<path d="M10.658 9.21816C10.7021 9.14359 10.7576 9.07649 10.822 9.01955L10.8241 9.01751C10.9685 8.89075 11.1576 8.81348 11.365 8.81348C11.8192 8.81348 12.1866 9.18155 12.1866 9.63504V18.4432C12.1866 20.0239 12.0903 20.9302 10.5943 22.8479C9.09824 24.7656 6.5 28.0749 6.5 28.0749V14.2472L10.6573 9.21816H10.658Z" fill="#01A784"/>
</g>
</svg>
