<svg width="134" height="128" viewBox="0 0 134 128" fill="none" xmlns="http://www.w3.org/2000/svg">
<mask id="mask0_3651_11156" style="mask-type:alpha" maskUnits="userSpaceOnUse" x="0" y="0" width="134" height="128">
<rect width="134" height="128" fill="#FF0000"/>
</mask>
<g mask="url(#mask0_3651_11156)">
<path d="M120.416 71.6015H123.344V79.9535H120.416V71.6015ZM116.432 81.3455V84.4415H127.448V81.3455H116.432ZM113.672 78.6815H130.4V87.1055H113.672V78.6815ZM121.784 73.7375H131.984V76.4255H121.784V73.7375ZM117.656 88.9295L120.392 88.6655C120.52 89.1935 120.632 89.7695 120.728 90.3935C120.824 91.0015 120.904 91.5855 120.968 92.1455C121.032 92.7055 121.064 93.2015 121.064 93.6335L118.16 93.9935C118.16 93.5775 118.136 93.0735 118.088 92.4815C118.056 91.9055 118 91.3055 117.92 90.6815C117.856 90.0575 117.768 89.4735 117.656 88.9295ZM122.6 88.9535L125.24 88.3535C125.48 88.8655 125.72 89.4175 125.96 90.0095C126.216 90.5855 126.44 91.1455 126.632 91.6895C126.824 92.2335 126.968 92.7215 127.064 93.1535L124.256 93.8735C124.176 93.4575 124.048 92.9615 123.872 92.3855C123.712 91.8095 123.52 91.2255 123.296 90.6335C123.072 90.0255 122.84 89.4655 122.6 88.9535ZM127.496 88.8095L130.064 87.8735C130.464 88.3695 130.864 88.9215 131.264 89.5295C131.68 90.1375 132.064 90.7375 132.416 91.3295C132.768 91.9055 133.04 92.4335 133.232 92.9135L130.448 93.9935C130.272 93.5295 130.024 92.9935 129.704 92.3855C129.384 91.7935 129.024 91.1855 128.624 90.5615C128.24 89.9215 127.864 89.3375 127.496 88.8095ZM113.72 88.0415L116.48 88.7615C116.144 89.7055 115.696 90.6655 115.136 91.6415C114.576 92.6175 113.984 93.4255 113.36 94.0655L110.696 92.7695C111.288 92.2415 111.856 91.5455 112.4 90.6815C112.944 89.8175 113.384 88.9375 113.72 88.0415Z" fill="#01A784"/>
<path d="M5.35408 27.9662L12.0861 13.8227C13.5705 10.7041 17.3008 9.37972 20.4194 10.8641" stroke="#01A784" stroke-width="2" stroke-miterlimit="10" stroke-linecap="round"/>
<path d="M34.5719 41.8745C30.7316 49.9427 17.1921 51.5246 13.0047 49.5315C8.69026 47.4779 1.50527 36.0369 5.34766 27.9644" stroke="#01A784" stroke-width="4" stroke-miterlimit="10" stroke-linecap="round"/>
<path d="M38.3398 19.3955C41.4585 20.8799 42.7829 24.6102 41.2984 27.7289L34.5665 41.8723" stroke="#01A784" stroke-width="2" stroke-miterlimit="10" stroke-linecap="round"/>
<path d="M24.2698 10.0322L21.8739 8.89183C20.6232 8.29654 19.1273 8.82684 18.5326 10.0763C17.9378 11.3257 18.4696 12.8212 19.7202 13.4165L22.1162 14.5569C23.3668 15.1522 24.8628 14.6219 25.4575 13.3724C26.0522 12.123 25.5205 10.6275 24.2698 10.0322Z" fill="#01A784"/>
<path d="M38.9534 17.023L36.5575 15.8826C35.3068 15.2873 33.8109 15.8176 33.2161 17.067C32.6214 18.3165 33.1532 19.8119 34.4038 20.4072L36.7998 21.5476C38.0504 22.1429 39.5464 21.6126 40.1411 20.3632C40.7358 19.1137 40.2041 17.6183 38.9534 17.023Z" fill="#01A784"/>
<path d="M40.931 58.7993C29.0181 83.8273 3.14557 70.3252 13.0382 49.5415" stroke="#01A784" stroke-width="2" stroke-miterlimit="10" stroke-linecap="round"/>
<path d="M40.5259 58.2194C44.2368 59.9857 48.6769 58.4093 50.4432 54.6985C52.2095 50.9876 50.6331 46.5475 46.9222 44.7812C43.2114 43.0149 38.7713 44.5913 37.005 48.3021C35.2387 52.013 36.815 56.4531 40.5259 58.2194Z" fill="#01A784" stroke="#01A784" stroke-width="2" stroke-miterlimit="10" stroke-linecap="round"/>
<path d="M41.8101 55.5167C39.5938 54.4618 38.6504 51.8047 39.7054 49.5884C40.7603 47.372 43.4174 46.4287 45.6338 47.4836C47.8501 48.5385 48.7935 51.1956 47.7385 53.412C46.6836 55.6283 44.0265 56.5717 41.8101 55.5167Z" stroke="white" stroke-width="2" stroke-miterlimit="10" stroke-linecap="round"/>
<rect x="64" y="29.0015" width="68" height="86.9508" rx="2" fill="#01A784"/>
<rect x="68.4609" y="33.4604" width="59.082" height="78.0328" rx="1" fill="white"/>
<path d="M79.4466 84.1035H77.6037C76.8626 84.1035 76.2617 84.7043 76.2617 85.4455C76.2617 86.1867 76.8626 86.7875 77.6037 86.7875H79.4466C80.1878 86.7875 80.7886 86.1867 80.7886 85.4455C80.7886 84.7043 80.1878 84.1035 79.4466 84.1035Z" fill="#01A784"/>
<path d="M107.552 84.1035H88.717C87.9758 84.1035 87.375 84.7043 87.375 85.4455C87.375 86.1867 87.9758 86.7875 88.717 86.7875H107.552C108.293 86.7875 108.894 86.1867 108.894 85.4455C108.894 84.7043 108.293 84.1035 107.552 84.1035Z" fill="#01A784"/>
<path d="M79.4513 91.0874H77.599C76.8604 91.0874 76.2617 91.6861 76.2617 92.4247C76.2617 93.1632 76.8604 93.7619 77.599 93.7619H79.4513C80.1899 93.7619 80.7886 93.1632 80.7886 92.4247C80.7886 91.6861 80.1899 91.0874 79.4513 91.0874Z" fill="#01A784"/>
<path d="M104.278 91.0874H88.7123C87.9737 91.0874 87.375 91.6861 87.375 92.4247C87.375 93.1632 87.9737 93.7619 88.7123 93.7619H104.278C105.016 93.7619 105.615 93.1632 105.615 92.4247C105.615 91.6861 105.016 91.0874 104.278 91.0874Z" fill="#01A784"/>
<path d="M79.4513 98.0811H77.599C76.8604 98.0811 76.2617 98.6798 76.2617 99.4183C76.2617 100.157 76.8604 100.756 77.599 100.756H79.4513C80.1899 100.756 80.7886 100.157 80.7886 99.4183C80.7886 98.6798 80.1899 98.0811 79.4513 98.0811Z" fill="#01A784"/>
<path d="M104.278 98.0811H88.7123C87.9737 98.0811 87.375 98.6798 87.375 99.4183C87.375 100.157 87.9737 100.756 88.7123 100.756H104.278C105.016 100.756 105.615 100.157 105.615 99.4183C105.615 98.6798 105.016 98.0811 104.278 98.0811Z" fill="#01A784"/>
<path d="M79.4466 75.3613H77.6037C76.8626 75.3613 76.2617 75.9622 76.2617 76.7033C76.2617 77.4445 76.8626 78.0453 77.6037 78.0453H79.4466C80.1878 78.0453 80.7886 77.4445 80.7886 76.7033C80.7886 75.9622 80.1878 75.3613 79.4466 75.3613Z" fill="#01A784"/>
<path d="M117.381 75.3613H88.717C87.9758 75.3613 87.375 75.9622 87.375 76.7033C87.375 77.4445 87.9758 78.0453 88.717 78.0453H117.381C118.122 78.0453 118.723 77.4445 118.723 76.7033C118.723 75.9622 118.122 75.3613 117.381 75.3613Z" fill="#01A784"/>
<path d="M97.4958 68.6513C90.2566 68.6513 84.3594 62.7541 84.3594 55.5149C84.3594 48.2756 90.2471 42.3784 97.4958 42.3784C104.744 42.3784 110.632 48.2756 110.632 55.5149C110.632 62.7541 104.744 68.6513 97.4958 68.6513ZM97.4958 45.0624C91.7309 45.0624 87.0434 49.7499 87.0434 55.5149C87.0434 61.2798 91.7309 65.9673 97.4958 65.9673C103.261 65.9673 107.948 61.2798 107.948 55.5149C107.948 49.7499 103.261 45.0624 97.4958 45.0624Z" fill="#01A784"/>
<path d="M97.9768 59.1606C97.1962 59.9401 95.9318 59.9404 95.1509 59.1613L93.4046 57.419C92.8793 56.8949 92.8788 56.0441 93.4035 55.5194V55.5194C93.9277 54.9951 94.7777 54.9951 95.302 55.5194L95.4584 55.6759C96.0691 56.2865 97.0592 56.2865 97.6699 55.6759L100.718 52.6277C101.242 52.1033 102.093 52.1033 102.617 52.6277V52.6277C103.142 53.1523 103.141 54.003 102.616 54.5273L97.9768 59.1606Z" fill="#01A784"/>
</g>
</svg>
