<svg width="74" height="128" viewBox="0 0 74 128" fill="none" xmlns="http://www.w3.org/2000/svg">
<mask id="mask0_3651_11154" style="mask-type:alpha" maskUnits="userSpaceOnUse" x="0" y="0" width="74" height="128">
<rect width="74" height="128" fill="#FF0000"/>
</mask>
<g mask="url(#mask0_3651_11154)">
<mask id="path-2-inside-1_3651_11154" fill="white">
<path d="M45.1026 16.8403C45.1026 16.8403 41.6777 58.2536 35.6948 67.6433C29.7049 77.0331 7.46462 101.798 4.46965 103.078C1.47469 104.358 -2.37297 111.188 1.90455 112.897C6.18207 114.606 10.0297 117.166 19.4374 111.617C28.8452 106.067 34.8351 98.3868 46.815 95.3905C58.7948 92.4013 71.1975 88.1319 69.4851 79.1642C67.7727 70.2035 60.9301 65.5051 65.2076 43.7294C69.4851 21.9677 73.7626 13 73.7626 13"/>
</mask>
<path d="M48.0924 17.0875C48.2289 15.4363 47.001 13.9871 45.3498 13.8505C43.6986 13.7139 42.2493 14.9418 42.1128 16.593L45.1026 16.8403L48.0924 17.0875ZM35.6948 67.6433L38.224 69.2568L38.2249 69.2554L35.6948 67.6433ZM46.815 95.3905L46.0887 92.4798L46.0871 92.4802L46.815 95.3905ZM69.4851 79.1642L72.4319 78.6015L72.4318 78.6011L69.4851 79.1642ZM65.2076 43.7294L62.2639 43.1508L62.2639 43.1511L65.2076 43.7294ZM76.4704 14.2916C77.1837 12.7961 76.5496 11.0056 75.0542 10.2923C73.5588 9.57895 71.7682 10.213 71.0549 11.7084L73.7626 13L76.4704 14.2916ZM45.1026 16.8403C42.1128 16.593 42.1128 16.593 42.1128 16.5932C42.1127 16.5934 42.1127 16.5937 42.1127 16.5942C42.1126 16.5952 42.1125 16.5969 42.1123 16.5991C42.1119 16.6036 42.1113 16.6107 42.1105 16.6201C42.1089 16.6391 42.1065 16.6678 42.1033 16.7061C42.0968 16.7827 42.087 16.8975 42.0739 17.0481C42.0477 17.3494 42.0084 17.7942 41.9562 18.3646C41.8518 19.5057 41.6957 21.1488 41.4897 23.1508C41.0775 27.1571 40.4665 32.5897 39.6709 38.3072C38.874 44.0337 37.8981 50.0004 36.761 55.0899C35.592 60.3223 34.3428 64.1825 33.1648 66.0312L35.6948 67.6433L38.2249 69.2554C40.0383 66.4093 41.4608 61.5716 42.6166 56.3982C43.8044 51.0818 44.8065 44.9346 45.6136 39.1341C46.4221 33.3246 47.0413 27.817 47.4582 23.7649C47.6668 21.7377 47.825 20.072 47.9312 18.9116C47.9843 18.3313 48.0245 17.8772 48.0514 17.5673C48.0648 17.4123 48.075 17.2933 48.0818 17.2126C48.0853 17.1723 48.0879 17.1415 48.0896 17.1206C48.0905 17.1101 48.0911 17.1021 48.0916 17.0966C48.0918 17.0938 48.092 17.0917 48.0921 17.0902C48.0922 17.0894 48.0923 17.0888 48.0923 17.0884C48.0923 17.0879 48.0924 17.0875 45.1026 16.8403ZM35.6948 67.6433L33.1656 66.0299C30.3148 70.4988 23.4081 78.8748 16.7161 86.4097C13.3958 90.1481 10.1831 93.6182 7.62886 96.2203C6.34868 97.5244 5.2583 98.5856 4.41568 99.346C3.99278 99.7276 3.65979 100.009 3.41434 100.198C3.11218 100.431 3.10379 100.399 3.29059 100.32L4.46965 103.078L5.64872 105.837C6.20989 105.597 6.72623 105.221 7.08181 104.947C7.49411 104.628 7.95189 104.237 8.43545 103.8C9.40574 102.925 10.591 101.768 11.9107 100.423C14.5559 97.7286 17.8392 94.1805 21.2022 90.394C27.8766 82.879 35.0849 74.1776 38.224 69.2568L35.6948 67.6433ZM4.46965 103.078L3.29059 100.32C1.95128 100.892 0.791044 101.935 -0.0885077 102.977C-0.999625 104.056 -1.80822 105.369 -2.33958 106.748C-2.85449 108.085 -3.21624 109.768 -2.85312 111.453C-2.44839 113.332 -1.2032 114.886 0.791428 115.683L1.90455 112.897L3.01768 110.111C2.8846 110.058 2.89996 110.035 2.95469 110.1C3.00903 110.164 3.01769 110.215 3.01233 110.19C2.98743 110.074 2.97274 109.649 3.25942 108.905C3.52965 108.203 3.97719 107.462 4.49617 106.847C5.04671 106.195 5.49055 105.904 5.64872 105.837L4.46965 103.078ZM1.90455 112.897L0.791428 115.683C2.60345 116.407 5.26966 117.776 8.56787 117.973C12.0241 118.18 15.9335 117.167 20.9617 114.201L19.4374 111.617L17.9132 109.033C13.5337 111.616 10.8154 112.097 8.92647 111.984C6.87955 111.862 5.48318 111.096 3.01768 110.111L1.90455 112.897ZM19.4374 111.617L20.9617 114.201C25.8033 111.345 30.0253 107.767 33.9089 104.985C37.922 102.11 42.0631 99.6714 47.5429 98.3009L46.815 95.3905L46.0871 92.4802C39.587 94.1059 34.7432 97.0061 30.4144 100.108C25.9561 103.302 22.4793 106.339 17.9132 109.033L19.4374 111.617ZM46.815 95.3905L47.5413 98.3013C53.532 96.8065 60.0062 94.9098 64.7983 92.1095C67.21 90.7001 69.4067 88.9437 70.8661 86.6963C72.3821 84.3617 73.0102 81.6299 72.4319 78.6015L69.4851 79.1642L66.5384 79.7269C66.8163 81.1824 66.5362 82.3472 65.8339 83.4286C65.0751 84.5973 63.7434 85.7765 61.771 86.9291C57.7949 89.2527 52.0779 90.9853 46.0887 92.4798L46.815 95.3905ZM69.4851 79.1642L72.4318 78.6011C70.4393 68.1749 64.0095 65.3926 68.1513 44.3077L65.2076 43.7294L62.2639 43.1511C57.8506 65.6177 65.1061 72.2322 66.5384 79.7273L69.4851 79.1642ZM65.2076 43.7294L68.1513 44.308C70.2686 33.5363 72.3784 25.9693 73.9437 21.1268C74.7264 18.7056 75.373 16.9655 75.8165 15.8463C76.0382 15.2868 76.2091 14.8824 76.3209 14.6258C76.3768 14.4975 76.4179 14.4061 76.4431 14.3507C76.4558 14.323 76.4645 14.3043 76.469 14.2945C76.4713 14.2896 76.4726 14.2869 76.4728 14.2864C76.4729 14.2862 76.4728 14.2865 76.4724 14.2873C76.4722 14.2878 76.4719 14.2883 76.4716 14.289C76.4714 14.2894 76.4711 14.29 76.471 14.2902C76.4707 14.2909 76.4704 14.2916 73.7626 13C71.0549 11.7084 71.0545 11.7092 71.0541 11.71C71.054 11.7103 71.0536 11.7112 71.0533 11.7118C71.0527 11.713 71.052 11.7144 71.0513 11.7159C71.0499 11.719 71.0482 11.7226 71.0462 11.7267C71.0423 11.735 71.0374 11.7455 71.0314 11.7583C71.0196 11.7837 71.0037 11.818 70.984 11.8613C70.9445 11.9479 70.8895 12.0704 70.8201 12.2299C70.6812 12.5487 70.4845 13.0149 70.2384 13.6361C69.7461 14.8785 69.056 16.7404 68.2346 19.2813C66.5919 24.3631 64.4241 32.1608 62.2639 43.1508L65.2076 43.7294Z" fill="#01A784" mask="url(#path-2-inside-1_3651_11154)"/>
<path d="M43.2896 33.1944C43.4421 32.0225 44.5617 31.2245 45.7238 31.4394C48.3385 31.9229 52.8135 32.6447 56.2255 32.6447C59.1916 32.6447 62.8737 32.0734 65.4524 31.5914C66.9161 31.3178 68.2224 32.6399 67.8841 34.09C66.9821 37.957 65.4944 44.4831 64.7806 48.4419C63.3383 56.4119 64.3711 62.1964 65.2716 65.2709C65.6492 66.5599 64.8788 68.1301 63.6903 68.7559C61.6213 69.8455 58.7523 72.097 56.9936 76.6111C54.868 82.0623 55.3727 88.1652 55.8448 91.249C56.0153 92.3627 55.3224 93.4658 54.2256 93.7234C50.3126 94.6422 41.8269 96.765 39.5453 98.3939C37.4148 99.91 33.3372 102.725 31.1608 104.224C30.3299 104.796 29.2052 104.657 28.5356 103.902L17.6496 91.6345C16.9664 90.8645 16.9701 89.7094 17.6607 88.946C21.4334 84.7754 32.9036 71.798 36.4587 64.3447C39.9577 57.0091 42.4854 39.3716 43.2896 33.1944Z" fill="#01A784"/>
</g>
</svg>
