<svg width="120" height="128" viewBox="0 0 120 128" fill="none" xmlns="http://www.w3.org/2000/svg">
<mask id="mask0_3651_11159" style="mask-type:alpha" maskUnits="userSpaceOnUse" x="0" y="0" width="120" height="128">
<rect width="120" height="128" fill="#FF0000"/>
</mask>
<g mask="url(#mask0_3651_11159)">
<path d="M102.492 94.7741C102.492 95.7159 101.331 96.2729 100.444 95.9579V95.9579C99.9402 95.7793 99.5742 95.334 99.5742 94.7999V45.3777C99.5742 44.5721 100.227 43.9189 101.033 43.9189V43.9189C101.839 43.9189 102.492 44.5721 102.492 45.3777V94.7741Z" fill="#01A784" stroke="#01A784" stroke-width="0.75" stroke-miterlimit="10"/>
<path d="M111.501 24.1206H90.5663C89.1533 24.1206 88.0078 25.2647 88.0078 26.6761V40.2426C88.0078 41.654 89.1533 42.7981 90.5663 42.7981H111.501C112.914 42.7981 114.06 41.654 114.06 40.2426V26.6761C114.06 25.2647 112.914 24.1206 111.501 24.1206Z" fill="#01A784"/>
<path d="M31.7483 96.894H18.3633V78.4316C18.3633 74.7463 21.3617 71.7515 25.0603 71.7515C28.7589 71.7515 31.7483 74.7463 31.7483 78.4316V96.894Z" fill="#01A784"/>
<path d="M90.9097 58.9473V98.015H7.81641V58.9473" stroke="#01A784" stroke-width="2.5" stroke-linecap="round" stroke-linejoin="round"/>
<path d="M32.8716 98.015H17.2422V78.4318C17.2422 74.1189 20.7433 70.6309 25.0524 70.6309C29.3704 70.6309 32.8626 74.1279 32.8626 78.4318V98.015H32.8716Z" stroke="#01A784" stroke-width="2.5" stroke-linecap="round" stroke-linejoin="round"/>
<path d="M92.7239 47.1025H6C4.89543 47.1025 4 47.998 4 49.1025V56.9475C4 58.0521 4.89543 58.9475 6 58.9475H92.7239C93.8285 58.9475 94.7239 58.0521 94.7239 56.9475V49.1025C94.7239 47.998 93.8285 47.1025 92.7239 47.1025Z" fill="#01A784"/>
<path d="M92.7239 98.0151H6C4.89543 98.0151 4 98.9106 4 100.015V101.503C4 102.607 4.89543 103.503 6 103.503H92.7239C93.8285 103.503 94.7239 102.607 94.7239 101.503V100.015C94.7239 98.9106 93.8285 98.0151 92.7239 98.0151Z" fill="#01A784"/>
<path d="M101.382 105C102.423 103.646 103.024 102.05 103.024 100.328C103.024 95.4774 98.2395 91.541 92.3325 91.541C86.4255 91.541 81.6406 95.4774 81.6406 100.328C81.6406 102.05 82.2511 103.646 83.2835 105H101.364H101.382Z" fill="#01A784"/>
<path d="M96.2692 105C96.2579 105 96.2472 104.995 96.2403 104.986C95.2057 103.635 94.6084 102.044 94.6084 100.328C94.6084 95.4774 99.3933 91.541 105.3 91.541C111.207 91.541 115.992 95.4774 115.992 100.328C115.992 101.374 115.767 102.374 115.358 103.301C114.855 104.443 113.617 105 112.369 105H96.2692V105Z" fill="#01A784"/>
<path d="M84.7972 105C84.8085 105 84.8192 104.995 84.8261 104.986C85.8607 103.635 86.458 102.044 86.458 100.328C86.458 95.4774 81.6731 91.541 75.7661 91.541C69.8591 91.541 65.0742 95.4774 65.0742 100.328C65.0742 101.374 65.2996 102.374 65.7081 103.301C66.2112 104.443 67.4494 105 68.6972 105H84.7972V105Z" fill="#01A784"/>
</g>
</svg>
