<svg width="300" height="152" viewBox="0 0 300 152" fill="none" xmlns="http://www.w3.org/2000/svg">
<rect x="48" width="62" height="37" rx="5" fill="#F1F7F6"/>
<path d="M72.798 12.142H74.464V16.412H72.798V12.142ZM69.634 15.67H77.726V17.098H69.634V15.67ZM70.362 13.22H76.998V14.606H70.362V13.22ZM72.798 19.618H74.464V24.336H72.798V19.618ZM69.046 23.482H77.866V24.952H69.046V23.482ZM70.18 20.724H77.138V22.152H70.18V20.724ZM71.426 16.524H72.91C72.882 17.1213 72.798 17.6533 72.658 18.12C72.518 18.5773 72.2707 18.974 71.916 19.31C71.5613 19.646 71.0433 19.9213 70.362 20.136C70.2873 19.9587 70.166 19.7487 69.998 19.506C69.8393 19.254 69.6807 19.0627 69.522 18.932C70.054 18.792 70.446 18.6193 70.698 18.414C70.9593 18.1993 71.1413 17.938 71.244 17.63C71.3467 17.3127 71.4073 16.944 71.426 16.524ZM74.086 16.566H75.542V18.05C75.542 18.2087 75.556 18.3067 75.584 18.344C75.612 18.372 75.6727 18.386 75.766 18.386C75.794 18.386 75.8453 18.386 75.92 18.386C75.9947 18.386 76.0647 18.386 76.13 18.386C76.2047 18.386 76.2607 18.386 76.298 18.386C76.3633 18.386 76.4147 18.3673 76.452 18.33C76.4893 18.2833 76.5173 18.19 76.536 18.05C76.5547 17.91 76.5687 17.6953 76.578 17.406C76.718 17.5087 76.914 17.6113 77.166 17.714C77.4273 17.8167 77.656 17.8913 77.852 17.938C77.7773 18.6287 77.6373 19.0953 77.432 19.338C77.2267 19.5713 76.9093 19.688 76.48 19.688C76.424 19.688 76.354 19.688 76.27 19.688C76.186 19.688 76.0973 19.688 76.004 19.688C75.9107 19.688 75.8173 19.688 75.724 19.688C75.64 19.688 75.57 19.688 75.514 19.688C75.122 19.688 74.8187 19.6367 74.604 19.534C74.3987 19.4313 74.2587 19.2633 74.184 19.03C74.1187 18.7873 74.086 18.4607 74.086 18.05V16.566ZM65.322 12.702H68.738V14.2H66.89V25.26H65.322V12.702ZM68.29 12.702H68.57L68.822 12.646L69.956 13.29C69.8347 13.6913 69.6993 14.116 69.55 14.564C69.41 15.012 69.2653 15.4553 69.116 15.894C68.976 16.3327 68.8407 16.734 68.71 17.098C69.1393 17.63 69.4193 18.134 69.55 18.61C69.6807 19.086 69.746 19.5247 69.746 19.926C69.746 20.374 69.6947 20.7473 69.592 21.046C69.4893 21.3447 69.326 21.5733 69.102 21.732C68.99 21.816 68.864 21.8813 68.724 21.928C68.584 21.9747 68.4393 22.012 68.29 22.04C68.1593 22.0493 68.0147 22.0587 67.856 22.068C67.6973 22.0773 67.534 22.0773 67.366 22.068C67.3567 21.8627 67.3193 21.6153 67.254 21.326C67.1887 21.0367 67.1 20.7893 66.988 20.584C67.1093 20.5933 67.2167 20.6027 67.31 20.612C67.4127 20.612 67.506 20.612 67.59 20.612C67.7487 20.6027 67.884 20.5607 67.996 20.486C68.08 20.4207 68.136 20.3227 68.164 20.192C68.2013 20.0613 68.22 19.898 68.22 19.702C68.22 19.3753 68.1547 19.0067 68.024 18.596C67.9027 18.1853 67.6413 17.7467 67.24 17.28C67.3427 16.9627 67.4453 16.6173 67.548 16.244C67.6507 15.8707 67.7487 15.4927 67.842 15.11C67.9353 14.7273 68.0193 14.368 68.094 14.032C68.1687 13.696 68.234 13.4207 68.29 13.206V12.702ZM86.294 16.314H92.118V18.008H86.294V16.314ZM80.302 22.866H93.112V24.56H80.302V22.866ZM85.342 12.282H87.148V23.804H85.342V12.282Z" fill="#2C837B"/>
<path d="M68.5006 46L73 37H64L68.5006 46Z" fill="#F1F7F6"/>
<rect x="175" width="77" height="37" rx="5" fill="#F1F7F6"/>
<path d="M202.02 12.828C202.141 12.996 202.267 13.1967 202.398 13.43C202.538 13.6633 202.673 13.8967 202.804 14.13C202.935 14.3633 203.042 14.5687 203.126 14.746L202.006 15.236C201.857 14.9467 201.684 14.62 201.488 14.256C201.292 13.8827 201.101 13.5607 200.914 13.29L202.02 12.828ZM203.672 12.198C203.793 12.3753 203.924 12.5853 204.064 12.828C204.213 13.0613 204.353 13.2947 204.484 13.528C204.615 13.752 204.722 13.9433 204.806 14.102L203.686 14.578C203.546 14.2887 203.369 13.962 203.154 13.598C202.949 13.234 202.753 12.9213 202.566 12.66L203.672 12.198ZM193.788 19.646C193.947 19.254 194.096 18.8433 194.236 18.414C194.385 17.9753 194.516 17.5273 194.628 17.07C194.74 16.6033 194.838 16.1413 194.922 15.684C195.015 15.2267 195.081 14.774 195.118 14.326L197.162 14.746C197.125 14.8767 197.083 15.0307 197.036 15.208C196.989 15.3853 196.947 15.558 196.91 15.726C196.873 15.894 196.845 16.034 196.826 16.146C196.779 16.3887 196.714 16.6827 196.63 17.028C196.546 17.3733 196.448 17.742 196.336 18.134C196.224 18.5167 196.107 18.904 195.986 19.296C195.874 19.6787 195.757 20.0333 195.636 20.36C195.468 20.808 195.267 21.2747 195.034 21.76C194.81 22.2453 194.567 22.712 194.306 23.16C194.054 23.608 193.807 24.0093 193.564 24.364L191.604 23.538C192.052 22.9593 192.467 22.32 192.85 21.62C193.242 20.92 193.555 20.262 193.788 19.646ZM200.704 19.352C200.564 18.9787 200.41 18.582 200.242 18.162C200.074 17.742 199.897 17.322 199.71 16.902C199.523 16.482 199.341 16.0853 199.164 15.712C198.987 15.3387 198.823 15.0167 198.674 14.746L200.536 14.144C200.676 14.4147 200.839 14.7413 201.026 15.124C201.213 15.5067 201.399 15.9127 201.586 16.342C201.773 16.762 201.955 17.182 202.132 17.602C202.309 18.022 202.468 18.4 202.608 18.736C202.729 19.044 202.86 19.408 203 19.828C203.149 20.248 203.299 20.6867 203.448 21.144C203.607 21.592 203.751 22.0307 203.882 22.46C204.022 22.8893 204.139 23.2767 204.232 23.622L202.16 24.294C202.039 23.7433 201.899 23.1833 201.74 22.614C201.581 22.0447 201.413 21.4847 201.236 20.934C201.068 20.3833 200.891 19.856 200.704 19.352ZM218.176 14.508C218.12 14.592 218.036 14.7227 217.924 14.9C217.821 15.0773 217.742 15.2407 217.686 15.39C217.49 15.8287 217.247 16.3187 216.958 16.86C216.678 17.4013 216.356 17.9473 215.992 18.498C215.637 19.0393 215.259 19.548 214.858 20.024C214.335 20.612 213.757 21.1953 213.122 21.774C212.497 22.3433 211.834 22.8707 211.134 23.356C210.443 23.832 209.734 24.2427 209.006 24.588L207.564 23.076C208.32 22.7867 209.053 22.4227 209.762 21.984C210.471 21.5453 211.129 21.0693 211.736 20.556C212.343 20.0427 212.865 19.5433 213.304 19.058C213.612 18.7033 213.901 18.3253 214.172 17.924C214.452 17.5227 214.699 17.126 214.914 16.734C215.129 16.3327 215.287 15.964 215.39 15.628C215.297 15.628 215.129 15.628 214.886 15.628C214.643 15.628 214.359 15.628 214.032 15.628C213.715 15.628 213.379 15.628 213.024 15.628C212.669 15.628 212.329 15.628 212.002 15.628C211.685 15.628 211.405 15.628 211.162 15.628C210.919 15.628 210.747 15.628 210.644 15.628C210.448 15.628 210.243 15.6373 210.028 15.656C209.813 15.6653 209.608 15.6793 209.412 15.698C209.225 15.7073 209.081 15.7167 208.978 15.726V13.738C209.118 13.7473 209.291 13.7613 209.496 13.78C209.701 13.7987 209.907 13.8127 210.112 13.822C210.327 13.8313 210.504 13.836 210.644 13.836C210.765 13.836 210.957 13.836 211.218 13.836C211.479 13.836 211.778 13.836 212.114 13.836C212.45 13.836 212.795 13.836 213.15 13.836C213.514 13.836 213.859 13.836 214.186 13.836C214.522 13.836 214.811 13.836 215.054 13.836C215.297 13.836 215.474 13.836 215.586 13.836C215.894 13.836 216.174 13.8173 216.426 13.78C216.687 13.7427 216.888 13.7007 217.028 13.654L218.176 14.508ZM215.04 18.862C215.404 19.1513 215.791 19.4873 216.202 19.87C216.613 20.2527 217.019 20.6493 217.42 21.06C217.821 21.4707 218.19 21.8673 218.526 22.25C218.871 22.6233 219.161 22.95 219.394 23.23L217.798 24.616C217.453 24.14 217.056 23.6453 216.608 23.132C216.169 22.6187 215.703 22.11 215.208 21.606C214.723 21.0927 214.228 20.6073 213.724 20.15L215.04 18.862ZM228.186 13.038C228.102 13.2153 228.018 13.4113 227.934 13.626C227.85 13.8407 227.78 14.0227 227.724 14.172C227.64 14.4053 227.537 14.6667 227.416 14.956C227.304 15.2453 227.183 15.5393 227.052 15.838C226.931 16.1273 226.805 16.3933 226.674 16.636C226.497 16.9907 226.273 17.3733 226.002 17.784C225.741 18.1853 225.461 18.5727 225.162 18.946C224.863 19.31 224.555 19.6273 224.238 19.898L222.488 18.834C222.74 18.6567 222.978 18.4467 223.202 18.204C223.435 17.9613 223.655 17.7093 223.86 17.448C224.075 17.1867 224.271 16.93 224.448 16.678C224.625 16.4167 224.779 16.174 224.91 15.95C225.097 15.6327 225.255 15.3013 225.386 14.956C225.526 14.6107 225.638 14.3073 225.722 14.046C225.806 13.8127 225.871 13.57 225.918 13.318C225.974 13.0567 226.007 12.8187 226.016 12.604L228.186 13.038ZM225.974 15.194C226.133 15.194 226.366 15.194 226.674 15.194C226.982 15.194 227.341 15.194 227.752 15.194C228.163 15.194 228.592 15.194 229.04 15.194C229.497 15.194 229.95 15.194 230.398 15.194C230.855 15.194 231.28 15.194 231.672 15.194C232.073 15.194 232.419 15.194 232.708 15.194C233.007 15.194 233.226 15.194 233.366 15.194C233.553 15.194 233.786 15.1893 234.066 15.18C234.346 15.1613 234.598 15.1333 234.822 15.096V17.014C234.561 16.986 234.29 16.972 234.01 16.972C233.739 16.9627 233.525 16.958 233.366 16.958C233.207 16.958 232.941 16.958 232.568 16.958C232.195 16.958 231.761 16.958 231.266 16.958C230.771 16.958 230.249 16.958 229.698 16.958C229.157 16.958 228.629 16.958 228.116 16.958C227.603 16.958 227.145 16.958 226.744 16.958C226.343 16.958 226.035 16.958 225.82 16.958L225.974 15.194ZM231.434 16.202C231.415 17.238 231.308 18.19 231.112 19.058C230.916 19.9167 230.636 20.696 230.272 21.396C229.917 22.096 229.479 22.7307 228.956 23.3C228.433 23.86 227.836 24.35 227.164 24.77L225.274 23.496C225.526 23.3933 225.769 23.2767 226.002 23.146C226.235 23.006 226.436 22.866 226.604 22.726C227.005 22.418 227.374 22.068 227.71 21.676C228.055 21.2747 228.359 20.8127 228.62 20.29C228.891 19.758 229.101 19.156 229.25 18.484C229.409 17.812 229.493 17.0513 229.502 16.202H231.434Z" fill="#2C837B"/>
<path d="M195.501 46L200 37H191L195.501 46Z" fill="#F1F7F6"/>
<rect y="62" width="62" height="37" rx="5" fill="#F1F7F6"/>
<path d="M17.028 77.544H20.92V79.238H17.028V77.544ZM22.46 74.114H24.252V85.076C24.252 85.58 24.1913 85.972 24.07 86.252C23.9487 86.532 23.7387 86.7467 23.44 86.896C23.1413 87.0453 22.7587 87.1433 22.292 87.19C21.8347 87.246 21.284 87.274 20.64 87.274C20.6213 87.0967 20.5747 86.8913 20.5 86.658C20.4347 86.434 20.3553 86.21 20.262 85.986C20.1687 85.7527 20.0753 85.5567 19.982 85.398C20.4393 85.4167 20.8687 85.426 21.27 85.426C21.6713 85.426 21.942 85.426 22.082 85.426C22.222 85.426 22.32 85.398 22.376 85.342C22.432 85.286 22.46 85.1973 22.46 85.076V74.114ZM20.346 77.544H20.696L21.004 77.474L22.152 77.894C21.9467 79.1727 21.6387 80.3347 21.228 81.38C20.8267 82.4253 20.3507 83.3447 19.8 84.138C19.2587 84.922 18.652 85.5613 17.98 86.056C17.8867 85.916 17.756 85.762 17.588 85.594C17.42 85.4167 17.2427 85.2487 17.056 85.09C16.8787 84.9313 16.72 84.81 16.58 84.726C17.224 84.2873 17.798 83.7367 18.302 83.074C18.806 82.402 19.2307 81.632 19.576 80.764C19.9307 79.8867 20.1873 78.9347 20.346 77.908V77.544ZM24.14 76.158C24.364 77.0913 24.6487 77.9873 24.994 78.846C25.3487 79.7047 25.764 80.5073 26.24 81.254C26.716 82.0007 27.2667 82.668 27.892 83.256C28.5267 83.8347 29.236 84.3107 30.02 84.684C29.88 84.796 29.726 84.9407 29.558 85.118C29.39 85.2953 29.2313 85.4867 29.082 85.692C28.942 85.888 28.8207 86.07 28.718 86.238C27.6353 85.622 26.716 84.8287 25.96 83.858C25.204 82.878 24.574 81.758 24.07 80.498C23.566 79.238 23.146 77.8847 22.81 76.438L24.14 76.158ZM28.074 76.298L29.656 77.404C29.2547 77.8147 28.83 78.2393 28.382 78.678C27.934 79.1167 27.486 79.532 27.038 79.924C26.5993 80.316 26.184 80.6567 25.792 80.946L24.574 80.008C24.9567 79.6907 25.358 79.322 25.778 78.902C26.2073 78.482 26.6227 78.048 27.024 77.6C27.4253 77.1427 27.7753 76.7087 28.074 76.298ZM37.986 75.472L38.714 74.198C39.1713 74.2913 39.6707 74.4173 40.212 74.576C40.7627 74.7253 41.2947 74.8887 41.808 75.066C42.3213 75.234 42.746 75.402 43.082 75.57L42.312 77.012C41.9853 76.844 41.5747 76.6667 41.08 76.48C40.5853 76.284 40.0627 76.0973 39.512 75.92C38.9707 75.7427 38.462 75.5933 37.986 75.472ZM35.9 79.658H38.378V81.198H35.9V79.658ZM37.118 76.97H40.492V78.566H37.118V76.97ZM37.916 79.658H38.21L38.49 79.602L39.526 79.938C39.386 80.8807 39.176 81.7533 38.896 82.556C38.616 83.3493 38.2707 84.054 37.86 84.67C37.4587 85.286 36.9873 85.804 36.446 86.224C36.3713 86.1027 36.2733 85.9673 36.152 85.818C36.0307 85.6593 35.9 85.51 35.76 85.37C35.6293 85.2207 35.508 85.0993 35.396 85.006C35.8253 84.6793 36.208 84.2547 36.544 83.732C36.8893 83.2 37.1787 82.6073 37.412 81.954C37.6453 81.2913 37.8133 80.6147 37.916 79.924V79.658ZM41.402 78.44C41.6353 79.308 41.9387 80.148 42.312 80.96C42.6853 81.7627 43.1333 82.486 43.656 83.13C44.1787 83.7647 44.7713 84.2827 45.434 84.684C45.3127 84.7867 45.1727 84.922 45.014 85.09C44.8647 85.258 44.72 85.4353 44.58 85.622C44.44 85.7993 44.3233 85.9673 44.23 86.126C43.558 85.6313 42.9653 85.006 42.452 84.25C41.948 83.4847 41.514 82.6307 41.15 81.688C40.7953 80.736 40.492 79.742 40.24 78.706L41.402 78.44ZM43.768 78.398L45.28 79.49C44.9533 79.7887 44.622 80.0967 44.286 80.414C43.9593 80.7313 43.6373 81.0347 43.32 81.324C43.012 81.604 42.7227 81.856 42.452 82.08L41.416 81.212C41.6773 80.9693 41.9527 80.6847 42.242 80.358C42.5313 80.0313 42.8113 79.7 43.082 79.364C43.3527 79.0187 43.5813 78.6967 43.768 78.398ZM39.862 76.97H41.472V85.37C41.472 85.79 41.4207 86.1213 41.318 86.364C41.2247 86.6067 41.0427 86.798 40.772 86.938C40.5107 87.0687 40.184 87.148 39.792 87.176C39.4 87.2133 38.9287 87.232 38.378 87.232C38.3593 87.0733 38.322 86.896 38.266 86.7C38.2193 86.504 38.1587 86.3033 38.084 86.098C38.0187 85.902 37.944 85.734 37.86 85.594C38.2147 85.6127 38.5553 85.622 38.882 85.622C39.218 85.622 39.4467 85.6173 39.568 85.608C39.68 85.608 39.7547 85.5893 39.792 85.552C39.8387 85.5053 39.862 85.4353 39.862 85.342V76.97ZM32.876 75.402L33.758 74.156C34.0567 74.2773 34.374 74.4267 34.71 74.604C35.0553 74.772 35.382 74.9447 35.69 75.122C36.0073 75.2993 36.264 75.4673 36.46 75.626L35.522 77.026C35.3447 76.8673 35.102 76.69 34.794 76.494C34.4953 76.298 34.178 76.102 33.842 75.906C33.506 75.71 33.184 75.542 32.876 75.402ZM32.036 79.224L32.89 77.922C33.1793 78.034 33.4967 78.174 33.842 78.342C34.1873 78.5007 34.514 78.664 34.822 78.832C35.1393 79 35.396 79.1587 35.592 79.308L34.71 80.75C34.5233 80.5913 34.276 80.4187 33.968 80.232C33.66 80.0453 33.3333 79.8633 32.988 79.686C32.652 79.5087 32.3347 79.3547 32.036 79.224ZM32.498 86.014C32.722 85.6407 32.9693 85.2113 33.24 84.726C33.5107 84.2407 33.7813 83.7227 34.052 83.172C34.332 82.6213 34.5933 82.0707 34.836 81.52L36.152 82.528C35.9373 83.032 35.7087 83.5453 35.466 84.068C35.2327 84.5813 34.99 85.0853 34.738 85.58C34.486 86.0747 34.2387 86.5553 33.996 87.022L32.498 86.014Z" fill="#2C837B"/>
<path d="M71 82.4994L62 78V87L71 82.4994Z" fill="#F1F7F6"/>
<path d="M214 82.5006L223 87V78L214 82.5006Z" fill="#F1F7F6"/>
<rect x="223" y="62" width="77" height="37" rx="5" fill="#F1F7F6"/>
<path d="M241.914 75.262C242.147 75.2993 242.399 75.3273 242.67 75.346C242.941 75.3553 243.188 75.36 243.412 75.36C243.589 75.36 243.869 75.36 244.252 75.36C244.635 75.36 245.064 75.36 245.54 75.36C246.016 75.36 246.492 75.36 246.968 75.36C247.444 75.36 247.864 75.36 248.228 75.36C248.601 75.36 248.872 75.36 249.04 75.36C249.283 75.36 249.535 75.3553 249.796 75.346C250.057 75.3273 250.309 75.2993 250.552 75.262V77.068C250.309 77.0493 250.057 77.0353 249.796 77.026C249.535 77.0167 249.283 77.012 249.04 77.012C248.872 77.012 248.601 77.012 248.228 77.012C247.864 77.012 247.444 77.012 246.968 77.012C246.492 77.012 246.016 77.012 245.54 77.012C245.064 77.012 244.635 77.012 244.252 77.012C243.879 77.012 243.603 77.012 243.426 77.012C243.183 77.012 242.922 77.0167 242.642 77.026C242.371 77.0353 242.129 77.0493 241.914 77.068V75.262ZM240.29 78.846C240.495 78.8647 240.715 78.8833 240.948 78.902C241.191 78.9207 241.419 78.93 241.634 78.93C241.755 78.93 241.998 78.93 242.362 78.93C242.726 78.93 243.165 78.93 243.678 78.93C244.191 78.93 244.742 78.93 245.33 78.93C245.927 78.93 246.52 78.93 247.108 78.93C247.705 78.93 248.261 78.93 248.774 78.93C249.287 78.93 249.721 78.93 250.076 78.93C250.44 78.93 250.683 78.93 250.804 78.93C250.953 78.93 251.154 78.9253 251.406 78.916C251.667 78.8973 251.891 78.874 252.078 78.846V80.666C251.91 80.6473 251.705 80.638 251.462 80.638C251.219 80.6287 251 80.624 250.804 80.624C250.683 80.624 250.44 80.624 250.076 80.624C249.721 80.624 249.287 80.624 248.774 80.624C248.261 80.624 247.705 80.624 247.108 80.624C246.52 80.624 245.927 80.624 245.33 80.624C244.742 80.624 244.191 80.624 243.678 80.624C243.165 80.624 242.726 80.624 242.362 80.624C241.998 80.624 241.755 80.624 241.634 80.624C241.429 80.624 241.2 80.6287 240.948 80.638C240.705 80.6473 240.486 80.6613 240.29 80.68V78.846ZM247.458 79.812C247.458 80.7267 247.379 81.548 247.22 82.276C247.061 82.9947 246.833 83.6433 246.534 84.222C246.366 84.5393 246.142 84.866 245.862 85.202C245.582 85.538 245.26 85.8553 244.896 86.154C244.532 86.4527 244.14 86.7047 243.72 86.91L242.082 85.72C242.577 85.524 243.053 85.244 243.51 84.88C243.967 84.516 244.336 84.1287 244.616 83.718C244.971 83.1767 245.209 82.5793 245.33 81.926C245.451 81.2727 245.512 80.5727 245.512 79.826L247.458 79.812ZM256.88 76.494C257.132 76.522 257.407 76.5453 257.706 76.564C258.014 76.5733 258.285 76.578 258.518 76.578C258.714 76.578 258.975 76.578 259.302 76.578C259.629 76.578 259.988 76.578 260.38 76.578C260.772 76.578 261.169 76.578 261.57 76.578C261.981 76.578 262.368 76.578 262.732 76.578C263.105 76.578 263.432 76.578 263.712 76.578C263.992 76.578 264.193 76.578 264.314 76.578C264.594 76.578 264.874 76.5687 265.154 76.55C265.434 76.5313 265.672 76.5127 265.868 76.494V78.524C265.672 78.5147 265.425 78.5053 265.126 78.496C264.827 78.4773 264.557 78.468 264.314 78.468C264.193 78.468 263.983 78.468 263.684 78.468C263.395 78.468 263.054 78.468 262.662 78.468C262.27 78.468 261.859 78.468 261.43 78.468C261.01 78.468 260.604 78.468 260.212 78.468C259.82 78.468 259.475 78.468 259.176 78.468C258.877 78.468 258.663 78.468 258.532 78.468C258.261 78.468 257.977 78.4727 257.678 78.482C257.379 78.4913 257.113 78.5053 256.88 78.524V76.494ZM255.704 83.34C255.984 83.3587 256.273 83.3773 256.572 83.396C256.88 83.4147 257.174 83.424 257.454 83.424C257.575 83.424 257.799 83.424 258.126 83.424C258.453 83.424 258.835 83.424 259.274 83.424C259.722 83.424 260.203 83.424 260.716 83.424C261.229 83.424 261.738 83.424 262.242 83.424C262.755 83.424 263.231 83.424 263.67 83.424C264.118 83.424 264.501 83.424 264.818 83.424C265.145 83.424 265.369 83.424 265.49 83.424C265.733 83.424 265.989 83.4193 266.26 83.41C266.54 83.3913 266.797 83.368 267.03 83.34V85.482C266.787 85.454 266.521 85.4353 266.232 85.426C265.943 85.4073 265.695 85.398 265.49 85.398C265.369 85.398 265.145 85.398 264.818 85.398C264.501 85.398 264.118 85.398 263.67 85.398C263.231 85.398 262.755 85.398 262.242 85.398C261.738 85.398 261.229 85.398 260.716 85.398C260.203 85.398 259.722 85.398 259.274 85.398C258.835 85.398 258.453 85.398 258.126 85.398C257.799 85.398 257.575 85.398 257.454 85.398C257.174 85.398 256.875 85.4073 256.558 85.426C256.25 85.4353 255.965 85.454 255.704 85.482V83.34ZM281.576 76.508C281.52 76.592 281.436 76.7227 281.324 76.9C281.221 77.0773 281.142 77.2407 281.086 77.39C280.89 77.8287 280.647 78.3187 280.358 78.86C280.078 79.4013 279.756 79.9473 279.392 80.498C279.037 81.0393 278.659 81.548 278.258 82.024C277.735 82.612 277.157 83.1953 276.522 83.774C275.897 84.3433 275.234 84.8707 274.534 85.356C273.843 85.832 273.134 86.2427 272.406 86.588L270.964 85.076C271.72 84.7867 272.453 84.4227 273.162 83.984C273.871 83.5453 274.529 83.0693 275.136 82.556C275.743 82.0427 276.265 81.5433 276.704 81.058C277.012 80.7033 277.301 80.3253 277.572 79.924C277.852 79.5227 278.099 79.126 278.314 78.734C278.529 78.3327 278.687 77.964 278.79 77.628C278.697 77.628 278.529 77.628 278.286 77.628C278.043 77.628 277.759 77.628 277.432 77.628C277.115 77.628 276.779 77.628 276.424 77.628C276.069 77.628 275.729 77.628 275.402 77.628C275.085 77.628 274.805 77.628 274.562 77.628C274.319 77.628 274.147 77.628 274.044 77.628C273.848 77.628 273.643 77.6373 273.428 77.656C273.213 77.6653 273.008 77.6793 272.812 77.698C272.625 77.7073 272.481 77.7167 272.378 77.726V75.738C272.518 75.7473 272.691 75.7613 272.896 75.78C273.101 75.7987 273.307 75.8127 273.512 75.822C273.727 75.8313 273.904 75.836 274.044 75.836C274.165 75.836 274.357 75.836 274.618 75.836C274.879 75.836 275.178 75.836 275.514 75.836C275.85 75.836 276.195 75.836 276.55 75.836C276.914 75.836 277.259 75.836 277.586 75.836C277.922 75.836 278.211 75.836 278.454 75.836C278.697 75.836 278.874 75.836 278.986 75.836C279.294 75.836 279.574 75.8173 279.826 75.78C280.087 75.7427 280.288 75.7007 280.428 75.654L281.576 76.508ZM278.44 80.862C278.804 81.1513 279.191 81.4873 279.602 81.87C280.013 82.2527 280.419 82.6493 280.82 83.06C281.221 83.4707 281.59 83.8673 281.926 84.25C282.271 84.6233 282.561 84.95 282.794 85.23L281.198 86.616C280.853 86.14 280.456 85.6453 280.008 85.132C279.569 84.6187 279.103 84.11 278.608 83.606C278.123 83.0927 277.628 82.6073 277.124 82.15L278.44 80.862Z" fill="#2C837B"/>
<rect x="31.5" y="115" width="62" height="37" rx="5" fill="#F1F7F6"/>
<path d="M50.026 131.37V132.42H53.47V131.37H50.026ZM50.026 129.102V130.124H53.47V129.102H50.026ZM48.654 127.758H54.898V133.75H48.654V127.758ZM48.682 134.898H54.912V136.41H48.682V134.898ZM48.22 138.202C48.7987 138.146 49.466 138.085 50.222 138.02C50.978 137.945 51.776 137.861 52.616 137.768C53.456 137.675 54.296 137.581 55.136 137.488L55.178 138.972C54.3847 139.075 53.582 139.177 52.77 139.28C51.9673 139.383 51.1927 139.481 50.446 139.574C49.6993 139.677 49.0227 139.765 48.416 139.84L48.22 138.202ZM55.36 127.758H60.19V129.256H55.36V127.758ZM55.206 132.35H60.4V133.946H55.206V132.35ZM59.434 127.758H59.84L60.204 127.674L61.268 128.43C61.0253 128.813 60.7453 129.205 60.428 129.606C60.12 130.007 59.7887 130.39 59.434 130.754C59.0793 131.109 58.7153 131.417 58.342 131.678C58.2393 131.529 58.09 131.361 57.894 131.174C57.7073 130.987 57.5533 130.838 57.432 130.726C57.6933 130.493 57.9547 130.222 58.216 129.914C58.4773 129.597 58.7107 129.279 58.916 128.962C59.1307 128.635 59.3033 128.341 59.434 128.08V127.758ZM55.57 130.824L56.606 129.788C57.0353 129.975 57.4693 130.194 57.908 130.446C58.356 130.698 58.776 130.955 59.168 131.216C59.5693 131.477 59.9053 131.72 60.176 131.944L59.126 133.12C58.8647 132.877 58.5333 132.616 58.132 132.336C57.74 132.056 57.32 131.785 56.872 131.524C56.424 131.253 55.99 131.02 55.57 130.824ZM59.896 132.35H60.134L60.372 132.308L61.52 132.546C61.3893 133.171 61.2353 133.811 61.058 134.464C60.89 135.117 60.722 135.673 60.554 136.13L59.196 135.836C59.28 135.565 59.364 135.248 59.448 134.884C59.532 134.511 59.6113 134.123 59.686 133.722C59.77 133.321 59.84 132.943 59.896 132.588V132.35ZM57.054 133.148H58.72V138.44C58.72 138.841 58.6733 139.163 58.58 139.406C58.4867 139.649 58.3047 139.835 58.034 139.966C57.7633 140.097 57.4367 140.176 57.054 140.204C56.6713 140.232 56.2233 140.246 55.71 140.246C55.6913 140.013 55.6307 139.737 55.528 139.42C55.4347 139.103 55.332 138.827 55.22 138.594C55.5373 138.613 55.85 138.627 56.158 138.636C56.4753 138.636 56.6853 138.631 56.788 138.622C56.8907 138.622 56.9607 138.608 56.998 138.58C57.0353 138.543 57.054 138.482 57.054 138.398V133.148ZM51.062 128.234H52.462V132.938H52.574V138.16H50.95V132.938H51.062V128.234ZM63.746 128.164H68.464V129.718H63.746V128.164ZM68.31 129.466H76.808V130.992H68.31V129.466ZM63.844 132.084H68.296V133.624H63.844V132.084ZM63.466 136.97C63.886 136.867 64.3667 136.741 64.908 136.592C65.4493 136.443 66.0233 136.284 66.63 136.116C67.2367 135.939 67.8433 135.761 68.45 135.584L68.674 137.012C67.8527 137.283 67.022 137.553 66.182 137.824C65.3513 138.095 64.5907 138.337 63.9 138.552L63.466 136.97ZM71.628 127.086H73.238V138.356C73.238 138.767 73.1867 139.093 73.084 139.336C72.9907 139.579 72.8227 139.765 72.58 139.896C72.3373 140.036 72.034 140.129 71.67 140.176C71.306 140.223 70.8627 140.246 70.34 140.246C70.3213 140.087 70.2793 139.91 70.214 139.714C70.1487 139.527 70.074 139.336 69.99 139.14C69.9153 138.944 69.8407 138.771 69.766 138.622C70.102 138.631 70.4193 138.641 70.718 138.65C71.0167 138.65 71.2173 138.65 71.32 138.65C71.4227 138.641 71.4973 138.617 71.544 138.58C71.6 138.533 71.628 138.459 71.628 138.356V127.086ZM67.372 137.292C67.82 137.059 68.366 136.755 69.01 136.382C69.654 136.009 70.298 135.626 70.942 135.234L71.46 136.606C70.928 136.989 70.3773 137.371 69.808 137.754C69.248 138.137 68.7207 138.482 68.226 138.79L67.372 137.292ZM68.422 132.21L69.724 131.636C69.9107 131.879 70.0927 132.149 70.27 132.448C70.4473 132.737 70.6107 133.027 70.76 133.316C70.9187 133.596 71.0353 133.848 71.11 134.072L69.724 134.716C69.6587 134.492 69.556 134.235 69.416 133.946C69.276 133.657 69.1173 133.358 68.94 133.05C68.772 132.742 68.5993 132.462 68.422 132.21ZM75.296 131.482L76.766 132.238C76.5607 132.527 76.346 132.821 76.122 133.12C75.9073 133.409 75.6927 133.689 75.478 133.96C75.2727 134.231 75.0767 134.469 74.89 134.674L73.7 134.002C73.8773 133.778 74.064 133.521 74.26 133.232C74.4653 132.943 74.6567 132.644 74.834 132.336C75.0207 132.028 75.1747 131.743 75.296 131.482ZM73.756 128.024L74.68 127.156C74.8947 127.296 75.1187 127.45 75.352 127.618C75.5947 127.786 75.8233 127.959 76.038 128.136C76.2527 128.313 76.4253 128.477 76.556 128.626L75.576 129.592C75.3893 129.368 75.1187 129.107 74.764 128.808C74.4187 128.509 74.0827 128.248 73.756 128.024ZM65.314 128.822H66.938V136.956L65.314 137.208V128.822ZM73.196 131.174C73.336 131.977 73.504 132.705 73.7 133.358C73.896 134.011 74.1387 134.609 74.428 135.15C74.7267 135.682 75.0907 136.177 75.52 136.634C75.9493 137.082 76.458 137.507 77.046 137.908C76.85 138.057 76.654 138.253 76.458 138.496C76.262 138.739 76.1127 138.972 76.01 139.196C75.3567 138.701 74.7967 138.183 74.33 137.642C73.8633 137.101 73.4713 136.522 73.154 135.906C72.8367 135.281 72.5707 134.599 72.356 133.862C72.1413 133.125 71.9547 132.313 71.796 131.426L73.196 131.174Z" fill="#2C837B"/>
<path d="M102.5 127.499L93.5 123V132L102.5 127.499Z" fill="#F1F7F6"/>
<path d="M182.5 129.499L191.5 125V134L182.5 129.499Z" fill="#F1F7F6"/>
<rect x="191.5" y="115" width="77" height="37" rx="5" fill="#F1F7F6"/>
<path d="M218.52 127.828C218.641 127.996 218.767 128.197 218.898 128.43C219.038 128.663 219.173 128.897 219.304 129.13C219.435 129.363 219.542 129.569 219.626 129.746L218.506 130.236C218.357 129.947 218.184 129.62 217.988 129.256C217.792 128.883 217.601 128.561 217.414 128.29L218.52 127.828ZM220.172 127.198C220.293 127.375 220.424 127.585 220.564 127.828C220.713 128.061 220.853 128.295 220.984 128.528C221.115 128.752 221.222 128.943 221.306 129.102L220.186 129.578C220.046 129.289 219.869 128.962 219.654 128.598C219.449 128.234 219.253 127.921 219.066 127.66L220.172 127.198ZM210.288 134.646C210.447 134.254 210.596 133.843 210.736 133.414C210.885 132.975 211.016 132.527 211.128 132.07C211.24 131.603 211.338 131.141 211.422 130.684C211.515 130.227 211.581 129.774 211.618 129.326L213.662 129.746C213.625 129.877 213.583 130.031 213.536 130.208C213.489 130.385 213.447 130.558 213.41 130.726C213.373 130.894 213.345 131.034 213.326 131.146C213.279 131.389 213.214 131.683 213.13 132.028C213.046 132.373 212.948 132.742 212.836 133.134C212.724 133.517 212.607 133.904 212.486 134.296C212.374 134.679 212.257 135.033 212.136 135.36C211.968 135.808 211.767 136.275 211.534 136.76C211.31 137.245 211.067 137.712 210.806 138.16C210.554 138.608 210.307 139.009 210.064 139.364L208.104 138.538C208.552 137.959 208.967 137.32 209.35 136.62C209.742 135.92 210.055 135.262 210.288 134.646ZM217.204 134.352C217.064 133.979 216.91 133.582 216.742 133.162C216.574 132.742 216.397 132.322 216.21 131.902C216.023 131.482 215.841 131.085 215.664 130.712C215.487 130.339 215.323 130.017 215.174 129.746L217.036 129.144C217.176 129.415 217.339 129.741 217.526 130.124C217.713 130.507 217.899 130.913 218.086 131.342C218.273 131.762 218.455 132.182 218.632 132.602C218.809 133.022 218.968 133.4 219.108 133.736C219.229 134.044 219.36 134.408 219.5 134.828C219.649 135.248 219.799 135.687 219.948 136.144C220.107 136.592 220.251 137.031 220.382 137.46C220.522 137.889 220.639 138.277 220.732 138.622L218.66 139.294C218.539 138.743 218.399 138.183 218.24 137.614C218.081 137.045 217.913 136.485 217.736 135.934C217.568 135.383 217.391 134.856 217.204 134.352ZM225.73 138.44C225.814 138.263 225.865 138.109 225.884 137.978C225.903 137.847 225.912 137.698 225.912 137.53C225.912 137.353 225.912 137.082 225.912 136.718C225.912 136.354 225.912 135.934 225.912 135.458C225.912 134.973 225.912 134.464 225.912 133.932C225.912 133.4 225.912 132.877 225.912 132.364C225.912 131.851 225.912 131.384 225.912 130.964C225.912 130.544 225.912 130.203 225.912 129.942C225.912 129.765 225.903 129.578 225.884 129.382C225.875 129.186 225.856 128.999 225.828 128.822C225.809 128.635 225.786 128.477 225.758 128.346H227.956C227.919 128.617 227.886 128.883 227.858 129.144C227.83 129.405 227.816 129.671 227.816 129.942C227.816 130.166 227.816 130.446 227.816 130.782C227.816 131.109 227.816 131.473 227.816 131.874C227.816 132.275 227.816 132.691 227.816 133.12C227.816 133.549 227.816 133.974 227.816 134.394C227.816 134.814 227.816 135.211 227.816 135.584C227.816 135.957 227.816 136.284 227.816 136.564C227.816 136.844 227.816 137.063 227.816 137.222C228.385 137.054 228.992 136.825 229.636 136.536C230.289 136.237 230.943 135.887 231.596 135.486C232.259 135.075 232.879 134.627 233.458 134.142C234.046 133.657 234.564 133.139 235.012 132.588L236.006 134.17C235.054 135.318 233.873 136.312 232.464 137.152C231.064 137.983 229.538 138.669 227.886 139.21C227.793 139.247 227.671 139.294 227.522 139.35C227.373 139.406 227.219 139.485 227.06 139.588L225.73 138.44ZM239.688 132.518C239.856 132.527 240.071 132.541 240.332 132.56C240.593 132.569 240.864 132.579 241.144 132.588C241.433 132.597 241.699 132.602 241.942 132.602C242.175 132.602 242.465 132.602 242.81 132.602C243.155 132.602 243.529 132.602 243.93 132.602C244.341 132.602 244.761 132.602 245.19 132.602C245.629 132.602 246.063 132.602 246.492 132.602C246.921 132.602 247.327 132.602 247.71 132.602C248.093 132.602 248.433 132.602 248.732 132.602C249.04 132.602 249.283 132.602 249.46 132.602C249.787 132.602 250.095 132.593 250.384 132.574C250.673 132.546 250.911 132.527 251.098 132.518V134.716C250.939 134.707 250.701 134.693 250.384 134.674C250.067 134.655 249.759 134.646 249.46 134.646C249.283 134.646 249.04 134.646 248.732 134.646C248.424 134.646 248.079 134.646 247.696 134.646C247.313 134.646 246.907 134.646 246.478 134.646C246.058 134.646 245.629 134.646 245.19 134.646C244.751 134.646 244.327 134.646 243.916 134.646C243.515 134.646 243.141 134.646 242.796 134.646C242.46 134.646 242.175 134.646 241.942 134.646C241.541 134.646 241.13 134.655 240.71 134.674C240.29 134.683 239.949 134.697 239.688 134.716V132.518Z" fill="#2C837B"/>
<path d="M137.454 70.419C140.518 69.7193 142.431 66.672 141.731 63.6079C141.031 60.5494 137.984 58.6308 134.925 59.3305C131.861 60.0302 129.948 63.0775 130.642 66.136C131.342 69.2001 134.389 71.1131 137.454 70.4133V70.419Z" fill="#01A784"/>
<path d="M162.49 134.032H169.008L162.36 95.3723C162.36 95.3723 162.338 95.3723 162.326 95.3723C161.734 90.7902 159.567 82.7828 156.215 75.2551C151.881 63.2637 136.768 44.0381 136.768 44.0381L132.496 46.284C132.496 46.284 142.355 59.2403 145.899 67.4791C145.487 67.7499 145.233 67.9474 145.233 67.9474C145.233 67.9474 138.788 71.6774 137.293 75.2889C137.045 75.7235 136.802 76.1636 136.565 76.5643C135.831 77.7775 132.699 87.585 132.699 87.585C132.507 88.6854 132.169 90.3049 133.314 91.4843C134.178 92.3703 136.525 93.2675 138.179 93.6682L144.008 95.3328C143.625 99.4184 142.756 103.069 142.756 103.069C142.767 103.069 142.778 103.069 142.789 103.064L135.182 134.038H141.7L151.531 102.008C152.202 101.946 152.868 101.879 153.523 101.805L162.496 134.038L162.49 134.032ZM140.6 81.8348C141.751 83.3697 142.908 85.0795 143.557 86.9756C143.924 88.0421 144.104 89.3456 144.161 90.7394L138.314 87.6076L140.6 81.8292V81.8348Z" fill="#01A784"/>
</svg>
