<svg width="64" height="128" viewBox="0 0 64 128" fill="none" xmlns="http://www.w3.org/2000/svg">
<mask id="mask0_3652_11288" style="mask-type:alpha" maskUnits="userSpaceOnUse" x="0" y="0" width="64" height="128">
<rect width="64" height="128" fill="#FF0000"/>
</mask>
<g mask="url(#mask0_3652_11288)">
<rect y="42.373" width="19.8307" height="19.8307" fill="#C6EDE4"/>
<path d="M41.6441 52.2887C41.6441 57.5768 42.1186 60.2709 43 65.9998L22.3736 66.1706C21.7125 59.5604 21.4168 44.0926 25.1186 35.1027C28.8203 26.1128 38.339 26.2886 42.9661 27.17C42.3051 33.3395 41.6441 47.4732 41.6441 52.2887Z" fill="#01A784"/>
<path d="M35.1655 25.4383C30.3563 25.4383 26.4414 21.5333 26.4414 16.7241C26.4414 11.9149 30.3563 8 35.1655 8C39.9747 8 43.8797 11.905 43.8797 16.7142C43.8797 21.5233 39.9747 25.4283 35.1655 25.4283V25.4383Z" fill="#01A784"/>
<path d="M43.0391 66L43.7188 68.3145L51.4189 88.5254L63.999 111.309L57.2422 117.37L40.5391 93.1152L34.7959 78.4395L26.8369 92.0127L14.4463 119.576H6L16.3242 88.3359L22.4033 66H43.0391Z" fill="#01A784"/>
<rect x="5.28906" y="62.7725" width="39.3489" height="7.74056" transform="rotate(-51.9257 5.28906 62.7725)" fill="#01A784"/>
<rect x="7.93359" y="42.373" width="3.96613" height="6.61022" fill="#01A784"/>
</g>
</svg>
