<svg width="297" height="313" viewBox="0 0 297 313" fill="none" xmlns="http://www.w3.org/2000/svg">
<rect x="40.5" width="216" height="37" rx="5" fill="#F1F7F6"/>
<path d="M60.804 20.206H66.88V19.59H60.804V20.206ZM60.804 18.61H66.88V18.008H60.804V18.61ZM68.546 16.986V21.242H59.208V16.986H68.546ZM67.398 14.172C67.2487 14.4427 67.1087 14.69 66.978 14.914C66.8473 15.1287 66.7307 15.3153 66.628 15.474L65.144 15.152C65.2373 14.956 65.3307 14.7413 65.424 14.508C65.5173 14.2653 65.592 14.0507 65.648 13.864L67.398 14.172ZM61.924 13.864C62.036 14.06 62.134 14.2793 62.218 14.522C62.3113 14.7553 62.3813 14.9607 62.428 15.138L60.832 15.502C60.7947 15.3153 60.734 15.096 60.65 14.844C60.5753 14.592 60.4913 14.368 60.398 14.172L61.924 13.864ZM64.626 12.1V13.794H62.946V12.1H64.626ZM69.904 15.166V16.468H57.738V15.166H69.904ZM69.162 12.856V14.158H58.41V12.856H69.162ZM60.44 22.208C60.244 22.74 59.992 23.2533 59.684 23.748C59.3853 24.2333 58.9887 24.644 58.494 24.98L57.178 24.084C57.6167 23.8133 57.9947 23.4633 58.312 23.034C58.6293 22.6047 58.8673 22.1613 59.026 21.704L60.44 22.208ZM68.112 21.536C68.4013 21.7693 68.6953 22.0353 68.994 22.334C69.2927 22.6327 69.568 22.9313 69.82 23.23C70.072 23.5287 70.268 23.8133 70.408 24.084L69.022 24.896C68.8913 24.644 68.7047 24.3593 68.462 24.042C68.2287 23.734 67.9673 23.426 67.678 23.118C67.3887 22.8007 67.0993 22.516 66.81 22.264L68.112 21.536ZM63.24 20.92C63.5107 21.032 63.7907 21.1627 64.08 21.312C64.3787 21.4613 64.6587 21.6153 64.92 21.774C65.1907 21.9233 65.41 22.0727 65.578 22.222L64.612 23.202C64.4533 23.0527 64.2433 22.8987 63.982 22.74C63.73 22.572 63.4593 22.4087 63.17 22.25C62.8807 22.082 62.6053 21.9373 62.344 21.816L63.24 20.92ZM62.428 23.342C62.428 23.5287 62.4747 23.6453 62.568 23.692C62.6707 23.7293 62.8807 23.748 63.198 23.748C63.2727 23.748 63.394 23.748 63.562 23.748C63.73 23.748 63.9167 23.748 64.122 23.748C64.3273 23.748 64.5187 23.748 64.696 23.748C64.8827 23.748 65.0227 23.748 65.116 23.748C65.2933 23.748 65.424 23.7247 65.508 23.678C65.592 23.622 65.6527 23.5147 65.69 23.356C65.7367 23.188 65.7693 22.9407 65.788 22.614C65.956 22.726 66.18 22.8333 66.46 22.936C66.7493 23.0293 67.0013 23.0947 67.216 23.132C67.16 23.664 67.062 24.07 66.922 24.35C66.782 24.6393 66.5813 24.8353 66.32 24.938C66.068 25.05 65.718 25.106 65.27 25.106C65.1953 25.106 65.0787 25.106 64.92 25.106C64.7707 25.106 64.6027 25.106 64.416 25.106C64.2293 25.106 64.0427 25.106 63.856 25.106C63.6693 25.106 63.4967 25.106 63.338 25.106C63.1887 25.106 63.0767 25.106 63.002 25.106C62.414 25.106 61.9613 25.0547 61.644 24.952C61.3267 24.8493 61.1073 24.6673 60.986 24.406C60.8647 24.154 60.804 23.8087 60.804 23.37V21.886H62.428V23.342ZM76.274 16.23V17.098H82.14V16.23H76.274ZM76.274 18.47V19.352H82.14V18.47H76.274ZM76.274 14.004V14.872H82.14V14.004H76.274ZM74.65 12.548H83.848V20.808H74.65V12.548ZM79.844 19.688H81.566V23.034C81.566 23.258 81.5987 23.4027 81.664 23.468C81.7387 23.524 81.9067 23.552 82.168 23.552C82.224 23.552 82.3127 23.552 82.434 23.552C82.5647 23.552 82.7093 23.552 82.868 23.552C83.0267 23.552 83.176 23.552 83.316 23.552C83.456 23.552 83.5633 23.552 83.638 23.552C83.7967 23.552 83.918 23.51 84.002 23.426C84.086 23.342 84.1467 23.1647 84.184 22.894C84.2213 22.6233 84.2493 22.2127 84.268 21.662C84.3893 21.7553 84.5387 21.8487 84.716 21.942C84.9027 22.0353 85.094 22.1147 85.29 22.18C85.4953 22.2453 85.668 22.3013 85.808 22.348C85.752 23.0853 85.654 23.6547 85.514 24.056C85.374 24.4667 85.1687 24.7513 84.898 24.91C84.6273 25.0687 84.2587 25.148 83.792 25.148C83.7173 25.148 83.6147 25.148 83.484 25.148C83.3627 25.148 83.2273 25.148 83.078 25.148C82.9287 25.148 82.7747 25.148 82.616 25.148C82.4667 25.148 82.3313 25.148 82.21 25.148C82.0887 25.148 81.9953 25.148 81.93 25.148C81.3793 25.148 80.95 25.0827 80.642 24.952C80.3433 24.8213 80.1333 24.602 80.012 24.294C79.9 23.986 79.844 23.5707 79.844 23.048V19.688ZM76.428 20.262H78.22C78.164 20.8967 78.0613 21.48 77.912 22.012C77.772 22.5347 77.5387 23.006 77.212 23.426C76.8947 23.846 76.442 24.21 75.854 24.518C75.266 24.8353 74.5007 25.1013 73.558 25.316C73.5113 25.1573 73.432 24.9847 73.32 24.798C73.2173 24.6207 73.1007 24.4387 72.97 24.252C72.8487 24.0747 72.7273 23.93 72.606 23.818C73.418 23.6687 74.0667 23.4867 74.552 23.272C75.0373 23.048 75.406 22.7913 75.658 22.502C75.9193 22.2127 76.1013 21.886 76.204 21.522C76.3067 21.1487 76.3813 20.7287 76.428 20.262ZM94.404 12.772C94.3573 13.024 94.2827 13.3507 94.18 13.752C94.0773 14.1533 93.928 14.606 93.732 15.11C93.5827 15.4553 93.41 15.8147 93.214 16.188C93.0273 16.552 92.836 16.8787 92.64 17.168C92.7613 17.112 92.9153 17.0653 93.102 17.028C93.2887 16.9813 93.48 16.9487 93.676 16.93C93.8813 16.902 94.0633 16.888 94.222 16.888C94.81 16.888 95.2953 17.056 95.678 17.392C96.07 17.728 96.266 18.2273 96.266 18.89C96.266 19.0767 96.266 19.3053 96.266 19.576C96.2753 19.8467 96.2847 20.1313 96.294 20.43C96.3033 20.7193 96.3127 21.004 96.322 21.284C96.3313 21.564 96.336 21.816 96.336 22.04H94.656C94.6747 21.8813 94.684 21.6947 94.684 21.48C94.6933 21.256 94.698 21.0227 94.698 20.78C94.7073 20.5373 94.712 20.304 94.712 20.08C94.7213 19.8467 94.726 19.6367 94.726 19.45C94.726 19.002 94.6047 18.694 94.362 18.526C94.1287 18.3487 93.8673 18.26 93.578 18.26C93.186 18.26 92.7893 18.358 92.388 18.554C91.996 18.7407 91.6647 18.9647 91.394 19.226C91.1887 19.4313 90.9787 19.66 90.764 19.912C90.5587 20.164 90.3347 20.4487 90.092 20.766L88.594 19.646C89.2007 19.086 89.7233 18.5447 90.162 18.022C90.61 17.4993 90.988 16.9813 91.296 16.468C91.604 15.9547 91.856 15.4413 92.052 14.928C92.192 14.5547 92.304 14.1673 92.388 13.766C92.4813 13.3553 92.5373 12.9727 92.556 12.618L94.404 12.772ZM89.14 14.06C89.4947 14.116 89.9053 14.158 90.372 14.186C90.8387 14.214 91.2493 14.228 91.604 14.228C92.22 14.228 92.892 14.214 93.62 14.186C94.3573 14.158 95.104 14.1113 95.86 14.046C96.616 13.9713 97.3347 13.878 98.016 13.766L98.002 15.39C97.5073 15.4553 96.9707 15.516 96.392 15.572C95.8227 15.6187 95.2393 15.6607 94.642 15.698C94.054 15.726 93.4893 15.7493 92.948 15.768C92.4067 15.7773 91.926 15.782 91.506 15.782C91.3193 15.782 91.086 15.782 90.806 15.782C90.5353 15.7727 90.2553 15.7633 89.966 15.754C89.6767 15.7353 89.4013 15.7167 89.14 15.698V14.06ZM100.228 18.036C100.079 18.0827 99.9013 18.1433 99.696 18.218C99.5 18.2833 99.2993 18.3533 99.094 18.428C98.898 18.4933 98.7207 18.5587 98.562 18.624C98.114 18.8013 97.582 19.016 96.966 19.268C96.3593 19.52 95.7247 19.814 95.062 20.15C94.642 20.374 94.2873 20.5933 93.998 20.808C93.7087 21.0227 93.4893 21.242 93.34 21.466C93.1907 21.6807 93.116 21.9187 93.116 22.18C93.116 22.376 93.158 22.5393 93.242 22.67C93.326 22.7913 93.452 22.8893 93.62 22.964C93.788 23.0387 93.998 23.09 94.25 23.118C94.502 23.146 94.8007 23.16 95.146 23.16C95.7433 23.16 96.4013 23.1273 97.12 23.062C97.8387 22.9873 98.506 22.8893 99.122 22.768L99.066 24.574C98.7673 24.6113 98.3893 24.6487 97.932 24.686C97.4747 24.7327 96.9987 24.7653 96.504 24.784C96.0187 24.8027 95.552 24.812 95.104 24.812C94.376 24.812 93.7227 24.742 93.144 24.602C92.5653 24.462 92.108 24.224 91.772 23.888C91.4453 23.5427 91.282 23.0713 91.282 22.474C91.282 21.9887 91.3893 21.55 91.604 21.158C91.828 20.766 92.122 20.4113 92.486 20.094C92.85 19.7767 93.2467 19.492 93.676 19.24C94.1147 18.9787 94.544 18.7407 94.964 18.526C95.3933 18.302 95.7807 18.1107 96.126 17.952C96.4713 17.7933 96.7933 17.6533 97.092 17.532C97.4 17.4013 97.694 17.2707 97.974 17.14C98.2447 17.0187 98.506 16.902 98.758 16.79C99.01 16.6687 99.2667 16.5427 99.528 16.412L100.228 18.036ZM103.616 21.186H116.426V22.516H103.616V21.186ZM103.854 13.5H116.104V14.788H103.854V13.5ZM106.108 18.19H113.934V19.086H106.108V18.19ZM111.806 20.248H113.472V23.608C113.472 24 113.421 24.3033 113.318 24.518C113.225 24.742 113.033 24.91 112.744 25.022C112.455 25.134 112.114 25.1993 111.722 25.218C111.339 25.246 110.887 25.26 110.364 25.26C110.336 25.036 110.266 24.784 110.154 24.504C110.051 24.224 109.944 23.9767 109.832 23.762C110.065 23.7713 110.294 23.7807 110.518 23.79C110.751 23.79 110.957 23.79 111.134 23.79C111.321 23.79 111.451 23.79 111.526 23.79C111.629 23.7807 111.699 23.762 111.736 23.734C111.783 23.706 111.806 23.65 111.806 23.566V20.248ZM105.996 23.048L107.004 22.082C107.275 22.2313 107.559 22.404 107.858 22.6C108.157 22.796 108.437 22.9967 108.698 23.202C108.959 23.4073 109.174 23.5987 109.342 23.776L108.264 24.854C108.115 24.6767 107.914 24.4807 107.662 24.266C107.41 24.0513 107.135 23.8367 106.836 23.622C106.547 23.4073 106.267 23.216 105.996 23.048ZM106.22 12.562L107.578 12.016C107.765 12.2027 107.951 12.422 108.138 12.674C108.334 12.9167 108.488 13.1313 108.6 13.318L107.158 13.92C107.074 13.7333 106.939 13.514 106.752 13.262C106.575 13.0007 106.397 12.7673 106.22 12.562ZM106.472 16.3V19.562H113.598V16.3H106.472ZM104.96 15.306H115.194V20.542H104.96V15.306ZM112.24 12.1L114.004 12.534C113.761 12.8327 113.523 13.1127 113.29 13.374C113.066 13.6353 112.861 13.864 112.674 14.06L111.414 13.626C111.563 13.402 111.713 13.1453 111.862 12.856C112.021 12.5667 112.147 12.3147 112.24 12.1ZM110.406 14.144H111.82V16.524C111.82 16.6827 111.843 16.7853 111.89 16.832C111.946 16.8693 112.053 16.888 112.212 16.888C112.24 16.888 112.301 16.888 112.394 16.888C112.497 16.888 112.604 16.888 112.716 16.888C112.837 16.888 112.945 16.888 113.038 16.888C113.141 16.888 113.215 16.888 113.262 16.888C113.374 16.888 113.453 16.8787 113.5 16.86C113.547 16.8413 113.579 16.8133 113.598 16.776C113.738 16.8413 113.915 16.902 114.13 16.958C114.345 17.014 114.531 17.056 114.69 17.084C114.653 17.3267 114.536 17.4993 114.34 17.602C114.153 17.6953 113.855 17.742 113.444 17.742C113.379 17.742 113.276 17.742 113.136 17.742C113.005 17.742 112.865 17.742 112.716 17.742C112.567 17.742 112.422 17.742 112.282 17.742C112.142 17.742 112.039 17.742 111.974 17.742C111.554 17.742 111.227 17.7093 110.994 17.644C110.77 17.5693 110.616 17.4433 110.532 17.266C110.448 17.0887 110.406 16.8367 110.406 16.51V14.144ZM108.082 14.116H109.482V15.922C109.482 16.258 109.412 16.5753 109.272 16.874C109.141 17.1727 108.913 17.4387 108.586 17.672C108.259 17.9053 107.811 18.106 107.242 18.274C107.167 18.1247 107.051 17.952 106.892 17.756C106.733 17.5507 106.589 17.3827 106.458 17.252C106.925 17.1867 107.275 17.0887 107.508 16.958C107.741 16.818 107.895 16.6593 107.97 16.482C108.045 16.3047 108.082 16.118 108.082 15.922V14.116ZM119.044 23.524H131.798V24.854H119.044V23.524ZM119.128 14.592H131.7V15.908H119.128V14.592ZM120.08 21.522H130.888V22.796H120.08V21.522ZM124.49 13.416H126.184V24.196H124.49V13.416ZM129.628 12.114L130.412 13.416C129.731 13.528 128.984 13.626 128.172 13.71C127.369 13.7847 126.534 13.85 125.666 13.906C124.798 13.962 123.925 14.0087 123.048 14.046C122.171 14.074 121.326 14.0927 120.514 14.102C120.505 13.906 120.463 13.6867 120.388 13.444C120.313 13.192 120.243 12.9773 120.178 12.8C120.99 12.7813 121.825 12.7533 122.684 12.716C123.552 12.6787 124.401 12.632 125.232 12.576C126.072 12.52 126.865 12.4547 127.612 12.38C128.368 12.296 129.04 12.2073 129.628 12.114ZM122.18 19.17V19.8H128.648V19.17H122.18ZM122.18 17.546V18.162H128.648V17.546H122.18ZM120.542 16.44H130.356V20.906H120.542V16.44ZM142.942 12.716C142.933 12.7907 142.919 12.912 142.9 13.08C142.891 13.2387 142.881 13.402 142.872 13.57C142.863 13.7287 142.853 13.8453 142.844 13.92C142.835 14.1067 142.83 14.3587 142.83 14.676C142.83 14.984 142.83 15.3293 142.83 15.712C142.83 16.0947 142.83 16.482 142.83 16.874C142.839 17.2567 142.844 17.6207 142.844 17.966C142.853 18.302 142.858 18.582 142.858 18.806L141.108 18.218C141.108 18.0407 141.108 17.8073 141.108 17.518C141.108 17.2193 141.108 16.8973 141.108 16.552C141.108 16.1973 141.103 15.8473 141.094 15.502C141.094 15.1567 141.089 14.844 141.08 14.564C141.071 14.284 141.061 14.074 141.052 13.934C141.033 13.6447 141.01 13.3927 140.982 13.178C140.954 12.954 140.931 12.8 140.912 12.716H142.942ZM135.032 14.452C135.443 14.452 135.909 14.4473 136.432 14.438C136.955 14.4287 137.501 14.4193 138.07 14.41C138.639 14.4007 139.199 14.3913 139.75 14.382C140.301 14.3727 140.819 14.368 141.304 14.368C141.789 14.3587 142.209 14.354 142.564 14.354C142.919 14.354 143.306 14.354 143.726 14.354C144.146 14.3447 144.561 14.34 144.972 14.34C145.383 14.34 145.756 14.34 146.092 14.34C146.437 14.34 146.703 14.34 146.89 14.34L146.876 15.992C146.437 15.9733 145.859 15.9593 145.14 15.95C144.421 15.9313 143.544 15.922 142.508 15.922C141.873 15.922 141.229 15.9313 140.576 15.95C139.923 15.9593 139.274 15.9733 138.63 15.992C137.986 16.0107 137.365 16.034 136.768 16.062C136.171 16.0807 135.606 16.1087 135.074 16.146L135.032 14.452ZM142.606 18.596C142.606 19.3613 142.513 19.996 142.326 20.5C142.149 21.004 141.878 21.3867 141.514 21.648C141.15 21.9 140.697 22.026 140.156 22.026C139.895 22.026 139.619 21.97 139.33 21.858C139.05 21.746 138.789 21.5827 138.546 21.368C138.303 21.1533 138.107 20.8873 137.958 20.57C137.818 20.2527 137.748 19.8793 137.748 19.45C137.748 18.918 137.874 18.4607 138.126 18.078C138.378 17.686 138.714 17.3827 139.134 17.168C139.563 16.944 140.035 16.832 140.548 16.832C141.164 16.832 141.677 16.972 142.088 17.252C142.508 17.5227 142.821 17.8913 143.026 18.358C143.241 18.8247 143.348 19.352 143.348 19.94C143.348 20.3973 143.273 20.8733 143.124 21.368C142.975 21.8627 142.727 22.348 142.382 22.824C142.046 23.2907 141.589 23.7153 141.01 24.098C140.441 24.4807 139.727 24.7933 138.868 25.036L137.37 23.552C137.967 23.4307 138.523 23.272 139.036 23.076C139.549 22.88 139.997 22.6327 140.38 22.334C140.772 22.0353 141.075 21.6667 141.29 21.228C141.514 20.7893 141.626 20.262 141.626 19.646C141.626 19.198 141.514 18.862 141.29 18.638C141.075 18.414 140.814 18.302 140.506 18.302C140.329 18.302 140.156 18.344 139.988 18.428C139.82 18.512 139.685 18.638 139.582 18.806C139.479 18.974 139.428 19.1793 139.428 19.422C139.428 19.7393 139.535 19.996 139.75 20.192C139.974 20.3787 140.226 20.472 140.506 20.472C140.73 20.472 140.926 20.402 141.094 20.262C141.271 20.122 141.388 19.8887 141.444 19.562C141.5 19.2353 141.453 18.7967 141.304 18.246L142.606 18.596ZM152.28 13.332C152.476 13.36 152.686 13.3787 152.91 13.388C153.134 13.3973 153.349 13.402 153.554 13.402C153.703 13.402 153.927 13.402 154.226 13.402C154.525 13.3927 154.861 13.3833 155.234 13.374C155.617 13.3647 155.995 13.3553 156.368 13.346C156.741 13.3367 157.077 13.3273 157.376 13.318C157.684 13.2993 157.922 13.2853 158.09 13.276C158.379 13.248 158.608 13.2247 158.776 13.206C158.944 13.178 159.07 13.15 159.154 13.122L160.064 14.368C159.905 14.4707 159.742 14.5733 159.574 14.676C159.406 14.7787 159.243 14.8907 159.084 15.012C158.897 15.1427 158.673 15.3153 158.412 15.53C158.151 15.7353 157.871 15.9547 157.572 16.188C157.283 16.4213 156.998 16.65 156.718 16.874C156.447 17.098 156.2 17.2987 155.976 17.476C156.209 17.42 156.433 17.3827 156.648 17.364C156.863 17.336 157.082 17.322 157.306 17.322C158.099 17.322 158.809 17.476 159.434 17.784C160.069 18.092 160.568 18.512 160.932 19.044C161.305 19.5667 161.492 20.1687 161.492 20.85C161.492 21.5873 161.305 22.2547 160.932 22.852C160.559 23.4493 159.994 23.9253 159.238 24.28C158.491 24.6347 157.553 24.812 156.424 24.812C155.78 24.812 155.197 24.7187 154.674 24.532C154.161 24.3453 153.755 24.0793 153.456 23.734C153.157 23.3887 153.008 22.9827 153.008 22.516C153.008 22.1333 153.111 21.7787 153.316 21.452C153.531 21.116 153.825 20.8453 154.198 20.64C154.581 20.4347 155.019 20.332 155.514 20.332C156.158 20.332 156.699 20.4627 157.138 20.724C157.586 20.976 157.927 21.3167 158.16 21.746C158.403 22.1753 158.529 22.6467 158.538 23.16L156.9 23.384C156.891 22.8707 156.76 22.46 156.508 22.152C156.265 21.8347 155.939 21.676 155.528 21.676C155.267 21.676 155.057 21.746 154.898 21.886C154.739 22.0167 154.66 22.1707 154.66 22.348C154.66 22.6093 154.791 22.8193 155.052 22.978C155.313 23.1367 155.654 23.216 156.074 23.216C156.867 23.216 157.53 23.1227 158.062 22.936C158.594 22.74 158.991 22.4647 159.252 22.11C159.523 21.746 159.658 21.3167 159.658 20.822C159.658 20.402 159.527 20.0333 159.266 19.716C159.014 19.3987 158.669 19.1513 158.23 18.974C157.791 18.7967 157.297 18.708 156.746 18.708C156.205 18.708 155.71 18.778 155.262 18.918C154.814 19.0487 154.389 19.24 153.988 19.492C153.596 19.7347 153.209 20.0333 152.826 20.388C152.453 20.7333 152.079 21.1207 151.706 21.55L150.432 20.234C150.684 20.0287 150.969 19.8 151.286 19.548C151.603 19.2867 151.925 19.016 152.252 18.736C152.588 18.456 152.901 18.1947 153.19 17.952C153.489 17.7 153.741 17.49 153.946 17.322C154.142 17.1633 154.371 16.9767 154.632 16.762C154.893 16.5473 155.164 16.328 155.444 16.104C155.724 15.8707 155.99 15.6513 156.242 15.446C156.494 15.2313 156.704 15.0493 156.872 14.9C156.732 14.9 156.55 14.9047 156.326 14.914C156.102 14.9233 155.855 14.9327 155.584 14.942C155.323 14.9513 155.057 14.9607 154.786 14.97C154.525 14.9793 154.277 14.9933 154.044 15.012C153.82 15.0213 153.633 15.0307 153.484 15.04C153.297 15.0493 153.101 15.0633 152.896 15.082C152.691 15.1007 152.504 15.124 152.336 15.152L152.28 13.332ZM174.288 15.222L176.08 15.754C175.492 17.434 174.731 18.89 173.798 20.122C172.865 21.354 171.754 22.3947 170.466 23.244C169.187 24.084 167.708 24.77 166.028 25.302C165.972 25.1527 165.879 24.9753 165.748 24.77C165.617 24.5647 165.482 24.3593 165.342 24.154C165.211 23.958 165.085 23.7947 164.964 23.664C166.579 23.2347 167.993 22.6513 169.206 21.914C170.419 21.1767 171.446 20.262 172.286 19.17C173.126 18.0687 173.793 16.7527 174.288 15.222ZM168.87 15.334C169.346 16.7247 170.004 17.9707 170.844 19.072C171.684 20.1733 172.72 21.1067 173.952 21.872C175.193 22.6373 176.64 23.2067 178.292 23.58C178.161 23.7107 178.017 23.8787 177.858 24.084C177.709 24.2893 177.564 24.4947 177.424 24.7C177.284 24.9147 177.172 25.1013 177.088 25.26C175.343 24.812 173.84 24.1587 172.58 23.3C171.32 22.432 170.251 21.3773 169.374 20.136C168.506 18.8947 167.778 17.462 167.19 15.838L168.87 15.334ZM165.216 14.326H178.04V15.964H165.216V14.326ZM170.732 12.1H172.454V15.32H170.732V12.1ZM186.692 12.464H188.386V22.558C188.386 22.838 188.4 23.048 188.428 23.188C188.465 23.328 188.54 23.4213 188.652 23.468C188.773 23.5053 188.946 23.524 189.17 23.524C189.254 23.524 189.385 23.524 189.562 23.524C189.749 23.524 189.954 23.524 190.178 23.524C190.402 23.524 190.607 23.524 190.794 23.524C190.99 23.524 191.13 23.524 191.214 23.524C191.447 23.524 191.62 23.4587 191.732 23.328C191.853 23.188 191.937 22.9407 191.984 22.586C192.04 22.222 192.087 21.7133 192.124 21.06C192.329 21.2093 192.581 21.354 192.88 21.494C193.179 21.6247 193.445 21.718 193.678 21.774C193.613 22.5767 193.505 23.2207 193.356 23.706C193.207 24.1913 192.978 24.5413 192.67 24.756C192.362 24.98 191.928 25.092 191.368 25.092C191.293 25.092 191.172 25.092 191.004 25.092C190.845 25.092 190.663 25.092 190.458 25.092C190.262 25.092 190.061 25.092 189.856 25.092C189.66 25.092 189.483 25.092 189.324 25.092C189.165 25.092 189.044 25.092 188.96 25.092C188.372 25.092 187.915 25.0173 187.588 24.868C187.261 24.7187 187.028 24.4573 186.888 24.084C186.757 23.7107 186.692 23.1973 186.692 22.544V12.464ZM191.928 14.816L193.16 16.286C192.647 16.6593 192.087 17.0233 191.48 17.378C190.873 17.7233 190.253 18.0593 189.618 18.386C188.993 18.7127 188.377 19.016 187.77 19.296C187.714 19.1 187.616 18.876 187.476 18.624C187.336 18.3627 187.21 18.1433 187.098 17.966C187.677 17.686 188.255 17.3687 188.834 17.014C189.422 16.6593 189.982 16.2907 190.514 15.908C191.046 15.5253 191.517 15.1613 191.928 14.816ZM183.976 12.296L185.642 12.842C185.287 13.6727 184.867 14.5033 184.382 15.334C183.897 16.1553 183.374 16.93 182.814 17.658C182.263 18.3767 181.694 19.0067 181.106 19.548C181.05 19.408 180.961 19.226 180.84 19.002C180.728 18.778 180.607 18.554 180.476 18.33C180.345 18.0967 180.229 17.91 180.126 17.77C180.639 17.3407 181.134 16.8367 181.61 16.258C182.086 15.67 182.529 15.04 182.94 14.368C183.351 13.6867 183.696 12.996 183.976 12.296ZM182.492 16.244L184.158 14.578L184.172 14.606V25.232H182.492V16.244ZM204.682 18.68C204.682 17.6813 204.808 16.7667 205.06 15.936C205.312 15.1053 205.648 14.3587 206.068 13.696C206.488 13.0333 206.945 12.4547 207.44 11.96L208.77 12.548C208.303 13.0427 207.879 13.598 207.496 14.214C207.123 14.8207 206.824 15.4927 206.6 16.23C206.376 16.9673 206.264 17.784 206.264 18.68C206.264 19.5667 206.376 20.3833 206.6 21.13C206.824 21.8673 207.123 22.5393 207.496 23.146C207.879 23.7527 208.303 24.308 208.77 24.812L207.44 25.4C206.945 24.9053 206.488 24.3267 206.068 23.664C205.648 23.0013 205.312 22.2547 205.06 21.424C204.808 20.5933 204.682 19.6787 204.682 18.68ZM216.4 12.814H218.052V16.902C218.052 17.5087 218.029 18.1807 217.982 18.918C217.935 19.6553 217.847 20.4067 217.716 21.172C217.585 21.928 217.394 22.6653 217.142 23.384C216.89 24.0933 216.559 24.7327 216.148 25.302C216.055 25.1993 215.924 25.0733 215.756 24.924C215.588 24.784 215.415 24.6487 215.238 24.518C215.07 24.3873 214.925 24.294 214.804 24.238C215.168 23.7153 215.457 23.146 215.672 22.53C215.887 21.914 216.045 21.2793 216.148 20.626C216.251 19.9633 216.316 19.3147 216.344 18.68C216.381 18.0453 216.4 17.4527 216.4 16.902V12.814ZM217.282 12.814H224.058V14.396H217.282V12.814ZM217.198 16.468H222.812V18.008H217.198V16.468ZM219.004 17.434C219.293 18.4233 219.685 19.3427 220.18 20.192C220.675 21.032 221.286 21.7647 222.014 22.39C222.751 23.0153 223.605 23.5007 224.576 23.846C224.455 23.958 224.319 24.098 224.17 24.266C224.03 24.434 223.895 24.6067 223.764 24.784C223.643 24.9707 223.535 25.134 223.442 25.274C222.406 24.8447 221.51 24.2707 220.754 23.552C219.998 22.8333 219.354 21.9887 218.822 21.018C218.299 20.0473 217.861 18.9693 217.506 17.784L219.004 17.434ZM222.308 16.468H222.63L222.924 16.412L223.96 16.79C223.699 18.2647 223.293 19.5573 222.742 20.668C222.201 21.7787 221.547 22.7213 220.782 23.496C220.017 24.2613 219.163 24.8633 218.22 25.302C218.155 25.1713 218.057 25.0173 217.926 24.84C217.795 24.6627 217.655 24.49 217.506 24.322C217.366 24.154 217.24 24.028 217.128 23.944C218.024 23.5613 218.822 23.048 219.522 22.404C220.231 21.7507 220.824 20.962 221.3 20.038C221.776 19.1047 222.112 18.0173 222.308 16.776V16.468ZM214.37 12.142L215.938 12.66C215.621 13.444 215.243 14.2327 214.804 15.026C214.375 15.81 213.908 16.552 213.404 17.252C212.909 17.9427 212.396 18.554 211.864 19.086C211.808 18.946 211.729 18.764 211.626 18.54C211.523 18.316 211.411 18.092 211.29 17.868C211.169 17.644 211.061 17.4667 210.968 17.336C211.416 16.916 211.85 16.4307 212.27 15.88C212.699 15.3293 213.091 14.732 213.446 14.088C213.801 13.444 214.109 12.7953 214.37 12.142ZM213.012 16.02L214.608 14.424V14.438V25.232H213.012V16.02ZM230.918 18.68C230.918 19.6787 230.792 20.5933 230.54 21.424C230.288 22.2547 229.952 23.0013 229.532 23.664C229.121 24.3267 228.664 24.9053 228.16 25.4L226.83 24.812C227.297 24.308 227.717 23.7527 228.09 23.146C228.473 22.5393 228.776 21.8673 229 21.13C229.224 20.3833 229.336 19.5667 229.336 18.68C229.336 17.784 229.224 16.9673 229 16.23C228.776 15.4927 228.473 14.8207 228.09 14.214C227.717 13.598 227.297 13.0427 226.83 12.548L228.16 11.96C228.664 12.4547 229.121 13.0333 229.532 13.696C229.952 14.3587 230.288 15.1053 230.54 15.936C230.792 16.7667 230.918 17.6813 230.918 18.68Z" fill="#2C837B"/>
<path d="M148.501 46L153 37H144L148.501 46Z" fill="#F1F7F6"/>
<path d="M129.466 105.751L121.657 113.608C121.413 113.852 121.518 114.268 121.848 114.369L129.796 116.705C130.768 116.993 131.529 117.749 131.812 118.721L134.153 126.673C134.249 127.004 134.665 127.109 134.909 126.87L148.272 113.675" fill="#77C8B7"/>
<path d="M129.466 105.751L121.657 113.608C121.413 113.852 121.518 114.268 121.848 114.369L129.796 116.705C130.768 116.993 131.529 117.749 131.812 118.721L134.153 126.673C134.249 127.004 134.665 127.109 134.909 126.87L148.272 113.675" stroke="#77C8B7" stroke-width="2" stroke-miterlimit="10" stroke-linecap="round"/>
<path d="M167.276 105.535L175.343 113.602C175.587 113.847 175.482 114.263 175.151 114.364L167.204 116.7C166.232 116.987 165.471 117.744 165.188 118.716L162.852 126.668C162.756 126.999 162.34 127.104 162.095 126.865L148.824 113.674" fill="#77C8B7"/>
<path d="M167.276 105.535L175.343 113.602C175.587 113.847 175.482 114.263 175.151 114.364L167.204 116.7C166.232 116.987 165.471 117.744 165.188 118.716L162.852 126.668C162.756 126.999 162.34 127.104 162.095 126.865L148.824 113.674" stroke="#77C8B7" stroke-width="2" stroke-miterlimit="10" stroke-linecap="round"/>
<path d="M148.523 114C162.882 114 174.523 102.359 174.523 88C174.523 73.6406 162.882 62 148.523 62C134.164 62 122.523 73.6406 122.523 88C122.523 102.359 134.164 114 148.523 114Z" fill="#01A784"/>
<circle cx="128.523" cy="79" r="1" fill="white"/>
<path d="M139.023 67.5C136.023 68.5 131.523 72 130.023 75.5" stroke="white" stroke-width="2" stroke-miterlimit="10" stroke-linecap="round"/>
<path d="M149.514 79.5812L151.41 83.1972C151.783 83.9045 152.499 84.3965 153.332 84.5102L157.573 85.0914C158.482 85.2144 158.845 86.266 158.187 86.8687L155.117 89.6822C154.516 90.2326 154.241 91.029 154.385 91.807L155.111 95.7798C155.265 96.6315 154.316 97.2803 153.502 96.8775L149.71 95.0018C148.968 94.6328 148.078 94.6328 147.336 95.0018L143.544 96.8775C142.729 97.2803 141.781 96.6315 141.935 95.7798L142.661 91.807C142.801 91.029 142.527 90.2326 141.928 89.6822L138.858 86.8687C138.201 86.266 138.564 85.2144 139.473 85.0914L143.714 84.5102C144.544 84.3965 145.263 83.9045 145.636 83.1972L147.532 79.5812C147.938 78.8063 149.115 78.8063 149.52 79.5812H149.514Z" fill="white"/>
<rect y="143" width="185" height="37" rx="5" fill="#F1F7F6"/>
<path d="M21.94 166.202H29.906V167.854H21.94V166.202ZM22.514 159.44H29.57V161.064H22.514V159.44ZM25.174 155.24H26.91V167H25.174V155.24ZM16.914 157.704H21.492V159.216H16.914V157.704ZM18.916 162.478L20.582 160.49V168.26H18.916V162.478ZM18.916 155.114H20.582V158.404H18.916V155.114ZM20.4 160.966C20.5307 161.05 20.708 161.19 20.932 161.386C21.1653 161.573 21.4127 161.783 21.674 162.016C21.9353 162.24 22.1733 162.45 22.388 162.646C22.6027 162.833 22.7567 162.968 22.85 163.052L21.842 164.424C21.702 164.247 21.5293 164.041 21.324 163.808C21.128 163.565 20.918 163.318 20.694 163.066C20.47 162.814 20.2507 162.576 20.036 162.352C19.8213 162.128 19.6393 161.941 19.49 161.792L20.4 160.966ZM20.89 157.704H21.212L21.506 157.634L22.444 158.25C22.0987 159.165 21.646 160.037 21.086 160.868C20.526 161.689 19.91 162.431 19.238 163.094C18.566 163.757 17.88 164.307 17.18 164.746C17.1333 164.597 17.0587 164.419 16.956 164.214C16.8627 163.999 16.7647 163.799 16.662 163.612C16.5687 163.416 16.4753 163.262 16.382 163.15C17.026 162.814 17.642 162.375 18.23 161.834C18.818 161.283 19.3453 160.681 19.812 160.028C20.2787 159.365 20.638 158.689 20.89 157.998V157.704ZM37.718 161.33L38.992 160.42C39.3 160.691 39.6267 160.989 39.972 161.316C40.3267 161.643 40.6767 161.979 41.022 162.324C41.3673 162.66 41.6893 162.987 41.988 163.304C42.2867 163.621 42.5387 163.911 42.744 164.172L41.358 165.264C41.1713 165.003 40.9333 164.709 40.644 164.382C40.364 164.055 40.056 163.715 39.72 163.36C39.3933 162.996 39.0527 162.646 38.698 162.31C38.3527 161.965 38.026 161.638 37.718 161.33ZM37.746 155.1H39.482V158.46C39.482 158.927 39.4493 159.412 39.384 159.916C39.328 160.411 39.2207 160.915 39.062 161.428C38.9127 161.932 38.6933 162.431 38.404 162.926C38.124 163.411 37.76 163.878 37.312 164.326C36.8733 164.765 36.3367 165.175 35.702 165.558C35.618 165.437 35.506 165.297 35.366 165.138C35.226 164.979 35.0767 164.825 34.918 164.676C34.7687 164.517 34.624 164.387 34.484 164.284C35.0907 163.976 35.5947 163.635 35.996 163.262C36.3973 162.889 36.7147 162.501 36.948 162.1C37.1813 161.689 37.354 161.274 37.466 160.854C37.578 160.434 37.6527 160.023 37.69 159.622C37.7273 159.211 37.746 158.824 37.746 158.46V155.1ZM32.846 157.438H43.472V159.076H34.526V168.288H32.846V157.438ZM42.744 157.438H44.41V166.342C44.41 166.79 44.354 167.14 44.242 167.392C44.13 167.653 43.9247 167.849 43.626 167.98C43.3367 168.111 42.968 168.19 42.52 168.218C42.072 168.255 41.5353 168.274 40.91 168.274C40.8913 168.115 40.8493 167.933 40.784 167.728C40.728 167.523 40.6627 167.322 40.588 167.126C40.5133 166.93 40.434 166.757 40.35 166.608C40.63 166.617 40.91 166.627 41.19 166.636C41.47 166.636 41.7173 166.636 41.932 166.636C42.156 166.636 42.31 166.636 42.394 166.636C42.5247 166.627 42.6133 166.603 42.66 166.566C42.716 166.519 42.744 166.435 42.744 166.314V157.438ZM55.666 160.896L57.458 161.4C56.926 162.679 56.226 163.766 55.358 164.662C54.4993 165.558 53.4913 166.3 52.334 166.888C51.186 167.476 49.9027 167.943 48.484 168.288C48.428 168.148 48.3347 167.975 48.204 167.77C48.0827 167.574 47.952 167.378 47.812 167.182C47.672 166.986 47.5413 166.827 47.42 166.706C48.8013 166.435 50.0333 166.057 51.116 165.572C52.208 165.087 53.1367 164.461 53.902 163.696C54.6673 162.921 55.2553 161.988 55.666 160.896ZM51.144 158.474L52.88 159.132C52.5533 159.571 52.1707 160.005 51.732 160.434C51.2933 160.863 50.836 161.265 50.36 161.638C49.884 162.011 49.4267 162.333 48.988 162.604C48.8853 162.483 48.75 162.338 48.582 162.17C48.414 162.002 48.2413 161.839 48.064 161.68C47.8867 161.521 47.728 161.391 47.588 161.288C48.036 161.073 48.4793 160.817 48.918 160.518C49.3567 160.219 49.7673 159.893 50.15 159.538C50.542 159.183 50.8733 158.829 51.144 158.474ZM52.404 160.966C53.0293 162.506 54.014 163.757 55.358 164.718C56.7113 165.67 58.4613 166.319 60.608 166.664C60.4867 166.785 60.356 166.939 60.216 167.126C60.076 167.322 59.9407 167.518 59.81 167.714C59.6887 167.919 59.5907 168.101 59.516 168.26C57.9947 167.971 56.6787 167.532 55.568 166.944C54.4667 166.347 53.524 165.591 52.74 164.676C51.9653 163.761 51.3167 162.683 50.794 161.442L52.404 160.966ZM47.798 156.724H60.216V158.362H47.798V156.724ZM53.104 155.086H54.84V157.802H53.104V155.086ZM55.344 159.342L56.716 158.334C57.1267 158.605 57.5653 158.917 58.032 159.272C58.508 159.617 58.956 159.967 59.376 160.322C59.8053 160.677 60.1553 161.008 60.426 161.316L58.914 162.464C58.6807 162.165 58.3633 161.834 57.962 161.47C57.5607 161.097 57.1267 160.728 56.66 160.364C56.2027 159.991 55.764 159.65 55.344 159.342ZM66.992 156.794H75.854V158.292H66.992V156.794ZM70.408 155.1H72.116V157.508H70.408V155.1ZM70.408 162.016H71.878V167.644H70.408V162.016ZM68.084 161.876H69.582V163.262C69.582 163.654 69.5587 164.065 69.512 164.494C69.4747 164.923 69.3813 165.357 69.232 165.796C69.092 166.235 68.882 166.655 68.602 167.056C68.322 167.467 67.944 167.849 67.468 168.204C67.3933 168.092 67.286 167.966 67.146 167.826C67.006 167.686 66.8567 167.551 66.698 167.42C66.5487 167.289 66.4087 167.187 66.278 167.112C66.8193 166.72 67.216 166.3 67.468 165.852C67.72 165.404 67.8833 164.951 67.958 164.494C68.042 164.037 68.084 163.607 68.084 163.206V161.876ZM69.61 157.62L71.374 158.124C71.1967 158.451 71.0147 158.782 70.828 159.118C70.6413 159.454 70.4593 159.776 70.282 160.084C70.1047 160.383 69.9367 160.649 69.778 160.882L68.42 160.406C68.5693 160.154 68.7187 159.865 68.868 159.538C69.0173 159.211 69.1573 158.88 69.288 158.544C69.428 158.208 69.5353 157.9 69.61 157.62ZM72.368 159.034L73.656 158.362C73.964 158.642 74.272 158.959 74.58 159.314C74.8973 159.659 75.1867 160.005 75.448 160.35C75.7187 160.695 75.9287 161.017 76.078 161.316L74.664 162.072C74.5427 161.792 74.356 161.475 74.104 161.12C73.852 160.765 73.572 160.406 73.264 160.042C72.9653 159.678 72.6667 159.342 72.368 159.034ZM67.076 159.958C67.692 159.949 68.4013 159.935 69.204 159.916C70.0067 159.888 70.856 159.865 71.752 159.846C72.648 159.818 73.5393 159.785 74.426 159.748L74.384 161.162C73.544 161.209 72.6947 161.255 71.836 161.302C70.9867 161.349 70.17 161.391 69.386 161.428C68.602 161.465 67.888 161.498 67.244 161.526L67.076 159.958ZM63.604 156.402L64.514 155.17C64.8033 155.282 65.1067 155.417 65.424 155.576C65.7507 155.735 66.0587 155.898 66.348 156.066C66.6467 156.234 66.8847 156.402 67.062 156.57L66.096 157.942C65.928 157.774 65.704 157.597 65.424 157.41C65.144 157.223 64.8407 157.041 64.514 156.864C64.1967 156.687 63.8933 156.533 63.604 156.402ZM62.792 160.224L63.688 158.95C63.9867 159.053 64.2993 159.179 64.626 159.328C64.9527 159.477 65.2653 159.636 65.564 159.804C65.8627 159.972 66.1053 160.135 66.292 160.294L65.326 161.694C65.158 161.535 64.9293 161.367 64.64 161.19C64.3507 161.003 64.0427 160.826 63.716 160.658C63.3987 160.49 63.0907 160.345 62.792 160.224ZM63.198 167.014C63.4313 166.65 63.6927 166.225 63.982 165.74C64.2713 165.245 64.5653 164.723 64.864 164.172C65.1627 163.621 65.4427 163.071 65.704 162.52L66.978 163.57C66.7447 164.065 66.4973 164.573 66.236 165.096C65.984 165.619 65.7227 166.132 65.452 166.636C65.1907 167.131 64.9293 167.607 64.668 168.064L63.198 167.014ZM72.718 161.876H74.272V166.244C74.272 166.477 74.286 166.613 74.314 166.65C74.3327 166.669 74.3513 166.687 74.37 166.706C74.398 166.715 74.426 166.72 74.454 166.72C74.4913 166.72 74.5287 166.72 74.566 166.72C74.6127 166.72 74.65 166.72 74.678 166.72C74.7153 166.72 74.7527 166.715 74.79 166.706C74.8273 166.697 74.8507 166.683 74.86 166.664C74.9067 166.636 74.944 166.515 74.972 166.3C74.9813 166.188 74.986 166.015 74.986 165.782C74.9953 165.549 75.0047 165.273 75.014 164.956C75.1447 165.077 75.3173 165.199 75.532 165.32C75.756 165.432 75.9613 165.521 76.148 165.586C76.1387 165.894 76.1153 166.207 76.078 166.524C76.05 166.841 76.0173 167.075 75.98 167.224C75.8867 167.523 75.728 167.737 75.504 167.868C75.4107 167.924 75.2893 167.966 75.14 167.994C75 168.031 74.8647 168.05 74.734 168.05C74.6313 168.05 74.5053 168.05 74.356 168.05C74.216 168.05 74.0993 168.05 74.006 168.05C73.8473 168.05 73.6793 168.022 73.502 167.966C73.3247 167.91 73.18 167.821 73.068 167.7C72.9467 167.579 72.858 167.415 72.802 167.21C72.746 167.014 72.718 166.678 72.718 166.202V161.876ZM84.17 156.038C84.1327 156.215 84.0907 156.411 84.044 156.626C83.9973 156.831 83.9553 157.023 83.918 157.2C83.8807 157.405 83.834 157.639 83.778 157.9C83.722 158.152 83.666 158.409 83.61 158.67C83.5633 158.922 83.512 159.169 83.456 159.412C83.3627 159.813 83.246 160.28 83.106 160.812C82.966 161.344 82.8027 161.918 82.616 162.534C82.4293 163.141 82.2193 163.752 81.986 164.368C81.7527 164.984 81.5053 165.586 81.244 166.174C80.9827 166.753 80.7027 167.275 80.404 167.742L78.584 167.014C78.9107 166.575 79.214 166.085 79.494 165.544C79.7833 164.993 80.0447 164.433 80.278 163.864C80.5113 163.285 80.7167 162.716 80.894 162.156C81.0807 161.587 81.2393 161.059 81.37 160.574C81.51 160.089 81.6173 159.673 81.692 159.328C81.8227 158.693 81.9253 158.082 82 157.494C82.0747 156.906 82.1027 156.351 82.084 155.828L84.17 156.038ZM88.986 157.452C89.21 157.76 89.4387 158.138 89.672 158.586C89.9147 159.025 90.1527 159.491 90.386 159.986C90.6193 160.481 90.8293 160.957 91.016 161.414C91.2027 161.871 91.3473 162.268 91.45 162.604L89.672 163.416C89.588 163.024 89.462 162.59 89.294 162.114C89.1353 161.638 88.9487 161.157 88.734 160.672C88.5193 160.177 88.2907 159.711 88.048 159.272C87.8147 158.833 87.572 158.465 87.32 158.166L88.986 157.452ZM78.486 158.908C78.738 158.927 78.9853 158.936 79.228 158.936C79.48 158.927 79.732 158.917 79.984 158.908C80.2173 158.899 80.4973 158.885 80.824 158.866C81.1507 158.838 81.496 158.81 81.86 158.782C82.2333 158.754 82.6067 158.726 82.98 158.698C83.3533 158.661 83.6987 158.633 84.016 158.614C84.3333 158.595 84.5947 158.586 84.8 158.586C85.304 158.586 85.7427 158.67 86.116 158.838C86.4893 158.997 86.7833 159.272 86.998 159.664C87.222 160.056 87.334 160.588 87.334 161.26C87.334 161.811 87.3107 162.408 87.264 163.052C87.2173 163.696 87.1333 164.312 87.012 164.9C86.9 165.488 86.7413 165.987 86.536 166.398C86.312 166.883 86.004 167.219 85.612 167.406C85.2293 167.593 84.772 167.686 84.24 167.686C83.9787 167.686 83.694 167.663 83.386 167.616C83.078 167.579 82.8027 167.537 82.56 167.49L82.266 165.642C82.4433 165.689 82.6393 165.735 82.854 165.782C83.078 165.829 83.288 165.866 83.484 165.894C83.6893 165.922 83.8527 165.936 83.974 165.936C84.2073 165.936 84.4127 165.894 84.59 165.81C84.7673 165.717 84.912 165.558 85.024 165.334C85.1547 165.063 85.262 164.713 85.346 164.284C85.43 163.855 85.4907 163.393 85.528 162.898C85.5747 162.394 85.598 161.913 85.598 161.456C85.598 161.083 85.542 160.807 85.43 160.63C85.3273 160.453 85.1733 160.336 84.968 160.28C84.772 160.215 84.5293 160.182 84.24 160.182C84.0253 160.182 83.736 160.201 83.372 160.238C83.008 160.266 82.616 160.303 82.196 160.35C81.7853 160.387 81.4027 160.429 81.048 160.476C80.6933 160.523 80.418 160.555 80.222 160.574C80.0167 160.611 79.7553 160.653 79.438 160.7C79.13 160.737 78.8687 160.775 78.654 160.812L78.486 158.908ZM88.734 155.506C88.8553 155.674 88.9813 155.875 89.112 156.108C89.252 156.341 89.3873 156.575 89.518 156.808C89.6487 157.041 89.7607 157.247 89.854 157.424L88.72 157.914C88.6267 157.718 88.5193 157.503 88.398 157.27C88.2767 157.037 88.1507 156.803 88.02 156.57C87.8893 156.337 87.7587 156.136 87.628 155.968L88.734 155.506ZM90.4 154.876C90.5213 155.053 90.652 155.259 90.792 155.492C90.932 155.725 91.0673 155.959 91.198 156.192C91.338 156.425 91.4453 156.621 91.52 156.78L90.414 157.256C90.2647 156.967 90.0873 156.64 89.882 156.276C89.6767 155.903 89.476 155.585 89.28 155.324L90.4 154.876ZM98.688 162.576H106.038V168.176H104.428V164.102H100.228V168.246H98.688V162.576ZM104.918 155.1L106.206 156.416C105.525 156.677 104.769 156.906 103.938 157.102C103.107 157.289 102.253 157.443 101.376 157.564C100.508 157.685 99.6587 157.783 98.828 157.858C98.8 157.662 98.7347 157.424 98.632 157.144C98.5387 156.855 98.4453 156.617 98.352 156.43C98.9493 156.365 99.5513 156.29 100.158 156.206C100.774 156.122 101.371 156.024 101.95 155.912C102.529 155.8 103.07 155.679 103.574 155.548C104.078 155.408 104.526 155.259 104.918 155.1ZM101.558 156.682H103.154V163.458H101.558V156.682ZM97.82 159.188H106.738V160.784H97.82V159.188ZM99.794 166.146H105.1V167.672H99.794V166.146ZM94.362 156.5L95.314 155.282C95.5753 155.413 95.8693 155.562 96.196 155.73C96.5227 155.898 96.84 156.066 97.148 156.234C97.4653 156.402 97.722 156.551 97.918 156.682L96.924 158.04C96.7373 157.9 96.4947 157.741 96.196 157.564C95.8973 157.387 95.5847 157.205 95.258 157.018C94.9313 156.822 94.6327 156.649 94.362 156.5ZM93.69 160.378L94.6 159.132C94.8613 159.244 95.16 159.384 95.496 159.552C95.832 159.72 96.1587 159.888 96.476 160.056C96.7933 160.215 97.05 160.359 97.246 160.49L96.308 161.89C96.1213 161.75 95.874 161.591 95.566 161.414C95.2673 161.237 94.95 161.055 94.614 160.868C94.278 160.681 93.97 160.518 93.69 160.378ZM93.9 166.958C94.152 166.603 94.4273 166.188 94.726 165.712C95.034 165.227 95.3467 164.713 95.664 164.172C95.9813 163.621 96.28 163.075 96.56 162.534L97.792 163.654C97.5493 164.139 97.288 164.639 97.008 165.152C96.7373 165.665 96.4573 166.169 96.168 166.664C95.888 167.159 95.6033 167.635 95.314 168.092L93.9 166.958ZM111.806 159.86H119.422V161.442H111.806V159.86ZM110.294 155.646H114.27V157.088H110.294V155.646ZM109.986 163.024H121.158V164.564H109.986V163.024ZM113.668 155.646H113.976L114.27 155.59L115.39 156.094C115.147 156.813 114.839 157.475 114.466 158.082C114.102 158.689 113.682 159.244 113.206 159.748C112.73 160.243 112.217 160.686 111.666 161.078C111.115 161.47 110.541 161.811 109.944 162.1C109.832 161.904 109.673 161.68 109.468 161.428C109.272 161.176 109.09 160.975 108.922 160.826C109.445 160.611 109.949 160.336 110.434 160C110.919 159.664 111.372 159.286 111.792 158.866C112.221 158.437 112.595 157.975 112.912 157.48C113.239 156.985 113.491 156.467 113.668 155.926V155.646ZM112.996 160.658H114.662V163.08C114.662 163.575 114.615 164.069 114.522 164.564C114.429 165.059 114.247 165.539 113.976 166.006C113.705 166.463 113.309 166.888 112.786 167.28C112.263 167.681 111.568 168.027 110.7 168.316C110.635 168.185 110.537 168.036 110.406 167.868C110.285 167.7 110.154 167.532 110.014 167.364C109.874 167.205 109.748 167.075 109.636 166.972C110.383 166.739 110.98 166.473 111.428 166.174C111.876 165.875 112.212 165.553 112.436 165.208C112.66 164.863 112.809 164.508 112.884 164.144C112.959 163.771 112.996 163.402 112.996 163.038V160.658ZM117.14 155.128C117.439 155.921 117.835 156.673 118.33 157.382C118.834 158.091 119.422 158.721 120.094 159.272C120.766 159.823 121.508 160.261 122.32 160.588C122.189 160.7 122.049 160.845 121.9 161.022C121.76 161.19 121.62 161.367 121.48 161.554C121.349 161.731 121.242 161.895 121.158 162.044C120.29 161.633 119.506 161.106 118.806 160.462C118.115 159.818 117.504 159.081 116.972 158.25C116.449 157.419 116.001 156.519 115.628 155.548L117.14 155.128ZM109.874 158.18L110.924 157.312C111.111 157.433 111.302 157.573 111.498 157.732C111.703 157.891 111.899 158.045 112.086 158.194C112.273 158.343 112.427 158.479 112.548 158.6L111.442 159.58C111.339 159.459 111.195 159.314 111.008 159.146C110.831 158.978 110.639 158.81 110.434 158.642C110.238 158.474 110.051 158.32 109.874 158.18ZM119.086 155.324L120.36 156.206C119.987 156.542 119.599 156.873 119.198 157.2C118.806 157.527 118.442 157.802 118.106 158.026L117.098 157.242C117.313 157.083 117.541 156.897 117.784 156.682C118.027 156.458 118.265 156.229 118.498 155.996C118.731 155.753 118.927 155.529 119.086 155.324ZM120.766 156.934L121.998 157.788C121.625 158.133 121.219 158.479 120.78 158.824C120.351 159.16 119.954 159.445 119.59 159.678L118.582 158.908C118.815 158.74 119.063 158.544 119.324 158.32C119.595 158.087 119.856 157.849 120.108 157.606C120.369 157.363 120.589 157.139 120.766 156.934ZM116.412 160.728H118.162V166.076C118.162 166.337 118.185 166.505 118.232 166.58C118.288 166.645 118.409 166.678 118.596 166.678C118.643 166.678 118.713 166.678 118.806 166.678C118.909 166.678 119.016 166.678 119.128 166.678C119.24 166.678 119.347 166.678 119.45 166.678C119.553 166.678 119.627 166.678 119.674 166.678C119.805 166.678 119.898 166.636 119.954 166.552C120.019 166.468 120.066 166.314 120.094 166.09C120.122 165.857 120.145 165.521 120.164 165.082C120.341 165.213 120.579 165.343 120.878 165.474C121.177 165.595 121.443 165.684 121.676 165.74C121.62 166.356 121.527 166.841 121.396 167.196C121.265 167.551 121.074 167.798 120.822 167.938C120.579 168.087 120.253 168.162 119.842 168.162C119.767 168.162 119.66 168.162 119.52 168.162C119.38 168.162 119.231 168.162 119.072 168.162C118.913 168.162 118.764 168.162 118.624 168.162C118.484 168.162 118.377 168.162 118.302 168.162C117.789 168.162 117.397 168.097 117.126 167.966C116.855 167.845 116.669 167.63 116.566 167.322C116.463 167.023 116.412 166.613 116.412 166.09V160.728ZM133.282 161.68C133.282 160.681 133.408 159.767 133.66 158.936C133.912 158.105 134.248 157.359 134.668 156.696C135.088 156.033 135.545 155.455 136.04 154.96L137.37 155.548C136.903 156.043 136.479 156.598 136.096 157.214C135.723 157.821 135.424 158.493 135.2 159.23C134.976 159.967 134.864 160.784 134.864 161.68C134.864 162.567 134.976 163.383 135.2 164.13C135.424 164.867 135.723 165.539 136.096 166.146C136.479 166.753 136.903 167.308 137.37 167.812L136.04 168.4C135.545 167.905 135.088 167.327 134.668 166.664C134.248 166.001 133.912 165.255 133.66 164.424C133.408 163.593 133.282 162.679 133.282 161.68ZM145 155.814H146.652V159.902C146.652 160.509 146.629 161.181 146.582 161.918C146.535 162.655 146.447 163.407 146.316 164.172C146.185 164.928 145.994 165.665 145.742 166.384C145.49 167.093 145.159 167.733 144.748 168.302C144.655 168.199 144.524 168.073 144.356 167.924C144.188 167.784 144.015 167.649 143.838 167.518C143.67 167.387 143.525 167.294 143.404 167.238C143.768 166.715 144.057 166.146 144.272 165.53C144.487 164.914 144.645 164.279 144.748 163.626C144.851 162.963 144.916 162.315 144.944 161.68C144.981 161.045 145 160.453 145 159.902V155.814ZM145.882 155.814H152.658V157.396H145.882V155.814ZM145.798 159.468H151.412V161.008H145.798V159.468ZM147.604 160.434C147.893 161.423 148.285 162.343 148.78 163.192C149.275 164.032 149.886 164.765 150.614 165.39C151.351 166.015 152.205 166.501 153.176 166.846C153.055 166.958 152.919 167.098 152.77 167.266C152.63 167.434 152.495 167.607 152.364 167.784C152.243 167.971 152.135 168.134 152.042 168.274C151.006 167.845 150.11 167.271 149.354 166.552C148.598 165.833 147.954 164.989 147.422 164.018C146.899 163.047 146.461 161.969 146.106 160.784L147.604 160.434ZM150.908 159.468H151.23L151.524 159.412L152.56 159.79C152.299 161.265 151.893 162.557 151.342 163.668C150.801 164.779 150.147 165.721 149.382 166.496C148.617 167.261 147.763 167.863 146.82 168.302C146.755 168.171 146.657 168.017 146.526 167.84C146.395 167.663 146.255 167.49 146.106 167.322C145.966 167.154 145.84 167.028 145.728 166.944C146.624 166.561 147.422 166.048 148.122 165.404C148.831 164.751 149.424 163.962 149.9 163.038C150.376 162.105 150.712 161.017 150.908 159.776V159.468ZM142.97 155.142L144.538 155.66C144.221 156.444 143.843 157.233 143.404 158.026C142.975 158.81 142.508 159.552 142.004 160.252C141.509 160.943 140.996 161.554 140.464 162.086C140.408 161.946 140.329 161.764 140.226 161.54C140.123 161.316 140.011 161.092 139.89 160.868C139.769 160.644 139.661 160.467 139.568 160.336C140.016 159.916 140.45 159.431 140.87 158.88C141.299 158.329 141.691 157.732 142.046 157.088C142.401 156.444 142.709 155.795 142.97 155.142ZM141.612 159.02L143.208 157.424V157.438V168.232H141.612V159.02ZM159.518 161.68C159.518 162.679 159.392 163.593 159.14 164.424C158.888 165.255 158.552 166.001 158.132 166.664C157.721 167.327 157.264 167.905 156.76 168.4L155.43 167.812C155.897 167.308 156.317 166.753 156.69 166.146C157.073 165.539 157.376 164.867 157.6 164.13C157.824 163.383 157.936 162.567 157.936 161.68C157.936 160.784 157.824 159.967 157.6 159.23C157.376 158.493 157.073 157.821 156.69 157.214C156.317 156.598 155.897 156.043 155.43 155.548L156.76 154.96C157.264 155.455 157.721 156.033 158.132 156.696C158.552 157.359 158.888 158.105 159.14 158.936C159.392 159.767 159.518 160.681 159.518 161.68Z" fill="#2C837B"/>
<path d="M20.5006 189L25 180H16L20.5006 189Z" fill="#F1F7F6"/>
<rect x="112" y="205" width="185" height="37" rx="5" fill="#F1F7F6"/>
<path d="M130.885 222.378H134.119V223.904H130.885V222.378ZM133.475 222.378H135.099C135.099 222.378 135.099 222.415 135.099 222.49C135.099 222.565 135.099 222.653 135.099 222.756C135.099 222.849 135.099 222.929 135.099 222.994C135.08 223.983 135.057 224.795 135.029 225.43C135.001 226.055 134.954 226.545 134.889 226.9C134.833 227.245 134.753 227.488 134.651 227.628C134.511 227.805 134.361 227.931 134.203 228.006C134.053 228.081 133.876 228.137 133.671 228.174C133.484 228.211 133.246 228.235 132.957 228.244C132.677 228.244 132.369 228.239 132.033 228.23C132.023 227.987 131.977 227.717 131.893 227.418C131.809 227.119 131.706 226.867 131.585 226.662C131.837 226.681 132.07 226.695 132.285 226.704C132.509 226.713 132.677 226.718 132.789 226.718C132.882 226.718 132.961 226.709 133.027 226.69C133.101 226.662 133.162 226.615 133.209 226.55C133.274 226.466 133.321 226.293 133.349 226.032C133.386 225.761 133.414 225.355 133.433 224.814C133.451 224.263 133.465 223.535 133.475 222.63V222.378ZM137.675 217.982L138.697 216.974C138.958 217.105 139.233 217.259 139.523 217.436C139.812 217.613 140.087 217.791 140.349 217.968C140.619 218.145 140.839 218.318 141.007 218.486L139.929 219.606C139.77 219.447 139.565 219.27 139.313 219.074C139.061 218.878 138.79 218.687 138.501 218.5C138.211 218.304 137.936 218.131 137.675 217.982ZM139.327 221.594L141.035 222C140.447 223.82 139.644 225.43 138.627 226.83C137.609 228.221 136.405 229.345 135.015 230.204C134.94 230.083 134.828 229.933 134.679 229.756C134.529 229.588 134.375 229.415 134.217 229.238C134.058 229.07 133.918 228.93 133.797 228.818C135.141 228.09 136.279 227.11 137.213 225.878C138.146 224.637 138.851 223.209 139.327 221.594ZM130.969 219.2H141.777V220.852H130.969V219.2ZM129.849 219.2H131.613V223.33C131.613 223.853 131.594 224.427 131.557 225.052C131.519 225.668 131.449 226.303 131.347 226.956C131.244 227.6 131.09 228.221 130.885 228.818C130.689 229.415 130.432 229.952 130.115 230.428C130.021 230.307 129.881 230.171 129.695 230.022C129.517 229.873 129.335 229.723 129.149 229.574C128.971 229.434 128.817 229.336 128.687 229.28C129.041 228.72 129.298 228.095 129.457 227.404C129.625 226.704 129.732 225.999 129.779 225.29C129.825 224.581 129.849 223.923 129.849 223.316V219.2ZM135.533 217.114H137.297C137.278 218.262 137.311 219.387 137.395 220.488C137.479 221.589 137.6 222.621 137.759 223.582C137.927 224.534 138.123 225.379 138.347 226.116C138.571 226.844 138.818 227.413 139.089 227.824C139.359 228.235 139.635 228.44 139.915 228.44C140.073 228.44 140.195 228.249 140.279 227.866C140.372 227.483 140.437 226.853 140.475 225.976C140.671 226.163 140.899 226.345 141.161 226.522C141.431 226.699 141.679 226.83 141.903 226.914C141.819 227.782 141.693 228.454 141.525 228.93C141.357 229.397 141.133 229.719 140.853 229.896C140.573 230.073 140.213 230.162 139.775 230.162C139.271 230.162 138.813 229.989 138.403 229.644C138.001 229.299 137.642 228.818 137.325 228.202C137.017 227.586 136.751 226.863 136.527 226.032C136.303 225.201 136.116 224.301 135.967 223.33C135.827 222.359 135.719 221.351 135.645 220.306C135.579 219.251 135.542 218.187 135.533 217.114ZM144.395 223.722H157.093V225.206H144.395V223.722ZM147.657 219.69H155.231V220.992H147.657V219.69ZM147.657 221.706H155.231V223.008H147.657V221.706ZM145.011 228.636C145.561 228.571 146.191 228.491 146.901 228.398C147.619 228.295 148.371 228.188 149.155 228.076C149.948 227.964 150.727 227.852 151.493 227.74L151.577 229.21C150.858 229.322 150.13 229.439 149.393 229.56C148.655 229.681 147.946 229.789 147.265 229.882C146.583 229.985 145.958 230.083 145.389 230.176L145.011 228.636ZM151.325 224.142C151.782 225.365 152.505 226.368 153.495 227.152C154.484 227.936 155.772 228.473 157.359 228.762C157.237 228.883 157.107 229.033 156.967 229.21C156.836 229.387 156.71 229.569 156.589 229.756C156.467 229.943 156.369 230.115 156.295 230.274C155.147 230.003 154.157 229.611 153.327 229.098C152.496 228.594 151.791 227.959 151.213 227.194C150.643 226.429 150.167 225.533 149.785 224.506L151.325 224.142ZM155.301 225.024L156.659 225.962C156.313 226.214 155.949 226.461 155.567 226.704C155.193 226.937 154.815 227.157 154.433 227.362C154.05 227.567 153.695 227.749 153.369 227.908L152.249 227.04C152.575 226.872 152.925 226.676 153.299 226.452C153.672 226.219 154.031 225.976 154.377 225.724C154.731 225.472 155.039 225.239 155.301 225.024ZM146.733 217.59H155.609V218.962H148.455V224.338H146.733V217.59ZM146.733 224.17H148.455V228.818L146.733 229V224.17ZM160.103 219.396C160.383 219.387 160.649 219.377 160.901 219.368C161.153 219.349 161.344 219.335 161.475 219.326C161.764 219.307 162.119 219.279 162.539 219.242C162.968 219.195 163.444 219.149 163.967 219.102C164.499 219.055 165.063 219.009 165.661 218.962C166.258 218.915 166.879 218.864 167.523 218.808C168.008 218.761 168.489 218.724 168.965 218.696C169.45 218.659 169.907 218.631 170.337 218.612C170.775 218.584 171.158 218.565 171.485 218.556L171.499 220.348C171.247 220.348 170.957 220.353 170.631 220.362C170.304 220.371 169.977 220.39 169.651 220.418C169.333 220.437 169.049 220.479 168.797 220.544C168.377 220.656 167.985 220.847 167.621 221.118C167.257 221.379 166.939 221.692 166.669 222.056C166.407 222.411 166.202 222.798 166.053 223.218C165.903 223.629 165.829 224.044 165.829 224.464C165.829 224.921 165.908 225.327 166.067 225.682C166.235 226.027 166.459 226.326 166.739 226.578C167.028 226.821 167.364 227.026 167.747 227.194C168.129 227.353 168.54 227.474 168.979 227.558C169.427 227.642 169.889 227.698 170.365 227.726L169.707 229.644C169.119 229.607 168.545 229.513 167.985 229.364C167.434 229.215 166.916 229.009 166.431 228.748C165.945 228.487 165.521 228.169 165.157 227.796C164.802 227.413 164.517 226.979 164.303 226.494C164.097 225.999 163.995 225.449 163.995 224.842C163.995 224.17 164.102 223.554 164.317 222.994C164.531 222.425 164.797 221.93 165.115 221.51C165.441 221.081 165.763 220.749 166.081 220.516C165.819 220.553 165.502 220.591 165.129 220.628C164.765 220.665 164.368 220.712 163.939 220.768C163.519 220.815 163.089 220.866 162.651 220.922C162.212 220.978 161.787 221.043 161.377 221.118C160.975 221.183 160.611 221.249 160.285 221.314L160.103 219.396ZM169.497 221.72C169.618 221.888 169.744 222.089 169.875 222.322C170.015 222.546 170.15 222.775 170.281 223.008C170.411 223.232 170.523 223.437 170.617 223.624L169.553 224.1C169.375 223.708 169.203 223.363 169.035 223.064C168.876 222.765 168.685 222.462 168.461 222.154L169.497 221.72ZM171.065 221.076C171.186 221.244 171.317 221.44 171.457 221.664C171.606 221.879 171.751 222.103 171.891 222.336C172.031 222.56 172.147 222.761 172.241 222.938L171.191 223.442C171.004 223.069 170.822 222.737 170.645 222.448C170.477 222.159 170.276 221.86 170.043 221.552L171.065 221.076ZM176.833 218.948C177.859 219.069 178.802 219.144 179.661 219.172C180.529 219.191 181.331 219.172 182.069 219.116C182.713 219.06 183.329 218.976 183.917 218.864C184.505 218.752 185.083 218.607 185.653 218.43L185.877 220.04C185.373 220.18 184.827 220.301 184.239 220.404C183.651 220.507 183.049 220.586 182.433 220.642C181.714 220.698 180.883 220.726 179.941 220.726C179.007 220.717 178.004 220.661 176.931 220.558L176.833 218.948ZM176.581 221.888C177.43 221.963 178.242 222.014 179.017 222.042C179.791 222.07 180.519 222.07 181.201 222.042C181.882 222.014 182.503 221.977 183.063 221.93C183.819 221.865 184.467 221.771 185.009 221.65C185.55 221.519 186.021 221.398 186.423 221.286L186.703 222.938C186.283 223.041 185.821 223.139 185.317 223.232C184.813 223.325 184.276 223.405 183.707 223.47C183.109 223.526 182.423 223.573 181.649 223.61C180.883 223.638 180.076 223.647 179.227 223.638C178.377 223.619 177.528 223.587 176.679 223.54L176.581 221.888ZM181.257 219.34C181.191 219.079 181.117 218.822 181.033 218.57C180.949 218.309 180.855 218.043 180.753 217.772L182.643 217.562C182.699 218.001 182.769 218.435 182.853 218.864C182.946 219.284 183.049 219.69 183.161 220.082C183.282 220.474 183.399 220.852 183.511 221.216C183.623 221.533 183.767 221.897 183.945 222.308C184.131 222.709 184.332 223.115 184.547 223.526C184.761 223.927 184.976 224.291 185.191 224.618C185.284 224.749 185.377 224.875 185.471 224.996C185.573 225.108 185.69 225.22 185.821 225.332L184.967 226.62C184.705 226.564 184.379 226.508 183.987 226.452C183.604 226.396 183.203 226.345 182.783 226.298C182.372 226.251 181.994 226.209 181.649 226.172L181.789 224.842C182.078 224.87 182.391 224.898 182.727 224.926C183.072 224.954 183.347 224.982 183.553 225.01C183.179 224.385 182.857 223.773 182.587 223.176C182.325 222.579 182.106 222.023 181.929 221.51C181.817 221.183 181.723 220.903 181.649 220.67C181.574 220.427 181.504 220.203 181.439 219.998C181.383 219.783 181.322 219.564 181.257 219.34ZM179.269 225.136C179.101 225.369 178.956 225.612 178.835 225.864C178.713 226.107 178.653 226.382 178.653 226.69C178.653 227.203 178.891 227.577 179.367 227.81C179.852 228.034 180.557 228.146 181.481 228.146C182.143 228.146 182.769 228.118 183.357 228.062C183.954 228.006 184.5 227.931 184.995 227.838L184.897 229.616C184.411 229.7 183.865 229.765 183.259 229.812C182.652 229.859 182.064 229.882 181.495 229.882C180.561 229.882 179.754 229.784 179.073 229.588C178.401 229.392 177.878 229.089 177.505 228.678C177.131 228.258 176.94 227.717 176.931 227.054C176.921 226.606 176.977 226.205 177.099 225.85C177.229 225.486 177.374 225.136 177.533 224.8L179.269 225.136ZM192.743 218.332C192.939 218.36 193.149 218.379 193.373 218.388C193.597 218.397 193.812 218.402 194.017 218.402C194.167 218.402 194.391 218.402 194.689 218.402C194.988 218.393 195.324 218.383 195.697 218.374C196.08 218.365 196.458 218.355 196.831 218.346C197.205 218.337 197.541 218.327 197.839 218.318C198.147 218.299 198.385 218.285 198.553 218.276C198.843 218.248 199.071 218.225 199.239 218.206C199.407 218.178 199.533 218.15 199.617 218.122L200.527 219.368C200.369 219.471 200.205 219.573 200.037 219.676C199.869 219.779 199.706 219.891 199.547 220.012C199.361 220.143 199.137 220.315 198.875 220.53C198.614 220.735 198.334 220.955 198.035 221.188C197.746 221.421 197.461 221.65 197.181 221.874C196.911 222.098 196.663 222.299 196.439 222.476C196.673 222.42 196.897 222.383 197.111 222.364C197.326 222.336 197.545 222.322 197.769 222.322C198.563 222.322 199.272 222.476 199.897 222.784C200.532 223.092 201.031 223.512 201.395 224.044C201.769 224.567 201.955 225.169 201.955 225.85C201.955 226.587 201.769 227.255 201.395 227.852C201.022 228.449 200.457 228.925 199.701 229.28C198.955 229.635 198.017 229.812 196.887 229.812C196.243 229.812 195.66 229.719 195.137 229.532C194.624 229.345 194.218 229.079 193.919 228.734C193.621 228.389 193.471 227.983 193.471 227.516C193.471 227.133 193.574 226.779 193.779 226.452C193.994 226.116 194.288 225.845 194.661 225.64C195.044 225.435 195.483 225.332 195.977 225.332C196.621 225.332 197.163 225.463 197.601 225.724C198.049 225.976 198.39 226.317 198.623 226.746C198.866 227.175 198.992 227.647 199.001 228.16L197.363 228.384C197.354 227.871 197.223 227.46 196.971 227.152C196.729 226.835 196.402 226.676 195.991 226.676C195.73 226.676 195.52 226.746 195.361 226.886C195.203 227.017 195.123 227.171 195.123 227.348C195.123 227.609 195.254 227.819 195.515 227.978C195.777 228.137 196.117 228.216 196.537 228.216C197.331 228.216 197.993 228.123 198.525 227.936C199.057 227.74 199.454 227.465 199.715 227.11C199.986 226.746 200.121 226.317 200.121 225.822C200.121 225.402 199.991 225.033 199.729 224.716C199.477 224.399 199.132 224.151 198.693 223.974C198.255 223.797 197.76 223.708 197.209 223.708C196.668 223.708 196.173 223.778 195.725 223.918C195.277 224.049 194.853 224.24 194.451 224.492C194.059 224.735 193.672 225.033 193.289 225.388C192.916 225.733 192.543 226.121 192.169 226.55L190.895 225.234C191.147 225.029 191.432 224.8 191.749 224.548C192.067 224.287 192.389 224.016 192.715 223.736C193.051 223.456 193.364 223.195 193.653 222.952C193.952 222.7 194.204 222.49 194.409 222.322C194.605 222.163 194.834 221.977 195.095 221.762C195.357 221.547 195.627 221.328 195.907 221.104C196.187 220.871 196.453 220.651 196.705 220.446C196.957 220.231 197.167 220.049 197.335 219.9C197.195 219.9 197.013 219.905 196.789 219.914C196.565 219.923 196.318 219.933 196.047 219.942C195.786 219.951 195.52 219.961 195.249 219.97C194.988 219.979 194.741 219.993 194.507 220.012C194.283 220.021 194.097 220.031 193.947 220.04C193.761 220.049 193.565 220.063 193.359 220.082C193.154 220.101 192.967 220.124 192.799 220.152L192.743 218.332ZM205.581 218.094H210.089V219.578H205.581V218.094ZM205.693 222.126H209.893V223.61H205.693V222.126ZM209.935 221.174H218.601V222.504H209.935V221.174ZM205.371 226.774C205.782 226.69 206.249 226.587 206.771 226.466C207.303 226.335 207.863 226.195 208.451 226.046C209.039 225.887 209.618 225.738 210.187 225.598L210.383 227.082C209.59 227.315 208.783 227.544 207.961 227.768C207.14 227.983 206.393 228.179 205.721 228.356L205.371 226.774ZM212.259 224.212V225.108H216.277V224.212H212.259ZM210.789 223.022H217.831V226.298H210.789V223.022ZM215.773 218.682V219.578H216.669V218.682H215.773ZM213.827 218.682V219.578H214.709V218.682H213.827ZM211.895 218.682V219.578H212.749V218.682H211.895ZM210.565 217.548H218.069V220.712H210.565V217.548ZM214.779 225.654C215.003 226.149 215.307 226.615 215.689 227.054C216.072 227.483 216.511 227.861 217.005 228.188C217.509 228.515 218.055 228.771 218.643 228.958C218.475 229.107 218.289 229.313 218.083 229.574C217.878 229.835 217.715 230.064 217.593 230.26C216.669 229.877 215.867 229.313 215.185 228.566C214.504 227.819 213.967 226.965 213.575 226.004L214.779 225.654ZM217.257 226.256L218.419 227.11C218.139 227.325 217.845 227.53 217.537 227.726C217.239 227.922 216.968 228.09 216.725 228.23L215.759 227.474C215.918 227.371 216.091 227.25 216.277 227.11C216.464 226.961 216.641 226.811 216.809 226.662C216.987 226.513 217.136 226.377 217.257 226.256ZM207.135 218.738H208.633V226.9L207.135 227.138V218.738ZM213.995 225.43L215.171 225.962C214.761 226.466 214.271 226.951 213.701 227.418C213.132 227.875 212.525 228.291 211.881 228.664C211.237 229.037 210.598 229.341 209.963 229.574C209.861 229.397 209.711 229.191 209.515 228.958C209.319 228.725 209.147 228.533 208.997 228.384C209.613 228.188 210.234 227.941 210.859 227.642C211.494 227.334 212.087 226.989 212.637 226.606C213.188 226.223 213.641 225.831 213.995 225.43ZM212.595 227.404L214.177 226.354V230.26H212.595V227.404ZM225.685 217.996H233.721V219.298H225.685V217.996ZM225.377 220.362H233.987V221.734H225.377V220.362ZM228.751 217.142H230.403V218.864H228.751V217.142ZM230.865 219.046L232.503 219.354C232.363 219.606 232.237 219.844 232.125 220.068C232.013 220.283 231.911 220.469 231.817 220.628L230.361 220.348C230.455 220.152 230.548 219.933 230.641 219.69C230.735 219.447 230.809 219.233 230.865 219.046ZM226.889 219.396L228.345 219.088C228.457 219.265 228.555 219.471 228.639 219.704C228.733 219.937 228.798 220.143 228.835 220.32L227.309 220.67C227.291 220.493 227.239 220.287 227.155 220.054C227.071 219.811 226.983 219.592 226.889 219.396ZM227.743 224.982V225.696H231.691V224.982H227.743ZM227.743 223.316V224.002H231.691V223.316H227.743ZM226.161 222.266H233.329V226.732H226.161V222.266ZM230.011 226.41H231.607V228.37C231.607 228.538 231.621 228.645 231.649 228.692C231.687 228.739 231.766 228.762 231.887 228.762C231.925 228.762 231.985 228.762 232.069 228.762C232.163 228.762 232.251 228.762 232.335 228.762C232.419 228.762 232.485 228.762 232.531 228.762C232.615 228.762 232.676 228.734 232.713 228.678C232.751 228.622 232.779 228.51 232.797 228.342C232.825 228.174 232.844 227.913 232.853 227.558C232.956 227.633 233.087 227.712 233.245 227.796C233.413 227.871 233.586 227.941 233.763 228.006C233.95 228.062 234.113 228.109 234.253 228.146C234.207 228.687 234.123 229.107 234.001 229.406C233.889 229.705 233.726 229.91 233.511 230.022C233.306 230.134 233.04 230.19 232.713 230.19C232.648 230.19 232.564 230.19 232.461 230.19C232.368 230.19 232.265 230.19 232.153 230.19C232.051 230.19 231.953 230.19 231.859 230.19C231.766 230.19 231.687 230.19 231.621 230.19C231.183 230.19 230.847 230.129 230.613 230.008C230.38 229.896 230.221 229.709 230.137 229.448C230.053 229.187 230.011 228.832 230.011 228.384V226.41ZM227.449 226.34H229.087C229.022 226.816 228.915 227.255 228.765 227.656C228.625 228.057 228.415 228.421 228.135 228.748C227.855 229.075 227.477 229.369 227.001 229.63C226.525 229.891 225.923 230.115 225.195 230.302C225.149 230.162 225.069 229.999 224.957 229.812C224.855 229.635 224.743 229.462 224.621 229.294C224.509 229.126 224.397 228.991 224.285 228.888C224.901 228.767 225.405 228.627 225.797 228.468C226.189 228.3 226.493 228.113 226.707 227.908C226.931 227.693 227.099 227.46 227.211 227.208C227.323 226.947 227.403 226.657 227.449 226.34ZM221.093 220.446H225.307V222.014H221.093V220.446ZM222.479 217.31H224.047V226.606H222.479V217.31ZM220.771 226.466C221.163 226.326 221.607 226.158 222.101 225.962C222.596 225.766 223.123 225.551 223.683 225.318C224.243 225.085 224.799 224.851 225.349 224.618L225.713 226.116C224.976 226.461 224.225 226.811 223.459 227.166C222.694 227.521 221.989 227.847 221.345 228.146L220.771 226.466ZM245.145 223.68C245.145 222.681 245.271 221.767 245.523 220.936C245.775 220.105 246.111 219.359 246.531 218.696C246.951 218.033 247.409 217.455 247.903 216.96L249.233 217.548C248.767 218.043 248.342 218.598 247.959 219.214C247.586 219.821 247.287 220.493 247.063 221.23C246.839 221.967 246.727 222.784 246.727 223.68C246.727 224.567 246.839 225.383 247.063 226.13C247.287 226.867 247.586 227.539 247.959 228.146C248.342 228.753 248.767 229.308 249.233 229.812L247.903 230.4C247.409 229.905 246.951 229.327 246.531 228.664C246.111 228.001 245.775 227.255 245.523 226.424C245.271 225.593 245.145 224.679 245.145 223.68ZM256.863 217.814H258.515V221.902C258.515 222.509 258.492 223.181 258.445 223.918C258.399 224.655 258.31 225.407 258.179 226.172C258.049 226.928 257.857 227.665 257.605 228.384C257.353 229.093 257.022 229.733 256.611 230.302C256.518 230.199 256.387 230.073 256.219 229.924C256.051 229.784 255.879 229.649 255.701 229.518C255.533 229.387 255.389 229.294 255.267 229.238C255.631 228.715 255.921 228.146 256.135 227.53C256.35 226.914 256.509 226.279 256.611 225.626C256.714 224.963 256.779 224.315 256.807 223.68C256.845 223.045 256.863 222.453 256.863 221.902V217.814ZM257.745 217.814H264.521V219.396H257.745V217.814ZM257.661 221.468H263.275V223.008H257.661V221.468ZM259.467 222.434C259.757 223.423 260.149 224.343 260.643 225.192C261.138 226.032 261.749 226.765 262.477 227.39C263.215 228.015 264.069 228.501 265.039 228.846C264.918 228.958 264.783 229.098 264.633 229.266C264.493 229.434 264.358 229.607 264.227 229.784C264.106 229.971 263.999 230.134 263.905 230.274C262.869 229.845 261.973 229.271 261.217 228.552C260.461 227.833 259.817 226.989 259.285 226.018C258.763 225.047 258.324 223.969 257.969 222.784L259.467 222.434ZM262.771 221.468H263.093L263.387 221.412L264.423 221.79C264.162 223.265 263.756 224.557 263.205 225.668C262.664 226.779 262.011 227.721 261.245 228.496C260.48 229.261 259.626 229.863 258.683 230.302C258.618 230.171 258.52 230.017 258.389 229.84C258.259 229.663 258.119 229.49 257.969 229.322C257.829 229.154 257.703 229.028 257.591 228.944C258.487 228.561 259.285 228.048 259.985 227.404C260.695 226.751 261.287 225.962 261.763 225.038C262.239 224.105 262.575 223.017 262.771 221.776V221.468ZM254.833 217.142L256.401 217.66C256.084 218.444 255.706 219.233 255.267 220.026C254.838 220.81 254.371 221.552 253.867 222.252C253.373 222.943 252.859 223.554 252.327 224.086C252.271 223.946 252.192 223.764 252.089 223.54C251.987 223.316 251.875 223.092 251.753 222.868C251.632 222.644 251.525 222.467 251.431 222.336C251.879 221.916 252.313 221.431 252.733 220.88C253.163 220.329 253.555 219.732 253.909 219.088C254.264 218.444 254.572 217.795 254.833 217.142ZM253.475 221.02L255.071 219.424V219.438V230.232H253.475V221.02ZM271.381 223.68C271.381 224.679 271.255 225.593 271.003 226.424C270.751 227.255 270.415 228.001 269.995 228.664C269.585 229.327 269.127 229.905 268.623 230.4L267.293 229.812C267.76 229.308 268.18 228.753 268.553 228.146C268.936 227.539 269.239 226.867 269.463 226.13C269.687 225.383 269.799 224.567 269.799 223.68C269.799 222.784 269.687 221.967 269.463 221.23C269.239 220.493 268.936 219.821 268.553 219.214C268.18 218.598 267.76 218.043 267.293 217.548L268.623 216.96C269.127 217.455 269.585 218.033 269.995 218.696C270.415 219.359 270.751 220.105 271.003 220.936C271.255 221.767 271.381 222.681 271.381 223.68Z" fill="#2C837B"/>
<path d="M276.501 251L281 242H272L276.501 251Z" fill="#F1F7F6"/>
<rect y="267" width="231" height="37" rx="5" fill="#F1F7F6"/>
<path d="M21.84 290.202H29.806V291.854H21.84V290.202ZM22.414 283.44H29.47V285.064H22.414V283.44ZM25.074 279.24H26.81V291H25.074V279.24ZM16.814 281.704H21.392V283.216H16.814V281.704ZM18.816 286.478L20.482 284.49V292.26H18.816V286.478ZM18.816 279.114H20.482V282.404H18.816V279.114ZM20.3 284.966C20.4307 285.05 20.608 285.19 20.832 285.386C21.0653 285.573 21.3127 285.783 21.574 286.016C21.8353 286.24 22.0733 286.45 22.288 286.646C22.5027 286.833 22.6567 286.968 22.75 287.052L21.742 288.424C21.602 288.247 21.4293 288.041 21.224 287.808C21.028 287.565 20.818 287.318 20.594 287.066C20.37 286.814 20.1507 286.576 19.936 286.352C19.7213 286.128 19.5393 285.941 19.39 285.792L20.3 284.966ZM20.79 281.704H21.112L21.406 281.634L22.344 282.25C21.9987 283.165 21.546 284.037 20.986 284.868C20.426 285.689 19.81 286.431 19.138 287.094C18.466 287.757 17.78 288.307 17.08 288.746C17.0333 288.597 16.9587 288.419 16.856 288.214C16.7627 287.999 16.6647 287.799 16.562 287.612C16.4687 287.416 16.3753 287.262 16.282 287.15C16.926 286.814 17.542 286.375 18.13 285.834C18.718 285.283 19.2453 284.681 19.712 284.028C20.1787 283.365 20.538 282.689 20.79 281.998V281.704ZM35.686 280.85V281.76H41.37V280.85H35.686ZM33.992 279.548H43.148V283.062H33.992V279.548ZM35.028 286.394V286.996H41.902V286.394H35.028ZM35.028 288.06V288.662H41.902V288.06H35.028ZM35.028 284.742V285.33H41.902V284.742H35.028ZM33.362 283.594H43.652V289.81H33.362V283.594ZM36.078 289.516L37.562 290.566C37.1887 290.79 36.75 291.009 36.246 291.224C35.7513 291.439 35.238 291.635 34.706 291.812C34.1833 291.999 33.684 292.148 33.208 292.26C33.0493 292.083 32.844 291.877 32.592 291.644C32.3493 291.411 32.13 291.215 31.934 291.056C32.4287 290.944 32.9373 290.804 33.46 290.636C33.9827 290.468 34.4773 290.286 34.944 290.09C35.4107 289.894 35.7887 289.703 36.078 289.516ZM39.144 290.65L40.628 289.6C41.1227 289.721 41.6453 289.875 42.196 290.062C42.7467 290.239 43.2787 290.421 43.792 290.608C44.3147 290.785 44.7673 290.949 45.15 291.098L43.666 292.288C43.302 292.12 42.8587 291.933 42.336 291.728C41.8227 291.532 41.286 291.341 40.726 291.154C40.1753 290.967 39.648 290.799 39.144 290.65ZM50.554 288.116H52.22V290.02C52.22 290.225 52.2713 290.356 52.374 290.412C52.486 290.459 52.7333 290.482 53.116 290.482C53.2093 290.482 53.354 290.482 53.55 290.482C53.746 290.482 53.9607 290.482 54.194 290.482C54.4367 290.482 54.6607 290.482 54.866 290.482C55.0807 290.482 55.2487 290.482 55.37 290.482C55.5847 290.482 55.7433 290.449 55.846 290.384C55.958 290.309 56.0373 290.155 56.084 289.922C56.1307 289.689 56.168 289.339 56.196 288.872C56.308 288.956 56.4527 289.04 56.63 289.124C56.8167 289.199 57.0033 289.269 57.19 289.334C57.386 289.39 57.5587 289.437 57.708 289.474C57.6427 290.137 57.5353 290.645 57.386 291C57.2367 291.364 57.0127 291.616 56.714 291.756C56.4153 291.896 56.0093 291.966 55.496 291.966C55.412 291.966 55.286 291.966 55.118 291.966C54.95 291.966 54.754 291.966 54.53 291.966C54.3153 291.966 54.1007 291.966 53.886 291.966C53.6807 291.966 53.494 291.966 53.326 291.966C53.158 291.966 53.032 291.966 52.948 291.966C52.3133 291.966 51.8233 291.905 51.478 291.784C51.1327 291.672 50.89 291.476 50.75 291.196C50.6193 290.916 50.554 290.529 50.554 290.034V288.116ZM52.584 287.934L53.732 287.01C53.9467 287.187 54.1707 287.388 54.404 287.612C54.6467 287.836 54.88 288.06 55.104 288.284C55.328 288.499 55.51 288.69 55.65 288.858L54.432 289.894C54.3107 289.726 54.1427 289.525 53.928 289.292C53.7133 289.059 53.4847 288.825 53.242 288.592C53.0087 288.349 52.7893 288.13 52.584 287.934ZM57.302 288.326L58.772 287.64C58.968 287.92 59.178 288.233 59.402 288.578C59.626 288.923 59.8407 289.259 60.046 289.586C60.2513 289.903 60.4193 290.183 60.55 290.426L58.982 291.238C58.87 290.986 58.716 290.692 58.52 290.356C58.3333 290.02 58.128 289.675 57.904 289.32C57.6893 288.965 57.4887 288.634 57.302 288.326ZM48.552 287.822L50.05 288.41C49.9567 288.737 49.8493 289.087 49.728 289.46C49.6067 289.833 49.4713 290.197 49.322 290.552C49.182 290.897 49.028 291.205 48.86 291.476L47.32 290.72C47.4973 290.468 47.6607 290.179 47.81 289.852C47.9687 289.525 48.1133 289.189 48.244 288.844C48.3747 288.489 48.4773 288.149 48.552 287.822ZM47.572 281.102H53.452V282.53H47.572V281.102ZM49.882 279.128H51.478V287.542H49.882V279.128ZM49.84 282.04L50.974 282.404C50.7873 282.973 50.554 283.533 50.274 284.084C49.994 284.635 49.686 285.148 49.35 285.624C49.014 286.1 48.664 286.501 48.3 286.828C48.1787 286.651 48.0107 286.445 47.796 286.212C47.5813 285.969 47.39 285.783 47.222 285.652C47.5767 285.4 47.9173 285.083 48.244 284.7C48.58 284.308 48.8833 283.883 49.154 283.426C49.4247 282.959 49.6533 282.497 49.84 282.04ZM51.38 282.992C51.5013 283.057 51.6693 283.165 51.884 283.314C52.108 283.454 52.3413 283.613 52.584 283.79C52.836 283.958 53.06 284.117 53.256 284.266C53.4613 284.406 53.6153 284.513 53.718 284.588L52.822 285.932C52.6913 285.783 52.5233 285.615 52.318 285.428C52.122 285.232 51.912 285.031 51.688 284.826C51.4733 284.621 51.2587 284.429 51.044 284.252C50.8387 284.075 50.666 283.93 50.526 283.818L51.38 282.992ZM55.538 283.174V284H58.128V283.174H55.538ZM55.538 285.232V286.072H58.128V285.232H55.538ZM55.538 281.13V281.942H58.128V281.13H55.538ZM54.012 279.814H59.738V287.374H54.012V279.814ZM65.94 280.99C65.9027 281.158 65.87 281.349 65.842 281.564C65.8233 281.779 65.8047 281.989 65.786 282.194C65.7767 282.399 65.772 282.567 65.772 282.698C65.7627 283.006 65.758 283.323 65.758 283.65C65.7673 283.977 65.7767 284.313 65.786 284.658C65.8047 284.994 65.828 285.33 65.856 285.666C65.9213 286.338 66.0147 286.931 66.136 287.444C66.2573 287.957 66.416 288.359 66.612 288.648C66.808 288.928 67.0553 289.068 67.354 289.068C67.5127 289.068 67.6667 288.979 67.816 288.802C67.9747 288.625 68.1147 288.396 68.236 288.116C68.3667 287.827 68.4787 287.523 68.572 287.206C68.6747 286.889 68.7633 286.59 68.838 286.31L70.238 288.018C69.93 288.83 69.622 289.479 69.314 289.964C69.0153 290.44 68.7027 290.785 68.376 291C68.0493 291.205 67.6947 291.308 67.312 291.308C66.808 291.308 66.3273 291.14 65.87 290.804C65.422 290.468 65.0393 289.927 64.722 289.18C64.4047 288.424 64.1807 287.421 64.05 286.17C64.0033 285.741 63.966 285.288 63.938 284.812C63.9193 284.336 63.9053 283.883 63.896 283.454C63.896 283.025 63.896 282.67 63.896 282.39C63.896 282.194 63.8867 281.961 63.868 281.69C63.8493 281.419 63.8213 281.177 63.784 280.962L65.94 280.99ZM72.94 281.312C73.2013 281.629 73.4533 282.017 73.696 282.474C73.9387 282.931 74.1627 283.421 74.368 283.944C74.5733 284.467 74.7553 285.003 74.914 285.554C75.0727 286.095 75.1987 286.627 75.292 287.15C75.3947 287.663 75.46 288.135 75.488 288.564L73.64 289.278C73.5933 288.709 73.5093 288.088 73.388 287.416C73.2667 286.744 73.1033 286.067 72.898 285.386C72.6927 284.705 72.4453 284.061 72.156 283.454C71.876 282.847 71.5447 282.325 71.162 281.886L72.94 281.312ZM85.974 281.41C85.8807 282.119 85.7593 282.875 85.61 283.678C85.4607 284.481 85.26 285.293 85.008 286.114C84.7373 287.057 84.42 287.869 84.056 288.55C83.692 289.231 83.2907 289.759 82.852 290.132C82.4227 290.496 81.9513 290.678 81.438 290.678C80.9247 290.678 80.4487 290.505 80.01 290.16C79.5807 289.805 79.2353 289.32 78.974 288.704C78.722 288.088 78.596 287.388 78.596 286.604C78.596 285.792 78.7593 285.027 79.086 284.308C79.4127 283.589 79.8653 282.955 80.444 282.404C81.032 281.844 81.7133 281.405 82.488 281.088C83.272 280.771 84.1167 280.612 85.022 280.612C85.89 280.612 86.6693 280.752 87.36 281.032C88.06 281.312 88.6573 281.699 89.152 282.194C89.6467 282.689 90.0247 283.267 90.286 283.93C90.5473 284.593 90.678 285.307 90.678 286.072C90.678 287.052 90.4773 287.929 90.076 288.704C89.6747 289.479 89.0773 290.118 88.284 290.622C87.5 291.126 86.52 291.471 85.344 291.658L84.294 289.992C84.5647 289.964 84.8027 289.931 85.008 289.894C85.2133 289.857 85.4093 289.815 85.596 289.768C86.044 289.656 86.4593 289.497 86.842 289.292C87.234 289.077 87.5747 288.816 87.864 288.508C88.1533 288.191 88.3773 287.822 88.536 287.402C88.704 286.982 88.788 286.52 88.788 286.016C88.788 285.465 88.704 284.961 88.536 284.504C88.368 284.047 88.1207 283.65 87.794 283.314C87.4673 282.969 87.0707 282.707 86.604 282.53C86.1373 282.343 85.6007 282.25 84.994 282.25C84.2473 282.25 83.5893 282.385 83.02 282.656C82.4507 282.917 81.97 283.258 81.578 283.678C81.186 284.098 80.8873 284.551 80.682 285.036C80.486 285.521 80.388 285.983 80.388 286.422C80.388 286.889 80.444 287.281 80.556 287.598C80.668 287.906 80.8033 288.139 80.962 288.298C81.13 288.447 81.3073 288.522 81.494 288.522C81.69 288.522 81.8813 288.424 82.068 288.228C82.264 288.023 82.4553 287.715 82.642 287.304C82.8287 286.893 83.0153 286.375 83.202 285.75C83.4167 285.078 83.5987 284.359 83.748 283.594C83.8973 282.829 84.0047 282.082 84.07 281.354L85.974 281.41ZM99.988 283.118V283.944H103.768V283.118H99.988ZM99.988 281.032V281.844H103.768V281.032H99.988ZM98.406 279.674H105.42V285.302H98.406V279.674ZM97.958 286.142H105.896V291.154H104.314V287.556H103.516V291.154H102.27V287.556H101.486V291.154H100.24V287.556H99.456V291.154H97.958V286.142ZM96.894 290.398H106.708V291.854H96.894V290.398ZM94.36 280.472L95.27 279.268C95.55 279.38 95.858 279.52 96.194 279.688C96.53 279.847 96.8473 280.015 97.146 280.192C97.454 280.36 97.706 280.523 97.902 280.682L96.936 282.026C96.7587 281.867 96.5207 281.695 96.222 281.508C95.9327 281.312 95.6247 281.125 95.298 280.948C94.9713 280.771 94.6587 280.612 94.36 280.472ZM93.492 284.28L94.346 283.076C94.6353 283.179 94.948 283.314 95.284 283.482C95.6293 283.641 95.956 283.804 96.264 283.972C96.572 284.14 96.824 284.299 97.02 284.448L96.11 285.806C95.9233 285.647 95.6807 285.479 95.382 285.302C95.0833 285.115 94.766 284.933 94.43 284.756C94.1033 284.569 93.7907 284.411 93.492 284.28ZM93.758 290.958C93.982 290.603 94.2293 290.183 94.5 289.698C94.78 289.213 95.06 288.699 95.34 288.158C95.62 287.617 95.8813 287.075 96.124 286.534L97.384 287.542C97.1693 288.027 96.9407 288.527 96.698 289.04C96.4553 289.544 96.2033 290.043 95.942 290.538C95.69 291.033 95.4427 291.509 95.2 291.966L93.758 290.958ZM114.968 279.94C114.921 280.117 114.875 280.313 114.828 280.528C114.791 280.733 114.753 280.925 114.716 281.102C114.679 281.307 114.632 281.541 114.576 281.802C114.52 282.054 114.464 282.311 114.408 282.572C114.361 282.824 114.31 283.071 114.254 283.314C114.161 283.715 114.044 284.182 113.904 284.714C113.764 285.246 113.601 285.82 113.414 286.436C113.227 287.043 113.017 287.654 112.784 288.27C112.551 288.886 112.303 289.488 112.042 290.076C111.781 290.655 111.501 291.177 111.202 291.644L109.382 290.916C109.709 290.477 110.012 289.987 110.292 289.446C110.581 288.895 110.843 288.331 111.076 287.752C111.309 287.173 111.515 286.604 111.692 286.044C111.879 285.484 112.037 284.961 112.168 284.476C112.299 283.991 112.401 283.575 112.476 283.23C112.607 282.595 112.709 281.984 112.784 281.396C112.859 280.808 112.891 280.253 112.882 279.73L114.968 279.94ZM119.784 281.256C120.008 281.555 120.237 281.933 120.47 282.39C120.713 282.838 120.946 283.314 121.17 283.818C121.403 284.322 121.613 284.807 121.8 285.274C121.996 285.741 122.145 286.137 122.248 286.464L120.47 287.29C120.377 286.898 120.246 286.464 120.078 285.988C119.919 285.503 119.733 285.013 119.518 284.518C119.313 284.014 119.089 283.538 118.846 283.09C118.613 282.642 118.37 282.269 118.118 281.97L119.784 281.256ZM109.284 282.81C109.536 282.829 109.783 282.838 110.026 282.838C110.269 282.829 110.521 282.819 110.782 282.81C111.006 282.801 111.281 282.787 111.608 282.768C111.944 282.74 112.294 282.712 112.658 282.684C113.031 282.656 113.405 282.628 113.778 282.6C114.151 282.563 114.497 282.535 114.814 282.516C115.131 282.497 115.393 282.488 115.598 282.488C116.093 282.488 116.527 282.572 116.9 282.74C117.283 282.899 117.581 283.174 117.796 283.566C118.02 283.958 118.132 284.49 118.132 285.162C118.132 285.713 118.104 286.31 118.048 286.954C118.001 287.598 117.922 288.214 117.81 288.802C117.698 289.39 117.539 289.889 117.334 290.3C117.11 290.785 116.802 291.121 116.41 291.308C116.027 291.495 115.57 291.588 115.038 291.588C114.767 291.588 114.478 291.565 114.17 291.518C113.871 291.481 113.601 291.439 113.358 291.392L113.05 289.544C113.237 289.591 113.437 289.637 113.652 289.684C113.876 289.731 114.086 289.768 114.282 289.796C114.487 289.824 114.651 289.838 114.772 289.838C115.005 289.838 115.211 289.796 115.388 289.712C115.565 289.619 115.71 289.46 115.822 289.236C115.953 288.965 116.055 288.615 116.13 288.186C116.214 287.757 116.275 287.295 116.312 286.8C116.359 286.296 116.382 285.815 116.382 285.358C116.382 284.985 116.331 284.709 116.228 284.532C116.125 284.355 115.971 284.238 115.766 284.182C115.57 284.117 115.323 284.084 115.024 284.084C114.819 284.084 114.529 284.103 114.156 284.14C113.792 284.168 113.405 284.205 112.994 284.252C112.583 284.289 112.196 284.331 111.832 284.378C111.477 284.425 111.202 284.457 111.006 284.476C110.81 284.513 110.553 284.555 110.236 284.602C109.928 284.639 109.667 284.677 109.452 284.714L109.284 282.81ZM127.54 280.99C127.503 281.158 127.47 281.349 127.442 281.564C127.423 281.779 127.405 281.989 127.386 282.194C127.377 282.399 127.372 282.567 127.372 282.698C127.363 283.006 127.358 283.323 127.358 283.65C127.367 283.977 127.377 284.313 127.386 284.658C127.405 284.994 127.428 285.33 127.456 285.666C127.521 286.338 127.615 286.931 127.736 287.444C127.857 287.957 128.016 288.359 128.212 288.648C128.408 288.928 128.655 289.068 128.954 289.068C129.113 289.068 129.267 288.979 129.416 288.802C129.575 288.625 129.715 288.396 129.836 288.116C129.967 287.827 130.079 287.523 130.172 287.206C130.275 286.889 130.363 286.59 130.438 286.31L131.838 288.018C131.53 288.83 131.222 289.479 130.914 289.964C130.615 290.44 130.303 290.785 129.976 291C129.649 291.205 129.295 291.308 128.912 291.308C128.408 291.308 127.927 291.14 127.47 290.804C127.022 290.468 126.639 289.927 126.322 289.18C126.005 288.424 125.781 287.421 125.65 286.17C125.603 285.741 125.566 285.288 125.538 284.812C125.519 284.336 125.505 283.883 125.496 283.454C125.496 283.025 125.496 282.67 125.496 282.39C125.496 282.194 125.487 281.961 125.468 281.69C125.449 281.419 125.421 281.177 125.384 280.962L127.54 280.99ZM134.54 281.312C134.801 281.629 135.053 282.017 135.296 282.474C135.539 282.931 135.763 283.421 135.968 283.944C136.173 284.467 136.355 285.003 136.514 285.554C136.673 286.095 136.799 286.627 136.892 287.15C136.995 287.663 137.06 288.135 137.088 288.564L135.24 289.278C135.193 288.709 135.109 288.088 134.988 287.416C134.867 286.744 134.703 286.067 134.498 285.386C134.293 284.705 134.045 284.061 133.756 283.454C133.476 282.847 133.145 282.325 132.762 281.886L134.54 281.312ZM145.572 287.402H148.092V288.494H145.572V287.402ZM144.69 280.402H148.988V281.62H144.69V280.402ZM144.41 283.496H152.894V284.798H144.41V283.496ZM145.922 285.414H148.82V290.496H145.922V289.348H147.518V286.576H145.922V285.414ZM144.942 285.414H146.216V291.308H144.942V285.414ZM146.132 279.142H147.56V281.228H146.132V279.142ZM151.41 285.316L152.754 285.61C152.343 287.085 151.76 288.387 151.004 289.516C150.248 290.636 149.343 291.555 148.288 292.274C148.232 292.19 148.143 292.078 148.022 291.938C147.91 291.798 147.789 291.658 147.658 291.518C147.537 291.378 147.429 291.266 147.336 291.182C148.344 290.585 149.189 289.782 149.87 288.774C150.561 287.766 151.074 286.613 151.41 285.316ZM144.984 281.83L146.062 281.564C146.165 281.844 146.249 282.152 146.314 282.488C146.389 282.815 146.431 283.104 146.44 283.356L145.306 283.636C145.297 283.393 145.259 283.104 145.194 282.768C145.138 282.423 145.068 282.11 144.984 281.83ZM150.486 280.276L151.578 279.702C151.867 280.038 152.138 280.416 152.39 280.836C152.642 281.247 152.833 281.615 152.964 281.942L151.788 282.586C151.685 282.269 151.508 281.891 151.256 281.452C151.004 281.013 150.747 280.621 150.486 280.276ZM147.476 281.564L148.75 281.802C148.638 282.129 148.531 282.451 148.428 282.768C148.325 283.076 148.232 283.347 148.148 283.58L147.098 283.342C147.173 283.09 147.243 282.796 147.308 282.46C147.383 282.124 147.439 281.825 147.476 281.564ZM139.916 279.632H144.746V281.116H139.916V279.632ZM141.134 282.628H143.584V283.986H141.134V282.628ZM141.134 285.484H143.584V286.856H141.134V285.484ZM140.476 280.43H141.834V289.222H140.476V280.43ZM142.744 280.43H144.158V292.26H142.744V280.43ZM139.636 288.914C140.14 288.839 140.733 288.741 141.414 288.62C142.105 288.499 142.809 288.373 143.528 288.242L143.64 289.656C142.996 289.796 142.352 289.936 141.708 290.076C141.064 290.207 140.467 290.328 139.916 290.44L139.636 288.914ZM149.198 279.114H150.682C150.673 280.299 150.677 281.443 150.696 282.544C150.724 283.645 150.766 284.667 150.822 285.61C150.878 286.543 150.943 287.36 151.018 288.06C151.102 288.76 151.195 289.311 151.298 289.712C151.401 290.104 151.513 290.3 151.634 290.3C151.727 290.3 151.797 290.146 151.844 289.838C151.9 289.53 151.942 289.096 151.97 288.536C152.054 288.639 152.166 288.755 152.306 288.886C152.446 289.017 152.586 289.133 152.726 289.236C152.866 289.339 152.978 289.418 153.062 289.474C152.941 290.23 152.791 290.809 152.614 291.21C152.446 291.611 152.269 291.882 152.082 292.022C151.895 292.171 151.723 292.246 151.564 292.246C151.172 292.237 150.841 292.027 150.57 291.616C150.299 291.205 150.075 290.617 149.898 289.852C149.73 289.087 149.595 288.167 149.492 287.094C149.399 286.011 149.329 284.798 149.282 283.454C149.245 282.11 149.217 280.663 149.198 279.114ZM159.418 284.756H168.294V286.17H159.418V284.756ZM160.944 286.828H166.698V288.158H160.944V286.828ZM161.476 285.274L162.918 285.638C162.573 286.441 162.101 287.183 161.504 287.864C160.916 288.536 160.291 289.091 159.628 289.53C159.544 289.437 159.432 289.325 159.292 289.194C159.161 289.054 159.021 288.923 158.872 288.802C158.732 288.681 158.606 288.583 158.494 288.508C159.147 288.153 159.735 287.696 160.258 287.136C160.79 286.567 161.196 285.946 161.476 285.274ZM166.446 286.828H168C168 286.828 167.995 286.903 167.986 287.052C167.986 287.192 167.977 287.313 167.958 287.416C167.902 288.321 167.832 289.068 167.748 289.656C167.673 290.235 167.589 290.683 167.496 291C167.403 291.327 167.291 291.56 167.16 291.7C167.029 291.859 166.885 291.971 166.726 292.036C166.577 292.101 166.409 292.148 166.222 292.176C166.063 292.195 165.858 292.209 165.606 292.218C165.363 292.227 165.097 292.223 164.808 292.204C164.799 292.008 164.761 291.779 164.696 291.518C164.631 291.266 164.542 291.056 164.43 290.888C164.654 290.907 164.855 290.921 165.032 290.93C165.209 290.93 165.345 290.93 165.438 290.93C165.531 290.93 165.606 290.921 165.662 290.902C165.727 290.883 165.788 290.841 165.844 290.776C165.928 290.683 166.003 290.505 166.068 290.244C166.143 289.973 166.208 289.581 166.264 289.068C166.329 288.555 166.39 287.887 166.446 287.066V286.828ZM162.148 282.39V283.062H165.76V282.39H162.148ZM162.148 280.626V281.284H165.76V280.626H162.148ZM160.65 279.464H167.314V284.224H160.65V279.464ZM155.33 282.054H159.6V283.636H155.33V282.054ZM156.744 279.282H158.312V287.99H156.744V279.282ZM155.008 288.27C155.372 288.139 155.792 287.976 156.268 287.78C156.753 287.584 157.267 287.374 157.808 287.15C158.349 286.917 158.886 286.683 159.418 286.45L159.782 287.892C159.082 288.256 158.368 288.62 157.64 288.984C156.912 289.348 156.245 289.679 155.638 289.978L155.008 288.27ZM164.836 287.108L165.97 287.724C165.802 288.284 165.564 288.858 165.256 289.446C164.948 290.025 164.603 290.566 164.22 291.07C163.837 291.574 163.436 291.989 163.016 292.316C162.876 292.157 162.694 291.989 162.47 291.812C162.246 291.635 162.027 291.49 161.812 291.378C162.269 291.089 162.694 290.715 163.086 290.258C163.478 289.801 163.823 289.297 164.122 288.746C164.43 288.195 164.668 287.649 164.836 287.108ZM162.722 287.122L163.814 287.766C163.581 288.251 163.273 288.741 162.89 289.236C162.517 289.731 162.106 290.193 161.658 290.622C161.21 291.051 160.762 291.406 160.314 291.686C160.183 291.518 160.015 291.341 159.81 291.154C159.614 290.967 159.418 290.813 159.222 290.692C159.679 290.459 160.132 290.151 160.58 289.768C161.037 289.385 161.453 288.965 161.826 288.508C162.199 288.041 162.498 287.579 162.722 287.122ZM179.382 285.68C179.382 284.681 179.508 283.767 179.76 282.936C180.012 282.105 180.348 281.359 180.768 280.696C181.188 280.033 181.645 279.455 182.14 278.96L183.47 279.548C183.003 280.043 182.579 280.598 182.196 281.214C181.823 281.821 181.524 282.493 181.3 283.23C181.076 283.967 180.964 284.784 180.964 285.68C180.964 286.567 181.076 287.383 181.3 288.13C181.524 288.867 181.823 289.539 182.196 290.146C182.579 290.753 183.003 291.308 183.47 291.812L182.14 292.4C181.645 291.905 181.188 291.327 180.768 290.664C180.348 290.001 180.012 289.255 179.76 288.424C179.508 287.593 179.382 286.679 179.382 285.68ZM191.1 279.814H192.752V283.902C192.752 284.509 192.729 285.181 192.682 285.918C192.635 286.655 192.547 287.407 192.416 288.172C192.285 288.928 192.094 289.665 191.842 290.384C191.59 291.093 191.259 291.733 190.848 292.302C190.755 292.199 190.624 292.073 190.456 291.924C190.288 291.784 190.115 291.649 189.938 291.518C189.77 291.387 189.625 291.294 189.504 291.238C189.868 290.715 190.157 290.146 190.372 289.53C190.587 288.914 190.745 288.279 190.848 287.626C190.951 286.963 191.016 286.315 191.044 285.68C191.081 285.045 191.1 284.453 191.1 283.902V279.814ZM191.982 279.814H198.758V281.396H191.982V279.814ZM191.898 283.468H197.512V285.008H191.898V283.468ZM193.704 284.434C193.993 285.423 194.385 286.343 194.88 287.192C195.375 288.032 195.986 288.765 196.714 289.39C197.451 290.015 198.305 290.501 199.276 290.846C199.155 290.958 199.019 291.098 198.87 291.266C198.73 291.434 198.595 291.607 198.464 291.784C198.343 291.971 198.235 292.134 198.142 292.274C197.106 291.845 196.21 291.271 195.454 290.552C194.698 289.833 194.054 288.989 193.522 288.018C192.999 287.047 192.561 285.969 192.206 284.784L193.704 284.434ZM197.008 283.468H197.33L197.624 283.412L198.66 283.79C198.399 285.265 197.993 286.557 197.442 287.668C196.901 288.779 196.247 289.721 195.482 290.496C194.717 291.261 193.863 291.863 192.92 292.302C192.855 292.171 192.757 292.017 192.626 291.84C192.495 291.663 192.355 291.49 192.206 291.322C192.066 291.154 191.94 291.028 191.828 290.944C192.724 290.561 193.522 290.048 194.222 289.404C194.931 288.751 195.524 287.962 196 287.038C196.476 286.105 196.812 285.017 197.008 283.776V283.468ZM189.07 279.142L190.638 279.66C190.321 280.444 189.943 281.233 189.504 282.026C189.075 282.81 188.608 283.552 188.104 284.252C187.609 284.943 187.096 285.554 186.564 286.086C186.508 285.946 186.429 285.764 186.326 285.54C186.223 285.316 186.111 285.092 185.99 284.868C185.869 284.644 185.761 284.467 185.668 284.336C186.116 283.916 186.55 283.431 186.97 282.88C187.399 282.329 187.791 281.732 188.146 281.088C188.501 280.444 188.809 279.795 189.07 279.142ZM187.712 283.02L189.308 281.424V281.438V292.232H187.712V283.02ZM205.618 285.68C205.618 286.679 205.492 287.593 205.24 288.424C204.988 289.255 204.652 290.001 204.232 290.664C203.821 291.327 203.364 291.905 202.86 292.4L201.53 291.812C201.997 291.308 202.417 290.753 202.79 290.146C203.173 289.539 203.476 288.867 203.7 288.13C203.924 287.383 204.036 286.567 204.036 285.68C204.036 284.784 203.924 283.967 203.7 283.23C203.476 282.493 203.173 281.821 202.79 281.214C202.417 280.598 201.997 280.043 201.53 279.548L202.86 278.96C203.364 279.455 203.821 280.033 204.232 280.696C204.652 281.359 204.988 282.105 205.24 282.936C205.492 283.767 205.618 284.681 205.618 285.68Z" fill="#2C837B"/>
<path d="M20.5006 313L25 304H16L20.5006 313Z" fill="#F1F7F6"/>
</svg>
