<svg width="206" height="128" viewBox="0 0 206 128" fill="none" xmlns="http://www.w3.org/2000/svg">
<path d="M110.252 0C145.598 0 174.252 28.6538 174.252 64C174.252 99.3462 145.598 128 110.252 128C74.9057 128 46.252 99.3462 46.252 64C46.252 28.6538 74.9057 0 110.252 0ZM109.799 19.9717C85.2319 19.9717 65.3164 39.8872 65.3164 64.4541C65.3165 89.0209 85.232 108.937 109.799 108.937C134.365 108.936 154.28 89.0208 154.28 64.4541C154.28 39.8873 134.366 19.9719 109.799 19.9717Z" fill="#77C8B7"/>
<path d="M117.903 0.449219C149.642 4.22945 174.252 31.239 174.252 63.998H154.276C154.035 39.942 134.705 20.4598 110.708 19.9795V0.449219H117.903Z" fill="#DBF8F2"/>
<path d="M110.706 0.00195312V19.9824C110.404 19.9764 110.102 19.9717 109.799 19.9717C85.2319 19.9717 65.3164 39.8872 65.3164 64.4541C65.3164 72.7447 67.5875 80.5039 71.5371 87.1484H50.5684C47.782 79.9694 46.252 72.1635 46.252 64C46.252 28.6538 74.9057 0 110.252 0C110.403 0 110.555 0.000902159 110.706 0.00195312Z" fill="#01A784"/>
<path d="M161.882 24.202L169.95 16.1348H205.983" stroke="#01A784"/>
<path d="M177.842 12.2312C177.29 12.2312 176.806 12.0632 176.39 11.7272C175.982 11.3912 175.666 10.8832 175.442 10.2032C175.218 9.5232 175.106 8.6712 175.106 7.6472C175.106 6.6232 175.218 5.7792 175.442 5.11519C175.666 4.44319 175.982 3.94319 176.39 3.61519C176.806 3.28719 177.29 3.12319 177.842 3.12319C178.402 3.12319 178.886 3.29119 179.294 3.62719C179.702 3.95519 180.018 4.45119 180.242 5.11519C180.466 5.7792 180.578 6.6232 180.578 7.6472C180.578 8.6712 180.466 9.5232 180.242 10.2032C180.018 10.8832 179.702 11.3912 179.294 11.7272C178.886 12.0632 178.402 12.2312 177.842 12.2312ZM177.842 11.3432C178.178 11.3432 178.47 11.2152 178.718 10.9592C178.974 10.7032 179.17 10.3032 179.306 9.7592C179.45 9.2072 179.522 8.5032 179.522 7.6472C179.522 6.7912 179.45 6.0952 179.306 5.55919C179.17 5.0152 178.974 4.6192 178.718 4.3712C178.47 4.1152 178.178 3.9872 177.842 3.9872C177.514 3.9872 177.222 4.1152 176.966 4.3712C176.71 4.6192 176.51 5.0152 176.366 5.55919C176.23 6.0952 176.162 6.7912 176.162 7.6472C176.162 8.5032 176.23 9.2072 176.366 9.7592C176.51 10.3032 176.71 10.7032 176.966 10.9592C177.222 11.2152 177.514 11.3432 177.842 11.3432ZM185.698 12.2312C185.146 12.2312 184.662 12.0632 184.246 11.7272C183.838 11.3912 183.522 10.8832 183.298 10.2032C183.074 9.5232 182.962 8.6712 182.962 7.6472C182.962 6.6232 183.074 5.7792 183.298 5.11519C183.522 4.44319 183.838 3.94319 184.246 3.61519C184.662 3.28719 185.146 3.12319 185.698 3.12319C186.258 3.12319 186.742 3.29119 187.15 3.62719C187.558 3.95519 187.874 4.45119 188.098 5.11519C188.322 5.7792 188.434 6.6232 188.434 7.6472C188.434 8.6712 188.322 9.5232 188.098 10.2032C187.874 10.8832 187.558 11.3912 187.15 11.7272C186.742 12.0632 186.258 12.2312 185.698 12.2312ZM185.698 11.3432C186.034 11.3432 186.326 11.2152 186.574 10.9592C186.83 10.7032 187.026 10.3032 187.162 9.7592C187.306 9.2072 187.378 8.5032 187.378 7.6472C187.378 6.7912 187.306 6.0952 187.162 5.55919C187.026 5.0152 186.83 4.6192 186.574 4.3712C186.326 4.1152 186.034 3.9872 185.698 3.9872C185.37 3.9872 185.078 4.1152 184.822 4.3712C184.566 4.6192 184.366 5.0152 184.222 5.55919C184.086 6.0952 184.018 6.7912 184.018 7.6472C184.018 8.5032 184.086 9.2072 184.222 9.7592C184.366 10.3032 184.566 10.7032 184.822 10.9592C185.078 11.2152 185.37 11.3432 185.698 11.3432ZM194.107 6.1112L201.547 5.17519L201.679 6.0272L194.239 6.96319L194.107 6.1112ZM198.799 2.67919L199.447 2.24719C199.687 2.43919 199.935 2.6512 200.191 2.88319C200.447 3.11519 200.683 3.34719 200.899 3.5792C201.123 3.8032 201.303 4.0032 201.439 4.17919L200.743 4.65919C200.607 4.47519 200.431 4.27119 200.215 4.04719C200.007 3.8152 199.779 3.5792 199.531 3.33919C199.283 3.09119 199.039 2.87119 198.799 2.67919ZM193.975 2.11519L194.827 2.39119C194.523 3.09519 194.167 3.78319 193.759 4.45519C193.359 5.1272 192.923 5.7592 192.451 6.35119C191.979 6.9352 191.495 7.4512 190.999 7.8992C190.967 7.8272 190.919 7.7352 190.855 7.6232C190.791 7.5112 190.723 7.4032 190.651 7.29919C190.587 7.18719 190.527 7.0992 190.471 7.0352C190.935 6.6432 191.383 6.1872 191.815 5.66719C192.255 5.14719 192.659 4.58319 193.027 3.9752C193.395 3.36719 193.711 2.74719 193.975 2.11519ZM192.607 5.3192L193.519 4.40719L193.531 4.4312V13.0112H192.607V5.3192ZM196.795 2.16319H197.695C197.743 3.5152 197.831 4.7752 197.959 5.94319C198.087 7.1112 198.263 8.1392 198.487 9.0272C198.711 9.9152 198.991 10.6152 199.327 11.1272C199.663 11.6392 200.055 11.9192 200.503 11.9672C200.679 11.9752 200.819 11.8032 200.923 11.4512C201.027 11.0992 201.107 10.5752 201.163 9.8792C201.227 9.9352 201.307 9.9952 201.403 10.0592C201.499 10.1232 201.595 10.1832 201.691 10.2392C201.787 10.2872 201.863 10.3272 201.919 10.3592C201.831 11.0472 201.719 11.5912 201.583 11.9912C201.447 12.3832 201.291 12.6552 201.115 12.8072C200.947 12.9672 200.755 13.0392 200.539 13.0232C200.003 12.9832 199.535 12.7792 199.135 12.4112C198.735 12.0432 198.395 11.5352 198.115 10.8872C197.843 10.2392 197.619 9.4712 197.443 8.5832C197.267 7.6952 197.127 6.7112 197.023 5.6312C196.927 4.55119 196.851 3.39519 196.795 2.16319Z" fill="#01A784"/>
<path d="M44.1011 48.9413L36.0338 40.874H0.000231624" stroke="#01A784"/>
<path d="M7.89252 36.9714C7.34051 36.9714 6.85651 36.8034 6.44051 36.4674C6.03251 36.1314 5.71651 35.6234 5.49251 34.9434C5.26851 34.2634 5.15651 33.4114 5.15651 32.3874C5.15651 31.3634 5.26851 30.5194 5.49251 29.8554C5.71651 29.1834 6.03251 28.6834 6.44051 28.3554C6.85651 28.0274 7.34051 27.8634 7.89252 27.8634C8.45252 27.8634 8.93651 28.0314 9.34451 28.3674C9.75251 28.6954 10.0685 29.1914 10.2925 29.8554C10.5165 30.5194 10.6285 31.3634 10.6285 32.3874C10.6285 33.4114 10.5165 34.2634 10.2925 34.9434C10.0685 35.6234 9.75251 36.1314 9.34451 36.4674C8.93651 36.8034 8.45252 36.9714 7.89252 36.9714ZM7.89252 36.0834C8.22852 36.0834 8.52051 35.9554 8.76851 35.6994C9.02451 35.4434 9.22051 35.0434 9.35651 34.4994C9.50051 33.9474 9.57251 33.2434 9.57251 32.3874C9.57251 31.5314 9.50051 30.8354 9.35651 30.2994C9.22051 29.7554 9.02451 29.3594 8.76851 29.1114C8.52051 28.8554 8.22852 28.7274 7.89252 28.7274C7.56451 28.7274 7.27251 28.8554 7.01651 29.1114C6.76051 29.3594 6.56051 29.7554 6.41651 30.2994C6.28051 30.8354 6.21251 31.5314 6.21251 32.3874C6.21251 33.2434 6.28051 33.9474 6.41651 34.4994C6.56051 35.0434 6.76051 35.4434 7.01651 35.6994C7.27251 35.9554 7.56451 36.0834 7.89252 36.0834ZM15.7488 36.9714C15.1968 36.9714 14.7128 36.8034 14.2968 36.4674C13.8888 36.1314 13.5728 35.6234 13.3488 34.9434C13.1248 34.2634 13.0128 33.4114 13.0128 32.3874C13.0128 31.3634 13.1248 30.5194 13.3488 29.8554C13.5728 29.1834 13.8888 28.6834 14.2968 28.3554C14.7128 28.0274 15.1968 27.8634 15.7488 27.8634C16.3088 27.8634 16.7928 28.0314 17.2008 28.3674C17.6088 28.6954 17.9248 29.1914 18.1488 29.8554C18.3728 30.5194 18.4848 31.3634 18.4848 32.3874C18.4848 33.4114 18.3728 34.2634 18.1488 34.9434C17.9248 35.6234 17.6088 36.1314 17.2008 36.4674C16.7928 36.8034 16.3088 36.9714 15.7488 36.9714ZM15.7488 36.0834C16.0848 36.0834 16.3768 35.9554 16.6248 35.6994C16.8808 35.4434 17.0768 35.0434 17.2128 34.4994C17.3568 33.9474 17.4288 33.2434 17.4288 32.3874C17.4288 31.5314 17.3568 30.8354 17.2128 30.2994C17.0768 29.7554 16.8808 29.3594 16.6248 29.1114C16.3768 28.8554 16.0848 28.7274 15.7488 28.7274C15.4208 28.7274 15.1288 28.8554 14.8728 29.1114C14.6168 29.3594 14.4168 29.7554 14.2728 30.2994C14.1368 30.8354 14.0688 31.5314 14.0688 32.3874C14.0688 33.2434 14.1368 33.9474 14.2728 34.4994C14.4168 35.0434 14.6168 35.4434 14.8728 35.6994C15.1288 35.9554 15.4208 36.0834 15.7488 36.0834ZM24.157 30.8514L31.597 29.9154L31.729 30.7674L24.289 31.7034L24.157 30.8514ZM28.849 27.4194L29.497 26.9874C29.737 27.1794 29.985 27.3914 30.241 27.6234C30.497 27.8554 30.733 28.0874 30.949 28.3194C31.173 28.5434 31.353 28.7434 31.489 28.9194L30.793 29.3994C30.657 29.2154 30.481 29.0114 30.265 28.7874C30.057 28.5554 29.829 28.3194 29.581 28.0794C29.333 27.8314 29.089 27.6114 28.849 27.4194ZM24.025 26.8554L24.877 27.1314C24.573 27.8354 24.217 28.5234 23.809 29.1954C23.409 29.8674 22.973 30.4994 22.501 31.0914C22.029 31.6754 21.545 32.1914 21.049 32.6394C21.017 32.5674 20.969 32.4754 20.905 32.3634C20.841 32.2514 20.773 32.1434 20.701 32.0394C20.637 31.9274 20.577 31.8394 20.521 31.7754C20.985 31.3834 21.433 30.9274 21.865 30.4074C22.305 29.8874 22.709 29.3234 23.077 28.7154C23.445 28.1074 23.761 27.4874 24.025 26.8554ZM22.657 30.0594L23.569 29.1474L23.581 29.1714V37.7514H22.657V30.0594ZM26.845 26.9034H27.745C27.793 28.2554 27.881 29.5154 28.009 30.6834C28.137 31.8514 28.313 32.8794 28.537 33.7674C28.761 34.6554 29.041 35.3554 29.377 35.8674C29.713 36.3794 30.105 36.6594 30.553 36.7074C30.729 36.7154 30.869 36.5434 30.973 36.1914C31.077 35.8394 31.157 35.3154 31.213 34.6194C31.277 34.6754 31.357 34.7354 31.453 34.7994C31.549 34.8634 31.645 34.9234 31.741 34.9794C31.837 35.0274 31.913 35.0674 31.969 35.0994C31.881 35.7874 31.769 36.3314 31.633 36.7314C31.497 37.1234 31.341 37.3954 31.165 37.5474C30.997 37.7074 30.805 37.7794 30.589 37.7634C30.053 37.7234 29.585 37.5194 29.185 37.1514C28.785 36.7834 28.445 36.2754 28.165 35.6274C27.893 34.9794 27.669 34.2114 27.493 33.3234C27.317 32.4354 27.177 31.4514 27.073 30.3714C26.977 29.2914 26.901 28.1354 26.845 26.9034Z" fill="#01A784"/>
<path d="M156.504 115.092L164.572 123.159H200.605" stroke="#01A784"/>
<path d="M172.464 118.719C171.912 118.719 171.428 118.551 171.012 118.215C170.604 117.879 170.288 117.371 170.064 116.691C169.84 116.011 169.728 115.159 169.728 114.135C169.728 113.111 169.84 112.267 170.064 111.603C170.288 110.931 170.604 110.431 171.012 110.103C171.428 109.775 171.912 109.611 172.464 109.611C173.024 109.611 173.508 109.779 173.916 110.115C174.324 110.443 174.64 110.939 174.864 111.603C175.088 112.267 175.2 113.111 175.2 114.135C175.2 115.159 175.088 116.011 174.864 116.691C174.64 117.371 174.324 117.879 173.916 118.215C173.508 118.551 173.024 118.719 172.464 118.719ZM172.464 117.831C172.8 117.831 173.092 117.703 173.34 117.447C173.596 117.191 173.792 116.791 173.928 116.247C174.072 115.695 174.144 114.991 174.144 114.135C174.144 113.279 174.072 112.583 173.928 112.047C173.792 111.503 173.596 111.107 173.34 110.859C173.092 110.603 172.8 110.475 172.464 110.475C172.136 110.475 171.844 110.603 171.588 110.859C171.332 111.107 171.132 111.503 170.988 112.047C170.852 112.583 170.784 113.279 170.784 114.135C170.784 114.991 170.852 115.695 170.988 116.247C171.132 116.791 171.332 117.191 171.588 117.447C171.844 117.703 172.136 117.831 172.464 117.831ZM180.32 118.719C179.768 118.719 179.284 118.551 178.868 118.215C178.46 117.879 178.144 117.371 177.92 116.691C177.696 116.011 177.584 115.159 177.584 114.135C177.584 113.111 177.696 112.267 177.92 111.603C178.144 110.931 178.46 110.431 178.868 110.103C179.284 109.775 179.768 109.611 180.32 109.611C180.88 109.611 181.364 109.779 181.772 110.115C182.18 110.443 182.496 110.939 182.72 111.603C182.944 112.267 183.056 113.111 183.056 114.135C183.056 115.159 182.944 116.011 182.72 116.691C182.496 117.371 182.18 117.879 181.772 118.215C181.364 118.551 180.88 118.719 180.32 118.719ZM180.32 117.831C180.656 117.831 180.948 117.703 181.196 117.447C181.452 117.191 181.648 116.791 181.784 116.247C181.928 115.695 182 114.991 182 114.135C182 113.279 181.928 112.583 181.784 112.047C181.648 111.503 181.452 111.107 181.196 110.859C180.948 110.603 180.656 110.475 180.32 110.475C179.992 110.475 179.7 110.603 179.444 110.859C179.188 111.107 178.988 111.503 178.844 112.047C178.708 112.583 178.64 113.279 178.64 114.135C178.64 114.991 178.708 115.695 178.844 116.247C178.988 116.791 179.188 117.191 179.444 117.447C179.7 117.703 179.992 117.831 180.32 117.831ZM188.728 112.599L196.168 111.663L196.3 112.515L188.86 113.451L188.728 112.599ZM193.42 109.167L194.068 108.735C194.308 108.927 194.556 109.139 194.812 109.371C195.068 109.603 195.304 109.835 195.52 110.067C195.744 110.291 195.924 110.491 196.06 110.667L195.364 111.147C195.228 110.963 195.052 110.759 194.836 110.535C194.628 110.303 194.4 110.067 194.152 109.827C193.904 109.579 193.66 109.359 193.42 109.167ZM188.596 108.603L189.448 108.879C189.144 109.583 188.788 110.271 188.38 110.943C187.98 111.615 187.544 112.247 187.072 112.839C186.6 113.423 186.116 113.939 185.62 114.387C185.588 114.315 185.54 114.223 185.476 114.111C185.412 113.999 185.344 113.891 185.272 113.787C185.208 113.675 185.148 113.587 185.092 113.523C185.556 113.131 186.004 112.675 186.436 112.155C186.876 111.635 187.28 111.071 187.648 110.463C188.016 109.855 188.332 109.235 188.596 108.603ZM187.228 111.807L188.14 110.895L188.152 110.919V119.499H187.228V111.807ZM191.416 108.651H192.316C192.364 110.003 192.452 111.263 192.58 112.431C192.708 113.599 192.884 114.627 193.108 115.515C193.332 116.403 193.612 117.103 193.948 117.615C194.284 118.127 194.676 118.407 195.124 118.455C195.3 118.463 195.44 118.291 195.544 117.939C195.648 117.587 195.728 117.063 195.784 116.367C195.848 116.423 195.928 116.483 196.024 116.547C196.12 116.611 196.216 116.671 196.312 116.727C196.408 116.775 196.484 116.815 196.54 116.847C196.452 117.535 196.34 118.079 196.204 118.479C196.068 118.871 195.912 119.143 195.736 119.295C195.568 119.455 195.376 119.527 195.16 119.511C194.624 119.471 194.156 119.267 193.756 118.899C193.356 118.531 193.016 118.023 192.736 117.375C192.464 116.727 192.24 115.959 192.064 115.071C191.888 114.183 191.748 113.199 191.644 112.119C191.548 111.039 191.472 109.883 191.416 108.651Z" fill="#01A784"/>
</svg>
