<svg width="84" height="114" viewBox="0 0 84 114" fill="none" xmlns="http://www.w3.org/2000/svg">
<g clip-path="url(#clip0_686_172)">
<path d="M80.5588 0H3.44116C1.54066 0 0 1.5394 0 3.43836V110.562C0 112.461 1.54066 114 3.44116 114H80.5588C82.4593 114 84 112.461 84 110.562V3.43836C84 1.5394 82.4593 0 80.5588 0Z" fill="#01A784"/>
<path d="M25.0339 10.6709H10.6797V23.7942H25.0339V10.6709Z" fill="white"/>
<path d="M49.9167 10.6709H35.5625V23.7942H49.9167V10.6709Z" fill="white"/>
<path d="M74.8151 10.6709H60.4609V23.7942H74.8151V10.6709Z" fill="white"/>
<path d="M25.0339 28.0137H10.6797V41.137H25.0339V28.0137Z" fill="white"/>
<path d="M49.9167 28.0137H35.5625V41.137H49.9167V28.0137Z" fill="white"/>
<path d="M74.8151 28.0137H60.4609V41.137H74.8151V28.0137Z" fill="white"/>
<path d="M25.0339 45.877H10.6797V59.0002H25.0339V45.877Z" fill="white"/>
<path d="M49.9167 45.877H35.5625V59.0002H49.9167V45.877Z" fill="white"/>
<path d="M74.8151 45.877H60.4609V59.0002H74.8151V45.877Z" fill="white"/>
<path d="M25.0339 63.918H10.6797V77.0413H25.0339V63.918Z" fill="white"/>
<path d="M49.9167 63.918H35.5625V77.0413H49.9167V63.918Z" fill="white"/>
<path d="M74.8151 63.918H60.4609V77.0413H74.8151V63.918Z" fill="white"/>
<path d="M54.7177 83.877H31.1094V111.315H54.7177V83.877Z" fill="white"/>
</g>
<defs>
<clipPath id="clip0_686_172">
<rect width="84" height="114" fill="white"/>
</clipPath>
</defs>
</svg>
