<svg width="141" height="128" viewBox="0 0 141 128" fill="none" xmlns="http://www.w3.org/2000/svg">
<mask id="mask0_3652_11243" style="mask-type:alpha" maskUnits="userSpaceOnUse" x="0" y="0" width="141" height="128">
<rect width="141" height="128" fill="#FF0000"/>
</mask>
<g mask="url(#mask0_3652_11243)">
<path d="M81.3977 51.5783C84.595 51.5783 87.19 48.9833 87.19 45.7923C87.19 42.6012 84.595 40 81.3977 40C78.2005 40 75.6055 42.595 75.6055 45.7861C75.6055 48.9771 78.1943 51.5721 81.3977 51.5721V51.5783Z" fill="#01A784"/>
<path d="M81.8735 53.6831H73.9456C73.2565 53.6831 72.6543 54.1487 72.4866 54.8192L64 87.9401L69.2025 89.1259L73.9207 69.8866L72.288 121.936H78.8811L81.2775 86.6426H82.4757" fill="#01A784"/>
<path d="M80.917 53.6836H88.8449C89.534 53.6836 90.1362 54.1492 90.3038 54.8197L98.7843 87.9406L93.5818 89.1264L88.8635 69.8871L90.4963 121.937H83.9032L81.5068 86.6431H80.3086" fill="#01A784"/>
<path d="M122.925 51.5783C126.122 51.5783 128.717 48.9833 128.717 45.7923C128.717 42.6012 126.122 40 122.925 40C119.728 40 117.133 42.595 117.133 45.7861C117.133 48.9771 119.722 51.5721 122.925 51.5721V51.5783Z" fill="#01A784"/>
<path d="M123.176 53.7471H115.248C114.559 53.7471 113.957 54.2127 113.789 54.8832L105.309 88.0041L110.511 89.1898L115.229 69.9505L113.597 122H120.19L122.586 86.7066H123.784" fill="#01A784"/>
<path d="M115.72 69.9444L110.84 98.7754H123.871V69.8389L115.72 69.9444Z" fill="#01A784"/>
<path d="M122.675 53.7466H130.603C131.292 53.7466 131.894 54.2122 132.062 54.8827L140.542 88.0036L135.34 89.1894L130.621 69.9501L132.254 122H125.661L123.265 86.7061H122.066" fill="#01A784"/>
<path d="M130.13 69.9444L135.004 98.7754H121.973V69.8389L130.13 69.9444Z" fill="#01A784"/>
<g clip-path="url(#clip0_3652_11243)">
<path d="M52.7469 6H2.25314C1.00877 6 0 6.99926 0 8.23192V77.7681C0 79.0007 1.00877 80 2.25314 80H52.7469C53.9912 80 55 79.0007 55 77.7681V8.23192C55 6.99926 53.9912 6 52.7469 6Z" fill="#01A784"/>
<path d="M16.3908 12.9268H6.99219V21.4454H16.3908V12.9268Z" fill="white"/>
<path d="M32.6837 12.9268H23.2852V21.4454H32.6837V12.9268Z" fill="white"/>
<path d="M48.9845 12.9268H39.5859V21.4454H48.9845V12.9268Z" fill="white"/>
<path d="M16.3908 24.1846H6.99219V32.7032H16.3908V24.1846Z" fill="white"/>
<path d="M32.6837 24.1846H23.2852V32.7032H32.6837V24.1846Z" fill="white"/>
<path d="M48.9845 24.1846H39.5859V32.7032H48.9845V24.1846Z" fill="white"/>
<path d="M16.3908 35.7793H6.99219V44.2979H16.3908V35.7793Z" fill="white"/>
<path d="M32.6837 35.7798H23.2852V44.2984H32.6837V35.7798Z" fill="white"/>
<path d="M48.9845 35.7793H39.5859V44.2979H48.9845V35.7793Z" fill="white"/>
<path d="M16.3908 47.4902H6.99219V56.0089H16.3908V47.4902Z" fill="white"/>
<path d="M32.6837 47.4907H23.2852V56.0093H32.6837V47.4907Z" fill="white"/>
<path d="M48.9845 47.4902H39.5859V56.0089H48.9845V47.4902Z" fill="white"/>
<path d="M35.825 60.4463H20.3672V78.2572H35.825V60.4463Z" fill="white"/>
</g>
</g>
<defs>
<clipPath id="clip0_3652_11243">
<rect width="55" height="74" fill="white" transform="translate(0 6)"/>
</clipPath>
</defs>
</svg>
