<svg width="430" height="168" viewBox="0 0 430 168" fill="none" xmlns="http://www.w3.org/2000/svg">
<rect x="225" width="204" height="31" rx="5" fill="#F1F7F6"/>
<path d="M239.304 17.206H245.38V16.59H239.304V17.206ZM239.304 15.61H245.38V15.008H239.304V15.61ZM247.046 13.986V18.242H237.708V13.986H247.046ZM245.898 11.172C245.749 11.4427 245.609 11.69 245.478 11.914C245.347 12.1287 245.231 12.3153 245.128 12.474L243.644 12.152C243.737 11.956 243.831 11.7413 243.924 11.508C244.017 11.2653 244.092 11.0507 244.148 10.864L245.898 11.172ZM240.424 10.864C240.536 11.06 240.634 11.2793 240.718 11.522C240.811 11.7553 240.881 11.9607 240.928 12.138L239.332 12.502C239.295 12.3153 239.234 12.096 239.15 11.844C239.075 11.592 238.991 11.368 238.898 11.172L240.424 10.864ZM243.126 9.1V10.794H241.446V9.1H243.126ZM248.404 12.166V13.468H236.238V12.166H248.404ZM247.662 9.856V11.158H236.91V9.856H247.662ZM238.94 19.208C238.744 19.74 238.492 20.2533 238.184 20.748C237.885 21.2333 237.489 21.644 236.994 21.98L235.678 21.084C236.117 20.8133 236.495 20.4633 236.812 20.034C237.129 19.6047 237.367 19.1613 237.526 18.704L238.94 19.208ZM246.612 18.536C246.901 18.7693 247.195 19.0353 247.494 19.334C247.793 19.6327 248.068 19.9313 248.32 20.23C248.572 20.5287 248.768 20.8133 248.908 21.084L247.522 21.896C247.391 21.644 247.205 21.3593 246.962 21.042C246.729 20.734 246.467 20.426 246.178 20.118C245.889 19.8007 245.599 19.516 245.31 19.264L246.612 18.536ZM241.74 17.92C242.011 18.032 242.291 18.1627 242.58 18.312C242.879 18.4613 243.159 18.6153 243.42 18.774C243.691 18.9233 243.91 19.0727 244.078 19.222L243.112 20.202C242.953 20.0527 242.743 19.8987 242.482 19.74C242.23 19.572 241.959 19.4087 241.67 19.25C241.381 19.082 241.105 18.9373 240.844 18.816L241.74 17.92ZM240.928 20.342C240.928 20.5287 240.975 20.6453 241.068 20.692C241.171 20.7293 241.381 20.748 241.698 20.748C241.773 20.748 241.894 20.748 242.062 20.748C242.23 20.748 242.417 20.748 242.622 20.748C242.827 20.748 243.019 20.748 243.196 20.748C243.383 20.748 243.523 20.748 243.616 20.748C243.793 20.748 243.924 20.7247 244.008 20.678C244.092 20.622 244.153 20.5147 244.19 20.356C244.237 20.188 244.269 19.9407 244.288 19.614C244.456 19.726 244.68 19.8333 244.96 19.936C245.249 20.0293 245.501 20.0947 245.716 20.132C245.66 20.664 245.562 21.07 245.422 21.35C245.282 21.6393 245.081 21.8353 244.82 21.938C244.568 22.05 244.218 22.106 243.77 22.106C243.695 22.106 243.579 22.106 243.42 22.106C243.271 22.106 243.103 22.106 242.916 22.106C242.729 22.106 242.543 22.106 242.356 22.106C242.169 22.106 241.997 22.106 241.838 22.106C241.689 22.106 241.577 22.106 241.502 22.106C240.914 22.106 240.461 22.0547 240.144 21.952C239.827 21.8493 239.607 21.6673 239.486 21.406C239.365 21.154 239.304 20.8087 239.304 20.37V18.886H240.928V20.342ZM254.774 13.23V14.098H260.64V13.23H254.774ZM254.774 15.47V16.352H260.64V15.47H254.774ZM254.774 11.004V11.872H260.64V11.004H254.774ZM253.15 9.548H262.348V17.808H253.15V9.548ZM258.344 16.688H260.066V20.034C260.066 20.258 260.099 20.4027 260.164 20.468C260.239 20.524 260.407 20.552 260.668 20.552C260.724 20.552 260.813 20.552 260.934 20.552C261.065 20.552 261.209 20.552 261.368 20.552C261.527 20.552 261.676 20.552 261.816 20.552C261.956 20.552 262.063 20.552 262.138 20.552C262.297 20.552 262.418 20.51 262.502 20.426C262.586 20.342 262.647 20.1647 262.684 19.894C262.721 19.6233 262.749 19.2127 262.768 18.662C262.889 18.7553 263.039 18.8487 263.216 18.942C263.403 19.0353 263.594 19.1147 263.79 19.18C263.995 19.2453 264.168 19.3013 264.308 19.348C264.252 20.0853 264.154 20.6547 264.014 21.056C263.874 21.4667 263.669 21.7513 263.398 21.91C263.127 22.0687 262.759 22.148 262.292 22.148C262.217 22.148 262.115 22.148 261.984 22.148C261.863 22.148 261.727 22.148 261.578 22.148C261.429 22.148 261.275 22.148 261.116 22.148C260.967 22.148 260.831 22.148 260.71 22.148C260.589 22.148 260.495 22.148 260.43 22.148C259.879 22.148 259.45 22.0827 259.142 21.952C258.843 21.8213 258.633 21.602 258.512 21.294C258.4 20.986 258.344 20.5707 258.344 20.048V16.688ZM254.928 17.262H256.72C256.664 17.8967 256.561 18.48 256.412 19.012C256.272 19.5347 256.039 20.006 255.712 20.426C255.395 20.846 254.942 21.21 254.354 21.518C253.766 21.8353 253.001 22.1013 252.058 22.316C252.011 22.1573 251.932 21.9847 251.82 21.798C251.717 21.6207 251.601 21.4387 251.47 21.252C251.349 21.0747 251.227 20.93 251.106 20.818C251.918 20.6687 252.567 20.4867 253.052 20.272C253.537 20.048 253.906 19.7913 254.158 19.502C254.419 19.2127 254.601 18.886 254.704 18.522C254.807 18.1487 254.881 17.7287 254.928 17.262ZM272.904 9.772C272.857 10.024 272.783 10.3507 272.68 10.752C272.577 11.1533 272.428 11.606 272.232 12.11C272.083 12.4553 271.91 12.8147 271.714 13.188C271.527 13.552 271.336 13.8787 271.14 14.168C271.261 14.112 271.415 14.0653 271.602 14.028C271.789 13.9813 271.98 13.9487 272.176 13.93C272.381 13.902 272.563 13.888 272.722 13.888C273.31 13.888 273.795 14.056 274.178 14.392C274.57 14.728 274.766 15.2273 274.766 15.89C274.766 16.0767 274.766 16.3053 274.766 16.576C274.775 16.8467 274.785 17.1313 274.794 17.43C274.803 17.7193 274.813 18.004 274.822 18.284C274.831 18.564 274.836 18.816 274.836 19.04H273.156C273.175 18.8813 273.184 18.6947 273.184 18.48C273.193 18.256 273.198 18.0227 273.198 17.78C273.207 17.5373 273.212 17.304 273.212 17.08C273.221 16.8467 273.226 16.6367 273.226 16.45C273.226 16.002 273.105 15.694 272.862 15.526C272.629 15.3487 272.367 15.26 272.078 15.26C271.686 15.26 271.289 15.358 270.888 15.554C270.496 15.7407 270.165 15.9647 269.894 16.226C269.689 16.4313 269.479 16.66 269.264 16.912C269.059 17.164 268.835 17.4487 268.592 17.766L267.094 16.646C267.701 16.086 268.223 15.5447 268.662 15.022C269.11 14.4993 269.488 13.9813 269.796 13.468C270.104 12.9547 270.356 12.4413 270.552 11.928C270.692 11.5547 270.804 11.1673 270.888 10.766C270.981 10.3553 271.037 9.97267 271.056 9.618L272.904 9.772ZM267.64 11.06C267.995 11.116 268.405 11.158 268.872 11.186C269.339 11.214 269.749 11.228 270.104 11.228C270.72 11.228 271.392 11.214 272.12 11.186C272.857 11.158 273.604 11.1113 274.36 11.046C275.116 10.9713 275.835 10.878 276.516 10.766L276.502 12.39C276.007 12.4553 275.471 12.516 274.892 12.572C274.323 12.6187 273.739 12.6607 273.142 12.698C272.554 12.726 271.989 12.7493 271.448 12.768C270.907 12.7773 270.426 12.782 270.006 12.782C269.819 12.782 269.586 12.782 269.306 12.782C269.035 12.7727 268.755 12.7633 268.466 12.754C268.177 12.7353 267.901 12.7167 267.64 12.698V11.06ZM278.728 15.036C278.579 15.0827 278.401 15.1433 278.196 15.218C278 15.2833 277.799 15.3533 277.594 15.428C277.398 15.4933 277.221 15.5587 277.062 15.624C276.614 15.8013 276.082 16.016 275.466 16.268C274.859 16.52 274.225 16.814 273.562 17.15C273.142 17.374 272.787 17.5933 272.498 17.808C272.209 18.0227 271.989 18.242 271.84 18.466C271.691 18.6807 271.616 18.9187 271.616 19.18C271.616 19.376 271.658 19.5393 271.742 19.67C271.826 19.7913 271.952 19.8893 272.12 19.964C272.288 20.0387 272.498 20.09 272.75 20.118C273.002 20.146 273.301 20.16 273.646 20.16C274.243 20.16 274.901 20.1273 275.62 20.062C276.339 19.9873 277.006 19.8893 277.622 19.768L277.566 21.574C277.267 21.6113 276.889 21.6487 276.432 21.686C275.975 21.7327 275.499 21.7653 275.004 21.784C274.519 21.8027 274.052 21.812 273.604 21.812C272.876 21.812 272.223 21.742 271.644 21.602C271.065 21.462 270.608 21.224 270.272 20.888C269.945 20.5427 269.782 20.0713 269.782 19.474C269.782 18.9887 269.889 18.55 270.104 18.158C270.328 17.766 270.622 17.4113 270.986 17.094C271.35 16.7767 271.747 16.492 272.176 16.24C272.615 15.9787 273.044 15.7407 273.464 15.526C273.893 15.302 274.281 15.1107 274.626 14.952C274.971 14.7933 275.293 14.6533 275.592 14.532C275.9 14.4013 276.194 14.2707 276.474 14.14C276.745 14.0187 277.006 13.902 277.258 13.79C277.51 13.6687 277.767 13.5427 278.028 13.412L278.728 15.036ZM282.116 18.186H294.926V19.516H282.116V18.186ZM282.354 10.5H294.604V11.788H282.354V10.5ZM284.608 15.19H292.434V16.086H284.608V15.19ZM290.306 17.248H291.972V20.608C291.972 21 291.921 21.3033 291.818 21.518C291.725 21.742 291.533 21.91 291.244 22.022C290.955 22.134 290.614 22.1993 290.222 22.218C289.839 22.246 289.387 22.26 288.864 22.26C288.836 22.036 288.766 21.784 288.654 21.504C288.551 21.224 288.444 20.9767 288.332 20.762C288.565 20.7713 288.794 20.7807 289.018 20.79C289.251 20.79 289.457 20.79 289.634 20.79C289.821 20.79 289.951 20.79 290.026 20.79C290.129 20.7807 290.199 20.762 290.236 20.734C290.283 20.706 290.306 20.65 290.306 20.566V17.248ZM284.496 20.048L285.504 19.082C285.775 19.2313 286.059 19.404 286.358 19.6C286.657 19.796 286.937 19.9967 287.198 20.202C287.459 20.4073 287.674 20.5987 287.842 20.776L286.764 21.854C286.615 21.6767 286.414 21.4807 286.162 21.266C285.91 21.0513 285.635 20.8367 285.336 20.622C285.047 20.4073 284.767 20.216 284.496 20.048ZM284.72 9.562L286.078 9.016C286.265 9.20267 286.451 9.422 286.638 9.674C286.834 9.91667 286.988 10.1313 287.1 10.318L285.658 10.92C285.574 10.7333 285.439 10.514 285.252 10.262C285.075 10.0007 284.897 9.76733 284.72 9.562ZM284.972 13.3V16.562H292.098V13.3H284.972ZM283.46 12.306H293.694V17.542H283.46V12.306ZM290.74 9.1L292.504 9.534C292.261 9.83267 292.023 10.1127 291.79 10.374C291.566 10.6353 291.361 10.864 291.174 11.06L289.914 10.626C290.063 10.402 290.213 10.1453 290.362 9.856C290.521 9.56667 290.647 9.31467 290.74 9.1ZM288.906 11.144H290.32V13.524C290.32 13.6827 290.343 13.7853 290.39 13.832C290.446 13.8693 290.553 13.888 290.712 13.888C290.74 13.888 290.801 13.888 290.894 13.888C290.997 13.888 291.104 13.888 291.216 13.888C291.337 13.888 291.445 13.888 291.538 13.888C291.641 13.888 291.715 13.888 291.762 13.888C291.874 13.888 291.953 13.8787 292 13.86C292.047 13.8413 292.079 13.8133 292.098 13.776C292.238 13.8413 292.415 13.902 292.63 13.958C292.845 14.014 293.031 14.056 293.19 14.084C293.153 14.3267 293.036 14.4993 292.84 14.602C292.653 14.6953 292.355 14.742 291.944 14.742C291.879 14.742 291.776 14.742 291.636 14.742C291.505 14.742 291.365 14.742 291.216 14.742C291.067 14.742 290.922 14.742 290.782 14.742C290.642 14.742 290.539 14.742 290.474 14.742C290.054 14.742 289.727 14.7093 289.494 14.644C289.27 14.5693 289.116 14.4433 289.032 14.266C288.948 14.0887 288.906 13.8367 288.906 13.51V11.144ZM286.582 11.116H287.982V12.922C287.982 13.258 287.912 13.5753 287.772 13.874C287.641 14.1727 287.413 14.4387 287.086 14.672C286.759 14.9053 286.311 15.106 285.742 15.274C285.667 15.1247 285.551 14.952 285.392 14.756C285.233 14.5507 285.089 14.3827 284.958 14.252C285.425 14.1867 285.775 14.0887 286.008 13.958C286.241 13.818 286.395 13.6593 286.47 13.482C286.545 13.3047 286.582 13.118 286.582 12.922V11.116ZM297.544 20.524H310.298V21.854H297.544V20.524ZM297.628 11.592H310.2V12.908H297.628V11.592ZM298.58 18.522H309.388V19.796H298.58V18.522ZM302.99 10.416H304.684V21.196H302.99V10.416ZM308.128 9.114L308.912 10.416C308.231 10.528 307.484 10.626 306.672 10.71C305.869 10.7847 305.034 10.85 304.166 10.906C303.298 10.962 302.425 11.0087 301.548 11.046C300.671 11.074 299.826 11.0927 299.014 11.102C299.005 10.906 298.963 10.6867 298.888 10.444C298.813 10.192 298.743 9.97733 298.678 9.8C299.49 9.78133 300.325 9.75333 301.184 9.716C302.052 9.67867 302.901 9.632 303.732 9.576C304.572 9.52 305.365 9.45467 306.112 9.38C306.868 9.296 307.54 9.20733 308.128 9.114ZM300.68 16.17V16.8H307.148V16.17H300.68ZM300.68 14.546V15.162H307.148V14.546H300.68ZM299.042 13.44H308.856V17.906H299.042V13.44ZM321.442 9.716C321.433 9.79067 321.419 9.912 321.4 10.08C321.391 10.2387 321.381 10.402 321.372 10.57C321.363 10.7287 321.353 10.8453 321.344 10.92C321.335 11.1067 321.33 11.3587 321.33 11.676C321.33 11.984 321.33 12.3293 321.33 12.712C321.33 13.0947 321.33 13.482 321.33 13.874C321.339 14.2567 321.344 14.6207 321.344 14.966C321.353 15.302 321.358 15.582 321.358 15.806L319.608 15.218C319.608 15.0407 319.608 14.8073 319.608 14.518C319.608 14.2193 319.608 13.8973 319.608 13.552C319.608 13.1973 319.603 12.8473 319.594 12.502C319.594 12.1567 319.589 11.844 319.58 11.564C319.571 11.284 319.561 11.074 319.552 10.934C319.533 10.6447 319.51 10.3927 319.482 10.178C319.454 9.954 319.431 9.8 319.412 9.716H321.442ZM313.532 11.452C313.943 11.452 314.409 11.4473 314.932 11.438C315.455 11.4287 316.001 11.4193 316.57 11.41C317.139 11.4007 317.699 11.3913 318.25 11.382C318.801 11.3727 319.319 11.368 319.804 11.368C320.289 11.3587 320.709 11.354 321.064 11.354C321.419 11.354 321.806 11.354 322.226 11.354C322.646 11.3447 323.061 11.34 323.472 11.34C323.883 11.34 324.256 11.34 324.592 11.34C324.937 11.34 325.203 11.34 325.39 11.34L325.376 12.992C324.937 12.9733 324.359 12.9593 323.64 12.95C322.921 12.9313 322.044 12.922 321.008 12.922C320.373 12.922 319.729 12.9313 319.076 12.95C318.423 12.9593 317.774 12.9733 317.13 12.992C316.486 13.0107 315.865 13.034 315.268 13.062C314.671 13.0807 314.106 13.1087 313.574 13.146L313.532 11.452ZM321.106 15.596C321.106 16.3613 321.013 16.996 320.826 17.5C320.649 18.004 320.378 18.3867 320.014 18.648C319.65 18.9 319.197 19.026 318.656 19.026C318.395 19.026 318.119 18.97 317.83 18.858C317.55 18.746 317.289 18.5827 317.046 18.368C316.803 18.1533 316.607 17.8873 316.458 17.57C316.318 17.2527 316.248 16.8793 316.248 16.45C316.248 15.918 316.374 15.4607 316.626 15.078C316.878 14.686 317.214 14.3827 317.634 14.168C318.063 13.944 318.535 13.832 319.048 13.832C319.664 13.832 320.177 13.972 320.588 14.252C321.008 14.5227 321.321 14.8913 321.526 15.358C321.741 15.8247 321.848 16.352 321.848 16.94C321.848 17.3973 321.773 17.8733 321.624 18.368C321.475 18.8627 321.227 19.348 320.882 19.824C320.546 20.2907 320.089 20.7153 319.51 21.098C318.941 21.4807 318.227 21.7933 317.368 22.036L315.87 20.552C316.467 20.4307 317.023 20.272 317.536 20.076C318.049 19.88 318.497 19.6327 318.88 19.334C319.272 19.0353 319.575 18.6667 319.79 18.228C320.014 17.7893 320.126 17.262 320.126 16.646C320.126 16.198 320.014 15.862 319.79 15.638C319.575 15.414 319.314 15.302 319.006 15.302C318.829 15.302 318.656 15.344 318.488 15.428C318.32 15.512 318.185 15.638 318.082 15.806C317.979 15.974 317.928 16.1793 317.928 16.422C317.928 16.7393 318.035 16.996 318.25 17.192C318.474 17.3787 318.726 17.472 319.006 17.472C319.23 17.472 319.426 17.402 319.594 17.262C319.771 17.122 319.888 16.8887 319.944 16.562C320 16.2353 319.953 15.7967 319.804 15.246L321.106 15.596ZM330.78 10.332C330.976 10.36 331.186 10.3787 331.41 10.388C331.634 10.3973 331.849 10.402 332.054 10.402C332.203 10.402 332.427 10.402 332.726 10.402C333.025 10.3927 333.361 10.3833 333.734 10.374C334.117 10.3647 334.495 10.3553 334.868 10.346C335.241 10.3367 335.577 10.3273 335.876 10.318C336.184 10.2993 336.422 10.2853 336.59 10.276C336.879 10.248 337.108 10.2247 337.276 10.206C337.444 10.178 337.57 10.15 337.654 10.122L338.564 11.368C338.405 11.4707 338.242 11.5733 338.074 11.676C337.906 11.7787 337.743 11.8907 337.584 12.012C337.397 12.1427 337.173 12.3153 336.912 12.53C336.651 12.7353 336.371 12.9547 336.072 13.188C335.783 13.4213 335.498 13.65 335.218 13.874C334.947 14.098 334.7 14.2987 334.476 14.476C334.709 14.42 334.933 14.3827 335.148 14.364C335.363 14.336 335.582 14.322 335.806 14.322C336.599 14.322 337.309 14.476 337.934 14.784C338.569 15.092 339.068 15.512 339.432 16.044C339.805 16.5667 339.992 17.1687 339.992 17.85C339.992 18.5873 339.805 19.2547 339.432 19.852C339.059 20.4493 338.494 20.9253 337.738 21.28C336.991 21.6347 336.053 21.812 334.924 21.812C334.28 21.812 333.697 21.7187 333.174 21.532C332.661 21.3453 332.255 21.0793 331.956 20.734C331.657 20.3887 331.508 19.9827 331.508 19.516C331.508 19.1333 331.611 18.7787 331.816 18.452C332.031 18.116 332.325 17.8453 332.698 17.64C333.081 17.4347 333.519 17.332 334.014 17.332C334.658 17.332 335.199 17.4627 335.638 17.724C336.086 17.976 336.427 18.3167 336.66 18.746C336.903 19.1753 337.029 19.6467 337.038 20.16L335.4 20.384C335.391 19.8707 335.26 19.46 335.008 19.152C334.765 18.8347 334.439 18.676 334.028 18.676C333.767 18.676 333.557 18.746 333.398 18.886C333.239 19.0167 333.16 19.1707 333.16 19.348C333.16 19.6093 333.291 19.8193 333.552 19.978C333.813 20.1367 334.154 20.216 334.574 20.216C335.367 20.216 336.03 20.1227 336.562 19.936C337.094 19.74 337.491 19.4647 337.752 19.11C338.023 18.746 338.158 18.3167 338.158 17.822C338.158 17.402 338.027 17.0333 337.766 16.716C337.514 16.3987 337.169 16.1513 336.73 15.974C336.291 15.7967 335.797 15.708 335.246 15.708C334.705 15.708 334.21 15.778 333.762 15.918C333.314 16.0487 332.889 16.24 332.488 16.492C332.096 16.7347 331.709 17.0333 331.326 17.388C330.953 17.7333 330.579 18.1207 330.206 18.55L328.932 17.234C329.184 17.0287 329.469 16.8 329.786 16.548C330.103 16.2867 330.425 16.016 330.752 15.736C331.088 15.456 331.401 15.1947 331.69 14.952C331.989 14.7 332.241 14.49 332.446 14.322C332.642 14.1633 332.871 13.9767 333.132 13.762C333.393 13.5473 333.664 13.328 333.944 13.104C334.224 12.8707 334.49 12.6513 334.742 12.446C334.994 12.2313 335.204 12.0493 335.372 11.9C335.232 11.9 335.05 11.9047 334.826 11.914C334.602 11.9233 334.355 11.9327 334.084 11.942C333.823 11.9513 333.557 11.9607 333.286 11.97C333.025 11.9793 332.777 11.9933 332.544 12.012C332.32 12.0213 332.133 12.0307 331.984 12.04C331.797 12.0493 331.601 12.0633 331.396 12.082C331.191 12.1007 331.004 12.124 330.836 12.152L330.78 10.332ZM352.788 12.222L354.58 12.754C353.992 14.434 353.231 15.89 352.298 17.122C351.365 18.354 350.254 19.3947 348.966 20.244C347.687 21.084 346.208 21.77 344.528 22.302C344.472 22.1527 344.379 21.9753 344.248 21.77C344.117 21.5647 343.982 21.3593 343.842 21.154C343.711 20.958 343.585 20.7947 343.464 20.664C345.079 20.2347 346.493 19.6513 347.706 18.914C348.919 18.1767 349.946 17.262 350.786 16.17C351.626 15.0687 352.293 13.7527 352.788 12.222ZM347.37 12.334C347.846 13.7247 348.504 14.9707 349.344 16.072C350.184 17.1733 351.22 18.1067 352.452 18.872C353.693 19.6373 355.14 20.2067 356.792 20.58C356.661 20.7107 356.517 20.8787 356.358 21.084C356.209 21.2893 356.064 21.4947 355.924 21.7C355.784 21.9147 355.672 22.1013 355.588 22.26C353.843 21.812 352.34 21.1587 351.08 20.3C349.82 19.432 348.751 18.3773 347.874 17.136C347.006 15.8947 346.278 14.462 345.69 12.838L347.37 12.334ZM343.716 11.326H356.54V12.964H343.716V11.326ZM349.232 9.1H350.954V12.32H349.232V9.1ZM365.192 9.464H366.886V19.558C366.886 19.838 366.9 20.048 366.928 20.188C366.965 20.328 367.04 20.4213 367.152 20.468C367.273 20.5053 367.446 20.524 367.67 20.524C367.754 20.524 367.885 20.524 368.062 20.524C368.249 20.524 368.454 20.524 368.678 20.524C368.902 20.524 369.107 20.524 369.294 20.524C369.49 20.524 369.63 20.524 369.714 20.524C369.947 20.524 370.12 20.4587 370.232 20.328C370.353 20.188 370.437 19.9407 370.484 19.586C370.54 19.222 370.587 18.7133 370.624 18.06C370.829 18.2093 371.081 18.354 371.38 18.494C371.679 18.6247 371.945 18.718 372.178 18.774C372.113 19.5767 372.005 20.2207 371.856 20.706C371.707 21.1913 371.478 21.5413 371.17 21.756C370.862 21.98 370.428 22.092 369.868 22.092C369.793 22.092 369.672 22.092 369.504 22.092C369.345 22.092 369.163 22.092 368.958 22.092C368.762 22.092 368.561 22.092 368.356 22.092C368.16 22.092 367.983 22.092 367.824 22.092C367.665 22.092 367.544 22.092 367.46 22.092C366.872 22.092 366.415 22.0173 366.088 21.868C365.761 21.7187 365.528 21.4573 365.388 21.084C365.257 20.7107 365.192 20.1973 365.192 19.544V9.464ZM370.428 11.816L371.66 13.286C371.147 13.6593 370.587 14.0233 369.98 14.378C369.373 14.7233 368.753 15.0593 368.118 15.386C367.493 15.7127 366.877 16.016 366.27 16.296C366.214 16.1 366.116 15.876 365.976 15.624C365.836 15.3627 365.71 15.1433 365.598 14.966C366.177 14.686 366.755 14.3687 367.334 14.014C367.922 13.6593 368.482 13.2907 369.014 12.908C369.546 12.5253 370.017 12.1613 370.428 11.816ZM362.476 9.296L364.142 9.842C363.787 10.6727 363.367 11.5033 362.882 12.334C362.397 13.1553 361.874 13.93 361.314 14.658C360.763 15.3767 360.194 16.0067 359.606 16.548C359.55 16.408 359.461 16.226 359.34 16.002C359.228 15.778 359.107 15.554 358.976 15.33C358.845 15.0967 358.729 14.91 358.626 14.77C359.139 14.3407 359.634 13.8367 360.11 13.258C360.586 12.67 361.029 12.04 361.44 11.368C361.851 10.6867 362.196 9.996 362.476 9.296ZM360.992 13.244L362.658 11.578L362.672 11.606V22.232H360.992V13.244ZM383.182 15.68C383.182 14.6813 383.308 13.7667 383.56 12.936C383.812 12.1053 384.148 11.3587 384.568 10.696C384.988 10.0333 385.445 9.45467 385.94 8.96L387.27 9.548C386.803 10.0427 386.379 10.598 385.996 11.214C385.623 11.8207 385.324 12.4927 385.1 13.23C384.876 13.9673 384.764 14.784 384.764 15.68C384.764 16.5667 384.876 17.3833 385.1 18.13C385.324 18.8673 385.623 19.5393 385.996 20.146C386.379 20.7527 386.803 21.308 387.27 21.812L385.94 22.4C385.445 21.9053 384.988 21.3267 384.568 20.664C384.148 20.0013 383.812 19.2547 383.56 18.424C383.308 17.5933 383.182 16.6787 383.182 15.68ZM394.9 9.814H396.552V13.902C396.552 14.5087 396.529 15.1807 396.482 15.918C396.435 16.6553 396.347 17.4067 396.216 18.172C396.085 18.928 395.894 19.6653 395.642 20.384C395.39 21.0933 395.059 21.7327 394.648 22.302C394.555 22.1993 394.424 22.0733 394.256 21.924C394.088 21.784 393.915 21.6487 393.738 21.518C393.57 21.3873 393.425 21.294 393.304 21.238C393.668 20.7153 393.957 20.146 394.172 19.53C394.387 18.914 394.545 18.2793 394.648 17.626C394.751 16.9633 394.816 16.3147 394.844 15.68C394.881 15.0453 394.9 14.4527 394.9 13.902V9.814ZM395.782 9.814H402.558V11.396H395.782V9.814ZM395.698 13.468H401.312V15.008H395.698V13.468ZM397.504 14.434C397.793 15.4233 398.185 16.3427 398.68 17.192C399.175 18.032 399.786 18.7647 400.514 19.39C401.251 20.0153 402.105 20.5007 403.076 20.846C402.955 20.958 402.819 21.098 402.67 21.266C402.53 21.434 402.395 21.6067 402.264 21.784C402.143 21.9707 402.035 22.134 401.942 22.274C400.906 21.8447 400.01 21.2707 399.254 20.552C398.498 19.8333 397.854 18.9887 397.322 18.018C396.799 17.0473 396.361 15.9693 396.006 14.784L397.504 14.434ZM400.808 13.468H401.13L401.424 13.412L402.46 13.79C402.199 15.2647 401.793 16.5573 401.242 17.668C400.701 18.7787 400.047 19.7213 399.282 20.496C398.517 21.2613 397.663 21.8633 396.72 22.302C396.655 22.1713 396.557 22.0173 396.426 21.84C396.295 21.6627 396.155 21.49 396.006 21.322C395.866 21.154 395.74 21.028 395.628 20.944C396.524 20.5613 397.322 20.048 398.022 19.404C398.731 18.7507 399.324 17.962 399.8 17.038C400.276 16.1047 400.612 15.0173 400.808 13.776V13.468ZM392.87 9.142L394.438 9.66C394.121 10.444 393.743 11.2327 393.304 12.026C392.875 12.81 392.408 13.552 391.904 14.252C391.409 14.9427 390.896 15.554 390.364 16.086C390.308 15.946 390.229 15.764 390.126 15.54C390.023 15.316 389.911 15.092 389.79 14.868C389.669 14.644 389.561 14.4667 389.468 14.336C389.916 13.916 390.35 13.4307 390.77 12.88C391.199 12.3293 391.591 11.732 391.946 11.088C392.301 10.444 392.609 9.79533 392.87 9.142ZM391.512 13.02L393.108 11.424V11.438V22.232H391.512V13.02ZM409.418 15.68C409.418 16.6787 409.292 17.5933 409.04 18.424C408.788 19.2547 408.452 20.0013 408.032 20.664C407.621 21.3267 407.164 21.9053 406.66 22.4L405.33 21.812C405.797 21.308 406.217 20.7527 406.59 20.146C406.973 19.5393 407.276 18.8673 407.5 18.13C407.724 17.3833 407.836 16.5667 407.836 15.68C407.836 14.784 407.724 13.9673 407.5 13.23C407.276 12.4927 406.973 11.8207 406.59 11.214C406.217 10.598 405.797 10.0427 405.33 9.548L406.66 8.96C407.164 9.45467 407.621 10.0333 408.032 10.696C408.452 11.3587 408.788 12.1053 409.04 12.936C409.292 13.7667 409.418 14.6813 409.418 15.68Z" fill="#2C837B"/>
<path d="M236.907 38.5L241.814 30H232L236.907 38.5Z" fill="#F1F7F6"/>
<rect y="31" width="173" height="31" rx="5" fill="#F1F7F6"/>
<path d="M15.94 51.202H23.906V52.854H15.94V51.202ZM16.514 44.44H23.57V46.064H16.514V44.44ZM19.174 40.24H20.91V52H19.174V40.24ZM10.914 42.704H15.492V44.216H10.914V42.704ZM12.916 47.478L14.582 45.49V53.26H12.916V47.478ZM12.916 40.114H14.582V43.404H12.916V40.114ZM14.4 45.966C14.5307 46.05 14.708 46.19 14.932 46.386C15.1653 46.5727 15.4127 46.7827 15.674 47.016C15.9353 47.24 16.1733 47.45 16.388 47.646C16.6027 47.8327 16.7567 47.968 16.85 48.052L15.842 49.424C15.702 49.2467 15.5293 49.0413 15.324 48.808C15.128 48.5653 14.918 48.318 14.694 48.066C14.47 47.814 14.2507 47.576 14.036 47.352C13.8213 47.128 13.6393 46.9413 13.49 46.792L14.4 45.966ZM14.89 42.704H15.212L15.506 42.634L16.444 43.25C16.0987 44.1647 15.646 45.0373 15.086 45.868C14.526 46.6893 13.91 47.4313 13.238 48.094C12.566 48.7567 11.88 49.3073 11.18 49.746C11.1333 49.5967 11.0587 49.4193 10.956 49.214C10.8627 48.9993 10.7647 48.7987 10.662 48.612C10.5687 48.416 10.4753 48.262 10.382 48.15C11.026 47.814 11.642 47.3753 12.23 46.834C12.818 46.2833 13.3453 45.6813 13.812 45.028C14.2787 44.3653 14.638 43.6887 14.89 42.998V42.704ZM31.718 46.33L32.992 45.42C33.3 45.6907 33.6267 45.9893 33.972 46.316C34.3267 46.6427 34.6767 46.9787 35.022 47.324C35.3673 47.66 35.6893 47.9867 35.988 48.304C36.2867 48.6213 36.5387 48.9107 36.744 49.172L35.358 50.264C35.1713 50.0027 34.9333 49.7087 34.644 49.382C34.364 49.0553 34.056 48.7147 33.72 48.36C33.3933 47.996 33.0527 47.646 32.698 47.31C32.3527 46.9647 32.026 46.638 31.718 46.33ZM31.746 40.1H33.482V43.46C33.482 43.9267 33.4493 44.412 33.384 44.916C33.328 45.4107 33.2207 45.9147 33.062 46.428C32.9127 46.932 32.6933 47.4313 32.404 47.926C32.124 48.4113 31.76 48.878 31.312 49.326C30.8733 49.7647 30.3367 50.1753 29.702 50.558C29.618 50.4367 29.506 50.2967 29.366 50.138C29.226 49.9793 29.0767 49.8253 28.918 49.676C28.7687 49.5173 28.624 49.3867 28.484 49.284C29.0907 48.976 29.5947 48.6353 29.996 48.262C30.3973 47.8887 30.7147 47.5013 30.948 47.1C31.1813 46.6893 31.354 46.274 31.466 45.854C31.578 45.434 31.6527 45.0233 31.69 44.622C31.7273 44.2113 31.746 43.824 31.746 43.46V40.1ZM26.846 42.438H37.472V44.076H28.526V53.288H26.846V42.438ZM36.744 42.438H38.41V51.342C38.41 51.79 38.354 52.14 38.242 52.392C38.13 52.6533 37.9247 52.8493 37.626 52.98C37.3367 53.1107 36.968 53.19 36.52 53.218C36.072 53.2553 35.5353 53.274 34.91 53.274C34.8913 53.1153 34.8493 52.9333 34.784 52.728C34.728 52.5227 34.6627 52.322 34.588 52.126C34.5133 51.93 34.434 51.7573 34.35 51.608C34.63 51.6173 34.91 51.6267 35.19 51.636C35.47 51.636 35.7173 51.636 35.932 51.636C36.156 51.636 36.31 51.636 36.394 51.636C36.5247 51.6267 36.6133 51.6033 36.66 51.566C36.716 51.5193 36.744 51.4353 36.744 51.314V42.438ZM49.666 45.896L51.458 46.4C50.926 47.6787 50.226 48.766 49.358 49.662C48.4993 50.558 47.4913 51.3 46.334 51.888C45.186 52.476 43.9027 52.9427 42.484 53.288C42.428 53.148 42.3347 52.9753 42.204 52.77C42.0827 52.574 41.952 52.378 41.812 52.182C41.672 51.986 41.5413 51.8273 41.42 51.706C42.8013 51.4353 44.0333 51.0573 45.116 50.572C46.208 50.0867 47.1367 49.4613 47.902 48.696C48.6673 47.9213 49.2553 46.988 49.666 45.896ZM45.144 43.474L46.88 44.132C46.5533 44.5707 46.1707 45.0047 45.732 45.434C45.2933 45.8633 44.836 46.2647 44.36 46.638C43.884 47.0113 43.4267 47.3333 42.988 47.604C42.8853 47.4827 42.75 47.338 42.582 47.17C42.414 47.002 42.2413 46.8387 42.064 46.68C41.8867 46.5213 41.728 46.3907 41.588 46.288C42.036 46.0733 42.4793 45.8167 42.918 45.518C43.3567 45.2193 43.7673 44.8927 44.15 44.538C44.542 44.1833 44.8733 43.8287 45.144 43.474ZM46.404 45.966C47.0293 47.506 48.014 48.7567 49.358 49.718C50.7113 50.67 52.4613 51.3187 54.608 51.664C54.4867 51.7853 54.356 51.9393 54.216 52.126C54.076 52.322 53.9407 52.518 53.81 52.714C53.6887 52.9193 53.5907 53.1013 53.516 53.26C51.9947 52.9707 50.6787 52.532 49.568 51.944C48.4667 51.3467 47.524 50.5907 46.74 49.676C45.9653 48.7613 45.3167 47.6833 44.794 46.442L46.404 45.966ZM41.798 41.724H54.216V43.362H41.798V41.724ZM47.104 40.086H48.84V42.802H47.104V40.086ZM49.344 44.342L50.716 43.334C51.1267 43.6047 51.5653 43.9173 52.032 44.272C52.508 44.6173 52.956 44.9673 53.376 45.322C53.8053 45.6767 54.1553 46.008 54.426 46.316L52.914 47.464C52.6807 47.1653 52.3633 46.834 51.962 46.47C51.5607 46.0967 51.1267 45.728 50.66 45.364C50.2027 44.9907 49.764 44.65 49.344 44.342ZM60.992 41.794H69.854V43.292H60.992V41.794ZM64.408 40.1H66.116V42.508H64.408V40.1ZM64.408 47.016H65.878V52.644H64.408V47.016ZM62.084 46.876H63.582V48.262C63.582 48.654 63.5587 49.0647 63.512 49.494C63.4747 49.9233 63.3813 50.3573 63.232 50.796C63.092 51.2347 62.882 51.6547 62.602 52.056C62.322 52.4667 61.944 52.8493 61.468 53.204C61.3933 53.092 61.286 52.966 61.146 52.826C61.006 52.686 60.8567 52.5507 60.698 52.42C60.5487 52.2893 60.4087 52.1867 60.278 52.112C60.8193 51.72 61.216 51.3 61.468 50.852C61.72 50.404 61.8833 49.9513 61.958 49.494C62.042 49.0367 62.084 48.6073 62.084 48.206V46.876ZM63.61 42.62L65.374 43.124C65.1967 43.4507 65.0147 43.782 64.828 44.118C64.6413 44.454 64.4593 44.776 64.282 45.084C64.1047 45.3827 63.9367 45.6487 63.778 45.882L62.42 45.406C62.5693 45.154 62.7187 44.8647 62.868 44.538C63.0173 44.2113 63.1573 43.88 63.288 43.544C63.428 43.208 63.5353 42.9 63.61 42.62ZM66.368 44.034L67.656 43.362C67.964 43.642 68.272 43.9593 68.58 44.314C68.8973 44.6593 69.1867 45.0047 69.448 45.35C69.7187 45.6953 69.9287 46.0173 70.078 46.316L68.664 47.072C68.5427 46.792 68.356 46.4747 68.104 46.12C67.852 45.7653 67.572 45.406 67.264 45.042C66.9653 44.678 66.6667 44.342 66.368 44.034ZM61.076 44.958C61.692 44.9487 62.4013 44.9347 63.204 44.916C64.0067 44.888 64.856 44.8647 65.752 44.846C66.648 44.818 67.5393 44.7853 68.426 44.748L68.384 46.162C67.544 46.2087 66.6947 46.2553 65.836 46.302C64.9867 46.3487 64.17 46.3907 63.386 46.428C62.602 46.4653 61.888 46.498 61.244 46.526L61.076 44.958ZM57.604 41.402L58.514 40.17C58.8033 40.282 59.1067 40.4173 59.424 40.576C59.7507 40.7347 60.0587 40.898 60.348 41.066C60.6467 41.234 60.8847 41.402 61.062 41.57L60.096 42.942C59.928 42.774 59.704 42.5967 59.424 42.41C59.144 42.2233 58.8407 42.0413 58.514 41.864C58.1967 41.6867 57.8933 41.5327 57.604 41.402ZM56.792 45.224L57.688 43.95C57.9867 44.0527 58.2993 44.1787 58.626 44.328C58.9527 44.4773 59.2653 44.636 59.564 44.804C59.8627 44.972 60.1053 45.1353 60.292 45.294L59.326 46.694C59.158 46.5353 58.9293 46.3673 58.64 46.19C58.3507 46.0033 58.0427 45.826 57.716 45.658C57.3987 45.49 57.0907 45.3453 56.792 45.224ZM57.198 52.014C57.4313 51.65 57.6927 51.2253 57.982 50.74C58.2713 50.2453 58.5653 49.7227 58.864 49.172C59.1627 48.6213 59.4427 48.0707 59.704 47.52L60.978 48.57C60.7447 49.0647 60.4973 49.5733 60.236 50.096C59.984 50.6187 59.7227 51.132 59.452 51.636C59.1907 52.1307 58.9293 52.6067 58.668 53.064L57.198 52.014ZM66.718 46.876H68.272V51.244C68.272 51.4773 68.286 51.6127 68.314 51.65C68.3327 51.6687 68.3513 51.6873 68.37 51.706C68.398 51.7153 68.426 51.72 68.454 51.72C68.4913 51.72 68.5287 51.72 68.566 51.72C68.6127 51.72 68.65 51.72 68.678 51.72C68.7153 51.72 68.7527 51.7153 68.79 51.706C68.8273 51.6967 68.8507 51.6827 68.86 51.664C68.9067 51.636 68.944 51.5147 68.972 51.3C68.9813 51.188 68.986 51.0153 68.986 50.782C68.9953 50.5487 69.0047 50.2733 69.014 49.956C69.1447 50.0773 69.3173 50.1987 69.532 50.32C69.756 50.432 69.9613 50.5207 70.148 50.586C70.1387 50.894 70.1153 51.2067 70.078 51.524C70.05 51.8413 70.0173 52.0747 69.98 52.224C69.8867 52.5227 69.728 52.7373 69.504 52.868C69.4107 52.924 69.2893 52.966 69.14 52.994C69 53.0313 68.8647 53.05 68.734 53.05C68.6313 53.05 68.5053 53.05 68.356 53.05C68.216 53.05 68.0993 53.05 68.006 53.05C67.8473 53.05 67.6793 53.022 67.502 52.966C67.3247 52.91 67.18 52.8213 67.068 52.7C66.9467 52.5787 66.858 52.4153 66.802 52.21C66.746 52.014 66.718 51.678 66.718 51.202V46.876ZM78.17 41.038C78.1327 41.2153 78.0907 41.4113 78.044 41.626C77.9973 41.8313 77.9553 42.0227 77.918 42.2C77.8807 42.4053 77.834 42.6387 77.778 42.9C77.722 43.152 77.666 43.4087 77.61 43.67C77.5633 43.922 77.512 44.1693 77.456 44.412C77.3627 44.8133 77.246 45.28 77.106 45.812C76.966 46.344 76.8027 46.918 76.616 47.534C76.4293 48.1407 76.2193 48.752 75.986 49.368C75.7527 49.984 75.5053 50.586 75.244 51.174C74.9827 51.7527 74.7027 52.2753 74.404 52.742L72.584 52.014C72.9107 51.5753 73.214 51.0853 73.494 50.544C73.7833 49.9933 74.0447 49.4333 74.278 48.864C74.5113 48.2853 74.7167 47.716 74.894 47.156C75.0807 46.5867 75.2393 46.0593 75.37 45.574C75.51 45.0887 75.6173 44.6733 75.692 44.328C75.8227 43.6933 75.9253 43.082 76 42.494C76.0747 41.906 76.1027 41.3507 76.084 40.828L78.17 41.038ZM82.986 42.452C83.21 42.76 83.4387 43.138 83.672 43.586C83.9147 44.0247 84.1527 44.4913 84.386 44.986C84.6193 45.4807 84.8293 45.9567 85.016 46.414C85.2027 46.8713 85.3473 47.268 85.45 47.604L83.672 48.416C83.588 48.024 83.462 47.59 83.294 47.114C83.1353 46.638 82.9487 46.1573 82.734 45.672C82.5193 45.1773 82.2907 44.7107 82.048 44.272C81.8147 43.8333 81.572 43.4647 81.32 43.166L82.986 42.452ZM72.486 43.908C72.738 43.9267 72.9853 43.936 73.228 43.936C73.48 43.9267 73.732 43.9173 73.984 43.908C74.2173 43.8987 74.4973 43.8847 74.824 43.866C75.1507 43.838 75.496 43.81 75.86 43.782C76.2333 43.754 76.6067 43.726 76.98 43.698C77.3533 43.6607 77.6987 43.6327 78.016 43.614C78.3333 43.5953 78.5947 43.586 78.8 43.586C79.304 43.586 79.7427 43.67 80.116 43.838C80.4893 43.9967 80.7833 44.272 80.998 44.664C81.222 45.056 81.334 45.588 81.334 46.26C81.334 46.8107 81.3107 47.408 81.264 48.052C81.2173 48.696 81.1333 49.312 81.012 49.9C80.9 50.488 80.7413 50.9873 80.536 51.398C80.312 51.8833 80.004 52.2193 79.612 52.406C79.2293 52.5927 78.772 52.686 78.24 52.686C77.9787 52.686 77.694 52.6627 77.386 52.616C77.078 52.5787 76.8027 52.5367 76.56 52.49L76.266 50.642C76.4433 50.6887 76.6393 50.7353 76.854 50.782C77.078 50.8287 77.288 50.866 77.484 50.894C77.6893 50.922 77.8527 50.936 77.974 50.936C78.2073 50.936 78.4127 50.894 78.59 50.81C78.7673 50.7167 78.912 50.558 79.024 50.334C79.1547 50.0633 79.262 49.7133 79.346 49.284C79.43 48.8547 79.4907 48.3927 79.528 47.898C79.5747 47.394 79.598 46.9133 79.598 46.456C79.598 46.0827 79.542 45.8073 79.43 45.63C79.3273 45.4527 79.1733 45.336 78.968 45.28C78.772 45.2147 78.5293 45.182 78.24 45.182C78.0253 45.182 77.736 45.2007 77.372 45.238C77.008 45.266 76.616 45.3033 76.196 45.35C75.7853 45.3873 75.4027 45.4293 75.048 45.476C74.6933 45.5227 74.418 45.5553 74.222 45.574C74.0167 45.6113 73.7553 45.6533 73.438 45.7C73.13 45.7373 72.8687 45.7747 72.654 45.812L72.486 43.908ZM82.734 40.506C82.8553 40.674 82.9813 40.8747 83.112 41.108C83.252 41.3413 83.3873 41.5747 83.518 41.808C83.6487 42.0413 83.7607 42.2467 83.854 42.424L82.72 42.914C82.6267 42.718 82.5193 42.5033 82.398 42.27C82.2767 42.0367 82.1507 41.8033 82.02 41.57C81.8893 41.3367 81.7587 41.136 81.628 40.968L82.734 40.506ZM84.4 39.876C84.5213 40.0533 84.652 40.2587 84.792 40.492C84.932 40.7253 85.0673 40.9587 85.198 41.192C85.338 41.4253 85.4453 41.6213 85.52 41.78L84.414 42.256C84.2647 41.9667 84.0873 41.64 83.882 41.276C83.6767 40.9027 83.476 40.5853 83.28 40.324L84.4 39.876ZM92.688 47.576H100.038V53.176H98.428V49.102H94.228V53.246H92.688V47.576ZM98.918 40.1L100.206 41.416C99.5247 41.6773 98.7687 41.906 97.938 42.102C97.1073 42.2887 96.2533 42.4427 95.376 42.564C94.508 42.6853 93.6587 42.7833 92.828 42.858C92.8 42.662 92.7347 42.424 92.632 42.144C92.5387 41.8547 92.4453 41.6167 92.352 41.43C92.9493 41.3647 93.5513 41.29 94.158 41.206C94.774 41.122 95.3713 41.024 95.95 40.912C96.5287 40.8 97.07 40.6787 97.574 40.548C98.078 40.408 98.526 40.2587 98.918 40.1ZM95.558 41.682H97.154V48.458H95.558V41.682ZM91.82 44.188H100.738V45.784H91.82V44.188ZM93.794 51.146H99.1V52.672H93.794V51.146ZM88.362 41.5L89.314 40.282C89.5753 40.4127 89.8693 40.562 90.196 40.73C90.5227 40.898 90.84 41.066 91.148 41.234C91.4653 41.402 91.722 41.5513 91.918 41.682L90.924 43.04C90.7373 42.9 90.4947 42.7413 90.196 42.564C89.8973 42.3867 89.5847 42.2047 89.258 42.018C88.9313 41.822 88.6327 41.6493 88.362 41.5ZM87.69 45.378L88.6 44.132C88.8613 44.244 89.16 44.384 89.496 44.552C89.832 44.72 90.1587 44.888 90.476 45.056C90.7933 45.2147 91.05 45.3593 91.246 45.49L90.308 46.89C90.1213 46.75 89.874 46.5913 89.566 46.414C89.2673 46.2367 88.95 46.0547 88.614 45.868C88.278 45.6813 87.97 45.518 87.69 45.378ZM87.9 51.958C88.152 51.6033 88.4273 51.188 88.726 50.712C89.034 50.2267 89.3467 49.7133 89.664 49.172C89.9813 48.6213 90.28 48.0753 90.56 47.534L91.792 48.654C91.5493 49.1393 91.288 49.6387 91.008 50.152C90.7373 50.6653 90.4573 51.1693 90.168 51.664C89.888 52.1587 89.6033 52.6347 89.314 53.092L87.9 51.958ZM105.806 44.86H113.422V46.442H105.806V44.86ZM104.294 40.646H108.27V42.088H104.294V40.646ZM103.986 48.024H115.158V49.564H103.986V48.024ZM107.668 40.646H107.976L108.27 40.59L109.39 41.094C109.147 41.8127 108.839 42.4753 108.466 43.082C108.102 43.6887 107.682 44.244 107.206 44.748C106.73 45.2427 106.217 45.686 105.666 46.078C105.115 46.47 104.541 46.8107 103.944 47.1C103.832 46.904 103.673 46.68 103.468 46.428C103.272 46.176 103.09 45.9753 102.922 45.826C103.445 45.6113 103.949 45.336 104.434 45C104.919 44.664 105.372 44.286 105.792 43.866C106.221 43.4367 106.595 42.9747 106.912 42.48C107.239 41.9853 107.491 41.4673 107.668 40.926V40.646ZM106.996 45.658H108.662V48.08C108.662 48.5747 108.615 49.0693 108.522 49.564C108.429 50.0587 108.247 50.5393 107.976 51.006C107.705 51.4633 107.309 51.888 106.786 52.28C106.263 52.6813 105.568 53.0267 104.7 53.316C104.635 53.1853 104.537 53.036 104.406 52.868C104.285 52.7 104.154 52.532 104.014 52.364C103.874 52.2053 103.748 52.0747 103.636 51.972C104.383 51.7387 104.98 51.4727 105.428 51.174C105.876 50.8753 106.212 50.5533 106.436 50.208C106.66 49.8627 106.809 49.508 106.884 49.144C106.959 48.7707 106.996 48.402 106.996 48.038V45.658ZM111.14 40.128C111.439 40.9213 111.835 41.6727 112.33 42.382C112.834 43.0913 113.422 43.7213 114.094 44.272C114.766 44.8227 115.508 45.2613 116.32 45.588C116.189 45.7 116.049 45.8447 115.9 46.022C115.76 46.19 115.62 46.3673 115.48 46.554C115.349 46.7313 115.242 46.8947 115.158 47.044C114.29 46.6333 113.506 46.106 112.806 45.462C112.115 44.818 111.504 44.0807 110.972 43.25C110.449 42.4193 110.001 41.5187 109.628 40.548L111.14 40.128ZM103.874 43.18L104.924 42.312C105.111 42.4333 105.302 42.5733 105.498 42.732C105.703 42.8907 105.899 43.0447 106.086 43.194C106.273 43.3433 106.427 43.4787 106.548 43.6L105.442 44.58C105.339 44.4587 105.195 44.314 105.008 44.146C104.831 43.978 104.639 43.81 104.434 43.642C104.238 43.474 104.051 43.32 103.874 43.18ZM113.086 40.324L114.36 41.206C113.987 41.542 113.599 41.8733 113.198 42.2C112.806 42.5267 112.442 42.802 112.106 43.026L111.098 42.242C111.313 42.0833 111.541 41.8967 111.784 41.682C112.027 41.458 112.265 41.2293 112.498 40.996C112.731 40.7533 112.927 40.5293 113.086 40.324ZM114.766 41.934L115.998 42.788C115.625 43.1333 115.219 43.4787 114.78 43.824C114.351 44.16 113.954 44.4447 113.59 44.678L112.582 43.908C112.815 43.74 113.063 43.544 113.324 43.32C113.595 43.0867 113.856 42.8487 114.108 42.606C114.369 42.3633 114.589 42.1393 114.766 41.934ZM110.412 45.728H112.162V51.076C112.162 51.3373 112.185 51.5053 112.232 51.58C112.288 51.6453 112.409 51.678 112.596 51.678C112.643 51.678 112.713 51.678 112.806 51.678C112.909 51.678 113.016 51.678 113.128 51.678C113.24 51.678 113.347 51.678 113.45 51.678C113.553 51.678 113.627 51.678 113.674 51.678C113.805 51.678 113.898 51.636 113.954 51.552C114.019 51.468 114.066 51.314 114.094 51.09C114.122 50.8567 114.145 50.5207 114.164 50.082C114.341 50.2127 114.579 50.3433 114.878 50.474C115.177 50.5953 115.443 50.684 115.676 50.74C115.62 51.356 115.527 51.8413 115.396 52.196C115.265 52.5507 115.074 52.798 114.822 52.938C114.579 53.0873 114.253 53.162 113.842 53.162C113.767 53.162 113.66 53.162 113.52 53.162C113.38 53.162 113.231 53.162 113.072 53.162C112.913 53.162 112.764 53.162 112.624 53.162C112.484 53.162 112.377 53.162 112.302 53.162C111.789 53.162 111.397 53.0967 111.126 52.966C110.855 52.8447 110.669 52.63 110.566 52.322C110.463 52.0233 110.412 51.6127 110.412 51.09V45.728ZM127.282 46.68C127.282 45.6813 127.408 44.7667 127.66 43.936C127.912 43.1053 128.248 42.3587 128.668 41.696C129.088 41.0333 129.545 40.4547 130.04 39.96L131.37 40.548C130.903 41.0427 130.479 41.598 130.096 42.214C129.723 42.8207 129.424 43.4927 129.2 44.23C128.976 44.9673 128.864 45.784 128.864 46.68C128.864 47.5667 128.976 48.3833 129.2 49.13C129.424 49.8673 129.723 50.5393 130.096 51.146C130.479 51.7527 130.903 52.308 131.37 52.812L130.04 53.4C129.545 52.9053 129.088 52.3267 128.668 51.664C128.248 51.0013 127.912 50.2547 127.66 49.424C127.408 48.5933 127.282 47.6787 127.282 46.68ZM139 40.814H140.652V44.902C140.652 45.5087 140.629 46.1807 140.582 46.918C140.535 47.6553 140.447 48.4067 140.316 49.172C140.185 49.928 139.994 50.6653 139.742 51.384C139.49 52.0933 139.159 52.7327 138.748 53.302C138.655 53.1993 138.524 53.0733 138.356 52.924C138.188 52.784 138.015 52.6487 137.838 52.518C137.67 52.3873 137.525 52.294 137.404 52.238C137.768 51.7153 138.057 51.146 138.272 50.53C138.487 49.914 138.645 49.2793 138.748 48.626C138.851 47.9633 138.916 47.3147 138.944 46.68C138.981 46.0453 139 45.4527 139 44.902V40.814ZM139.882 40.814H146.658V42.396H139.882V40.814ZM139.798 44.468H145.412V46.008H139.798V44.468ZM141.604 45.434C141.893 46.4233 142.285 47.3427 142.78 48.192C143.275 49.032 143.886 49.7647 144.614 50.39C145.351 51.0153 146.205 51.5007 147.176 51.846C147.055 51.958 146.919 52.098 146.77 52.266C146.63 52.434 146.495 52.6067 146.364 52.784C146.243 52.9707 146.135 53.134 146.042 53.274C145.006 52.8447 144.11 52.2707 143.354 51.552C142.598 50.8333 141.954 49.9887 141.422 49.018C140.899 48.0473 140.461 46.9693 140.106 45.784L141.604 45.434ZM144.908 44.468H145.23L145.524 44.412L146.56 44.79C146.299 46.2647 145.893 47.5573 145.342 48.668C144.801 49.7787 144.147 50.7213 143.382 51.496C142.617 52.2613 141.763 52.8633 140.82 53.302C140.755 53.1713 140.657 53.0173 140.526 52.84C140.395 52.6627 140.255 52.49 140.106 52.322C139.966 52.154 139.84 52.028 139.728 51.944C140.624 51.5613 141.422 51.048 142.122 50.404C142.831 49.7507 143.424 48.962 143.9 48.038C144.376 47.1047 144.712 46.0173 144.908 44.776V44.468ZM136.97 40.142L138.538 40.66C138.221 41.444 137.843 42.2327 137.404 43.026C136.975 43.81 136.508 44.552 136.004 45.252C135.509 45.9427 134.996 46.554 134.464 47.086C134.408 46.946 134.329 46.764 134.226 46.54C134.123 46.316 134.011 46.092 133.89 45.868C133.769 45.644 133.661 45.4667 133.568 45.336C134.016 44.916 134.45 44.4307 134.87 43.88C135.299 43.3293 135.691 42.732 136.046 42.088C136.401 41.444 136.709 40.7953 136.97 40.142ZM135.612 44.02L137.208 42.424V42.438V53.232H135.612V44.02ZM153.518 46.68C153.518 47.6787 153.392 48.5933 153.14 49.424C152.888 50.2547 152.552 51.0013 152.132 51.664C151.721 52.3267 151.264 52.9053 150.76 53.4L149.43 52.812C149.897 52.308 150.317 51.7527 150.69 51.146C151.073 50.5393 151.376 49.8673 151.6 49.13C151.824 48.3833 151.936 47.5667 151.936 46.68C151.936 45.784 151.824 44.9673 151.6 44.23C151.376 43.4927 151.073 42.8207 150.69 42.214C150.317 41.598 149.897 41.0427 149.43 40.548L150.76 39.96C151.264 40.4547 151.721 41.0333 152.132 41.696C152.552 42.3587 152.888 43.1053 153.14 43.936C153.392 44.7667 153.518 45.6813 153.518 46.68Z" fill="#2C837B"/>
<path d="M181.5 53.906L173 48.9997L173 58.8135L181.5 53.906Z" fill="#F1F7F6"/>
<rect x="257" y="86" width="173" height="31" rx="5" fill="#F1F7F6"/>
<path d="M269.885 100.378H273.119V101.904H269.885V100.378ZM272.475 100.378H274.099C274.099 100.378 274.099 100.415 274.099 100.49C274.099 100.565 274.099 100.653 274.099 100.756C274.099 100.849 274.099 100.929 274.099 100.994C274.08 101.983 274.057 102.795 274.029 103.43C274.001 104.055 273.954 104.545 273.889 104.9C273.833 105.245 273.753 105.488 273.651 105.628C273.511 105.805 273.361 105.931 273.203 106.006C273.053 106.081 272.876 106.137 272.671 106.174C272.484 106.211 272.246 106.235 271.957 106.244C271.677 106.244 271.369 106.239 271.033 106.23C271.023 105.987 270.977 105.717 270.893 105.418C270.809 105.119 270.706 104.867 270.585 104.662C270.837 104.681 271.07 104.695 271.285 104.704C271.509 104.713 271.677 104.718 271.789 104.718C271.882 104.718 271.961 104.709 272.027 104.69C272.101 104.662 272.162 104.615 272.209 104.55C272.274 104.466 272.321 104.293 272.349 104.032C272.386 103.761 272.414 103.355 272.433 102.814C272.451 102.263 272.465 101.535 272.475 100.63V100.378ZM276.675 95.982L277.697 94.974C277.958 95.1047 278.233 95.2587 278.523 95.436C278.812 95.6133 279.087 95.7907 279.349 95.968C279.619 96.1453 279.839 96.318 280.007 96.486L278.929 97.606C278.77 97.4473 278.565 97.27 278.313 97.074C278.061 96.878 277.79 96.6867 277.501 96.5C277.211 96.304 276.936 96.1313 276.675 95.982ZM278.327 99.594L280.035 100C279.447 101.82 278.644 103.43 277.627 104.83C276.609 106.221 275.405 107.345 274.015 108.204C273.94 108.083 273.828 107.933 273.679 107.756C273.529 107.588 273.375 107.415 273.217 107.238C273.058 107.07 272.918 106.93 272.797 106.818C274.141 106.09 275.279 105.11 276.213 103.878C277.146 102.637 277.851 101.209 278.327 99.594ZM269.969 97.2H280.777V98.852H269.969V97.2ZM268.849 97.2H270.613V101.33C270.613 101.853 270.594 102.427 270.557 103.052C270.519 103.668 270.449 104.303 270.347 104.956C270.244 105.6 270.09 106.221 269.885 106.818C269.689 107.415 269.432 107.952 269.115 108.428C269.021 108.307 268.881 108.171 268.695 108.022C268.517 107.873 268.335 107.723 268.149 107.574C267.971 107.434 267.817 107.336 267.687 107.28C268.041 106.72 268.298 106.095 268.457 105.404C268.625 104.704 268.732 103.999 268.779 103.29C268.825 102.581 268.849 101.923 268.849 101.316V97.2ZM274.533 95.114H276.297C276.278 96.262 276.311 97.3867 276.395 98.488C276.479 99.5893 276.6 100.621 276.759 101.582C276.927 102.534 277.123 103.379 277.347 104.116C277.571 104.844 277.818 105.413 278.089 105.824C278.359 106.235 278.635 106.44 278.915 106.44C279.073 106.44 279.195 106.249 279.279 105.866C279.372 105.483 279.437 104.853 279.475 103.976C279.671 104.163 279.899 104.345 280.161 104.522C280.431 104.699 280.679 104.83 280.903 104.914C280.819 105.782 280.693 106.454 280.525 106.93C280.357 107.397 280.133 107.719 279.853 107.896C279.573 108.073 279.213 108.162 278.775 108.162C278.271 108.162 277.813 107.989 277.403 107.644C277.001 107.299 276.642 106.818 276.325 106.202C276.017 105.586 275.751 104.863 275.527 104.032C275.303 103.201 275.116 102.301 274.967 101.33C274.827 100.359 274.719 99.3513 274.645 98.306C274.579 97.2513 274.542 96.1873 274.533 95.114ZM283.395 101.722H296.093V103.206H283.395V101.722ZM286.657 97.69H294.231V98.992H286.657V97.69ZM286.657 99.706H294.231V101.008H286.657V99.706ZM284.011 106.636C284.561 106.571 285.191 106.491 285.901 106.398C286.619 106.295 287.371 106.188 288.155 106.076C288.948 105.964 289.727 105.852 290.493 105.74L290.577 107.21C289.858 107.322 289.13 107.439 288.393 107.56C287.655 107.681 286.946 107.789 286.265 107.882C285.583 107.985 284.958 108.083 284.389 108.176L284.011 106.636ZM290.325 102.142C290.782 103.365 291.505 104.368 292.495 105.152C293.484 105.936 294.772 106.473 296.359 106.762C296.237 106.883 296.107 107.033 295.967 107.21C295.836 107.387 295.71 107.569 295.589 107.756C295.467 107.943 295.369 108.115 295.295 108.274C294.147 108.003 293.157 107.611 292.327 107.098C291.496 106.594 290.791 105.959 290.213 105.194C289.643 104.429 289.167 103.533 288.785 102.506L290.325 102.142ZM294.301 103.024L295.659 103.962C295.313 104.214 294.949 104.461 294.567 104.704C294.193 104.937 293.815 105.157 293.433 105.362C293.05 105.567 292.695 105.749 292.369 105.908L291.249 105.04C291.575 104.872 291.925 104.676 292.299 104.452C292.672 104.219 293.031 103.976 293.377 103.724C293.731 103.472 294.039 103.239 294.301 103.024ZM285.733 95.59H294.609V96.962H287.455V102.338H285.733V95.59ZM285.733 102.17H287.455V106.818L285.733 107V102.17ZM299.103 97.396C299.383 97.3867 299.649 97.3773 299.901 97.368C300.153 97.3493 300.344 97.3353 300.475 97.326C300.764 97.3073 301.119 97.2793 301.539 97.242C301.968 97.1953 302.444 97.1487 302.967 97.102C303.499 97.0553 304.063 97.0087 304.661 96.962C305.258 96.9153 305.879 96.864 306.523 96.808C307.008 96.7613 307.489 96.724 307.965 96.696C308.45 96.6587 308.907 96.6307 309.337 96.612C309.775 96.584 310.158 96.5653 310.485 96.556L310.499 98.348C310.247 98.348 309.957 98.3527 309.631 98.362C309.304 98.3713 308.977 98.39 308.651 98.418C308.333 98.4367 308.049 98.4787 307.797 98.544C307.377 98.656 306.985 98.8473 306.621 99.118C306.257 99.3793 305.939 99.692 305.669 100.056C305.407 100.411 305.202 100.798 305.053 101.218C304.903 101.629 304.829 102.044 304.829 102.464C304.829 102.921 304.908 103.327 305.067 103.682C305.235 104.027 305.459 104.326 305.739 104.578C306.028 104.821 306.364 105.026 306.747 105.194C307.129 105.353 307.54 105.474 307.979 105.558C308.427 105.642 308.889 105.698 309.365 105.726L308.707 107.644C308.119 107.607 307.545 107.513 306.985 107.364C306.434 107.215 305.916 107.009 305.431 106.748C304.945 106.487 304.521 106.169 304.157 105.796C303.802 105.413 303.517 104.979 303.303 104.494C303.097 103.999 302.995 103.449 302.995 102.842C302.995 102.17 303.102 101.554 303.317 100.994C303.531 100.425 303.797 99.93 304.115 99.51C304.441 99.0807 304.763 98.7493 305.081 98.516C304.819 98.5533 304.502 98.5907 304.129 98.628C303.765 98.6653 303.368 98.712 302.939 98.768C302.519 98.8147 302.089 98.866 301.651 98.922C301.212 98.978 300.787 99.0433 300.377 99.118C299.975 99.1833 299.611 99.2487 299.285 99.314L299.103 97.396ZM308.497 99.72C308.618 99.888 308.744 100.089 308.875 100.322C309.015 100.546 309.15 100.775 309.281 101.008C309.411 101.232 309.523 101.437 309.617 101.624L308.553 102.1C308.375 101.708 308.203 101.363 308.035 101.064C307.876 100.765 307.685 100.462 307.461 100.154L308.497 99.72ZM310.065 99.076C310.186 99.244 310.317 99.44 310.457 99.664C310.606 99.8787 310.751 100.103 310.891 100.336C311.031 100.56 311.147 100.761 311.241 100.938L310.191 101.442C310.004 101.069 309.822 100.737 309.645 100.448C309.477 100.159 309.276 99.86 309.043 99.552L310.065 99.076ZM315.833 96.948C316.859 97.0693 317.802 97.144 318.661 97.172C319.529 97.1907 320.331 97.172 321.069 97.116C321.713 97.06 322.329 96.976 322.917 96.864C323.505 96.752 324.083 96.6073 324.653 96.43L324.877 98.04C324.373 98.18 323.827 98.3013 323.239 98.404C322.651 98.5067 322.049 98.586 321.433 98.642C320.714 98.698 319.883 98.726 318.941 98.726C318.007 98.7167 317.004 98.6607 315.931 98.558L315.833 96.948ZM315.581 99.888C316.43 99.9627 317.242 100.014 318.017 100.042C318.791 100.07 319.519 100.07 320.201 100.042C320.882 100.014 321.503 99.9767 322.063 99.93C322.819 99.8647 323.467 99.7713 324.009 99.65C324.55 99.5193 325.021 99.398 325.423 99.286L325.703 100.938C325.283 101.041 324.821 101.139 324.317 101.232C323.813 101.325 323.276 101.405 322.707 101.47C322.109 101.526 321.423 101.573 320.649 101.61C319.883 101.638 319.076 101.647 318.227 101.638C317.377 101.619 316.528 101.587 315.679 101.54L315.581 99.888ZM320.257 97.34C320.191 97.0787 320.117 96.822 320.033 96.57C319.949 96.3087 319.855 96.0427 319.753 95.772L321.643 95.562C321.699 96.0007 321.769 96.4347 321.853 96.864C321.946 97.284 322.049 97.69 322.161 98.082C322.282 98.474 322.399 98.852 322.511 99.216C322.623 99.5333 322.767 99.8973 322.945 100.308C323.131 100.709 323.332 101.115 323.547 101.526C323.761 101.927 323.976 102.291 324.191 102.618C324.284 102.749 324.377 102.875 324.471 102.996C324.573 103.108 324.69 103.22 324.821 103.332L323.967 104.62C323.705 104.564 323.379 104.508 322.987 104.452C322.604 104.396 322.203 104.345 321.783 104.298C321.372 104.251 320.994 104.209 320.649 104.172L320.789 102.842C321.078 102.87 321.391 102.898 321.727 102.926C322.072 102.954 322.347 102.982 322.553 103.01C322.179 102.385 321.857 101.773 321.587 101.176C321.325 100.579 321.106 100.023 320.929 99.51C320.817 99.1833 320.723 98.9033 320.649 98.67C320.574 98.4273 320.504 98.2033 320.439 97.998C320.383 97.7833 320.322 97.564 320.257 97.34ZM318.269 103.136C318.101 103.369 317.956 103.612 317.835 103.864C317.713 104.107 317.653 104.382 317.653 104.69C317.653 105.203 317.891 105.577 318.367 105.81C318.852 106.034 319.557 106.146 320.481 106.146C321.143 106.146 321.769 106.118 322.357 106.062C322.954 106.006 323.5 105.931 323.995 105.838L323.897 107.616C323.411 107.7 322.865 107.765 322.259 107.812C321.652 107.859 321.064 107.882 320.495 107.882C319.561 107.882 318.754 107.784 318.073 107.588C317.401 107.392 316.878 107.089 316.505 106.678C316.131 106.258 315.94 105.717 315.931 105.054C315.921 104.606 315.977 104.205 316.099 103.85C316.229 103.486 316.374 103.136 316.533 102.8L318.269 103.136ZM331.743 96.332C331.939 96.36 332.149 96.3787 332.373 96.388C332.597 96.3973 332.812 96.402 333.017 96.402C333.167 96.402 333.391 96.402 333.689 96.402C333.988 96.3927 334.324 96.3833 334.697 96.374C335.08 96.3647 335.458 96.3553 335.831 96.346C336.205 96.3367 336.541 96.3273 336.839 96.318C337.147 96.2993 337.385 96.2853 337.553 96.276C337.843 96.248 338.071 96.2247 338.239 96.206C338.407 96.178 338.533 96.15 338.617 96.122L339.527 97.368C339.369 97.4707 339.205 97.5733 339.037 97.676C338.869 97.7787 338.706 97.8907 338.547 98.012C338.361 98.1427 338.137 98.3153 337.875 98.53C337.614 98.7353 337.334 98.9547 337.035 99.188C336.746 99.4213 336.461 99.65 336.181 99.874C335.911 100.098 335.663 100.299 335.439 100.476C335.673 100.42 335.897 100.383 336.111 100.364C336.326 100.336 336.545 100.322 336.769 100.322C337.563 100.322 338.272 100.476 338.897 100.784C339.532 101.092 340.031 101.512 340.395 102.044C340.769 102.567 340.955 103.169 340.955 103.85C340.955 104.587 340.769 105.255 340.395 105.852C340.022 106.449 339.457 106.925 338.701 107.28C337.955 107.635 337.017 107.812 335.887 107.812C335.243 107.812 334.66 107.719 334.137 107.532C333.624 107.345 333.218 107.079 332.919 106.734C332.621 106.389 332.471 105.983 332.471 105.516C332.471 105.133 332.574 104.779 332.779 104.452C332.994 104.116 333.288 103.845 333.661 103.64C334.044 103.435 334.483 103.332 334.977 103.332C335.621 103.332 336.163 103.463 336.601 103.724C337.049 103.976 337.39 104.317 337.623 104.746C337.866 105.175 337.992 105.647 338.001 106.16L336.363 106.384C336.354 105.871 336.223 105.46 335.971 105.152C335.729 104.835 335.402 104.676 334.991 104.676C334.73 104.676 334.52 104.746 334.361 104.886C334.203 105.017 334.123 105.171 334.123 105.348C334.123 105.609 334.254 105.819 334.515 105.978C334.777 106.137 335.117 106.216 335.537 106.216C336.331 106.216 336.993 106.123 337.525 105.936C338.057 105.74 338.454 105.465 338.715 105.11C338.986 104.746 339.121 104.317 339.121 103.822C339.121 103.402 338.991 103.033 338.729 102.716C338.477 102.399 338.132 102.151 337.693 101.974C337.255 101.797 336.76 101.708 336.209 101.708C335.668 101.708 335.173 101.778 334.725 101.918C334.277 102.049 333.853 102.24 333.451 102.492C333.059 102.735 332.672 103.033 332.289 103.388C331.916 103.733 331.543 104.121 331.169 104.55L329.895 103.234C330.147 103.029 330.432 102.8 330.749 102.548C331.067 102.287 331.389 102.016 331.715 101.736C332.051 101.456 332.364 101.195 332.653 100.952C332.952 100.7 333.204 100.49 333.409 100.322C333.605 100.163 333.834 99.9767 334.095 99.762C334.357 99.5473 334.627 99.328 334.907 99.104C335.187 98.8707 335.453 98.6513 335.705 98.446C335.957 98.2313 336.167 98.0493 336.335 97.9C336.195 97.9 336.013 97.9047 335.789 97.914C335.565 97.9233 335.318 97.9327 335.047 97.942C334.786 97.9513 334.52 97.9607 334.249 97.97C333.988 97.9793 333.741 97.9933 333.507 98.012C333.283 98.0213 333.097 98.0307 332.947 98.04C332.761 98.0493 332.565 98.0633 332.359 98.082C332.154 98.1007 331.967 98.124 331.799 98.152L331.743 96.332ZM344.581 96.094H349.089V97.578H344.581V96.094ZM344.693 100.126H348.893V101.61H344.693V100.126ZM348.935 99.174H357.601V100.504H348.935V99.174ZM344.371 104.774C344.782 104.69 345.249 104.587 345.771 104.466C346.303 104.335 346.863 104.195 347.451 104.046C348.039 103.887 348.618 103.738 349.187 103.598L349.383 105.082C348.59 105.315 347.783 105.544 346.961 105.768C346.14 105.983 345.393 106.179 344.721 106.356L344.371 104.774ZM351.259 102.212V103.108H355.277V102.212H351.259ZM349.789 101.022H356.831V104.298H349.789V101.022ZM354.773 96.682V97.578H355.669V96.682H354.773ZM352.827 96.682V97.578H353.709V96.682H352.827ZM350.895 96.682V97.578H351.749V96.682H350.895ZM349.565 95.548H357.069V98.712H349.565V95.548ZM353.779 103.654C354.003 104.149 354.307 104.615 354.689 105.054C355.072 105.483 355.511 105.861 356.005 106.188C356.509 106.515 357.055 106.771 357.643 106.958C357.475 107.107 357.289 107.313 357.083 107.574C356.878 107.835 356.715 108.064 356.593 108.26C355.669 107.877 354.867 107.313 354.185 106.566C353.504 105.819 352.967 104.965 352.575 104.004L353.779 103.654ZM356.257 104.256L357.419 105.11C357.139 105.325 356.845 105.53 356.537 105.726C356.239 105.922 355.968 106.09 355.725 106.23L354.759 105.474C354.918 105.371 355.091 105.25 355.277 105.11C355.464 104.961 355.641 104.811 355.809 104.662C355.987 104.513 356.136 104.377 356.257 104.256ZM346.135 96.738H347.633V104.9L346.135 105.138V96.738ZM352.995 103.43L354.171 103.962C353.761 104.466 353.271 104.951 352.701 105.418C352.132 105.875 351.525 106.291 350.881 106.664C350.237 107.037 349.598 107.341 348.963 107.574C348.861 107.397 348.711 107.191 348.515 106.958C348.319 106.725 348.147 106.533 347.997 106.384C348.613 106.188 349.234 105.941 349.859 105.642C350.494 105.334 351.087 104.989 351.637 104.606C352.188 104.223 352.641 103.831 352.995 103.43ZM351.595 105.404L353.177 104.354V108.26H351.595V105.404ZM364.685 95.996H372.721V97.298H364.685V95.996ZM364.377 98.362H372.987V99.734H364.377V98.362ZM367.751 95.142H369.403V96.864H367.751V95.142ZM369.865 97.046L371.503 97.354C371.363 97.606 371.237 97.844 371.125 98.068C371.013 98.2827 370.911 98.4693 370.817 98.628L369.361 98.348C369.455 98.152 369.548 97.9327 369.641 97.69C369.735 97.4473 369.809 97.2327 369.865 97.046ZM365.889 97.396L367.345 97.088C367.457 97.2653 367.555 97.4707 367.639 97.704C367.733 97.9373 367.798 98.1427 367.835 98.32L366.309 98.67C366.291 98.4927 366.239 98.2873 366.155 98.054C366.071 97.8113 365.983 97.592 365.889 97.396ZM366.743 102.982V103.696H370.691V102.982H366.743ZM366.743 101.316V102.002H370.691V101.316H366.743ZM365.161 100.266H372.329V104.732H365.161V100.266ZM369.011 104.41H370.607V106.37C370.607 106.538 370.621 106.645 370.649 106.692C370.687 106.739 370.766 106.762 370.887 106.762C370.925 106.762 370.985 106.762 371.069 106.762C371.163 106.762 371.251 106.762 371.335 106.762C371.419 106.762 371.485 106.762 371.531 106.762C371.615 106.762 371.676 106.734 371.713 106.678C371.751 106.622 371.779 106.51 371.797 106.342C371.825 106.174 371.844 105.913 371.853 105.558C371.956 105.633 372.087 105.712 372.245 105.796C372.413 105.871 372.586 105.941 372.763 106.006C372.95 106.062 373.113 106.109 373.253 106.146C373.207 106.687 373.123 107.107 373.001 107.406C372.889 107.705 372.726 107.91 372.511 108.022C372.306 108.134 372.04 108.19 371.713 108.19C371.648 108.19 371.564 108.19 371.461 108.19C371.368 108.19 371.265 108.19 371.153 108.19C371.051 108.19 370.953 108.19 370.859 108.19C370.766 108.19 370.687 108.19 370.621 108.19C370.183 108.19 369.847 108.129 369.613 108.008C369.38 107.896 369.221 107.709 369.137 107.448C369.053 107.187 369.011 106.832 369.011 106.384V104.41ZM366.449 104.34H368.087C368.022 104.816 367.915 105.255 367.765 105.656C367.625 106.057 367.415 106.421 367.135 106.748C366.855 107.075 366.477 107.369 366.001 107.63C365.525 107.891 364.923 108.115 364.195 108.302C364.149 108.162 364.069 107.999 363.957 107.812C363.855 107.635 363.743 107.462 363.621 107.294C363.509 107.126 363.397 106.991 363.285 106.888C363.901 106.767 364.405 106.627 364.797 106.468C365.189 106.3 365.493 106.113 365.707 105.908C365.931 105.693 366.099 105.46 366.211 105.208C366.323 104.947 366.403 104.657 366.449 104.34ZM360.093 98.446H364.307V100.014H360.093V98.446ZM361.479 95.31H363.047V104.606H361.479V95.31ZM359.771 104.466C360.163 104.326 360.607 104.158 361.101 103.962C361.596 103.766 362.123 103.551 362.683 103.318C363.243 103.085 363.799 102.851 364.349 102.618L364.713 104.116C363.976 104.461 363.225 104.811 362.459 105.166C361.694 105.521 360.989 105.847 360.345 106.146L359.771 104.466ZM384.145 101.68C384.145 100.681 384.271 99.7667 384.523 98.936C384.775 98.1053 385.111 97.3587 385.531 96.696C385.951 96.0333 386.409 95.4547 386.903 94.96L388.233 95.548C387.767 96.0427 387.342 96.598 386.959 97.214C386.586 97.8207 386.287 98.4927 386.063 99.23C385.839 99.9673 385.727 100.784 385.727 101.68C385.727 102.567 385.839 103.383 386.063 104.13C386.287 104.867 386.586 105.539 386.959 106.146C387.342 106.753 387.767 107.308 388.233 107.812L386.903 108.4C386.409 107.905 385.951 107.327 385.531 106.664C385.111 106.001 384.775 105.255 384.523 104.424C384.271 103.593 384.145 102.679 384.145 101.68ZM395.863 95.814H397.515V99.902C397.515 100.509 397.492 101.181 397.445 101.918C397.399 102.655 397.31 103.407 397.179 104.172C397.049 104.928 396.857 105.665 396.605 106.384C396.353 107.093 396.022 107.733 395.611 108.302C395.518 108.199 395.387 108.073 395.219 107.924C395.051 107.784 394.879 107.649 394.701 107.518C394.533 107.387 394.389 107.294 394.267 107.238C394.631 106.715 394.921 106.146 395.135 105.53C395.35 104.914 395.509 104.279 395.611 103.626C395.714 102.963 395.779 102.315 395.807 101.68C395.845 101.045 395.863 100.453 395.863 99.902V95.814ZM396.745 95.814H403.521V97.396H396.745V95.814ZM396.661 99.468H402.275V101.008H396.661V99.468ZM398.467 100.434C398.757 101.423 399.149 102.343 399.643 103.192C400.138 104.032 400.749 104.765 401.477 105.39C402.215 106.015 403.069 106.501 404.039 106.846C403.918 106.958 403.783 107.098 403.633 107.266C403.493 107.434 403.358 107.607 403.227 107.784C403.106 107.971 402.999 108.134 402.905 108.274C401.869 107.845 400.973 107.271 400.217 106.552C399.461 105.833 398.817 104.989 398.285 104.018C397.763 103.047 397.324 101.969 396.969 100.784L398.467 100.434ZM401.771 99.468H402.093L402.387 99.412L403.423 99.79C403.162 101.265 402.756 102.557 402.205 103.668C401.664 104.779 401.011 105.721 400.245 106.496C399.48 107.261 398.626 107.863 397.683 108.302C397.618 108.171 397.52 108.017 397.389 107.84C397.259 107.663 397.119 107.49 396.969 107.322C396.829 107.154 396.703 107.028 396.591 106.944C397.487 106.561 398.285 106.048 398.985 105.404C399.695 104.751 400.287 103.962 400.763 103.038C401.239 102.105 401.575 101.017 401.771 99.776V99.468ZM393.833 95.142L395.401 95.66C395.084 96.444 394.706 97.2327 394.267 98.026C393.838 98.81 393.371 99.552 392.867 100.252C392.373 100.943 391.859 101.554 391.327 102.086C391.271 101.946 391.192 101.764 391.089 101.54C390.987 101.316 390.875 101.092 390.753 100.868C390.632 100.644 390.525 100.467 390.431 100.336C390.879 99.916 391.313 99.4307 391.733 98.88C392.163 98.3293 392.555 97.732 392.909 97.088C393.264 96.444 393.572 95.7953 393.833 95.142ZM392.475 99.02L394.071 97.424V97.438V108.232H392.475V99.02ZM410.381 101.68C410.381 102.679 410.255 103.593 410.003 104.424C409.751 105.255 409.415 106.001 408.995 106.664C408.585 107.327 408.127 107.905 407.623 108.4L406.293 107.812C406.76 107.308 407.18 106.753 407.553 106.146C407.936 105.539 408.239 104.867 408.463 104.13C408.687 103.383 408.799 102.567 408.799 101.68C408.799 100.784 408.687 99.9673 408.463 99.23C408.239 98.4927 407.936 97.8207 407.553 97.214C407.18 96.598 406.76 96.0427 406.293 95.548L407.623 94.96C408.127 95.4547 408.585 96.0333 408.995 96.696C409.415 97.3587 409.751 98.1053 410.003 98.936C410.255 99.7667 410.381 100.681 410.381 101.68Z" fill="#2C837B"/>
<path d="M249 92.907L257.5 88.0007L257.5 97.8145L249 92.907Z" fill="#F1F7F6"/>
<rect x="6" y="137" width="219" height="31" rx="5" fill="#F1F7F6"/>
<path d="M21.84 157.202H29.806V158.854H21.84V157.202ZM22.414 150.44H29.47V152.064H22.414V150.44ZM25.074 146.24H26.81V158H25.074V146.24ZM16.814 148.704H21.392V150.216H16.814V148.704ZM18.816 153.478L20.482 151.49V159.26H18.816V153.478ZM18.816 146.114H20.482V149.404H18.816V146.114ZM20.3 151.966C20.4307 152.05 20.608 152.19 20.832 152.386C21.0653 152.573 21.3127 152.783 21.574 153.016C21.8353 153.24 22.0733 153.45 22.288 153.646C22.5027 153.833 22.6567 153.968 22.75 154.052L21.742 155.424C21.602 155.247 21.4293 155.041 21.224 154.808C21.028 154.565 20.818 154.318 20.594 154.066C20.37 153.814 20.1507 153.576 19.936 153.352C19.7213 153.128 19.5393 152.941 19.39 152.792L20.3 151.966ZM20.79 148.704H21.112L21.406 148.634L22.344 149.25C21.9987 150.165 21.546 151.037 20.986 151.868C20.426 152.689 19.81 153.431 19.138 154.094C18.466 154.757 17.78 155.307 17.08 155.746C17.0333 155.597 16.9587 155.419 16.856 155.214C16.7627 154.999 16.6647 154.799 16.562 154.612C16.4687 154.416 16.3753 154.262 16.282 154.15C16.926 153.814 17.542 153.375 18.13 152.834C18.718 152.283 19.2453 151.681 19.712 151.028C20.1787 150.365 20.538 149.689 20.79 148.998V148.704ZM35.686 147.85V148.76H41.37V147.85H35.686ZM33.992 146.548H43.148V150.062H33.992V146.548ZM35.028 153.394V153.996H41.902V153.394H35.028ZM35.028 155.06V155.662H41.902V155.06H35.028ZM35.028 151.742V152.33H41.902V151.742H35.028ZM33.362 150.594H43.652V156.81H33.362V150.594ZM36.078 156.516L37.562 157.566C37.1887 157.79 36.75 158.009 36.246 158.224C35.7513 158.439 35.238 158.635 34.706 158.812C34.1833 158.999 33.684 159.148 33.208 159.26C33.0493 159.083 32.844 158.877 32.592 158.644C32.3493 158.411 32.13 158.215 31.934 158.056C32.4287 157.944 32.9373 157.804 33.46 157.636C33.9827 157.468 34.4773 157.286 34.944 157.09C35.4107 156.894 35.7887 156.703 36.078 156.516ZM39.144 157.65L40.628 156.6C41.1227 156.721 41.6453 156.875 42.196 157.062C42.7467 157.239 43.2787 157.421 43.792 157.608C44.3147 157.785 44.7673 157.949 45.15 158.098L43.666 159.288C43.302 159.12 42.8587 158.933 42.336 158.728C41.8227 158.532 41.286 158.341 40.726 158.154C40.1753 157.967 39.648 157.799 39.144 157.65ZM50.554 155.116H52.22V157.02C52.22 157.225 52.2713 157.356 52.374 157.412C52.486 157.459 52.7333 157.482 53.116 157.482C53.2093 157.482 53.354 157.482 53.55 157.482C53.746 157.482 53.9607 157.482 54.194 157.482C54.4367 157.482 54.6607 157.482 54.866 157.482C55.0807 157.482 55.2487 157.482 55.37 157.482C55.5847 157.482 55.7433 157.449 55.846 157.384C55.958 157.309 56.0373 157.155 56.084 156.922C56.1307 156.689 56.168 156.339 56.196 155.872C56.308 155.956 56.4527 156.04 56.63 156.124C56.8167 156.199 57.0033 156.269 57.19 156.334C57.386 156.39 57.5587 156.437 57.708 156.474C57.6427 157.137 57.5353 157.645 57.386 158C57.2367 158.364 57.0127 158.616 56.714 158.756C56.4153 158.896 56.0093 158.966 55.496 158.966C55.412 158.966 55.286 158.966 55.118 158.966C54.95 158.966 54.754 158.966 54.53 158.966C54.3153 158.966 54.1007 158.966 53.886 158.966C53.6807 158.966 53.494 158.966 53.326 158.966C53.158 158.966 53.032 158.966 52.948 158.966C52.3133 158.966 51.8233 158.905 51.478 158.784C51.1327 158.672 50.89 158.476 50.75 158.196C50.6193 157.916 50.554 157.529 50.554 157.034V155.116ZM52.584 154.934L53.732 154.01C53.9467 154.187 54.1707 154.388 54.404 154.612C54.6467 154.836 54.88 155.06 55.104 155.284C55.328 155.499 55.51 155.69 55.65 155.858L54.432 156.894C54.3107 156.726 54.1427 156.525 53.928 156.292C53.7133 156.059 53.4847 155.825 53.242 155.592C53.0087 155.349 52.7893 155.13 52.584 154.934ZM57.302 155.326L58.772 154.64C58.968 154.92 59.178 155.233 59.402 155.578C59.626 155.923 59.8407 156.259 60.046 156.586C60.2513 156.903 60.4193 157.183 60.55 157.426L58.982 158.238C58.87 157.986 58.716 157.692 58.52 157.356C58.3333 157.02 58.128 156.675 57.904 156.32C57.6893 155.965 57.4887 155.634 57.302 155.326ZM48.552 154.822L50.05 155.41C49.9567 155.737 49.8493 156.087 49.728 156.46C49.6067 156.833 49.4713 157.197 49.322 157.552C49.182 157.897 49.028 158.205 48.86 158.476L47.32 157.72C47.4973 157.468 47.6607 157.179 47.81 156.852C47.9687 156.525 48.1133 156.189 48.244 155.844C48.3747 155.489 48.4773 155.149 48.552 154.822ZM47.572 148.102H53.452V149.53H47.572V148.102ZM49.882 146.128H51.478V154.542H49.882V146.128ZM49.84 149.04L50.974 149.404C50.7873 149.973 50.554 150.533 50.274 151.084C49.994 151.635 49.686 152.148 49.35 152.624C49.014 153.1 48.664 153.501 48.3 153.828C48.1787 153.651 48.0107 153.445 47.796 153.212C47.5813 152.969 47.39 152.783 47.222 152.652C47.5767 152.4 47.9173 152.083 48.244 151.7C48.58 151.308 48.8833 150.883 49.154 150.426C49.4247 149.959 49.6533 149.497 49.84 149.04ZM51.38 149.992C51.5013 150.057 51.6693 150.165 51.884 150.314C52.108 150.454 52.3413 150.613 52.584 150.79C52.836 150.958 53.06 151.117 53.256 151.266C53.4613 151.406 53.6153 151.513 53.718 151.588L52.822 152.932C52.6913 152.783 52.5233 152.615 52.318 152.428C52.122 152.232 51.912 152.031 51.688 151.826C51.4733 151.621 51.2587 151.429 51.044 151.252C50.8387 151.075 50.666 150.93 50.526 150.818L51.38 149.992ZM55.538 150.174V151H58.128V150.174H55.538ZM55.538 152.232V153.072H58.128V152.232H55.538ZM55.538 148.13V148.942H58.128V148.13H55.538ZM54.012 146.814H59.738V154.374H54.012V146.814ZM65.94 147.99C65.9027 148.158 65.87 148.349 65.842 148.564C65.8233 148.779 65.8047 148.989 65.786 149.194C65.7767 149.399 65.772 149.567 65.772 149.698C65.7627 150.006 65.758 150.323 65.758 150.65C65.7673 150.977 65.7767 151.313 65.786 151.658C65.8047 151.994 65.828 152.33 65.856 152.666C65.9213 153.338 66.0147 153.931 66.136 154.444C66.2573 154.957 66.416 155.359 66.612 155.648C66.808 155.928 67.0553 156.068 67.354 156.068C67.5127 156.068 67.6667 155.979 67.816 155.802C67.9747 155.625 68.1147 155.396 68.236 155.116C68.3667 154.827 68.4787 154.523 68.572 154.206C68.6747 153.889 68.7633 153.59 68.838 153.31L70.238 155.018C69.93 155.83 69.622 156.479 69.314 156.964C69.0153 157.44 68.7027 157.785 68.376 158C68.0493 158.205 67.6947 158.308 67.312 158.308C66.808 158.308 66.3273 158.14 65.87 157.804C65.422 157.468 65.0393 156.927 64.722 156.18C64.4047 155.424 64.1807 154.421 64.05 153.17C64.0033 152.741 63.966 152.288 63.938 151.812C63.9193 151.336 63.9053 150.883 63.896 150.454C63.896 150.025 63.896 149.67 63.896 149.39C63.896 149.194 63.8867 148.961 63.868 148.69C63.8493 148.419 63.8213 148.177 63.784 147.962L65.94 147.99ZM72.94 148.312C73.2013 148.629 73.4533 149.017 73.696 149.474C73.9387 149.931 74.1627 150.421 74.368 150.944C74.5733 151.467 74.7553 152.003 74.914 152.554C75.0727 153.095 75.1987 153.627 75.292 154.15C75.3947 154.663 75.46 155.135 75.488 155.564L73.64 156.278C73.5933 155.709 73.5093 155.088 73.388 154.416C73.2667 153.744 73.1033 153.067 72.898 152.386C72.6927 151.705 72.4453 151.061 72.156 150.454C71.876 149.847 71.5447 149.325 71.162 148.886L72.94 148.312ZM85.974 148.41C85.8807 149.119 85.7593 149.875 85.61 150.678C85.4607 151.481 85.26 152.293 85.008 153.114C84.7373 154.057 84.42 154.869 84.056 155.55C83.692 156.231 83.2907 156.759 82.852 157.132C82.4227 157.496 81.9513 157.678 81.438 157.678C80.9247 157.678 80.4487 157.505 80.01 157.16C79.5807 156.805 79.2353 156.32 78.974 155.704C78.722 155.088 78.596 154.388 78.596 153.604C78.596 152.792 78.7593 152.027 79.086 151.308C79.4127 150.589 79.8653 149.955 80.444 149.404C81.032 148.844 81.7133 148.405 82.488 148.088C83.272 147.771 84.1167 147.612 85.022 147.612C85.89 147.612 86.6693 147.752 87.36 148.032C88.06 148.312 88.6573 148.699 89.152 149.194C89.6467 149.689 90.0247 150.267 90.286 150.93C90.5473 151.593 90.678 152.307 90.678 153.072C90.678 154.052 90.4773 154.929 90.076 155.704C89.6747 156.479 89.0773 157.118 88.284 157.622C87.5 158.126 86.52 158.471 85.344 158.658L84.294 156.992C84.5647 156.964 84.8027 156.931 85.008 156.894C85.2133 156.857 85.4093 156.815 85.596 156.768C86.044 156.656 86.4593 156.497 86.842 156.292C87.234 156.077 87.5747 155.816 87.864 155.508C88.1533 155.191 88.3773 154.822 88.536 154.402C88.704 153.982 88.788 153.52 88.788 153.016C88.788 152.465 88.704 151.961 88.536 151.504C88.368 151.047 88.1207 150.65 87.794 150.314C87.4673 149.969 87.0707 149.707 86.604 149.53C86.1373 149.343 85.6007 149.25 84.994 149.25C84.2473 149.25 83.5893 149.385 83.02 149.656C82.4507 149.917 81.97 150.258 81.578 150.678C81.186 151.098 80.8873 151.551 80.682 152.036C80.486 152.521 80.388 152.983 80.388 153.422C80.388 153.889 80.444 154.281 80.556 154.598C80.668 154.906 80.8033 155.139 80.962 155.298C81.13 155.447 81.3073 155.522 81.494 155.522C81.69 155.522 81.8813 155.424 82.068 155.228C82.264 155.023 82.4553 154.715 82.642 154.304C82.8287 153.893 83.0153 153.375 83.202 152.75C83.4167 152.078 83.5987 151.359 83.748 150.594C83.8973 149.829 84.0047 149.082 84.07 148.354L85.974 148.41ZM99.988 150.118V150.944H103.768V150.118H99.988ZM99.988 148.032V148.844H103.768V148.032H99.988ZM98.406 146.674H105.42V152.302H98.406V146.674ZM97.958 153.142H105.896V158.154H104.314V154.556H103.516V158.154H102.27V154.556H101.486V158.154H100.24V154.556H99.456V158.154H97.958V153.142ZM96.894 157.398H106.708V158.854H96.894V157.398ZM94.36 147.472L95.27 146.268C95.55 146.38 95.858 146.52 96.194 146.688C96.53 146.847 96.8473 147.015 97.146 147.192C97.454 147.36 97.706 147.523 97.902 147.682L96.936 149.026C96.7587 148.867 96.5207 148.695 96.222 148.508C95.9327 148.312 95.6247 148.125 95.298 147.948C94.9713 147.771 94.6587 147.612 94.36 147.472ZM93.492 151.28L94.346 150.076C94.6353 150.179 94.948 150.314 95.284 150.482C95.6293 150.641 95.956 150.804 96.264 150.972C96.572 151.14 96.824 151.299 97.02 151.448L96.11 152.806C95.9233 152.647 95.6807 152.479 95.382 152.302C95.0833 152.115 94.766 151.933 94.43 151.756C94.1033 151.569 93.7907 151.411 93.492 151.28ZM93.758 157.958C93.982 157.603 94.2293 157.183 94.5 156.698C94.78 156.213 95.06 155.699 95.34 155.158C95.62 154.617 95.8813 154.075 96.124 153.534L97.384 154.542C97.1693 155.027 96.9407 155.527 96.698 156.04C96.4553 156.544 96.2033 157.043 95.942 157.538C95.69 158.033 95.4427 158.509 95.2 158.966L93.758 157.958ZM114.968 146.94C114.921 147.117 114.875 147.313 114.828 147.528C114.791 147.733 114.753 147.925 114.716 148.102C114.679 148.307 114.632 148.541 114.576 148.802C114.52 149.054 114.464 149.311 114.408 149.572C114.361 149.824 114.31 150.071 114.254 150.314C114.161 150.715 114.044 151.182 113.904 151.714C113.764 152.246 113.601 152.82 113.414 153.436C113.227 154.043 113.017 154.654 112.784 155.27C112.551 155.886 112.303 156.488 112.042 157.076C111.781 157.655 111.501 158.177 111.202 158.644L109.382 157.916C109.709 157.477 110.012 156.987 110.292 156.446C110.581 155.895 110.843 155.331 111.076 154.752C111.309 154.173 111.515 153.604 111.692 153.044C111.879 152.484 112.037 151.961 112.168 151.476C112.299 150.991 112.401 150.575 112.476 150.23C112.607 149.595 112.709 148.984 112.784 148.396C112.859 147.808 112.891 147.253 112.882 146.73L114.968 146.94ZM119.784 148.256C120.008 148.555 120.237 148.933 120.47 149.39C120.713 149.838 120.946 150.314 121.17 150.818C121.403 151.322 121.613 151.807 121.8 152.274C121.996 152.741 122.145 153.137 122.248 153.464L120.47 154.29C120.377 153.898 120.246 153.464 120.078 152.988C119.919 152.503 119.733 152.013 119.518 151.518C119.313 151.014 119.089 150.538 118.846 150.09C118.613 149.642 118.37 149.269 118.118 148.97L119.784 148.256ZM109.284 149.81C109.536 149.829 109.783 149.838 110.026 149.838C110.269 149.829 110.521 149.819 110.782 149.81C111.006 149.801 111.281 149.787 111.608 149.768C111.944 149.74 112.294 149.712 112.658 149.684C113.031 149.656 113.405 149.628 113.778 149.6C114.151 149.563 114.497 149.535 114.814 149.516C115.131 149.497 115.393 149.488 115.598 149.488C116.093 149.488 116.527 149.572 116.9 149.74C117.283 149.899 117.581 150.174 117.796 150.566C118.02 150.958 118.132 151.49 118.132 152.162C118.132 152.713 118.104 153.31 118.048 153.954C118.001 154.598 117.922 155.214 117.81 155.802C117.698 156.39 117.539 156.889 117.334 157.3C117.11 157.785 116.802 158.121 116.41 158.308C116.027 158.495 115.57 158.588 115.038 158.588C114.767 158.588 114.478 158.565 114.17 158.518C113.871 158.481 113.601 158.439 113.358 158.392L113.05 156.544C113.237 156.591 113.437 156.637 113.652 156.684C113.876 156.731 114.086 156.768 114.282 156.796C114.487 156.824 114.651 156.838 114.772 156.838C115.005 156.838 115.211 156.796 115.388 156.712C115.565 156.619 115.71 156.46 115.822 156.236C115.953 155.965 116.055 155.615 116.13 155.186C116.214 154.757 116.275 154.295 116.312 153.8C116.359 153.296 116.382 152.815 116.382 152.358C116.382 151.985 116.331 151.709 116.228 151.532C116.125 151.355 115.971 151.238 115.766 151.182C115.57 151.117 115.323 151.084 115.024 151.084C114.819 151.084 114.529 151.103 114.156 151.14C113.792 151.168 113.405 151.205 112.994 151.252C112.583 151.289 112.196 151.331 111.832 151.378C111.477 151.425 111.202 151.457 111.006 151.476C110.81 151.513 110.553 151.555 110.236 151.602C109.928 151.639 109.667 151.677 109.452 151.714L109.284 149.81ZM127.54 147.99C127.503 148.158 127.47 148.349 127.442 148.564C127.423 148.779 127.405 148.989 127.386 149.194C127.377 149.399 127.372 149.567 127.372 149.698C127.363 150.006 127.358 150.323 127.358 150.65C127.367 150.977 127.377 151.313 127.386 151.658C127.405 151.994 127.428 152.33 127.456 152.666C127.521 153.338 127.615 153.931 127.736 154.444C127.857 154.957 128.016 155.359 128.212 155.648C128.408 155.928 128.655 156.068 128.954 156.068C129.113 156.068 129.267 155.979 129.416 155.802C129.575 155.625 129.715 155.396 129.836 155.116C129.967 154.827 130.079 154.523 130.172 154.206C130.275 153.889 130.363 153.59 130.438 153.31L131.838 155.018C131.53 155.83 131.222 156.479 130.914 156.964C130.615 157.44 130.303 157.785 129.976 158C129.649 158.205 129.295 158.308 128.912 158.308C128.408 158.308 127.927 158.14 127.47 157.804C127.022 157.468 126.639 156.927 126.322 156.18C126.005 155.424 125.781 154.421 125.65 153.17C125.603 152.741 125.566 152.288 125.538 151.812C125.519 151.336 125.505 150.883 125.496 150.454C125.496 150.025 125.496 149.67 125.496 149.39C125.496 149.194 125.487 148.961 125.468 148.69C125.449 148.419 125.421 148.177 125.384 147.962L127.54 147.99ZM134.54 148.312C134.801 148.629 135.053 149.017 135.296 149.474C135.539 149.931 135.763 150.421 135.968 150.944C136.173 151.467 136.355 152.003 136.514 152.554C136.673 153.095 136.799 153.627 136.892 154.15C136.995 154.663 137.06 155.135 137.088 155.564L135.24 156.278C135.193 155.709 135.109 155.088 134.988 154.416C134.867 153.744 134.703 153.067 134.498 152.386C134.293 151.705 134.045 151.061 133.756 150.454C133.476 149.847 133.145 149.325 132.762 148.886L134.54 148.312ZM145.572 154.402H148.092V155.494H145.572V154.402ZM144.69 147.402H148.988V148.62H144.69V147.402ZM144.41 150.496H152.894V151.798H144.41V150.496ZM145.922 152.414H148.82V157.496H145.922V156.348H147.518V153.576H145.922V152.414ZM144.942 152.414H146.216V158.308H144.942V152.414ZM146.132 146.142H147.56V148.228H146.132V146.142ZM151.41 152.316L152.754 152.61C152.343 154.085 151.76 155.387 151.004 156.516C150.248 157.636 149.343 158.555 148.288 159.274C148.232 159.19 148.143 159.078 148.022 158.938C147.91 158.798 147.789 158.658 147.658 158.518C147.537 158.378 147.429 158.266 147.336 158.182C148.344 157.585 149.189 156.782 149.87 155.774C150.561 154.766 151.074 153.613 151.41 152.316ZM144.984 148.83L146.062 148.564C146.165 148.844 146.249 149.152 146.314 149.488C146.389 149.815 146.431 150.104 146.44 150.356L145.306 150.636C145.297 150.393 145.259 150.104 145.194 149.768C145.138 149.423 145.068 149.11 144.984 148.83ZM150.486 147.276L151.578 146.702C151.867 147.038 152.138 147.416 152.39 147.836C152.642 148.247 152.833 148.615 152.964 148.942L151.788 149.586C151.685 149.269 151.508 148.891 151.256 148.452C151.004 148.013 150.747 147.621 150.486 147.276ZM147.476 148.564L148.75 148.802C148.638 149.129 148.531 149.451 148.428 149.768C148.325 150.076 148.232 150.347 148.148 150.58L147.098 150.342C147.173 150.09 147.243 149.796 147.308 149.46C147.383 149.124 147.439 148.825 147.476 148.564ZM139.916 146.632H144.746V148.116H139.916V146.632ZM141.134 149.628H143.584V150.986H141.134V149.628ZM141.134 152.484H143.584V153.856H141.134V152.484ZM140.476 147.43H141.834V156.222H140.476V147.43ZM142.744 147.43H144.158V159.26H142.744V147.43ZM139.636 155.914C140.14 155.839 140.733 155.741 141.414 155.62C142.105 155.499 142.809 155.373 143.528 155.242L143.64 156.656C142.996 156.796 142.352 156.936 141.708 157.076C141.064 157.207 140.467 157.328 139.916 157.44L139.636 155.914ZM149.198 146.114H150.682C150.673 147.299 150.677 148.443 150.696 149.544C150.724 150.645 150.766 151.667 150.822 152.61C150.878 153.543 150.943 154.36 151.018 155.06C151.102 155.76 151.195 156.311 151.298 156.712C151.401 157.104 151.513 157.3 151.634 157.3C151.727 157.3 151.797 157.146 151.844 156.838C151.9 156.53 151.942 156.096 151.97 155.536C152.054 155.639 152.166 155.755 152.306 155.886C152.446 156.017 152.586 156.133 152.726 156.236C152.866 156.339 152.978 156.418 153.062 156.474C152.941 157.23 152.791 157.809 152.614 158.21C152.446 158.611 152.269 158.882 152.082 159.022C151.895 159.171 151.723 159.246 151.564 159.246C151.172 159.237 150.841 159.027 150.57 158.616C150.299 158.205 150.075 157.617 149.898 156.852C149.73 156.087 149.595 155.167 149.492 154.094C149.399 153.011 149.329 151.798 149.282 150.454C149.245 149.11 149.217 147.663 149.198 146.114ZM159.418 151.756H168.294V153.17H159.418V151.756ZM160.944 153.828H166.698V155.158H160.944V153.828ZM161.476 152.274L162.918 152.638C162.573 153.441 162.101 154.183 161.504 154.864C160.916 155.536 160.291 156.091 159.628 156.53C159.544 156.437 159.432 156.325 159.292 156.194C159.161 156.054 159.021 155.923 158.872 155.802C158.732 155.681 158.606 155.583 158.494 155.508C159.147 155.153 159.735 154.696 160.258 154.136C160.79 153.567 161.196 152.946 161.476 152.274ZM166.446 153.828H168C168 153.828 167.995 153.903 167.986 154.052C167.986 154.192 167.977 154.313 167.958 154.416C167.902 155.321 167.832 156.068 167.748 156.656C167.673 157.235 167.589 157.683 167.496 158C167.403 158.327 167.291 158.56 167.16 158.7C167.029 158.859 166.885 158.971 166.726 159.036C166.577 159.101 166.409 159.148 166.222 159.176C166.063 159.195 165.858 159.209 165.606 159.218C165.363 159.227 165.097 159.223 164.808 159.204C164.799 159.008 164.761 158.779 164.696 158.518C164.631 158.266 164.542 158.056 164.43 157.888C164.654 157.907 164.855 157.921 165.032 157.93C165.209 157.93 165.345 157.93 165.438 157.93C165.531 157.93 165.606 157.921 165.662 157.902C165.727 157.883 165.788 157.841 165.844 157.776C165.928 157.683 166.003 157.505 166.068 157.244C166.143 156.973 166.208 156.581 166.264 156.068C166.329 155.555 166.39 154.887 166.446 154.066V153.828ZM162.148 149.39V150.062H165.76V149.39H162.148ZM162.148 147.626V148.284H165.76V147.626H162.148ZM160.65 146.464H167.314V151.224H160.65V146.464ZM155.33 149.054H159.6V150.636H155.33V149.054ZM156.744 146.282H158.312V154.99H156.744V146.282ZM155.008 155.27C155.372 155.139 155.792 154.976 156.268 154.78C156.753 154.584 157.267 154.374 157.808 154.15C158.349 153.917 158.886 153.683 159.418 153.45L159.782 154.892C159.082 155.256 158.368 155.62 157.64 155.984C156.912 156.348 156.245 156.679 155.638 156.978L155.008 155.27ZM164.836 154.108L165.97 154.724C165.802 155.284 165.564 155.858 165.256 156.446C164.948 157.025 164.603 157.566 164.22 158.07C163.837 158.574 163.436 158.989 163.016 159.316C162.876 159.157 162.694 158.989 162.47 158.812C162.246 158.635 162.027 158.49 161.812 158.378C162.269 158.089 162.694 157.715 163.086 157.258C163.478 156.801 163.823 156.297 164.122 155.746C164.43 155.195 164.668 154.649 164.836 154.108ZM162.722 154.122L163.814 154.766C163.581 155.251 163.273 155.741 162.89 156.236C162.517 156.731 162.106 157.193 161.658 157.622C161.21 158.051 160.762 158.406 160.314 158.686C160.183 158.518 160.015 158.341 159.81 158.154C159.614 157.967 159.418 157.813 159.222 157.692C159.679 157.459 160.132 157.151 160.58 156.768C161.037 156.385 161.453 155.965 161.826 155.508C162.199 155.041 162.498 154.579 162.722 154.122ZM179.382 152.68C179.382 151.681 179.508 150.767 179.76 149.936C180.012 149.105 180.348 148.359 180.768 147.696C181.188 147.033 181.645 146.455 182.14 145.96L183.47 146.548C183.003 147.043 182.579 147.598 182.196 148.214C181.823 148.821 181.524 149.493 181.3 150.23C181.076 150.967 180.964 151.784 180.964 152.68C180.964 153.567 181.076 154.383 181.3 155.13C181.524 155.867 181.823 156.539 182.196 157.146C182.579 157.753 183.003 158.308 183.47 158.812L182.14 159.4C181.645 158.905 181.188 158.327 180.768 157.664C180.348 157.001 180.012 156.255 179.76 155.424C179.508 154.593 179.382 153.679 179.382 152.68ZM191.1 146.814H192.752V150.902C192.752 151.509 192.729 152.181 192.682 152.918C192.635 153.655 192.547 154.407 192.416 155.172C192.285 155.928 192.094 156.665 191.842 157.384C191.59 158.093 191.259 158.733 190.848 159.302C190.755 159.199 190.624 159.073 190.456 158.924C190.288 158.784 190.115 158.649 189.938 158.518C189.77 158.387 189.625 158.294 189.504 158.238C189.868 157.715 190.157 157.146 190.372 156.53C190.587 155.914 190.745 155.279 190.848 154.626C190.951 153.963 191.016 153.315 191.044 152.68C191.081 152.045 191.1 151.453 191.1 150.902V146.814ZM191.982 146.814H198.758V148.396H191.982V146.814ZM191.898 150.468H197.512V152.008H191.898V150.468ZM193.704 151.434C193.993 152.423 194.385 153.343 194.88 154.192C195.375 155.032 195.986 155.765 196.714 156.39C197.451 157.015 198.305 157.501 199.276 157.846C199.155 157.958 199.019 158.098 198.87 158.266C198.73 158.434 198.595 158.607 198.464 158.784C198.343 158.971 198.235 159.134 198.142 159.274C197.106 158.845 196.21 158.271 195.454 157.552C194.698 156.833 194.054 155.989 193.522 155.018C192.999 154.047 192.561 152.969 192.206 151.784L193.704 151.434ZM197.008 150.468H197.33L197.624 150.412L198.66 150.79C198.399 152.265 197.993 153.557 197.442 154.668C196.901 155.779 196.247 156.721 195.482 157.496C194.717 158.261 193.863 158.863 192.92 159.302C192.855 159.171 192.757 159.017 192.626 158.84C192.495 158.663 192.355 158.49 192.206 158.322C192.066 158.154 191.94 158.028 191.828 157.944C192.724 157.561 193.522 157.048 194.222 156.404C194.931 155.751 195.524 154.962 196 154.038C196.476 153.105 196.812 152.017 197.008 150.776V150.468ZM189.07 146.142L190.638 146.66C190.321 147.444 189.943 148.233 189.504 149.026C189.075 149.81 188.608 150.552 188.104 151.252C187.609 151.943 187.096 152.554 186.564 153.086C186.508 152.946 186.429 152.764 186.326 152.54C186.223 152.316 186.111 152.092 185.99 151.868C185.869 151.644 185.761 151.467 185.668 151.336C186.116 150.916 186.55 150.431 186.97 149.88C187.399 149.329 187.791 148.732 188.146 148.088C188.501 147.444 188.809 146.795 189.07 146.142ZM187.712 150.02L189.308 148.424V148.438V159.232H187.712V150.02ZM205.618 152.68C205.618 153.679 205.492 154.593 205.24 155.424C204.988 156.255 204.652 157.001 204.232 157.664C203.821 158.327 203.364 158.905 202.86 159.4L201.53 158.812C201.997 158.308 202.417 157.753 202.79 157.146C203.173 156.539 203.476 155.867 203.7 155.13C203.924 154.383 204.036 153.567 204.036 152.68C204.036 151.784 203.924 150.967 203.7 150.23C203.476 149.493 203.173 148.821 202.79 148.214C202.417 147.598 201.997 147.043 201.53 146.548L202.86 145.96C203.364 146.455 203.821 147.033 204.232 147.696C204.652 148.359 204.988 149.105 205.24 149.936C205.492 150.767 205.618 151.681 205.618 152.68Z" fill="#2C837B"/>
<path d="M212.907 128L217.814 136.5H208L212.907 128Z" fill="#F1F7F6"/>
<path d="M196.943 92.751L189.134 100.608C188.89 100.852 188.995 101.268 189.325 101.369L197.273 103.705C198.245 103.993 199.006 104.749 199.289 105.721L201.63 113.673C201.726 114.004 202.142 114.109 202.386 113.87L215.749 100.675" fill="#77C8B7"/>
<path d="M196.943 92.751L189.134 100.608C188.89 100.852 188.995 101.268 189.325 101.369L197.273 103.705C198.245 103.993 199.006 104.749 199.289 105.721L201.63 113.673C201.726 114.004 202.142 114.109 202.386 113.87L215.749 100.675" stroke="#77C8B7" stroke-width="2" stroke-miterlimit="10" stroke-linecap="round"/>
<path d="M234.753 92.5352L242.82 100.602C243.064 100.847 242.959 101.263 242.629 101.364L234.681 103.7C233.709 103.987 232.948 104.744 232.665 105.716L230.329 113.668C230.233 113.999 229.817 114.104 229.572 113.865L216.301 100.674" fill="#77C8B7"/>
<path d="M234.753 92.5352L242.82 100.602C243.064 100.847 242.959 101.263 242.629 101.364L234.681 103.7C233.709 103.987 232.948 104.744 232.665 105.716L230.329 113.668C230.233 113.999 229.817 114.104 229.572 113.865L216.301 100.674" stroke="#77C8B7" stroke-width="2" stroke-miterlimit="10" stroke-linecap="round"/>
<path d="M216 101C230.359 101 242 89.3594 242 75C242 60.6406 230.359 49 216 49C201.641 49 190 60.6406 190 75C190 89.3594 201.641 101 216 101Z" fill="#01A784"/>
<circle cx="196" cy="66" r="1" fill="white"/>
<path d="M206.5 54.5C203.5 55.5 199 59 197.5 62.5" stroke="white" stroke-width="2" stroke-miterlimit="10" stroke-linecap="round"/>
<path d="M216.991 66.5812L218.887 70.1972C219.26 70.9045 219.976 71.3965 220.809 71.5102L225.05 72.0914C225.959 72.2144 226.322 73.266 225.665 73.8687L222.595 76.6822C221.993 77.2326 221.718 78.029 221.862 78.807L222.588 82.7798C222.742 83.6315 221.793 84.2803 220.979 83.8775L217.187 82.0018C216.445 81.6328 215.555 81.6328 214.813 82.0018L211.021 83.8775C210.207 84.2803 209.258 83.6315 209.412 82.7798L210.138 78.807C210.278 78.029 210.004 77.2326 209.405 76.6822L206.335 73.8687C205.678 73.266 206.041 72.2144 206.95 72.0914L211.191 71.5102C212.021 71.3965 212.74 70.9045 213.113 70.1972L215.009 66.5812C215.415 65.8063 216.592 65.8063 216.997 66.5812H216.991Z" fill="white"/>
</svg>
