<svg width="129" height="98" viewBox="0 0 129 98" fill="none" xmlns="http://www.w3.org/2000/svg">
<path d="M121.194 0.665039C120.449 4.73349 117.569 8.5131 114.665 9.16504C117.389 9.94902 120.449 13.5883 121.194 17.665C121.938 13.5966 124.663 10.0481 127.665 9.16504C124.564 8.14174 121.938 4.74174 121.194 0.665039Z" stroke="#01A784" stroke-width="1.33" stroke-linecap="round" stroke-linejoin="round"/>
<path d="M6.18933 80.665C5.55938 84.0155 3.12256 87.1281 0.665039 87.665C2.97026 88.3107 5.55938 91.3078 6.18933 94.665C6.81929 91.3146 9.12445 88.3922 11.665 87.665C9.04138 86.8223 6.81929 84.0223 6.18933 80.665Z" stroke="#01A784" stroke-width="1.33" stroke-linecap="round" stroke-linejoin="round"/>
<path d="M34.5111 21.6656C35.7077 21.6656 36.8742 21.3137 37.8597 20.65C38.8552 19.9863 39.6296 19.041 40.0821 17.9449C40.5346 16.8388 40.6553 15.6321 40.424 14.4555C40.1927 13.2891 39.6195 12.2131 38.7748 11.3684C37.9301 10.5237 36.8541 9.95049 35.6876 9.71921C34.5211 9.48792 33.3044 9.60859 32.1982 10.0611C31.0921 10.5136 30.1569 11.2879 29.4932 12.2835C28.8295 13.279 28.4775 14.4455 28.4775 15.6321C28.4775 17.231 29.1111 18.7695 30.2474 19.8958C31.3837 21.0221 32.9122 21.6656 34.5111 21.6656Z" fill="#01A784"/>
<path d="M25.751 88.5986V94.4914L33.9063 94.4713V88.7998L25.751 88.5986Z" fill="#01A784"/>
<mask id="mask0_686_171" style="mask-type:luminance" maskUnits="userSpaceOnUse" x="4" y="1" width="32" height="96">
<path d="M34.5713 58.843C34.5009 58.7022 34.5713 1.66504 34.5713 1.66504H4.66504V96.8644H35.3356L34.5713 58.843Z" fill="white"/>
</mask>
<g mask="url(#mask0_686_171)">
<path d="M6.8877 9.99117L24.6867 34.95C25.3906 35.9053 25.7627 37.0617 25.7627 38.2483V89.4832C25.7627 90.5692 26.1951 91.605 26.9593 92.3693C27.7236 93.1335 28.7593 93.5659 29.8454 93.5659C30.9314 93.5659 31.9672 93.1335 32.7314 92.3693C33.4957 91.605 33.9281 90.5692 33.9281 89.4832V58.692H35.2454V89.4832C35.2756 90.5391 35.7281 91.5447 36.4823 92.2788C37.2465 93.0128 38.2622 93.4251 39.318 93.4251C40.3739 93.4251 41.3896 93.0128 42.1538 92.2788C42.9181 91.5447 43.3605 90.5391 43.3907 89.4832V38.2483C43.3907 37.0617 43.7728 35.9053 44.4667 34.95L60.4958 13.0381C60.9885 12.3744 61.1897 11.5498 61.069 10.7353C60.9483 9.92078 60.5059 9.1867 59.8522 8.69396C59.1885 8.20122 58.3639 8.0001 57.5494 8.12077C56.7349 8.24144 56.0008 8.6839 55.5081 9.33754L47.222 20.5197C46.1862 21.9175 44.8287 23.0639 43.27 23.8482C41.7113 24.6326 39.9918 25.0449 38.2521 25.0449H30.9113C29.1716 25.0449 27.4521 24.6326 25.8934 23.8482C24.3347 23.0639 22.9872 21.9275 21.9414 20.5298L10.8397 6.16992" fill="#01A784"/>
</g>
<path d="M43.2579 88.5986V94.4914L35.1025 94.4713V88.7998L43.2579 88.5986Z" fill="#01A784"/>
<mask id="mask1_686_171" style="mask-type:luminance" maskUnits="userSpaceOnUse" x="33" y="1" width="32" height="96">
<path d="M34.441 58.843C34.5013 58.7022 34.441 1.66504 34.441 1.66504H64.3473V96.8644H33.6768L34.441 58.843Z" fill="white"/>
</mask>
<g mask="url(#mask1_686_171)">
<path d="M58.1715 6.16992L47.0798 20.5398C46.044 21.9376 44.6865 23.0739 43.1278 23.8583C41.5692 24.6426 39.8496 25.0549 38.1099 25.0549H30.7691C29.0294 25.0549 27.3099 24.6426 25.7512 23.8583C24.1925 23.0739 22.845 21.9376 21.7992 20.5298L13.5132 9.34759C13.0204 8.6839 12.2863 8.2515 11.4718 8.13083C10.6573 8.01015 9.83268 8.22133 9.16899 8.70401C8.5053 9.19675 8.0729 9.93084 7.95223 10.7454C7.83156 11.5599 8.04273 12.3845 8.52541 13.0482L24.5546 34.96C25.2585 35.9153 25.6305 37.0718 25.6305 38.2584V89.4933C25.6607 90.5491 26.1132 91.5547 26.8674 92.2888C27.6317 93.0229 28.6473 93.4352 29.7032 93.4352C30.7591 93.4352 31.7747 93.0229 32.5389 92.2888C33.3032 91.5547 33.7457 90.5491 33.7758 89.4933V58.702H35.0932V89.4933C35.0932 90.5793 35.5256 91.6151 36.2898 92.3793C37.0541 93.1436 38.0898 93.576 39.1759 93.576C40.2619 93.576 41.2977 93.1436 42.0619 92.3793C42.8262 91.6151 43.2586 90.5793 43.2586 89.4933V38.2584C43.2586 37.0718 43.6306 35.9153 44.3345 34.96L62.1335 10.0012" fill="#01A784"/>
</g>
<path d="M90.683 22.6324C91.8796 22.6324 93.0461 22.2805 94.0316 21.6168C95.0271 20.9531 95.8014 20.0078 96.2539 18.9117C96.7065 17.8056 96.8271 16.5989 96.5958 15.4223C96.3646 14.2559 95.7914 13.1799 94.9467 12.3352C94.102 11.4905 93.026 10.9173 91.8595 10.686C90.693 10.4547 89.4763 10.5754 88.3701 11.0279C87.264 11.4804 86.3288 12.2547 85.6651 13.2503C85.0014 14.2458 84.6494 15.4123 84.6494 16.5989C84.6494 17.3933 84.8003 18.1777 85.112 18.9117C85.4137 19.6458 85.8561 20.3095 86.4193 20.8727C86.9824 21.4358 87.6461 21.8782 88.3802 22.1799C89.1142 22.4816 89.8986 22.6425 90.693 22.6425L90.683 22.6324Z" fill="#01A784"/>
<path d="M89.7972 95.5373L83.3916 95.5474V87.6434L89.7972 87.6133V95.5373Z" fill="#01A784"/>
<mask id="mask2_686_171" style="mask-type:luminance" maskUnits="userSpaceOnUse" x="59" y="2" width="32" height="96">
<path d="M59.3174 25.0453V97.0759H90.4907V2.6709H59.4381L59.3174 25.0453Z" fill="white"/>
</mask>
<g mask="url(#mask2_686_171)">
<path d="M69.7979 8.63389L82.9208 39.0229L75.1174 66.7068H83.4035V89.8254C83.4035 90.6701 83.7454 91.4846 84.3387 92.088C84.9421 92.6913 85.7566 93.0232 86.6013 93.0232C87.446 93.0232 88.2605 92.6813 88.8639 92.088C89.4672 91.4846 89.7991 90.6701 89.7991 89.8254V66.7068H90.9455V89.8254C90.9455 90.6701 91.2874 91.4846 91.8807 92.088C92.484 92.6913 93.2985 93.0232 94.1432 93.0232C94.9879 93.0232 95.8025 92.6813 96.4058 92.088C97.0092 91.4846 97.341 90.6701 97.341 89.8254V66.7068H105.617L97.8136 39.0229L109.961 11.4495C110.243 10.7557 110.243 9.98138 109.951 9.28752C109.66 8.59366 109.106 8.05064 108.423 7.75902C108.081 7.61824 107.719 7.53779 107.347 7.53779C106.975 7.53779 106.613 7.60818 106.271 7.74897C105.929 7.88975 105.617 8.09087 105.356 8.35232C105.094 8.61378 104.893 8.92551 104.752 9.26741L99.2919 21.4954C98.6583 22.9133 97.6226 24.12 96.3254 24.9647C95.0181 25.8094 93.4997 26.2619 91.951 26.2619H88.8035C87.2449 26.2619 85.7264 25.8094 84.4292 24.9647C83.1219 24.12 82.0962 22.9133 81.4627 21.4954L74.0716 6.43164" fill="#01A784"/>
</g>
<path d="M91.1885 95.5373L97.5941 95.5474V87.6434L91.1885 87.6133V95.5373Z" fill="#01A784"/>
<mask id="mask3_686_171" style="mask-type:luminance" maskUnits="userSpaceOnUse" x="90" y="2" width="32" height="96">
<path d="M121.667 25.0453V97.0759H90.4932V2.6709H121.546L121.667 25.0453Z" fill="white"/>
</mask>
<g mask="url(#mask3_686_171)">
<path d="M106.916 6.43164L99.5453 21.5055C98.9118 22.9233 97.876 24.1301 96.5788 24.9748C95.2716 25.8195 93.7531 26.272 92.2045 26.272H89.057C87.4983 26.272 85.9799 25.8195 84.6827 24.9748C83.3754 24.1301 82.3497 22.9233 81.7162 21.5055L76.2558 9.27747C76.115 8.93556 75.9139 8.62383 75.6525 8.36238C75.391 8.10092 75.0793 7.8998 74.7374 7.75902C74.3955 7.61824 74.0335 7.54785 73.6614 7.54785C73.2893 7.54785 72.9273 7.6283 72.5854 7.76908C71.8915 8.05064 71.3385 8.60372 71.0569 9.29758C70.7653 9.99144 70.7653 10.7657 71.0468 11.4596L83.1944 39.0329L75.391 66.7169H83.667V89.8354C83.667 90.6801 84.0089 91.4947 84.6022 92.098C85.2056 92.7014 86.0201 93.0332 86.8648 93.0332C87.7095 93.0332 88.524 92.6913 89.1274 92.098C89.7307 91.4947 90.0626 90.6801 90.0626 89.8354V66.7169H91.209V89.8354C91.209 90.6801 91.5509 91.4947 92.1442 92.098C92.7475 92.7014 93.5621 93.0332 94.4067 93.0332C95.2514 93.0332 96.066 92.6913 96.6693 92.098C97.2727 91.4947 97.6045 90.6801 97.6045 89.8354V66.7169H105.891L98.0872 39.0329L111.21 8.64394" fill="#01A784"/>
</g>
</svg>
