<svg width="126" height="128" viewBox="0 0 126 128" fill="none" xmlns="http://www.w3.org/2000/svg">
<mask id="mask0_3652_11241" style="mask-type:alpha" maskUnits="userSpaceOnUse" x="0" y="0" width="126" height="128">
<rect width="126" height="128" fill="#FF0000"/>
</mask>
<g mask="url(#mask0_3652_11241)">
<path d="M23.0076 25.3117C27.2358 25.3117 30.6675 21.8799 30.6675 17.6599C30.6675 13.44 27.2358 10 23.0076 10C18.7794 10 15.3477 13.4318 15.3477 17.6517C15.3477 21.8717 18.7712 25.3035 23.0076 25.3035V25.3117Z" fill="#01A784"/>
<path d="M23.6366 28.0947H13.1524C12.2411 28.0947 11.4448 28.7105 11.2231 29.5972L0 73.3976L6.87999 74.9657L13.1196 49.5229L10.9604 118.356H19.6794L22.8485 71.6817H24.433" fill="#01A784"/>
<path d="M22.371 28.0947H32.8552C33.7665 28.0947 34.5629 28.7105 34.7845 29.5972L45.9994 73.3976L39.1194 74.9657L32.8798 49.5229L35.039 118.356H26.32L23.1509 71.6817H21.5664" fill="#01A784"/>
<path d="M102.633 25.3117C106.861 25.3117 110.293 21.8799 110.293 17.6599C110.293 13.44 106.861 10 102.633 10C98.4044 10 94.9727 13.4318 94.9727 17.6517C94.9727 21.8717 98.3962 25.3035 102.633 25.3035V25.3117Z" fill="#01A784"/>
<path d="M102.968 28.1792H92.4841C91.5728 28.1792 90.7764 28.7949 90.5547 29.6816L79.3398 73.482L86.2198 75.0501L92.4594 49.6073L90.3002 118.44H99.0192L102.188 71.7661H103.773" fill="#01A784"/>
<path d="M93.1093 49.599L86.6562 87.7263H103.889V49.4595L93.1093 49.599Z" fill="#01A784"/>
<path d="M102.305 28.1792H112.789C113.7 28.1792 114.496 28.7949 114.718 29.6816L125.933 73.482L119.053 75.0501L112.813 49.6073L114.973 118.44H106.254L103.085 71.7661H101.5" fill="#01A784"/>
<path d="M112.163 49.599L118.608 87.7263H101.375V49.4595L112.163 49.599Z" fill="#01A784"/>
<path d="M62.6119 54.9285C66.0417 54.9285 68.8255 52.1432 68.8255 48.7183C68.8255 45.2934 66.0417 42.5015 62.6119 42.5015C59.1822 42.5015 56.3984 45.2867 56.3984 48.7116C56.3984 52.1366 59.1755 54.9218 62.6119 54.9218V54.9285Z" fill="#01A784"/>
<path d="M63.5045 56.9771H55.2648C54.5486 56.9771 53.9227 57.461 53.7485 58.1578L46.8398 88.7578L52.247 89.9902L55.239 73.8179L53.542 118.356H60.3944L62.8851 91.2329H64.1304" fill="#01A784"/>
<path d="M62.5112 56.9771H70.751C71.4672 56.9771 72.0931 57.461 72.2673 58.1578L79.1695 88.7578L73.7623 89.9902L70.7703 73.8179L72.4673 118.356H65.6149L63.1242 91.2329H61.8789" fill="#01A784"/>
</g>
</svg>
