<svg width="141" height="128" viewBox="0 0 141 128" fill="none" xmlns="http://www.w3.org/2000/svg">
<path d="M31.9543 31.964C26.8852 31.964 22.7588 27.8692 22.7588 22.8261C22.7588 17.783 26.8748 13.6777 31.9543 13.6777C37.0338 13.6777 41.1392 17.7726 41.1392 22.8157C41.1392 27.8587 37.0233 31.9536 31.9543 31.9536V31.964Z" fill="#01A784"/>
<path d="M50.2504 51.1248L58.7232 94.8035L81.649 92.8238V102.858L53.4342 106.057C53.4342 106.057 50.0933 107.453 47.674 105.723C45.2651 104.004 44.5111 100.43 44.5111 100.43L41.1178 88.7915L31.3986 100.055L13.4162 128H1.07874C1.07874 128 18.6213 94.0012 19.6791 92.5112L34.7815 70.2551L30.6341 57.439C25.3975 63.4303 10.4313 62.5759 0 52.198L4.04265 46.3631C12.0861 52.5106 22.0565 57.116 27.3036 45.4357C28.3824 43.0392 29.2202 39.0173 30.4456 35.3079C30.6446 34.714 31.1368 34.2451 31.7861 34.2451H31.9432C51.7795 34.2451 67.0598 47.2696 73.5323 64.7744L67.0808 68.7859C63.6456 61.1692 57.6863 54.9383 50.2504 51.1352V51.1248Z" fill="#01A784"/>
<path d="M106.752 12.4588C103.321 12.4588 100.528 9.66888 100.528 6.23295C100.528 2.79702 103.314 0 106.752 0C110.191 0 112.97 2.78992 112.97 6.22585C112.97 9.66178 110.184 12.4517 106.752 12.4517V12.4588Z" fill="#01A784"/>
<path d="M119.136 25.5141L124.872 55.2732L140.391 53.9244V60.7608L121.291 62.9402C121.291 62.9402 119.03 63.8915 117.392 62.713C115.762 61.5417 115.251 59.1067 115.251 59.1067L112.954 51.1771L106.375 58.8512L94.2023 77.8908H85.8508C85.8508 77.8908 97.7258 54.7266 98.4419 53.7115L108.665 38.5479L105.858 29.8161C102.313 33.8981 92.1818 33.3159 85.1206 26.2453L87.8572 22.2698C93.3019 26.4583 100.051 29.596 103.603 21.638C104.333 20.0053 104.9 17.265 105.73 14.7378C105.865 14.3331 106.198 14.0137 106.637 14.0137H106.744C120.171 14.0137 130.515 22.8875 134.896 34.8138L130.529 37.547C128.204 32.3576 124.17 28.1124 119.136 25.5212V25.5141Z" fill="#01A784"/>
</svg>
