<svg xmlns="http://www.w3.org/2000/svg" width="189.999" height="18.97" viewBox="0 0 189.999 18.97"><defs><style>.a{fill:#fff;}</style></defs><path class="a" d="M223.394,2628.985l-1.153-2.532h5.087c2.88,0,4.02-2.209,4.02-4.6v-9.239h-3.587v3.362a6.3,6.3,0,0,1-3.079,5.16h-2.891a7.288,7.288,0,0,0,1.573-4.441v-6.585h12.261v11.875c0,4.767-3.325,7-7.839,7Zm-43.4,0-1.034-2.532h5.176c2.621,0,3.818-2.209,3.818-4.6v-9.239h-3.578v3.362a6.3,6.3,0,0,1-3.09,5.16h-2.893a7.254,7.254,0,0,0,1.579-4.441v-6.585h8.891a4.609,4.609,0,0,0,.926,2.028v-2.052h2.154v2.066h-2.129a3.05,3.05,0,0,0,2.419.923v8.911c0,4.767-3.7,7-7.835,7Zm-27.585-.005V2625.3h-1.638a6.847,6.847,0,0,1-2.059,2.858h-2.747a13.051,13.051,0,0,0,1.823-6.76V2614h-1.256v-2.146h5.877v-1.78h3.533v1.78h5.915V2614h-1.236v7.395a13.021,13.021,0,0,0,1.833,6.76h-2.745a6.843,6.843,0,0,1-2.063-2.858h-1.7v3.683Zm3.533-5.833h1.119c-.006-.058-.014-.135-.014-.2V2614h-1.1Zm-4.574-.2c0,.061-.012.139-.014.2h1.054V2614h-1.04Zm60.466,6.008-.88-1.936h2.771c2.24,0,3.56-1.032,3.56-3.848l-.008-4.277h3.56v4.3c0,3.254-1.826,5.763-5.644,5.763Zm23.746-1.588c3.764-1.118,8.793-3.064,8.793-10.506v-4.285h-6.608v-2.472h11.318v5.008a15.439,15.439,0,0,1-1.351,6.486l3.639,7.313H247l-1.9-3.681a15.317,15.317,0,0,1-8.461,3.715ZM130,2628.949v-18.834h14.362v18.834Zm3.83-2.5h6.734v-6.03h-6.734Zm0-8.336h6.734v-5.553h-6.734ZM287.76,2628.94l-.837-3.364h2.545l.771-3.174h-3.313v-2.015H301.5v2.015h-7.147l-.771,3.179a4.168,4.168,0,0,0,3.158-.768l-.492-1.536h3.376l1.765,5.658h-3.277l-.638-1.89a7.785,7.785,0,0,1-5.008,1.9Zm22.6-.005v-2.069h3.087v-11.078h-2.165v-2.075h2.165v-3.7H317.1v3.7h2.464v2.075H317.1v11.078H320v2.069Zm-4.875,0v-6.693h-2.27l3.36-7.67h-3.02v-2.065h1.93v-2.491h3.657v2.62h2.219l-2.294,5.549,2.512,2.263v2.9l-2.436-2.046v7.634Zm-23.106,0c-1.339-2.434-3.637-9.771-4.737-14.769h-7.21v-2.08h6.8a13.948,13.948,0,0,1-.212-2.009h4.433l.365,2.009h3.191v2.08H282.2l2.668,14.769Zm-11.97,0v-3.645H272.3V2618.9h-1.87v-2.068h7.409v2.068h-1.909v6.382a5.048,5.048,0,0,0,2.962-1.341v2.506c-1.053,2.072-3.443,2.49-5.384,2.49Zm-106.641,0V2624.8h5.7c1.583,0,4.3-.906,4.3-4.632v-9.878l3.123.582v11.261c0,4.25-3.234,6.8-7.387,6.8Zm36.844-.019-4.6-10.263h4.109l1.949,4.343a3.458,3.458,0,0,0,3.708-3.342l.014-7.116H196v-2.453H210.01v9.812c0,3.64-3.763,4.988-7.047,5.1l1.768,3.919Zm61.563-.024v-6.119a24.448,24.448,0,0,1-2.815,4.3h-1.926a30.2,30.2,0,0,0,2.852-8.219h-1.9v-2.068h3.788v-2.35H261.1a6.369,6.369,0,0,1-.644,1.662H258.4a22.984,22.984,0,0,0,1.122-5.336h2.133a14.656,14.656,0,0,1-.138,1.6h.658v-2.253h3.2v2.253h3.153v2.074h-3.153v2.35h3.581v2.068h-2.209a28.635,28.635,0,0,0,2.775,8.219h-1.94a30.471,30.471,0,0,1-2.207-3.15v4.969Zm-8.088,0v-5.545a7.547,7.547,0,0,1-1.528,1.845h-1.9a16.32,16.32,0,0,0,2.59-8.2v-2.556h-1.546v-2.074h2.383v-2.253H257.3v2.253h1.327v2.074H257.3v.35a20.03,20.03,0,0,0,1.629,6.328H257.3v7.778Zm-40.079-5.731v-4.5h2.2v4.5Zm-2.9,0v-4.5h2.2v4.5Zm-47.443-3.957v-3.772c1.507.112,5.989,1.422,7.6,3.22v2Zm123.263-.133v-2.011H301.5v2.011Zm12.7-3.444a7.407,7.407,0,0,1-5.225-1.864,7.462,7.462,0,0,1-5.242,1.864h-2.051l-.679-1.864,1.64-.036c3.107,0,4.156-1.876,4.156-3.681h4.336c0,1.8,1.056,3.681,4.158,3.681l1.642.036-.687,1.864Zm-135.967-1.85v-3.762c1.507.1,5.989,1.417,7.6,3.207v2.011Zm28.973-1.626v-2.07h2.16v2.07Zm89.77-.83v-1.24h2.6v1.24Z" transform="translate(-130 -2610.014)"/></svg>