<svg width="18" height="13" viewBox="0 0 18 13" fill="none" xmlns="http://www.w3.org/2000/svg">
<path d="M2.06901 2.83508L8.65621 7.11456C8.74961 7.17553 8.85468 7.20407 8.95716 7.20407C8.96754 7.20407 8.97792 7.20277 8.9883 7.20277C8.99867 7.20277 9.00905 7.20407 9.01943 7.20407C9.12321 7.20407 9.22698 7.17553 9.32038 7.11456L15.9076 2.83508C16.1644 2.66775 16.2371 2.32528 16.071 2.06844C15.905 1.81159 15.5612 1.73895 15.3044 1.90499L8.9883 6.00805L2.67221 1.90629C2.41536 1.74024 2.0729 1.81289 1.90556 2.06973C1.73822 2.32658 1.81216 2.66904 2.06901 2.83638V2.83508Z" fill="#EE892A"/>
<path d="M17.4474 0H0.553906C0.247766 0 0 0.247766 0 0.553906V11.7592C0 12.0653 0.247766 12.3131 0.553906 12.3131H17.4461C17.7522 12.3131 18 12.0653 18 11.7592V0.553906C18 0.247766 17.7522 0 17.4461 0H17.4474ZM16.8922 11.2052H1.10781V1.10781H16.8922V11.2052Z" fill="#EE892A"/>
</svg>
