<svg width="14" height="17" viewBox="0 0 14 17" fill="none" xmlns="http://www.w3.org/2000/svg">
<path d="M12.8965 16.2996C13.1095 16.2996 13.2998 16.1415 13.2998 15.9255V2.92554C13.2998 2.80792 13.24 2.70824 13.1553 2.64136L13.1562 2.64038C13.1491 2.63286 13.1419 2.62448 13.1348 2.61694L13.1309 2.61401L10.6328 0.2146V0.213623C10.5384 0.124094 10.4079 0.0888102 10.2852 0.105225C10.2687 0.103608 10.2542 0.101318 10.2451 0.101318H0.503906C0.290916 0.101318 0.100586 0.260393 0.100586 0.476318V15.9255C0.100586 16.1415 0.290916 16.2996 0.503906 16.2996H12.8965ZM0.907227 0.849365H9.8418V2.92651C9.84193 3.14217 10.0324 3.3003 10.2451 3.30054H12.4922V15.5515H0.907227V0.849365ZM10.6494 1.3103L11.9443 2.55249H10.6494V1.3103ZM10.5508 6.12573C10.7636 6.12555 10.9541 5.9675 10.9541 5.75171C10.9541 5.53591 10.7636 5.37787 10.5508 5.37769H2.99414C2.78129 5.37786 2.59082 5.5359 2.59082 5.75171C2.59083 5.9675 2.7813 6.12556 2.99414 6.12573H10.5508ZM10.5508 7.87671C10.7635 7.87652 10.9538 7.71824 10.9541 7.50269C10.9541 7.28689 10.7636 7.12787 10.5508 7.12769H2.99414C2.78129 7.12786 2.59082 7.28688 2.59082 7.50269C2.5911 7.71825 2.78145 7.87653 2.99414 7.87671H10.5508ZM10.5508 9.62573C10.7636 9.62555 10.9541 9.46747 10.9541 9.25171C10.9541 9.03591 10.7636 8.87787 10.5508 8.87769H2.99414C2.78129 8.87786 2.59082 9.0359 2.59082 9.25171C2.59087 9.46747 2.78132 9.62556 2.99414 9.62573H10.5508ZM10.5508 11.3767C10.7636 11.3765 10.9541 11.2175 10.9541 11.0017C10.9538 10.7861 10.7635 10.6279 10.5508 10.6277H2.99414C2.78144 10.6279 2.59108 10.7861 2.59082 11.0017C2.59082 11.2175 2.78129 11.3765 2.99414 11.3767H10.5508ZM10.5508 13.1267C10.7636 13.1265 10.9541 12.9685 10.9541 12.7527C10.9541 12.5369 10.7636 12.3788 10.5508 12.3787H2.99414C2.78129 12.3788 2.59082 12.5369 2.59082 12.7527C2.59083 12.9685 2.7813 13.1265 2.99414 13.1267H10.5508Z" fill="#1460A7" stroke="black" stroke-width="0.2"/>
</svg>
