<svg width="117" height="33" viewBox="0 0 117 33" fill="none" xmlns="http://www.w3.org/2000/svg">
<path d="M0.161793 31.7714C0.110223 31.76 0.0649716 31.7293 0.0353834 31.6856C0.00579533 31.6419 -0.00587061 31.5885 0.00279258 31.5364C0.0172014 31.4858 0.0487049 31.4418 0.0919268 31.4119C0.135149 31.382 0.18741 31.368 0.239792 31.3724C4.73005 31.6906 9.24275 31.3626 13.6398 30.3984C20.5138 28.9204 30.2158 25.2204 37.2898 15.8984C37.3078 15.871 37.3323 15.8485 37.3611 15.8328C37.3898 15.8171 37.422 15.8087 37.4548 15.8084H44.1548C44.1934 15.8079 44.2314 15.8174 44.2652 15.836C44.299 15.8546 44.3275 15.8816 44.3478 15.9144C44.3648 15.948 44.3719 15.9857 44.3684 16.0233C44.3648 16.0608 44.3507 16.0965 44.3278 16.1264C36.2618 28.1964 24.6818 31.8064 16.3858 32.7074C14.6382 32.8959 12.8816 32.9894 11.1238 32.9874C7.43456 33.0171 3.75483 32.6089 0.161793 31.7714ZM23.3418 15.6064C23.3026 15.6071 23.264 15.597 23.2301 15.5773C23.1963 15.5575 23.1685 15.5288 23.1498 15.4944C23.132 15.4613 23.1238 15.4239 23.1263 15.3864C23.1288 15.3489 23.1418 15.3128 23.1638 15.2824C28.2172 8.08895 35.7582 3.02458 44.3288 1.06837C48.1929 0.123099 52.1833 -0.197958 56.1488 0.117368C56.1983 0.123464 56.244 0.146897 56.2779 0.183509C56.3118 0.220121 56.3316 0.267545 56.3338 0.317369C56.3336 0.368426 56.3147 0.417635 56.2805 0.455623C56.2464 0.493611 56.1995 0.517723 56.1488 0.523368C55.9738 0.547368 38.2698 3.10737 29.9228 15.5144C29.9011 15.5413 29.8739 15.5632 29.843 15.5788C29.8122 15.5943 29.7783 15.603 29.7438 15.6044L23.3418 15.6064Z" fill="#01A784"/>
<path d="M72.4499 26.6874V13.8414C72.4499 11.4294 73.7009 10.1954 76.1729 10.1954C78.6449 10.1954 79.8939 11.4294 79.8939 13.8414V16.8274H77.1799V13.5954C77.1799 12.9604 77.0519 12.3094 76.1739 12.3094C75.3229 12.3094 75.2019 12.9254 75.2019 13.5954V26.8824C75.2019 27.5634 75.3229 28.1974 76.1739 28.1974C77.0519 28.1974 77.1799 27.5214 77.1799 26.8824V23.0354H76.3249V20.8424H79.8949V29.9794H78.5519C78.4989 29.8584 78.1949 29.0424 78.1949 29.0424L78.0739 29.2674C77.5249 30.2674 76.7739 30.4674 75.4589 30.4674C73.4609 30.4674 72.4499 29.1994 72.4499 26.6874ZM56.3239 26.7704V23.2124H59.0399V26.8814C59.0399 27.5624 59.1599 28.1964 60.0099 28.1964C60.8929 28.1964 61.0099 27.5204 61.0099 26.8814V24.8414C61.0086 24.2782 60.8259 23.7305 60.4889 23.2794C60.4889 23.2704 57.1279 18.6494 57.1279 18.6494C56.5585 17.8724 56.2758 16.9222 56.3279 15.9604V13.8404C56.3279 11.4284 57.5679 10.1944 60.0139 10.1944C62.4839 10.1944 63.7289 11.4284 63.7289 13.8404V16.8194H61.0099V13.5954C61.0099 12.9604 60.8929 12.3094 60.0099 12.3094C59.1589 12.3094 59.0399 12.9254 59.0399 13.5954V15.0154C58.9655 15.6904 59.1088 16.3715 59.4489 16.9594L62.6749 21.3134C63.3535 22.1173 63.7258 23.1353 63.7259 24.1874V26.7764C63.7259 29.1944 62.4809 30.4124 60.0109 30.4124C57.5639 30.4084 56.3239 29.1874 56.3239 26.7724V26.7704ZM114.324 29.9984L112.403 22.0874L110.463 29.9974H107.81L110.502 19.7974L108.064 10.6344H110.764L112.408 17.9024L114.027 10.6344H116.75L114.297 19.7974L116.997 29.9974L114.324 29.9984ZM103.357 29.9874L102.816 24.6764H100.295L99.6699 29.9874H97.2699L99.7889 10.6144H103.963L106.157 29.9874H103.357ZM100.546 22.4874H102.588L101.633 12.9774H101.625L100.546 22.4874ZM92.5149 29.9874V16.1064L90.0299 29.9874H87.8489L85.3769 16.0674V29.9874H82.9689V10.5874H86.7799L88.9479 23.2544L91.1029 10.5874H94.9199V29.9874H92.5149ZM66.5529 29.9774V10.6074H69.2629V29.9774H66.5529Z" fill="#434343"/>
</svg>
